<svg width="56" height="43" viewBox="0 0 56 43" fill="none" xmlns="http://www.w3.org/2000/svg">
<path d="M34.7904 36.09H30.7604C30.5604 36.09 30.3604 35.89 30.3604 35.69C30.3604 35.49 30.5604 35.29 30.7604 35.29H34.7904C34.9904 35.29 35.1904 35.49 35.1904 35.69C35.2904 35.89 35.0904 36.09 34.7904 36.09Z" fill="black"/>
<path d="M34.7904 38.6101H30.7604C30.5604 38.6101 30.3604 38.4101 30.3604 38.2101C30.3604 38.0101 30.5604 37.8101 30.7604 37.8101H34.7904C34.9904 37.8101 35.1904 38.0101 35.1904 38.2101C35.1904 38.4101 35.0904 38.6101 34.7904 38.6101Z" fill="black"/>
<path d="M45.3701 42.34H9.98008C9.78008 42.34 9.58008 42.14 9.58008 41.94V28.83C9.58008 28.63 9.68008 28.43 9.88008 28.43L20.3701 24.3C20.5701 24.2 20.8701 24.3 20.9701 24.5L25.0001 31.96L27.3201 29.64C27.5201 29.44 27.7201 29.44 27.9301 29.64L30.0501 31.66L34.3901 24.5C34.4901 24.3 34.6901 24.2 34.8901 24.3L45.3801 28.43C45.5801 28.53 45.6801 28.63 45.6801 28.83V41.84C45.7801 42.14 45.5801 42.34 45.3801 42.34H45.3701ZM10.3901 41.43H44.8701V29.23L34.9901 25.3L30.5501 32.56C30.4501 32.66 30.3501 32.76 30.2501 32.76C30.1501 32.76 29.9501 32.76 29.8501 32.66L27.6301 30.54L25.1101 32.96C25.0101 33.06 24.9101 33.06 24.7101 33.06C24.6101 33.06 24.4101 32.96 24.4101 32.86L20.2801 25.2L10.4001 29.03V41.43H10.3901Z" fill="black"/>
<path d="M39.4203 42.3401H15.9303C15.7303 42.3401 15.5303 42.1401 15.5303 41.9401V33.7701C15.5303 33.5701 15.7303 33.3701 15.9303 33.3701C16.1303 33.3701 16.3303 33.5701 16.3303 33.7701V41.4301H38.9103V33.7701C38.9103 33.5701 39.1103 33.3701 39.3103 33.3701C39.5103 33.3701 39.7103 33.5701 39.7103 33.7701V41.8401C39.8103 42.1401 39.6103 42.3401 39.4103 42.3401H39.4203Z" fill="black"/>
<path d="M27.8302 22.38C21.7802 22.38 18.6602 13.81 18.6602 9.17C18.6602 4.13 22.7902 0 27.8302 0C32.8702 0 37.0002 4.13 37.0002 9.17C37.1002 13.81 33.8702 22.38 27.8302 22.38ZM27.8302 0.9C23.2902 0.9 19.5602 4.63 19.5602 9.17C19.5602 11.59 20.4702 14.61 21.7802 17.03C22.8902 19.05 24.9102 21.47 27.9302 21.47C30.9502 21.47 32.8702 19.05 34.0802 17.03C35.3902 14.71 36.3002 11.59 36.3002 9.17C36.2002 4.63 32.4702 0.9 27.8302 0.9Z" fill="black"/>
<path d="M30.2503 32.7601C30.1503 32.7601 30.0503 32.7601 29.9503 32.6601L27.4303 30.2401C27.2303 30.0401 27.2303 29.8401 27.3303 29.6301L32.4703 22.5701C32.5703 22.4701 32.6703 22.3701 32.7703 22.3701C32.8703 22.3701 33.0703 22.3701 33.0703 22.4701L35.0903 24.2901C35.2903 24.3901 35.2903 24.6901 35.1903 24.8901L30.5503 32.4501C30.5503 32.6501 30.4503 32.7501 30.2503 32.7501V32.7601ZM28.2303 29.9401L30.0403 31.6501L34.1703 24.7901L32.8603 23.5801L28.2203 29.9301L28.2303 29.9401Z" fill="black"/>
<path d="M24.8998 33.1701C24.6998 33.1701 24.5998 33.0701 24.4998 32.9701L20.0598 25.0101C19.9598 24.8101 19.9598 24.6101 20.1598 24.5101L22.1798 22.7001C22.2798 22.6001 22.3798 22.6001 22.4798 22.6001C22.5798 22.6001 22.6798 22.7001 22.7798 22.8001L27.9198 29.8601C28.0198 30.0601 28.0198 30.2601 27.9198 30.4601L25.0998 33.2801C25.0998 33.1801 24.9998 33.1801 24.8998 33.1801V33.1701ZM21.0698 24.8001L24.9998 31.9601L27.1198 29.8401L22.4798 23.4901L21.0698 24.8001Z" fill="black"/>
<path d="M54.8498 28.73H43.6598L34.8898 25.3C34.6898 25.2 34.5898 25.1 34.5898 24.9V21.07C34.5898 20.87 34.6898 20.67 34.8898 20.67L40.7398 18.35C40.9398 18.25 41.2398 18.35 41.3498 18.55L43.4698 22.48L44.5798 21.37C44.7798 21.17 44.9798 21.17 45.1898 21.37L46.1998 22.28L48.5198 18.55C48.6198 18.35 48.8198 18.25 49.0198 18.35L54.8698 20.67C55.0698 20.77 55.1698 20.87 55.1698 21.07V28.33C55.2698 28.53 55.0698 28.73 54.8698 28.73H54.8498ZM43.9598 27.82H54.3398V21.37L49.0998 19.35L46.6798 23.28C46.5798 23.38 46.4798 23.48 46.3798 23.48C46.2798 23.48 46.0798 23.48 45.9798 23.38L44.8698 22.37L43.6598 23.58C43.5598 23.68 43.4598 23.68 43.2598 23.68C43.1598 23.68 42.9598 23.58 42.9598 23.48L40.7398 19.35L35.4998 21.37V24.6L43.9698 27.83L43.9598 27.82Z" fill="black"/>
<path d="M44.9699 17.64C41.4399 17.64 39.6299 12.7 39.6299 10.08C39.6299 7.15999 42.0499 4.73999 44.9699 4.73999C47.8899 4.73999 50.3099 7.15999 50.3099 10.08C50.3099 11.59 49.8099 13.41 48.9999 14.82C47.9899 16.63 46.5799 17.64 44.9699 17.64ZM44.9699 5.63999C42.5499 5.63999 40.5299 7.65999 40.5299 10.08C40.5299 12.3 42.1399 16.73 44.9699 16.73C47.7999 16.73 49.4099 12.29 49.4099 10.08C49.4099 7.55999 47.4899 5.63999 44.9699 5.63999Z" fill="black"/>
<path d="M46.3796 23.38C46.2796 23.38 46.1796 23.38 46.0796 23.28L44.6696 21.97C44.4696 21.77 44.4696 21.57 44.5696 21.37L47.4896 17.44C47.5896 17.34 47.6896 17.24 47.7896 17.24C47.8896 17.24 48.0896 17.24 48.0896 17.34L49.1996 18.35C49.3996 18.45 49.3996 18.75 49.2996 18.96L46.6796 23.19C46.6796 23.29 46.5796 23.39 46.3796 23.39V23.38ZM45.5696 21.57L46.2796 22.28L48.3996 18.85L47.8996 18.45L45.5796 21.58L45.5696 21.57Z" fill="black"/>
<path d="M43.3603 23.5901C43.1603 23.5901 43.0603 23.4901 42.9603 23.3901L40.5403 18.9501C40.4403 18.7501 40.4403 18.5501 40.6403 18.4501L41.7503 17.4401C41.8503 17.3401 41.9503 17.3401 42.0503 17.3401C42.1503 17.3401 42.2503 17.4401 42.3503 17.5401L45.2703 21.4701C45.3703 21.6701 45.3703 21.8701 45.2703 22.0701L43.7603 23.5801H43.3603V23.5901ZM41.5403 18.8501L43.5603 22.4801L44.3703 21.6701L42.0503 18.4401L41.5503 18.8401L41.5403 18.8501Z" fill="black"/>
<path d="M11.39 28.73H0.4C0.2 28.73 0 28.53 0 28.33V21.07C0 20.87 0.0999992 20.67 0.299999 20.67L6.15 18.35C6.35 18.25 6.55 18.35 6.65 18.55L8.97 22.28L9.98 21.37C10.18 21.17 10.48 21.17 10.58 21.37L11.69 22.48L13.81 18.55C13.91 18.35 14.11 18.25 14.41 18.35L20.26 20.67C20.46 20.77 20.56 20.87 20.56 21.07V24.9C20.56 25.1 20.46 25.3 20.26 25.3L11.59 28.73H11.39ZM0.91 27.82H11.29L19.76 24.49V21.26L14.52 19.24L12.3 23.37C12.2 23.47 12.1 23.57 12 23.57C11.9 23.57 11.7 23.57 11.6 23.47L10.39 22.26L9.28 23.27C9.18 23.37 9.08 23.37 8.88 23.37C8.78 23.37 8.58 23.27 8.58 23.17L6.16 19.24L0.92 21.26V27.81L0.91 27.82Z" fill="black"/>
<path d="M10.1798 17.64C6.64984 17.64 4.83984 12.7 4.83984 10.08C4.83984 7.15999 7.25984 4.73999 10.1798 4.73999C13.0998 4.73999 15.5198 7.15999 15.5198 10.08C15.6198 12.7 13.7098 17.64 10.1798 17.64ZM10.1798 5.63999C7.75984 5.63999 5.73984 7.65999 5.73984 10.08C5.73984 12.3 7.34984 16.73 10.1798 16.73C13.0098 16.73 14.6198 12.29 14.6198 10.08C14.7198 7.55999 12.6998 5.63999 10.1798 5.63999Z" fill="black"/>
<path d="M8.87045 23.38C8.67045 23.38 8.57045 23.28 8.47045 23.18L5.95045 18.95C5.85045 18.75 5.85045 18.55 6.05045 18.34L7.16045 17.33C7.26045 17.23 7.36045 17.23 7.46045 17.23C7.56045 17.23 7.66045 17.33 7.76045 17.43L10.6805 21.36C10.7805 21.56 10.7805 21.76 10.5805 21.96L9.17045 23.27C9.07045 23.37 8.97045 23.37 8.87045 23.37V23.38ZM6.86045 18.85L8.98045 22.28L9.69045 21.57L7.37045 18.34L6.87045 18.84L6.86045 18.85Z" fill="black"/>
<path d="M11.8998 23.59C11.7998 23.59 11.6998 23.59 11.5998 23.49L9.98984 21.98C9.78984 21.78 9.78984 21.58 9.98984 21.38L12.9098 17.45C13.0098 17.35 13.1098 17.25 13.2098 17.25C13.3098 17.25 13.5098 17.25 13.5098 17.35L14.6198 18.36C14.8198 18.46 14.8198 18.76 14.7198 18.86L12.2998 23.3C12.1998 23.5 12.0998 23.6 11.8998 23.6V23.59ZM10.8898 21.57L11.6998 22.38L13.7198 18.75L13.2198 18.35L10.8998 21.58L10.8898 21.57Z" fill="black"/>
<path d="M25.2105 9.66992C24.9105 9.66992 24.6105 9.66992 24.3005 9.56992C22.7905 9.26992 21.6805 8.45992 21.0705 7.24992C20.9705 7.04992 21.0705 6.74992 21.2705 6.63992C21.4705 6.53992 21.7705 6.63992 21.8805 6.83992C22.4805 8.04992 23.6905 8.54992 24.5005 8.64992C25.8105 8.84992 27.2205 8.54992 28.0305 7.83992C29.8405 6.12992 30.1505 5.91992 30.5505 6.22992C30.9505 6.42992 30.8505 6.83992 30.7505 7.23992C30.7505 7.33992 30.6505 7.53992 30.6505 7.73992C30.7505 7.73992 30.8505 7.73992 31.0505 7.63992C32.1605 7.23992 33.5705 6.82992 34.5805 7.33992C34.9805 7.53992 35.1805 7.83992 35.3905 8.34992C35.4905 8.54992 35.2905 8.84992 35.0905 8.95992C34.8905 9.06992 34.5905 8.85992 34.4905 8.65992C34.3905 8.45992 34.3905 8.35992 34.1905 8.25992C33.6905 8.05992 32.6805 8.15992 31.4705 8.55992C31.0705 8.65992 30.4605 8.85992 30.0605 8.55992C29.7605 8.35992 29.7605 7.94992 29.7605 7.54992C29.4605 7.74992 29.1605 8.15992 28.5505 8.65992C27.7405 9.26992 26.5305 9.66992 25.2205 9.66992H25.2105Z" fill="black"/>
<path d="M30.0496 12.5999C29.8496 12.5999 29.7496 12.4999 29.6496 12.2999C29.5496 12.0999 29.6496 11.7999 29.8496 11.6899C30.0496 11.5899 31.8696 10.7799 32.8696 11.7899C33.0696 11.9899 33.0696 12.2899 32.8696 12.3899C32.6696 12.5899 32.3696 12.5899 32.2696 12.3899C31.8696 11.9899 30.7596 12.2899 30.2496 12.4899C30.1829 12.5566 30.1163 12.5899 30.0496 12.5899V12.5999Z" fill="black"/>
<path d="M25.6096 12.6H25.4096C25.0096 12.4 23.8996 12.1001 23.3896 12.5001C23.1896 12.7001 22.8896 12.7001 22.7896 12.5001C22.5896 12.3001 22.5896 12 22.7896 11.9C23.7996 10.89 25.6096 11.7001 25.8096 11.8001C26.0096 11.9001 26.1096 12.2 26.0096 12.4C26.0096 12.5 25.8096 12.6 25.6096 12.6Z" fill="black"/>
</svg>
