<svg width="56" height="48" viewBox="0 0 56 48" fill="none" xmlns="http://www.w3.org/2000/svg">
<path d="M43.3496 4.06001H36.2896C36.0896 4.06001 35.8896 3.86001 35.8896 3.66001C35.8896 3.46001 36.0896 3.26001 36.2896 3.26001H43.3496C43.5496 3.26001 43.7496 3.46001 43.7496 3.66001C43.7496 3.86001 43.5496 4.06001 43.3496 4.06001Z" fill="black"/>
<path d="M43.3496 5.98018H36.2896C36.0896 5.98018 35.8896 5.78018 35.8896 5.58018C35.8896 5.38018 36.0896 5.18018 36.2896 5.18018H43.3496C43.5496 5.18018 43.7496 5.38018 43.7496 5.58018C43.7496 5.78018 43.5496 5.98018 43.3496 5.98018Z" fill="black"/>
<path d="M43.3496 7.9001H36.2896C36.0896 7.9001 35.8896 7.7001 35.8896 7.5001C35.8896 7.3001 36.0896 7.1001 36.2896 7.1001H43.3496C43.5496 7.1001 43.7496 7.3001 43.7496 7.5001C43.7496 7.7001 43.5496 7.9001 43.3496 7.9001Z" fill="black"/>
<path d="M28.3303 5.48018H16.4303C16.2303 5.48018 16.0303 5.28018 16.0303 5.08018C16.0303 4.88018 16.2303 4.68018 16.4303 4.68018H28.3303C28.5303 4.68018 28.7303 4.88018 28.7303 5.08018C28.7303 5.28018 28.5303 5.48018 28.3303 5.48018Z" fill="black"/>
<path d="M28.3303 7.39009H16.4303C16.2303 7.39009 16.0303 7.19009 16.0303 6.99009C16.0303 6.79009 16.2303 6.59009 16.4303 6.59009H28.3303C28.5303 6.59009 28.7303 6.79009 28.7303 6.99009C28.7303 7.19009 28.5303 7.39009 28.3303 7.39009Z" fill="black"/>
<path d="M28.3303 9.31001H16.4303C16.2303 9.31001 16.0303 9.11001 16.0303 8.91001C16.0303 8.71001 16.2303 8.51001 16.4303 8.51001H28.3303C28.5303 8.51001 28.7303 8.71001 28.7303 8.91001C28.7303 9.11001 28.5303 9.31001 28.3303 9.31001Z" fill="black"/>
<path d="M23.49 47.62H0.4C0.2 47.62 0 47.42 0 47.22V38.7501C0 38.5501 0.0999992 38.3501 0.299999 38.3501L7.16 35.6301C7.36 35.5301 7.56 35.6301 7.76 35.8301L10.28 40.47L11.69 39.0601C11.89 38.8601 12.09 38.8601 12.29 39.0601L13.5 40.2701L16.22 35.8301C16.32 35.6301 16.52 35.5301 16.72 35.6301L23.58 38.3501C23.78 38.4501 23.88 38.5501 23.88 38.7501V47.22C23.88 47.42 23.68 47.62 23.48 47.62H23.49ZM0.91 46.7101H22.99V39.05L16.84 36.53L14.02 41.1701C13.92 41.2701 13.82 41.37 13.72 41.37C13.62 41.37 13.42 41.37 13.32 41.2701L12.01 40.0601L10.5 41.5701C10.4 41.6701 10.3 41.6701 10.1 41.6701C10 41.6701 9.8 41.57 9.8 41.47L7.08 36.53L0.929998 38.9501V46.7101H0.91Z" fill="black"/>
<path d="M19.5604 47.62H4.34043C4.14043 47.62 3.94043 47.42 3.94043 47.22V41.88C3.94043 41.68 4.14043 41.48 4.34043 41.48C4.54043 41.48 4.74043 41.68 4.74043 41.88V46.72H19.0604V41.88C19.0604 41.68 19.2604 41.48 19.4604 41.48C19.6604 41.48 20.0604 41.58 20.0604 41.88V47.22C20.0604 47.42 19.8604 47.62 19.5604 47.62Z" fill="black"/>
<path d="M12.1002 34.6102C8.0702 34.6102 5.9502 28.9602 5.9502 25.8402C5.9502 22.4102 8.6702 19.6902 12.1002 19.6902C15.5302 19.6902 18.2502 22.4102 18.2502 25.8402C18.2502 28.9702 16.1302 34.6102 12.1002 34.6102ZM12.1002 20.6002C9.1802 20.6002 6.8602 22.9202 6.8602 25.8402C6.8602 28.4602 8.6702 33.7002 12.1002 33.7002C15.5302 33.7002 17.3402 28.5602 17.3402 25.8402C17.3402 23.1202 15.0202 20.6002 12.1002 20.6002Z" fill="black"/>
<path d="M16.4398 25.04C14.9298 25.04 13.4198 24.54 12.4098 23.73C12.2098 23.53 12.2098 23.33 12.3098 23.12C12.5098 22.92 12.7098 22.92 12.9098 23.02C13.8198 23.73 15.0298 24.13 16.3398 24.13C16.7398 24.13 17.0498 24.13 17.4498 24.03C17.6498 24.03 17.9498 24.13 17.9498 24.43C17.9498 24.63 17.8498 24.93 17.5498 24.93C17.2498 25.03 16.8398 25.03 16.4398 25.03V25.04Z" fill="black"/>
<path d="M9.08 24.9402C8.17 24.9402 7.37 24.8402 6.56 24.5402C6.36 24.4402 6.16 24.2402 6.26 23.9402C6.36 23.7402 6.56 23.5402 6.86 23.6402C7.57 23.9402 8.37 24.0402 9.08 24.0402C11.6 24.0402 13.72 22.6302 13.72 20.8102C13.72 20.6102 13.92 20.4102 14.12 20.4102C14.32 20.4102 14.52 20.6102 14.52 20.8102C14.62 23.1302 12.1 24.9402 9.08 24.9402Z" fill="black"/>
<path d="M13.6103 41.3701C13.5103 41.3701 13.4103 41.3701 13.3103 41.2701L11.6003 39.7601C11.4003 39.5601 11.4003 39.3601 11.5003 39.1601L14.8303 34.5201C14.9303 34.4201 15.0303 34.3201 15.1303 34.3201C15.2303 34.3201 15.4303 34.3201 15.4303 34.4201L16.7403 35.6301C16.9403 35.7301 16.9403 36.0301 16.8403 36.2301L13.8203 41.1701C13.9203 41.2701 13.8203 41.3701 13.6203 41.3701H13.6103ZM12.6003 39.3501L13.6103 40.2601L16.1303 36.1301L15.4203 35.5301L12.6003 39.3601V39.3501Z" fill="black"/>
<path d="M10.1802 41.6702C10.1135 41.6702 10.1135 41.6702 10.1802 41.6702C9.98022 41.6702 9.88022 41.5702 9.78022 41.4702L6.96022 36.2302C6.86022 36.0302 6.86022 35.8302 7.06022 35.7302L8.37022 34.5202C8.47022 34.4202 8.57022 34.4202 8.67022 34.4202C8.77022 34.4202 8.87022 34.5202 8.97022 34.6202L12.3002 39.2602C12.4002 39.4602 12.4002 39.6602 12.3002 39.8602L10.4902 41.6702C10.3902 41.5702 10.2902 41.6702 10.1902 41.6702H10.1802ZM7.87022 36.1302L10.2902 40.4702L11.4002 39.3602L8.58022 35.5302L7.87022 36.1302Z" fill="black"/>
<path d="M54.8503 47.62H31.7604C31.5604 47.62 31.3604 47.42 31.3604 47.22V38.7501C31.3604 38.5501 31.4604 38.3501 31.6604 38.3501L38.5204 35.6301C38.7204 35.5301 39.0204 35.6301 39.1204 35.8301L41.6404 40.47L43.0504 39.0601C43.2504 38.8601 43.4504 38.8601 43.6504 39.0601L44.8604 40.2701L47.5804 35.8301C47.6804 35.6301 47.8804 35.5301 48.0804 35.6301L54.9404 38.3501C55.1404 38.4501 55.2403 38.5501 55.2403 38.7501V47.22C55.2403 47.42 55.0404 47.62 54.8404 47.62H54.8503ZM32.2604 46.7101H54.3404V39.05L48.0904 36.53L45.2704 41.1701C45.1704 41.2701 45.0704 41.37 44.9704 41.37C44.8704 41.37 44.6704 41.37 44.5704 41.2701L43.2604 40.0601L41.7504 41.5701C41.6504 41.6701 41.5504 41.6701 41.3504 41.6701C41.2504 41.6701 41.0504 41.57 41.0504 41.47L38.4304 36.53L32.2804 38.9501V46.7101H32.2604Z" fill="black"/>
<path d="M50.9198 47.62H35.6998C35.4998 47.62 35.2998 47.42 35.2998 47.22V41.88C35.2998 41.68 35.4998 41.48 35.6998 41.48C35.8998 41.48 36.0998 41.68 36.0998 41.88V46.72H50.4198V41.88C50.4198 41.68 50.6198 41.48 50.8198 41.48C51.0198 41.48 51.2198 41.68 51.2198 41.88V47.22C51.4198 47.42 51.2198 47.62 50.9198 47.62Z" fill="black"/>
<path d="M43.3502 34.6102C39.3202 34.6102 37.2002 28.9602 37.2002 25.8402C37.2002 22.4102 39.9202 19.6902 43.3502 19.6902C46.7802 19.6902 49.5002 22.4102 49.5002 25.8402C49.5002 28.9702 47.3802 34.6102 43.3502 34.6102ZM43.3502 20.6002C40.4302 20.6002 38.1102 22.9202 38.1102 25.8402C38.1102 28.4602 39.9202 33.7002 43.3502 33.7002C46.7802 33.7002 48.5902 28.5602 48.5902 25.8402C48.5902 23.1202 46.2702 20.6002 43.3502 20.6002Z" fill="black"/>
<path d="M47.6898 25.04C46.1798 25.04 44.7698 24.64 43.6598 23.73C43.4598 23.53 43.4598 23.33 43.5598 23.12C43.7598 22.92 43.9598 22.92 44.1598 23.02C45.0698 23.73 46.2798 24.13 47.5898 24.13C47.9898 24.13 48.2998 24.13 48.6998 24.03C48.8998 24.03 49.1998 24.13 49.1998 24.43C49.1998 24.73 49.0998 24.93 48.7998 24.93C48.5998 25.03 48.0898 25.03 47.6898 25.03V25.04Z" fill="black"/>
<path d="M40.33 24.9402C39.42 24.9402 38.62 24.8402 37.81 24.5402C37.61 24.4402 37.41 24.2402 37.51 23.9402C37.61 23.7402 37.81 23.5402 38.11 23.6402C38.82 23.9402 39.62 24.0402 40.33 24.0402C42.85 24.0402 44.97 22.6302 44.97 20.8102C44.97 20.6102 45.17 20.4102 45.37 20.4102C45.57 20.4102 45.77 20.6102 45.77 20.8102C45.97 23.1302 43.45 24.9402 40.33 24.9402Z" fill="black"/>
<path d="M44.9696 41.3701C44.8696 41.3701 44.7696 41.3701 44.6696 41.2701L42.9596 39.7601C42.7596 39.5601 42.7596 39.3601 42.8596 39.1601L46.2896 34.5201C46.3896 34.4201 46.4896 34.3201 46.5896 34.3201C46.6896 34.3201 46.8896 34.3201 46.8896 34.4201L48.1996 35.6301C48.3996 35.7301 48.3996 36.0301 48.2996 36.2301L45.2796 41.1701C45.2796 41.2701 45.1796 41.3701 44.9796 41.3701H44.9696ZM43.8596 39.3501L44.8696 40.2601L47.3896 36.1301L46.6796 35.5301L43.8596 39.3601V39.3501Z" fill="black"/>
<path d="M41.44 41.6702C41.24 41.6702 41.14 41.5702 41.04 41.4702L38.22 36.2302C38.12 36.0302 38.12 35.8302 38.32 35.7302L39.63 34.5202C39.73 34.4202 39.83 34.4202 39.93 34.4202C40.03 34.4202 40.13 34.5202 40.23 34.6202L43.56 39.2602C43.66 39.4602 43.66 39.6602 43.56 39.8602L41.75 41.5702C41.75 41.5702 41.55 41.6702 41.45 41.6702H41.44ZM39.22 36.1302L41.64 40.4702L42.75 39.3602L39.83 35.5302L39.23 36.1302H39.22Z" fill="black"/>
<path d="M31.7603 44.29H23.4903C23.2903 44.29 23.0903 44.09 23.0903 43.89V39.05L16.5403 36.43C16.5403 36.43 16.4403 36.43 16.4403 36.33L15.7303 35.73C15.6303 35.63 15.5303 35.43 15.6303 35.33C15.7303 35.23 15.7303 35.03 15.9303 35.03L22.7903 32.31C22.9903 32.21 23.1903 32.31 23.3903 32.51L25.9103 37.15L27.3203 35.74C27.5203 35.54 27.7203 35.54 27.9203 35.74L29.1303 36.95L31.8503 32.51C31.9503 32.31 32.1503 32.21 32.3503 32.31L39.2103 35.03C39.3103 35.03 39.4103 35.23 39.5103 35.33V35.73L39.1103 36.33C39.0436 36.3966 38.977 36.4633 38.9103 36.53L32.3603 39.15V43.99C32.2603 44.09 32.0603 44.29 31.7603 44.29ZM23.9003 43.39H31.2603V38.65C31.2603 38.45 31.3603 38.25 31.5603 38.25L38.3103 35.63L32.3603 33.31L29.5403 37.95C29.4403 38.05 29.3403 38.15 29.2403 38.15C29.1403 38.15 28.9403 38.15 28.8403 38.05L27.5303 36.84L26.0203 38.35C25.9203 38.45 25.8203 38.45 25.6203 38.45C25.5203 38.45 25.3203 38.35 25.3203 38.25L22.7003 33.41L16.8503 35.53L16.9503 35.63L23.7003 38.25C23.9003 38.35 24.0003 38.45 24.0003 38.65L23.9003 43.39Z" fill="black"/>
<path d="M27.5299 31.2901C23.4999 31.2901 21.3799 25.6401 21.3799 22.5201C21.3799 19.0901 24.0999 16.3701 27.5299 16.3701C30.9599 16.3701 33.6799 19.0901 33.6799 22.5201C33.7799 25.6501 31.6599 31.2901 27.5299 31.2901ZM27.5299 17.3701C24.6099 17.3701 22.2899 19.6901 22.2899 22.6101C22.2899 25.2301 24.0999 30.4701 27.5299 30.4701C30.9599 30.4701 32.7699 25.3301 32.7699 22.6101C32.8699 19.6901 30.4499 17.3701 27.5299 17.3701Z" fill="black"/>
<path d="M31.8597 21.71C30.3497 21.71 28.8397 21.2101 27.8297 20.5001C27.6297 20.3001 27.6297 20.1 27.7297 19.89C27.9297 19.69 28.1297 19.6901 28.3297 19.7901C29.2397 20.5001 30.4497 20.9001 31.7597 20.9001C32.1597 20.9001 32.5698 20.9 32.8698 20.8C33.0698 20.8 33.3698 20.9001 33.3698 21.2001C33.3698 21.4001 33.2697 21.7001 32.9697 21.7001H31.8597V21.71Z" fill="black"/>
<path d="M24.6003 21.6101C23.6903 21.6101 22.8903 21.4101 22.0803 21.2101C21.8803 21.1101 21.7803 20.9101 21.7803 20.6101C21.8803 20.4101 22.0803 20.3101 22.3803 20.3101C23.0903 20.6101 23.7903 20.7101 24.6003 20.7101C27.1203 20.7101 29.2403 19.3001 29.2403 17.4801C29.2403 17.2801 29.4403 17.0801 29.6403 17.0801C29.8403 17.0801 30.0403 17.2801 30.0403 17.4801C30.1403 19.8001 27.6203 21.6101 24.6003 21.6101Z" fill="black"/>
<path d="M29.1395 38.14C29.0396 38.14 28.9396 38.14 28.8396 38.04L27.1296 36.43C26.9296 36.23 26.9296 36.03 27.0296 35.82L30.3596 31.18C30.4596 31.08 30.5596 30.98 30.6596 30.98C30.7596 30.98 30.9596 30.98 30.9596 31.08L32.2696 32.29C32.4696 32.39 32.4696 32.69 32.3696 32.9L29.3496 37.84C29.4496 38.04 29.3496 38.04 29.1496 38.14H29.1395ZM28.0296 36.03L29.0396 36.94L31.5596 32.81L30.8496 32.2L28.0296 36.03Z" fill="black"/>
<path d="M25.6099 38.3401C25.4099 38.3401 25.3099 38.2401 25.2099 38.1401L22.3899 32.9001C22.2899 32.7001 22.2899 32.5001 22.4899 32.4001L23.7999 31.1901C23.8999 31.0901 23.9999 31.0901 24.0999 31.0901C24.1999 31.0901 24.2999 31.1901 24.3999 31.2901L27.7299 35.9301C27.8299 36.1301 27.8299 36.3301 27.7299 36.5301L25.9199 38.3401H25.6199H25.6099ZM23.3899 32.8001L25.8099 37.1401L26.9199 36.0301L24.0999 32.2001L23.3899 32.8101V32.8001Z" fill="black"/>
<path d="M44.5598 14.0501C44.4598 14.0501 44.3598 14.0501 44.3598 13.9501L40.3298 11.4301H34.3798C32.8698 11.4301 31.7598 10.2201 31.7598 8.81009V2.96009C31.7598 1.45009 32.9698 0.340088 34.3798 0.340088H45.0698C46.5798 0.340088 47.6898 1.55009 47.6898 2.96009V8.81009C47.6898 10.3201 46.4798 11.4301 45.0698 11.4301H44.9698V13.5501C44.9698 13.7501 44.8698 13.8501 44.7698 13.9501C44.7698 14.0501 44.6698 14.0501 44.5698 14.0501H44.5598ZM34.3798 1.14009C33.3698 1.14009 32.6698 1.95009 32.6698 2.85009V8.70009C32.6698 9.71009 33.4798 10.4101 34.3798 10.4101H40.4298C40.5298 10.4101 40.6298 10.4101 40.6298 10.5101L44.0598 12.6301V10.9201C44.0598 10.7201 44.2598 10.5201 44.4598 10.5201H44.9598C45.9698 10.5201 46.6698 9.71009 46.6698 8.81009V2.96009C46.6698 1.95009 45.8598 1.25009 44.9598 1.25009L34.3698 1.15009L34.3798 1.14009Z" fill="black"/>
<path d="M15.0204 15.1602C14.9204 15.1602 14.8204 15.1602 14.8204 15.0602C14.7204 14.9602 14.6204 14.8602 14.6204 14.6602V12.5402H14.5204C13.0104 12.5402 11.9004 11.3302 11.9004 9.9202V4.07019C11.9004 2.56019 13.1104 1.4502 14.5204 1.4502H32.5704C32.7704 1.4502 32.8704 1.55019 32.9704 1.65019C33.0704 1.75019 33.0704 1.9502 32.9704 2.0502C32.8704 2.3502 32.7704 2.6502 32.7704 2.9602V8.8102C32.7704 9.8202 33.5804 10.5202 34.4804 10.5202H35.8904C36.0904 10.5202 36.1904 10.6202 36.2904 10.7202C36.3904 10.8202 36.3904 11.0202 36.2904 11.1202C35.7904 11.9302 34.8804 12.5302 33.9704 12.5302H19.2504L15.2204 15.0502C15.2204 15.1502 15.1204 15.1502 15.0204 15.1502V15.1602ZM14.4204 2.25019C13.4104 2.25019 12.7104 3.0602 12.7104 3.9602V9.8102C12.7104 10.8202 13.5204 11.5202 14.4204 11.5202H15.0204C15.2204 11.5202 15.4204 11.7202 15.4204 11.9202V13.6302L18.8504 11.5102C18.9504 11.5102 19.0504 11.4102 19.0504 11.4102H33.7704C34.0704 11.4102 34.3804 11.3102 34.6804 11.2102H34.3804C32.8704 11.2102 31.7604 10.0002 31.7604 8.59019V2.74019C31.7604 2.54019 31.7604 2.3402 31.8604 2.1302H14.4204V2.23019V2.25019Z" fill="black"/>
</svg>
