<svg width="43" height="56" viewBox="0 0 43 56" fill="none" xmlns="http://www.w3.org/2000/svg">
<path d="M38.8678 46.6902H12.5578C12.3578 46.6902 12.2578 46.5902 12.1578 46.4902C12.0578 46.3902 12.0578 46.1902 12.1578 46.0902L13.3678 44.0702C13.6678 43.5702 13.4678 42.9602 12.9678 42.6602L8.52781 40.1402C8.32781 40.0402 8.22781 40.0402 8.02781 40.0402C7.62781 40.0402 7.31781 40.2402 7.11781 40.5402L6.40781 41.7502C6.30781 41.9502 6.10781 42.0502 5.90781 41.9502C5.70781 41.8502 5.60781 41.7502 5.60781 41.5502L5.50781 9.69024C5.50781 9.59024 5.50781 9.49023 5.60781 9.39023L11.6578 3.34023C11.7578 3.24023 11.8578 3.24023 11.9578 3.24023H38.8778C39.0778 3.24023 39.2778 3.44023 39.2778 3.64023V46.3902C39.3778 46.4902 39.1778 46.6902 38.8778 46.6902H38.8678ZM13.3578 45.7802H38.4578V3.94024H12.1478L6.39781 9.69024L6.49781 39.7402C6.89781 39.2402 7.40781 38.9302 8.10781 38.9302C8.40781 38.9302 8.81781 39.0302 9.11781 39.2302L13.5578 41.7502C14.4678 42.2502 14.7678 43.4602 14.2578 44.4702L13.3478 45.7802H13.3578Z" fill="black"/>
<path d="M42.3976 44.2701H38.8676C38.6676 44.2701 38.4676 44.0701 38.4676 43.8701V3.94012H13.0576C12.8576 3.94012 12.7576 3.84012 12.6576 3.64012C12.5576 3.44012 12.6576 3.24012 12.7576 3.14012L15.1776 0.720116C15.2776 0.620116 15.3776 0.620117 15.4776 0.620117H42.3976C42.5976 0.620117 42.7976 0.820117 42.7976 1.02012V43.8701C42.7976 44.0701 42.5976 44.2701 42.3976 44.2701ZM39.3676 43.3601H41.9876V1.52012H15.6776L14.1676 3.03012H38.8676C39.0676 3.03012 39.2676 3.23012 39.2676 3.43012L39.3676 43.3601Z" fill="black"/>
<path d="M18.8071 39.02C16.7871 39.02 14.7771 38.52 12.9571 37.41C7.41707 34.18 5.39708 27.03 8.62708 21.38C10.7471 17.75 14.5771 15.53 18.8071 15.53C20.8271 15.53 22.8371 16.03 24.6571 17.14C30.3071 20.37 32.2171 27.52 28.9971 33.17C26.8771 36.8 23.0471 39.02 18.8171 39.02H18.8071ZM18.8071 16.44C14.9771 16.44 11.3471 18.56 9.42707 21.88C6.40707 27.02 8.21708 33.68 13.3571 36.7C14.9671 37.61 16.8871 38.11 18.7971 38.11C22.6271 38.11 26.2571 35.99 28.1771 32.67C31.1971 27.53 29.3871 20.87 24.2471 17.85C22.6371 16.94 20.7171 16.44 18.8071 16.44Z" fill="black"/>
<path d="M13.0575 42.55C12.9575 42.55 12.8575 42.5501 12.8575 42.4501L8.72751 40.13C8.52751 40.03 8.42751 39.73 8.52751 39.53L10.8475 35.5C10.9475 35.4 11.0475 35.3 11.1475 35.3C11.2475 35.3 11.4475 35.3 11.5475 35.4C12.1475 35.9 12.7575 36.31 13.3575 36.71C14.0675 37.11 14.7675 37.42 15.4775 37.62C15.5775 37.62 15.6775 37.72 15.7775 37.92V38.32L13.4575 42.35C13.3575 42.45 13.2575 42.55 13.1575 42.55H13.0575ZM9.52751 39.53L12.8575 41.45L14.6675 38.22C14.0675 38.02 13.5575 37.72 12.9575 37.41C12.3575 37.11 11.8475 36.7 11.3475 36.3L9.53751 39.53H9.52751Z" fill="black"/>
<path d="M6.39747 55.8601C6.09747 55.8601 5.68747 55.7601 5.38747 55.5601L0.947469 53.0401C0.037469 52.5401 -0.262532 51.3301 0.247468 50.3201L6.29747 39.8301C6.59747 39.2301 7.30747 38.8201 8.00747 38.8201C8.30747 38.8201 8.71747 38.9201 9.01747 39.1201L13.4575 41.6401C14.3675 42.1401 14.6675 43.3501 14.1675 44.3601L8.11747 54.8501C7.71747 55.4601 7.10747 55.8601 6.40747 55.8601H6.39747ZM8.01747 39.8301C7.61747 39.8301 7.30747 40.0301 7.10747 40.3301L1.05747 50.8201C0.75747 51.3201 0.957469 51.9301 1.45747 52.2301L5.89747 54.7501C6.09747 54.8501 6.19747 54.8501 6.39747 54.8501C6.79747 54.8501 7.10747 54.6501 7.30747 54.3501L13.3575 43.8601C13.6575 43.3601 13.4575 42.7501 12.9575 42.4501L8.51747 39.9301C8.41747 39.9301 8.21747 39.8301 8.01747 39.8301Z" fill="black"/>
<path d="M5.18708 52.8402C4.88708 52.8402 4.47708 52.7402 4.17708 52.5402C3.26708 52.0402 2.96709 50.8302 3.46709 49.9202C3.76709 49.3102 4.47708 48.9102 5.17708 48.9102C5.47708 48.9102 5.88708 49.0102 6.18708 49.2102C7.09708 49.7102 7.39709 50.9202 6.89709 51.8302C6.49709 52.4302 5.88708 52.8402 5.18708 52.8402ZM5.18708 49.9102C4.78708 49.9102 4.47708 50.1102 4.27708 50.4102C3.97708 50.9102 4.17708 51.5202 4.67708 51.8202C4.87708 51.9202 4.97708 51.9202 5.17708 51.9202C5.57708 51.9202 5.88708 51.7202 6.08708 51.4202C6.38708 50.9202 6.18708 50.3102 5.68708 50.0102C5.48708 49.9102 5.38708 49.9102 5.18708 49.9102Z" fill="black"/>
<path d="M38.8678 8.58003H14.3678C14.1678 8.58003 13.9678 8.38003 13.9678 8.18003C13.9678 7.98003 14.1678 7.78003 14.3678 7.78003H38.8678C39.0678 7.78003 39.2678 7.98003 39.2678 8.18003C39.2678 8.38003 39.1678 8.58003 38.8678 8.58003Z" fill="black"/>
<path d="M19.1077 34.9901C15.0777 34.9901 11.8477 31.7601 11.8477 27.7301C11.8477 27.5301 12.0477 27.3301 12.2477 27.3301H18.5977V20.9801C18.5977 20.7801 18.7977 20.5801 18.9977 20.5801C23.0277 20.5801 26.2577 23.8101 26.2577 27.8401C26.3577 31.7701 23.1377 35.0001 19.0977 35.0001L19.1077 34.9901ZM12.7577 28.2401C12.9577 31.5701 15.7777 34.1901 19.1077 34.1901C22.6377 34.1901 25.4577 31.3701 25.4577 27.8401C25.4577 24.5101 22.8377 21.6901 19.5077 21.4901V27.7401C19.5077 27.9401 19.3077 28.1401 19.1077 28.1401L12.7577 28.2401Z" fill="black"/>
<path d="M11.7477 26.4201C11.6477 26.4201 11.5477 26.4201 11.4477 26.3201C11.3477 26.2201 11.3477 26.1201 11.3477 26.0201V25.6201C11.4477 22.2901 14.1677 19.5701 17.4977 19.5701H17.5977C17.7977 19.5701 17.9977 19.7701 17.9977 20.0701L17.8977 25.6101C17.8977 25.8101 17.6977 26.0101 17.4977 26.0101L11.7477 26.4101V26.4201ZM17.0877 20.4701C14.4677 20.6701 12.3477 22.7901 12.2477 25.5101L16.9877 25.3101L17.0877 20.4701Z" fill="black"/>
<path d="M21.7272 44.0701H19.3072C19.1072 44.0701 18.9072 43.8701 18.9072 43.6701V41.2501C18.9072 41.0501 19.1072 40.8501 19.3072 40.8501H21.7272C21.9272 40.8501 22.1272 41.0501 22.1272 41.2501V43.6701C22.1272 43.8701 21.9272 44.0701 21.7272 44.0701ZM19.7072 43.1601H21.2172V41.6501H19.7072V43.1601Z" fill="black"/>
<path d="M34.3273 43.4602H23.6373C23.4373 43.4602 23.2373 43.2602 23.2373 43.0602C23.2373 42.8602 23.4373 42.6602 23.6373 42.6602H34.3273C34.5273 42.6602 34.7273 42.8602 34.7273 43.0602C34.8273 43.2602 34.6273 43.4602 34.3273 43.4602Z" fill="black"/>
<path d="M35.5375 15.6301H29.0875C28.8875 15.6301 28.6875 15.4301 28.6875 15.2301C28.6875 15.0301 28.8875 14.8301 29.0875 14.8301H35.5375C35.7375 14.8301 35.9375 15.0301 35.9375 15.2301C35.9375 15.4301 35.8375 15.6301 35.5375 15.6301Z" fill="black"/>
<path d="M35.5375 17.4501H29.0875C28.8875 17.4501 28.6875 17.2501 28.6875 17.0501C28.6875 16.8501 28.8875 16.6501 29.0875 16.6501H35.5375C35.7375 16.6501 35.9375 16.8501 35.9375 17.0501C35.9375 17.2501 35.8375 17.4501 35.5375 17.4501Z" fill="black"/>
<path d="M35.5375 19.2602H27.8775C27.6775 19.2602 27.4775 19.0602 27.4775 18.8602C27.4775 18.6602 27.6775 18.4602 27.8775 18.4602H35.5375C35.7375 18.4602 35.9375 18.6602 35.9375 18.8602C35.9375 19.0602 35.8375 19.2602 35.5375 19.2602Z" fill="black"/>
<path d="M35.5375 21.08H27.8775C27.6775 21.08 27.4775 20.88 27.4775 20.68C27.4775 20.48 27.6775 20.28 27.8775 20.28H35.5375C35.7375 20.28 35.9375 20.48 35.9375 20.68C35.9375 20.88 35.8375 21.08 35.5375 21.08Z" fill="black"/>
<path d="M35.5375 22.7902H29.0875C28.8875 22.7902 28.6875 22.5902 28.6875 22.3902C28.6875 22.1902 28.8875 21.9902 29.0875 21.9902H35.5375C35.7375 21.9902 35.9375 22.1902 35.9375 22.3902C35.9375 22.5902 35.8375 22.7902 35.5375 22.7902Z" fill="black"/>
</svg>
