<svg width="56" height="57" viewBox="0 0 56 57" fill="none" xmlns="http://www.w3.org/2000/svg">
<path d="M27.63 56.1199C20.27 56.1199 13.31 53.2999 8.07 48.0499C2.83 42.8099 0 35.8499 0 28.4899C0 21.1299 2.82 14.1699 8.07 8.92986C13.31 3.68986 20.27 0.859863 27.63 0.859863C34.99 0.859863 41.95 3.67986 47.19 8.92986C52.43 14.1799 55.26 21.1299 55.26 28.4899C55.26 35.8499 52.34 42.8099 47.19 48.0499C41.95 53.2899 34.99 56.1199 27.63 56.1199ZM27.63 1.77986C12.91 1.77986 0.91 13.7799 0.91 28.4999C0.91 43.2199 12.91 55.2199 27.63 55.2199C42.35 55.2199 54.35 43.2199 54.35 28.4999C54.35 13.7799 42.35 1.77986 27.63 1.77986Z" fill="black"/>
<path d="M48.7001 28.9999C48.5001 28.9999 48.3001 28.7999 48.3001 28.5999C48.3001 18.8199 41.3401 10.3499 31.7701 8.32993C31.5701 8.32993 31.3701 8.02993 31.3701 7.82993C31.3701 7.62993 31.6701 7.42993 31.8701 7.42993C36.7101 8.43993 41.1501 11.0599 44.2701 14.8899C47.3901 18.7199 49.1101 23.5599 49.1101 28.4999C49.2101 28.6999 49.0101 28.9999 48.7101 28.9999H48.7001Z" fill="black"/>
<path d="M53.4398 29H48.6998C48.4998 29 48.2998 28.7999 48.2998 28.5999C48.2998 28.3999 48.4998 28.2 48.6998 28.2H53.4398C53.6398 28.2 53.8398 28.3999 53.8398 28.5999C53.8398 28.7999 53.7398 29 53.4398 29Z" fill="black"/>
<path d="M53.4403 28.9998C53.3403 28.9998 53.1403 28.8998 53.1403 28.7998L51.9303 27.2898C51.7303 27.0898 51.8303 26.7898 52.0303 26.6798C52.2303 26.4798 52.5303 26.5798 52.6403 26.7798L53.8503 28.2898C54.0503 28.4898 53.9503 28.7898 53.7503 28.8898C53.6503 28.8898 53.5503 28.9898 53.4503 28.9898L53.4403 28.9998Z" fill="black"/>
<path d="M52.2303 30.4099C52.1303 30.4099 52.0303 30.4099 51.9303 30.3099C51.7303 30.1099 51.7303 29.9099 51.8303 29.6999L53.0403 28.1899C53.2403 27.9899 53.4403 27.9899 53.6403 28.0899C53.8403 28.2899 53.8403 28.4899 53.7403 28.6899L52.5303 30.1999C52.5303 30.2999 52.4303 30.3999 52.2303 30.3999V30.4099Z" fill="black"/>
<path d="M27.6305 50.0698C27.4305 50.0698 27.2305 49.8698 27.2305 49.6698C27.2305 49.4698 27.4305 49.2698 27.6305 49.2698C37.4105 49.2698 45.8805 42.3098 47.8905 32.7398C47.8905 32.5398 48.1905 32.3398 48.3905 32.3398C48.5905 32.3398 48.7905 32.6398 48.7905 32.8398C47.7805 37.6798 45.1605 42.1198 41.3305 45.2398C37.4005 48.2598 32.5605 50.0798 27.6205 50.0798L27.6305 50.0698Z" fill="black"/>
<path d="M27.6305 54.8098C27.4305 54.8098 27.2305 54.6098 27.2305 54.4098V49.6698C27.2305 49.4698 27.4305 49.2698 27.6305 49.2698C27.8305 49.2698 28.0305 49.4698 28.0305 49.6698V54.4098C28.0305 54.6098 27.8305 54.8098 27.6305 54.8098Z" fill="black"/>
<path d="M27.6297 54.8099C27.5297 54.8099 27.3297 54.7099 27.3297 54.6099C27.1297 54.4099 27.2297 54.1099 27.4297 54.0099L28.9397 52.7999C29.1397 52.5999 29.4397 52.6999 29.5397 52.8999C29.7397 53.0999 29.6397 53.3999 29.4397 53.4999L27.9297 54.7099C27.8297 54.8099 27.7297 54.8099 27.6297 54.8099Z" fill="black"/>
<path d="M27.63 54.8098C27.53 54.8098 27.43 54.8098 27.33 54.7098L25.82 53.4998C25.62 53.2998 25.62 53.0998 25.72 52.8998C25.92 52.6998 26.12 52.6998 26.33 52.7998L27.84 54.0098C28.04 54.2098 28.04 54.4098 27.94 54.6098C27.94 54.7098 27.74 54.8098 27.64 54.8098H27.63Z" fill="black"/>
<path d="M23.3898 49.5699C18.4498 48.5599 14.0098 45.9399 10.8898 42.1099C7.7598 38.2799 6.0498 33.4399 6.0498 28.4999C6.0498 28.2999 6.2498 28.0999 6.4498 28.0999C6.6498 28.0999 6.8498 28.2999 6.8498 28.4999C6.8498 38.2799 13.8098 46.7499 23.3898 48.7699C23.5898 48.7699 23.7898 49.0699 23.7898 49.2699C23.7898 49.4699 23.6898 49.5699 23.3898 49.5699Z" fill="black"/>
<path d="M6.55992 29H1.81992C1.61992 29 1.41992 28.7999 1.41992 28.5999C1.41992 28.3999 1.61992 28.2 1.81992 28.2H6.55992C6.75992 28.2 6.95992 28.3999 6.95992 28.5999C6.95992 28.7999 6.75992 29 6.55992 29Z" fill="black"/>
<path d="M2.92956 30.4097C2.82956 30.4097 2.62956 30.3097 2.62956 30.2097L1.41956 28.6997C1.21956 28.4997 1.31956 28.1997 1.51956 28.0997C1.71956 27.8997 2.01956 27.9997 2.12956 28.1997L3.33956 29.7097C3.53956 29.9097 3.43956 30.2097 3.23956 30.3197C3.13956 30.4197 3.03956 30.4197 2.93956 30.4197L2.92956 30.4097Z" fill="black"/>
<path d="M1.82018 29C1.72018 29 1.62018 29 1.52018 28.9C1.32018 28.7 1.32018 28.5 1.42018 28.3L2.63018 26.79C2.83018 26.59 3.03018 26.59 3.23018 26.69C3.43018 26.79 3.43018 27.09 3.33018 27.3L2.12018 28.81C2.02018 28.91 1.92018 29.01 1.82018 29.01V29Z" fill="black"/>
<path d="M6.96019 24.7698C6.66019 24.6698 6.46019 24.4698 6.56019 24.2698C7.57019 19.4298 10.1902 14.9898 14.0202 11.8698C17.8502 8.73978 22.6902 7.02979 27.6302 7.02979C27.8302 7.02979 28.0302 7.22978 28.0302 7.42978C28.0302 7.62978 27.8302 7.82978 27.6302 7.82978C17.8502 7.82978 9.38019 14.7898 7.47019 24.3698C7.37019 24.6698 7.17019 24.7698 6.97019 24.7698H6.96019Z" fill="black"/>
<path d="M27.6305 7.82979C27.4305 7.82979 27.2305 7.62979 27.2305 7.42979V2.68979C27.2305 2.48979 27.4305 2.28979 27.6305 2.28979C27.8305 2.28979 28.0305 2.48979 28.0305 2.68979V7.42979C28.0305 7.62979 27.8305 7.82979 27.6305 7.82979Z" fill="black"/>
<path d="M26.1102 4.29992C26.0102 4.29992 25.8102 4.19993 25.8102 4.09993C25.6102 3.89993 25.7102 3.59992 25.9102 3.49992L27.4202 2.28993C27.6202 2.08993 27.9202 2.18992 28.0302 2.38992C28.2302 2.58992 28.1302 2.88992 27.9302 2.98992L26.4202 4.19993C26.3202 4.29993 26.2202 4.29992 26.1202 4.29992H26.1102Z" fill="black"/>
<path d="M29.1397 4.29981C29.0397 4.29981 28.9397 4.29981 28.8397 4.19981L27.3297 2.98981C27.1297 2.78981 27.1297 2.58981 27.2297 2.38981C27.4297 2.18981 27.6297 2.18981 27.8297 2.28981L29.3397 3.49981C29.5397 3.69981 29.5397 3.89981 29.4397 4.09981C29.3398 4.19981 29.2397 4.29981 29.1397 4.29981Z" fill="black"/>
<path d="M27.63 45.3299C18.35 45.3299 10.79 37.7699 10.79 28.4899C10.79 19.2099 18.35 11.6499 27.63 11.6499C36.91 11.6499 44.47 19.2099 44.47 28.4899C44.47 37.7699 36.91 45.3299 27.63 45.3299ZM27.63 12.5699C18.86 12.5699 11.7 19.7299 11.7 28.4999C11.7 37.2699 18.86 44.4299 27.63 44.4299C36.4 44.4299 43.56 37.2699 43.56 28.4999C43.56 19.7299 36.4 12.5699 27.63 12.5699Z" fill="black"/>
<path d="M43.9596 29H11.2896C11.0896 29 10.8896 28.7999 10.8896 28.5999C10.8896 28.3999 11.0896 28.2 11.2896 28.2H44.0596C44.2596 28.2 44.4596 28.3999 44.4596 28.5999C44.4596 28.7999 44.2596 29 43.9596 29Z" fill="black"/>
<path d="M27.6305 45.3298C27.4305 45.3298 27.2305 45.1298 27.2305 44.9298V12.1598C27.2305 11.9598 27.4305 11.7598 27.6305 11.7598C27.8305 11.7598 28.0305 11.9598 28.0305 12.1598V44.9298C28.0305 45.1298 27.8305 45.3298 27.6305 45.3298Z" fill="black"/>
<path d="M27.6298 21.3399C23.1898 21.3399 18.7598 20.6299 14.3198 19.1199C14.1198 19.0199 13.9198 18.8199 14.0198 18.5199C14.1198 18.3199 14.3198 18.1199 14.6298 18.2199C23.2998 21.1399 31.9698 21.1399 40.5398 18.2199C40.7398 18.1199 41.0398 18.2199 41.1398 18.5199C41.2398 18.7199 41.1398 19.0199 40.8398 19.1199C36.4998 20.6299 32.0698 21.3399 27.6298 21.3399Z" fill="black"/>
<path d="M40.7295 38.6799H40.6295C32.0595 35.7599 23.3895 35.7599 14.7195 38.6799C14.5195 38.7799 14.2195 38.6799 14.1195 38.3799C14.0195 38.1799 14.1195 37.8799 14.4195 37.7799C23.2895 34.7599 32.1695 34.7599 40.9395 37.7799C41.1395 37.8799 41.3395 38.0799 41.2395 38.3799C41.1395 38.5799 40.9395 38.6799 40.7395 38.6799H40.7295Z" fill="black"/>
<path d="M27.6298 45.3299C25.2098 45.3299 22.9898 43.5199 21.2798 40.2899C19.6698 37.1599 18.7598 32.9299 18.7598 28.4899C18.7598 24.0499 19.6698 19.8199 21.2798 16.6899C22.9898 13.4599 25.2098 11.6499 27.6298 11.6499C30.0498 11.6499 32.2698 13.4699 33.9798 16.6899C35.5898 19.8199 36.4998 24.0499 36.4998 28.4899C36.4998 32.9299 35.5898 37.1599 33.9798 40.2899C32.2698 43.5199 30.0498 45.3299 27.6298 45.3299ZM27.6298 12.5699C25.5098 12.5699 23.5998 14.1799 22.0898 17.1099C20.5798 20.1299 19.6698 24.1699 19.6698 28.4999C19.6698 32.8299 20.5798 36.8699 22.0898 39.8899C23.5998 42.8099 25.6198 44.4299 27.6298 44.4299C29.7498 44.4299 31.6598 42.8199 33.1698 39.8899C34.6798 36.8699 35.5898 32.8299 35.5898 28.4999C35.5898 24.1699 34.6798 20.1299 33.1698 17.1099C31.6598 14.1899 29.7398 12.5699 27.6298 12.5699Z" fill="black"/>
</svg>
