<svg width="56" height="56" viewBox="0 0 56 56" fill="none" xmlns="http://www.w3.org/2000/svg">
<path d="M47.0896 18.8601H36.9096C36.8096 18.8601 36.7096 18.8601 36.7096 18.7601L34.7996 17.6501C34.6996 17.5501 34.5996 17.4501 34.5996 17.2501V5.86012C34.5996 5.66012 34.6996 5.46012 34.8996 5.46012L35.3996 5.36012C36.2096 2.94012 37.7196 2.84012 38.8296 2.64012C39.4296 2.54012 39.9396 2.54012 40.3396 2.14012C41.7496 0.830118 43.0596 0.120117 44.0696 0.120117C44.5696 0.120117 45.0796 0.320118 45.2796 0.730118C45.5796 1.13012 45.6796 1.74012 45.4796 2.44012C45.0796 3.75012 43.8696 4.66012 42.4596 5.46012H53.3496C54.4596 5.46012 55.3696 6.37012 55.3696 7.48012C55.3696 8.59012 54.4596 9.50012 53.3496 9.50012H52.8496C53.0496 9.80012 53.1496 10.2101 53.1496 10.6101C53.1496 11.7201 52.2396 12.6301 51.1296 12.6301H51.0296C51.2296 12.9301 51.3296 13.3401 51.3296 13.7401C51.3296 14.8501 50.4196 15.7601 49.3096 15.7601H48.6996C48.8996 16.0601 48.9996 16.4701 48.9996 16.8701C49.0996 17.9801 48.1896 18.8901 47.0796 18.8901L47.0896 18.8601ZM37.0096 17.9501H46.9896C47.5996 17.9501 48.0996 17.4501 48.0996 16.8401C48.0996 16.2301 47.5996 15.7301 46.9896 15.7301C46.7896 15.7301 46.5896 15.5301 46.5896 15.2301C46.5896 14.9301 46.7896 14.8301 46.9896 14.8301H49.4096C50.0096 14.8301 50.5196 14.3301 50.5196 13.7201C50.5196 13.1101 50.0196 12.6101 49.4096 12.6101C49.2096 12.6101 49.0096 12.4101 49.0096 12.1101C49.0096 11.9101 49.2096 11.7101 49.4096 11.7101H51.2196C51.8296 11.7101 52.3296 11.2101 52.3296 10.6001C52.3296 9.99012 51.8296 9.49012 51.2196 9.49012C51.0196 9.49012 50.8196 9.29012 50.8196 8.99012C50.8196 8.79012 51.0196 8.59012 51.2196 8.59012H53.3396C53.9496 8.59012 54.4496 8.09012 54.4496 7.48012C54.4496 6.87012 53.9496 6.37012 53.3396 6.37012H40.7396C40.5396 6.37012 40.3396 6.27012 40.3396 6.07012C40.3396 5.87012 40.3396 5.67012 40.5396 5.57012C40.7396 5.47012 40.8396 5.37012 41.0396 5.27012C42.5496 4.36012 44.1596 3.46012 44.5696 2.25012C44.6696 1.85012 44.6696 1.54012 44.5696 1.34012C44.4696 1.24012 44.2696 1.14012 44.0696 1.14012C43.7696 1.14012 42.7596 1.34012 41.0496 2.85012C40.4396 3.35012 39.7396 3.45012 39.0296 3.56012C37.9196 3.66012 36.9096 3.86012 36.3096 5.88012C36.3096 5.98012 36.1096 6.18012 36.0096 6.18012L35.6096 6.28012V17.0701L37.0196 17.9801L37.0096 17.9501Z" fill="black"/>
<path d="M34.9996 18.8601H29.4596C29.2596 18.8601 29.0596 18.6601 29.0596 18.4601V5.76011C29.0596 5.56011 29.2596 5.36011 29.4596 5.36011H34.9996C35.1996 5.36011 35.3996 5.56011 35.3996 5.76011V18.4601C35.4996 18.6601 35.2996 18.8601 34.9996 18.8601ZM29.9496 17.9501H34.5896V6.15011H29.9496V17.9501Z" fill="black"/>
<path d="M32.27 16.9401C31.56 16.9401 30.96 16.3301 30.96 15.6301C30.96 14.9301 31.56 14.3201 32.27 14.3201C32.98 14.3201 33.58 14.9301 33.58 15.6301C33.58 16.3301 32.98 16.9401 32.27 16.9401ZM32.27 15.1201C32.07 15.1201 31.87 15.3201 31.87 15.5201C31.87 15.7201 32.07 15.9201 32.27 15.9201C32.47 15.9201 32.67 15.7201 32.67 15.5201C32.67 15.3201 32.47 15.1201 32.27 15.1201Z" fill="black"/>
<path d="M29.4505 17.4401H24.2105C24.1105 17.4401 24.0105 17.4401 23.9105 17.3401C23.8105 17.2401 23.8105 17.1401 23.8105 17.0401C23.8105 16.8401 23.8105 16.6401 23.6105 16.5401C23.5105 16.4401 23.3105 16.3401 23.1105 16.3401C23.0105 16.3401 22.8105 16.3401 22.6105 16.4401C22.1105 16.5401 21.7005 16.8401 21.3005 17.3501C21.2005 17.4501 21.1005 17.4501 21.0005 17.4501H18.8805C18.6805 17.4501 18.4805 17.2501 18.4805 17.0501V7.47012C18.4805 7.37012 18.4805 7.17012 18.5805 7.07012C18.6805 6.97012 18.7805 6.87012 18.9805 6.87012H29.5705C29.7705 6.87012 29.9705 7.07012 29.9705 7.27012V17.0501C29.9705 17.2501 29.7705 17.4501 29.4705 17.4501L29.4505 17.4401ZM24.7105 16.5401H29.0405V7.67012H19.3605V16.5401H20.7705C21.2705 16.0401 21.7805 15.6301 22.3805 15.5301C23.1905 15.3301 23.7905 15.4301 24.3005 15.8301C24.5005 16.0301 24.6005 16.2301 24.7005 16.5401H24.7105Z" fill="black"/>
<path d="M38.0203 54.7501C36.9103 54.7501 36.0003 53.8401 36.0003 52.7301V41.8401C35.1903 43.2501 34.2903 44.4601 32.9803 44.8601C32.6803 44.9601 32.4803 44.9601 32.2703 44.9601C31.5603 44.9601 31.0603 44.6601 30.8603 44.1501C30.5603 43.5501 30.4603 42.2301 32.6703 39.8101C33.0703 39.4101 33.0703 38.9001 33.1703 38.3001C33.3703 37.1901 33.4703 35.6801 35.8903 34.8701L35.9903 34.3701C35.9903 34.1701 36.1903 34.0701 36.3903 34.0701H47.8803C48.0803 34.0701 48.1803 34.1701 48.2803 34.2701L49.3903 36.1901C49.3903 36.2901 49.4903 36.2901 49.4903 36.3901V46.5701C49.4903 47.6801 48.5803 48.5901 47.4703 48.5901C47.0703 48.5901 46.6603 48.4901 46.3603 48.2901V48.9001C46.3603 50.0101 45.4503 50.9201 44.3403 50.9201C43.9403 50.9201 43.5303 50.8201 43.2303 50.6201V50.7201C43.2303 51.8301 42.3203 52.7401 41.2103 52.7401C40.8103 52.7401 40.4003 52.6401 40.1003 52.4401V52.9401C40.0003 53.8501 39.0903 54.7601 37.9803 54.7601L38.0203 54.7501ZM36.4103 39.6201H36.5103C36.7103 39.7201 36.8103 39.8201 36.8103 40.0201V52.6201C36.8103 53.2301 37.3103 53.7301 37.9203 53.7301C38.5303 53.7301 39.0303 53.2301 39.0303 52.6201V50.5001C39.0303 50.3001 39.2303 50.1001 39.4303 50.1001C39.6303 50.1001 39.8303 50.3001 39.9303 50.5001C39.9303 51.1001 40.4303 51.6101 41.0403 51.6101C41.6503 51.6101 42.1503 51.1101 42.1503 50.5001V48.6801C42.1503 48.4801 42.3503 48.2801 42.5503 48.2801C42.7503 48.2801 42.9503 48.4801 42.9503 48.6801C42.9503 49.2901 43.4503 49.7901 44.0603 49.7901C44.6703 49.7901 45.1703 49.2901 45.1703 48.6801V46.3601C45.1703 46.1601 45.3703 45.9601 45.5703 45.9601C45.7703 45.9601 45.9703 46.1601 46.0703 46.3601C46.0703 46.9601 46.5703 47.4701 47.1803 47.4701C47.7903 47.4701 48.2903 46.9701 48.2903 46.3601V36.3801L47.3803 34.8701H36.7903L36.6903 35.1701C36.6903 35.3701 36.4903 35.4701 36.3903 35.4701C34.3703 36.1801 34.1703 37.0801 34.0703 38.2901C33.9703 39.0001 33.8703 39.7001 33.3603 40.3101C31.7503 42.0201 31.4403 43.2301 31.6503 43.7401C31.7503 43.9401 31.9503 44.0401 32.2603 44.0401C32.3603 44.0401 32.5603 44.0401 32.7603 43.9401C34.0703 43.5401 34.9803 41.9201 35.7803 40.4101C35.8803 40.2101 35.9803 40.0101 36.0803 39.9101C36.0803 39.7101 36.2803 39.6101 36.3803 39.6101L36.4103 39.6201Z" fill="black"/>
<path d="M49.0102 34.89H36.3102C36.1102 34.89 35.9102 34.69 35.9102 34.49V28.94C35.9102 28.74 36.1102 28.54 36.3102 28.54H49.0102C49.2102 28.54 49.4102 28.74 49.4102 28.94V34.49C49.4102 34.69 49.2102 34.89 49.0102 34.89ZM36.7102 33.98H48.5102V29.34H36.7102V33.98Z" fill="black"/>
<path d="M46.0903 32.9701C45.3803 32.9701 44.7803 32.3701 44.7803 31.6601C44.7803 30.9501 45.3803 30.3501 46.0903 30.3501C46.8003 30.3501 47.4003 30.9501 47.4003 31.6601C47.5003 32.3701 46.9003 32.9701 46.0903 32.9701ZM46.0903 31.2601C45.8903 31.2601 45.6903 31.4601 45.6903 31.6601C45.6903 31.8601 45.8903 32.0601 46.0903 32.0601C46.2903 32.0601 46.4903 31.8601 46.4903 31.6601C46.5903 31.3601 46.3903 31.2601 46.0903 31.2601Z" fill="black"/>
<path d="M47.5003 29.34H37.7203C37.5203 29.34 37.3203 29.14 37.3203 28.94V18.45C37.3203 18.25 37.5203 18.05 37.7203 18.05H47.4003C47.5003 18.05 47.6003 18.05 47.7003 18.15C47.8003 18.25 47.8003 18.35 47.8003 18.45V23.49C47.8003 25.1 47.9003 26.82 47.9003 28.93C48.0003 29.13 47.8003 29.33 47.5003 29.33V29.34ZM38.2203 28.43H47.0903C47.0903 26.51 47.0903 24.9 46.9903 23.39V18.75H38.2203V28.43Z" fill="black"/>
<path d="M18.56 55.1501H8.38C7.27 55.1501 6.36 54.2401 6.36 53.1301C6.36 52.7301 6.46 52.3201 6.66 52.0201H6.06C4.95 52.0201 4.04 51.1101 4.04 50.0001C4.04 49.6001 4.14 49.1901 4.34 48.8901H4.24C3.13 48.8901 2.22 47.9801 2.22 46.8701C2.22 46.4701 2.32 46.0601 2.52 45.7601H2.02C0.91 45.7601 0 44.8501 0 43.7401C0 42.6301 0.91 41.7201 2.02 41.7201H12.91C11.5 40.9101 10.29 40.0101 9.88 38.7001C9.68 38.0001 9.78 37.3901 10.08 36.9901C10.38 36.5901 10.79 36.3901 11.29 36.3901C12.3 36.3901 13.51 37.1001 15.02 38.4101C15.42 38.8101 15.93 38.8101 16.53 38.9101C17.64 39.1101 19.15 39.2101 19.96 41.6301L20.46 41.7301C20.66 41.7301 20.76 41.9301 20.76 42.1301V53.6201C20.76 53.8201 20.66 53.9201 20.56 54.0201L18.64 55.1301C18.74 55.1301 18.64 55.1301 18.54 55.1301L18.56 55.1501ZM2.13 42.6501C1.52 42.6501 1.02 43.1501 1.02 43.7601C1.02 44.3701 1.52 44.8701 2.13 44.8701H4.25C4.45 44.8701 4.65 45.0701 4.65 45.2701C4.65 45.4701 4.45 45.6701 4.25 45.7701C3.64 45.7701 3.14 46.2701 3.14 46.8801C3.14 47.4901 3.64 47.9901 4.25 47.9901H6.06C6.26 47.9901 6.46 48.1901 6.46 48.3901C6.46 48.5901 6.26 48.7901 6.06 48.8901C5.46 48.8901 4.95 49.3901 4.95 50.0001C4.95 50.6101 5.45 51.1101 6.06 51.1101H8.38C8.58 51.1101 8.78 51.3101 8.78 51.5101C8.78 51.7101 8.58 51.9101 8.38 52.0101C7.77 52.0101 7.27 52.5101 7.27 53.1201C7.27 53.7301 7.77 54.2301 8.38 54.2301H18.36L19.87 53.3201V42.5301L19.47 42.4301C19.27 42.4301 19.17 42.2301 19.17 42.1301C18.46 40.1101 17.56 39.9101 16.45 39.8101C15.74 39.7101 15.04 39.6101 14.43 39.1001C12.72 37.4901 11.71 37.3901 11.41 37.3901C11.21 37.3901 11.01 37.4901 10.91 37.5901C10.81 37.7901 10.71 38.0901 10.91 38.5001C11.31 39.8101 12.82 40.6201 14.44 41.5201C14.64 41.6201 14.84 41.7201 15.05 41.8201C15.25 41.9201 15.35 42.1201 15.25 42.3201C15.15 42.5201 15.05 42.6201 14.85 42.6201H2.15L2.13 42.6501Z" fill="black"/>
<path d="M25.9197 55.1501H20.3697C20.1697 55.1501 19.9697 54.9501 19.9697 54.7501V42.0501C19.9697 41.8501 20.1697 41.6501 20.3697 41.6501H25.9197C26.1197 41.6501 26.3197 41.8501 26.3197 42.0501V54.7501C26.4197 54.9501 26.2197 55.1501 25.9197 55.1501ZM20.8797 54.2401H25.5197V42.4401H20.8797V54.2401Z" fill="black"/>
<path d="M23.1996 53.13C22.4896 53.13 21.8896 52.52 21.8896 51.82C21.8896 51.12 22.4996 50.51 23.1996 50.51C23.8996 50.51 24.5096 51.11 24.5096 51.82C24.5096 52.63 23.9096 53.13 23.1996 53.13ZM23.1996 51.42C22.9996 51.42 22.7996 51.62 22.7996 51.82C22.7996 52.02 22.9996 52.22 23.1996 52.22C23.3996 52.22 23.5996 52.02 23.5996 51.82C23.5996 51.62 23.4996 51.42 23.1996 51.42Z" fill="black"/>
<path d="M25.9195 53.64C25.7195 53.64 25.5195 53.44 25.5195 53.24V43.46C25.5195 43.26 25.7195 43.06 25.9195 43.06H31.0595C31.2595 43.06 31.4595 43.26 31.4595 43.46C31.4595 43.56 31.4595 44.06 32.0595 44.06C32.1595 44.06 32.3595 44.06 32.5595 43.96C32.9595 43.86 33.3695 43.56 33.7695 43.15C33.8695 43.05 33.9695 43.05 34.0695 43.05H36.2895C36.4895 43.05 36.6895 43.2501 36.6895 43.4501V53.03C36.6895 53.13 36.6895 53.33 36.5895 53.43C36.4895 53.53 36.3895 53.6301 36.1895 53.6301H25.9095L25.9195 53.64ZM26.4295 43.96V52.83H36.0095V44.06H34.4995C33.9995 44.56 33.4895 44.77 32.9895 44.97C32.6895 45.07 32.4895 45.07 32.2795 45.07C31.5695 45.07 30.9695 44.67 30.7695 44.06L26.4395 43.96H26.4295Z" fill="black"/>
<path d="M18.8695 26.5201H7.37953C7.17953 26.5201 7.07953 26.4201 6.97953 26.3201L5.86953 24.4001C5.86953 24.3001 5.76953 24.3001 5.76953 24.2001V14.0201C5.76953 12.9101 6.67953 12.0001 7.78953 12.0001C8.18953 12.0001 8.59953 12.1001 8.89953 12.3001V11.7001C8.89953 10.5901 9.80953 9.68014 10.9195 9.68014C11.3195 9.68014 11.7295 9.78014 12.0295 9.98013V9.88014C12.0295 8.77014 12.9395 7.86014 14.0495 7.86014C14.4495 7.86014 14.8595 7.96014 15.1595 8.16014V7.66014C15.1595 6.55014 16.0695 5.64014 17.1795 5.64014C18.2895 5.64014 19.1995 6.55014 19.1995 7.66014V18.5501C20.0095 17.1401 20.9095 15.9301 22.2295 15.5301C22.5295 15.4301 22.7295 15.4301 22.9295 15.4301C23.6395 15.4301 24.1395 15.7301 24.3395 16.2401C24.6395 16.8501 24.7395 18.1601 22.5295 20.5801C22.1295 20.9801 22.1295 21.4901 22.0295 22.0901C21.8295 23.2001 21.7295 24.7101 19.3095 25.5201V26.1201C19.3095 26.3201 19.1095 26.5201 18.9095 26.5201H18.8695ZM7.66953 25.6101H18.5595L18.6595 25.2101C18.6595 25.0101 18.8595 24.9101 18.9595 24.9101C20.9795 24.2001 21.1795 23.3001 21.2795 22.1901C21.3795 21.4801 21.4795 20.7801 21.9895 20.1701C23.5995 18.4601 23.9095 17.2501 23.6995 16.7401C23.5995 16.5401 23.3995 16.4401 23.0995 16.4401C22.9995 16.4401 22.7995 16.4401 22.5995 16.5401C21.2895 16.9401 20.4795 18.5601 19.5695 20.0701C19.4695 20.2701 19.3695 20.4701 19.2695 20.6701C19.1695 20.8701 18.9695 20.9701 18.7695 20.8701C18.5695 20.7701 18.4695 20.6701 18.4695 20.4701V7.67014C18.4695 7.07014 17.9695 6.56014 17.3595 6.56014C16.7495 6.56014 16.2495 7.06014 16.2495 7.67014V9.79014C16.2495 9.99014 16.0495 10.1901 15.8495 10.1901C15.6495 10.1901 15.4495 9.99014 15.4495 9.79014C15.4495 9.18014 14.9495 8.68014 14.3395 8.68014C13.7295 8.68014 13.2295 9.18014 13.2295 9.79014V11.6001C13.2295 11.8001 13.0295 12.0001 12.8295 12.0001C12.6295 12.0001 12.4295 11.8001 12.4295 11.6001C12.4295 11.0001 11.9295 10.4901 11.3195 10.4901C10.7095 10.4901 10.2095 10.9901 10.2095 11.6001V13.9201C10.2095 14.1201 10.0095 14.3201 9.80953 14.3201C9.60953 14.3201 9.40953 14.1201 9.40953 13.9201C9.40953 13.3201 8.90953 12.8101 8.29953 12.8101C7.68953 12.8101 7.18953 13.3101 7.18953 13.9201V23.9001L7.68953 25.6101H7.66953Z" fill="black"/>
<path d="M18.9701 31.9601H6.27012C6.07012 31.9601 5.87012 31.7601 5.87012 31.5601V26.0201C5.87012 25.8201 6.07012 25.6201 6.27012 25.6201H18.9701C19.1701 25.6201 19.3701 25.8201 19.3701 26.0201V31.5601C19.4701 31.7601 19.2701 31.9601 18.9701 31.9601ZM6.77012 31.0501H18.5701V26.4101H6.77012V31.0501Z" fill="black"/>
<path d="M9.18988 30.15C8.47988 30.15 7.87988 29.55 7.87988 28.84C7.87988 28.13 8.48988 27.53 9.18988 27.53C9.88988 27.53 10.4999 28.13 10.4999 28.84C10.4999 29.55 9.88988 30.15 9.18988 30.15ZM9.18988 28.33C8.98988 28.33 8.78988 28.53 8.78988 28.73C8.78988 28.93 8.98988 29.13 9.18988 29.13C9.38988 29.13 9.58988 28.93 9.58988 28.73C9.58988 28.53 9.38988 28.33 9.18988 28.33Z" fill="black"/>
<path d="M14.5303 42.65H7.88027C7.68027 42.65 7.48027 42.45 7.48027 42.25C7.48027 40.33 7.48027 38.82 7.38027 37.21C7.38027 35.6 7.28027 33.78 7.28027 31.66C7.28027 31.46 7.48027 31.26 7.68027 31.26H17.4603C17.6603 31.26 17.8603 31.46 17.8603 31.66V39.62C17.8603 39.72 17.7603 39.92 17.6603 40.02C17.5603 40.12 17.3603 40.12 17.2603 40.12C16.9603 40.02 16.6503 40.02 16.4503 40.02C15.7403 39.92 15.0403 39.82 14.4303 39.31C12.7203 37.7 11.7103 37.6 11.4103 37.6C11.2103 37.6 11.0103 37.7 10.9103 37.8C10.8103 38 10.7103 38.3 10.9103 38.71C11.3103 40.02 12.9303 41.03 14.7403 42.04C14.9403 42.14 15.0403 42.24 15.0403 42.44C14.9403 42.44 14.7403 42.64 14.5403 42.64L14.5303 42.65ZM8.28027 41.74H12.8203C11.5103 40.93 10.4003 39.93 10.0003 38.72C9.80027 38.02 9.90027 37.41 10.2003 37.01C10.5003 36.61 10.9103 36.41 11.4103 36.41C12.4203 36.41 13.6303 37.12 15.1403 38.43C15.5403 38.83 16.0503 38.83 16.6503 38.93C16.7503 38.93 16.9503 38.93 17.0503 39.03V32.07H8.18027C8.18027 33.99 8.18027 35.6 8.28027 37.11V41.75V41.74Z" fill="black"/>
</svg>
