<svg width="28" height="19" viewBox="0 0 28 19" fill="none" xmlns="http://www.w3.org/2000/svg">
<path d="M2.31869 18.25C1.9055 18.25 1.5589 18.11 1.2789 17.83C0.998898 17.55 0.859384 17.2039 0.860357 16.7917C0.860357 16.3785 1.00036 16.0319 1.28036 15.7519C1.56036 15.4719 1.90647 15.3324 2.31869 15.3333H25.652C26.0652 15.3333 26.4118 15.4733 26.6918 15.7533C26.9718 16.0333 27.1113 16.3794 27.1104 16.7917C27.1104 17.2049 26.9704 17.5515 26.6904 17.8315C26.4104 18.1115 26.0642 18.251 25.652 18.25H2.31869ZM2.31869 10.9583C1.9055 10.9583 1.5589 10.8183 1.2789 10.5383C0.998898 10.2583 0.859384 9.91223 0.860357 9.5C0.860357 9.08681 1.00036 8.74021 1.28036 8.46021C1.56036 8.18021 1.90647 8.0407 2.31869 8.04167H25.652C26.0652 8.04167 26.4118 8.18167 26.6918 8.46167C26.9718 8.74167 27.1113 9.08778 27.1104 9.5C27.1104 9.9132 26.9704 10.2598 26.6904 10.5398C26.4104 10.8198 26.0642 10.9593 25.652 10.9583H2.31869ZM2.31869 3.66667C1.9055 3.66667 1.5589 3.52667 1.2789 3.24667C0.998898 2.96667 0.859384 2.62056 0.860357 2.20834C0.860357 1.79514 1.00036 1.44855 1.28036 1.16855C1.56036 0.888547 1.90647 0.749033 2.31869 0.750005H25.652C26.0652 0.750005 26.4118 0.890005 26.6918 1.17001C26.9718 1.45001 27.1113 1.79612 27.1104 2.20834C27.1104 2.62153 26.9704 2.96813 26.6904 3.24813C26.4104 3.52813 26.0642 3.66764 25.652 3.66667H2.31869Z" fill="#485169"/>
</svg>
