<svg width="137" height="40" viewBox="0 0 137 40" fill="none" xmlns="http://www.w3.org/2000/svg">
<g clip-path="url(#clip0_3724_350)">
<path fill-rule="evenodd" clip-rule="evenodd" d="M35.986 3.45369H16.7938C7.55724 3.45369 0.00292969 11.008 0.00292969 20.2446V39.4367H35.986V3.45369Z" fill="#0C477B"/>
<path fill-rule="evenodd" clip-rule="evenodd" d="M5.58833 17.9988C7.28832 17.3011 8.55268 16.653 10.1748 15.6436C10.3943 15.5055 10.4616 15.2151 10.3235 14.9955C10.1854 14.7759 9.89496 14.7086 9.67538 14.8467C8.09581 15.8313 6.88103 16.4547 5.23063 17.1311C4.9898 17.2303 4.87646 17.503 4.97563 17.7438C5.07479 17.9846 5.35104 18.098 5.59187 17.9988H5.58833ZM5.70166 23.4954C9.23622 22.1779 10.9539 21.3067 14.1095 19.2348C16.231 17.8394 18.3772 17.7049 19.4043 18.9373C20.4738 20.2123 19.5884 22.5498 17.297 24.0585C13.6987 26.4244 11.7685 27.4054 7.73457 28.9106C7.49019 29.0027 7.36623 29.2718 7.45832 29.5162C7.5504 29.7606 7.82311 29.8845 8.06394 29.7925C12.1652 28.2625 14.1591 27.2496 17.8141 24.8448C20.5163 23.0669 21.6284 20.1309 20.1268 18.3353C18.7243 16.6565 16.0645 16.823 13.5889 18.4486C10.4935 20.4815 8.83956 21.3209 5.36875 22.6171C5.12438 22.7092 5.00042 22.9783 5.0925 23.2227C5.18459 23.4671 5.45729 23.5911 5.69812 23.499L5.70166 23.4954ZM19.8682 15.162C17.9593 14.3084 14.917 15.0947 11.772 17.1594C9.37788 18.7284 7.95415 19.504 5.86458 20.3575C5.62375 20.4567 5.3475 20.3398 5.24834 20.1025C5.14917 19.8617 5.26604 19.589 5.50333 19.4898C7.53269 18.6611 8.90331 17.9138 11.2479 16.3767C14.7753 14.0605 18.278 13.1999 20.534 14.4395C20.8988 14.2305 21.3451 14.1597 21.7842 14.2765C22.6661 14.5138 23.1867 15.417 22.953 16.2953C22.7157 17.1736 21.8126 17.6942 20.9342 17.4569C20.0524 17.2196 19.5318 16.3165 19.7655 15.4382C19.7903 15.3426 19.8257 15.2505 19.8647 15.162H19.8682ZM22.7263 21.3492C22.0676 23.6442 20.0913 25.6204 17.1553 27.3487C16.3443 27.8269 15.5085 28.2554 14.5876 28.6839C14.1414 28.8929 12.962 29.4135 12.8239 29.4808L10.0756 30.6814C9.8383 30.7841 9.72851 31.0639 9.83476 31.3012C9.93746 31.5385 10.2173 31.6483 10.4545 31.5456L13.217 30.3414C13.3551 30.2741 14.531 29.7535 14.9914 29.541C15.937 29.1018 16.7976 28.6556 17.637 28.1633C20.8634 26.265 23.038 24.0444 23.7003 21.3704C24.2351 21.2146 24.6778 20.7932 24.8336 20.2159C25.0709 19.3375 24.5467 18.4344 23.6649 18.1971C22.783 17.9598 21.8799 18.4805 21.6461 19.3588C21.4195 20.2088 21.9011 21.08 22.7299 21.3492H22.7263ZM15.3703 22.6136C15.3668 22.6136 15.3668 22.6171 15.3633 22.6171C11.517 25.3335 9.37789 26.4527 4.94375 28.0783C4.69938 28.1669 4.43022 28.0429 4.33813 27.7985C4.24959 27.5541 4.37355 27.285 4.61792 27.1964C8.97414 25.6027 11.0389 24.5225 14.8178 21.8521C14.8356 21.8379 14.8533 21.8273 14.8745 21.8167C14.8001 21.544 14.793 21.25 14.871 20.9561C15.1083 20.0777 16.0114 19.5571 16.8897 19.7944C17.7716 20.0317 18.2922 20.9348 18.0584 21.8096C17.8212 22.6879 16.918 23.2086 16.0397 22.9713C15.7812 22.904 15.5545 22.7765 15.3703 22.61V22.6136ZM28.8569 14.5068C29.9442 15.9907 30.78 18.0484 30.8933 20.223C31.0704 23.5592 29.5971 26.8742 26.0236 30.005C25.8288 30.175 25.8075 30.4725 25.9811 30.6708C26.1546 30.8656 26.4521 30.8868 26.6469 30.7133C30.4329 27.3948 32.0302 23.8036 31.8354 20.1734C31.7115 17.8501 30.8402 15.6613 29.6856 14.0463C29.8733 13.8515 30.015 13.6107 30.0894 13.3309C30.3231 12.4526 29.8025 11.5495 28.9206 11.3157C28.0388 11.0784 27.1357 11.5991 26.9019 12.4774C26.6646 13.3557 27.1888 14.2588 28.0707 14.4961C28.3363 14.567 28.6054 14.5705 28.8569 14.5138V14.5068ZM28.0529 18.1086C29.5652 21.8557 27.3092 26.1694 23.8207 28.4643C23.6046 28.606 23.5444 28.9 23.6861 29.116C23.8278 29.3321 24.1217 29.3923 24.3378 29.2506C28.1557 26.736 30.6348 21.9973 28.9242 17.7544C28.825 17.5136 28.5523 17.3967 28.3115 17.4924C28.0707 17.588 27.9538 17.8642 28.0494 18.1051L28.0529 18.1086ZM12.1297 14.4005C16.5072 11.5212 21.4655 11.8399 24.2174 15.1265C25.5455 16.7132 26.105 18.7638 25.7934 20.8994C25.4003 23.5804 23.6613 26.1198 21.0228 27.8552C17.5307 30.1537 15.3951 31.2799 11.9527 32.6258C11.7118 32.7214 11.5914 32.9941 11.687 33.2349C11.7827 33.4758 12.0554 33.5962 12.2962 33.5006C15.8024 32.1299 17.9947 30.9718 21.5399 28.6414C24.398 26.7644 26.2892 23.9948 26.7248 21.034C27.0755 18.6363 26.4415 16.3165 24.9398 14.5209C21.8551 10.8376 16.362 10.4834 11.6091 13.6107C11.3895 13.7524 11.3329 14.0463 11.4745 14.2624C11.6162 14.4784 11.9102 14.5386 12.1262 14.397L12.1297 14.4005ZM21.6355 29.9554C18.9686 31.6731 17.0632 32.6931 14.5203 33.7449C14.2795 33.8441 14.1662 34.1203 14.2653 34.3612C14.3645 34.602 14.6408 34.7153 14.8816 34.6162C17.4776 33.5395 19.4326 32.4947 22.1455 30.7452C22.3651 30.6035 22.4253 30.3131 22.2836 30.0935C22.142 29.8739 21.8515 29.8137 21.632 29.9554H21.6355ZM23.6932 31.5314C21.5965 32.8843 19.9993 33.7839 18.2178 34.6055C17.9805 34.7153 17.8778 34.9951 17.9876 35.2289C18.0974 35.4662 18.3772 35.5689 18.6145 35.4591C20.4384 34.6162 22.0747 33.6953 24.2067 32.3212C24.4263 32.1795 24.4865 31.8891 24.3449 31.6695C24.2032 31.4499 23.9128 31.3897 23.6932 31.5279V31.5314Z" fill="#FEFEFE"/>
<path d="M46.5705 18.5894C45.3902 18.5894 44.2591 18.4349 43.1772 18.1257C42.0953 17.8026 41.2242 17.3881 40.5638 16.8822L41.723 14.3109C42.3553 14.7606 43.0999 15.1329 43.9571 15.428C44.8282 15.709 45.7064 15.8495 46.5916 15.8495C47.266 15.8495 47.807 15.7863 48.2145 15.6598C48.636 15.5193 48.9451 15.3296 49.1418 15.0908C49.3385 14.8519 49.4369 14.5779 49.4369 14.2688C49.4369 13.8754 49.2823 13.5662 48.9732 13.3414C48.6641 13.1026 48.2566 12.9129 47.7508 12.7724C47.245 12.6178 46.6829 12.4773 46.0647 12.3508C45.4605 12.2103 44.8493 12.0417 44.231 11.845C43.6269 11.6483 43.0718 11.3954 42.566 11.0863C42.0602 10.7771 41.6457 10.3697 41.3225 9.86383C41.0134 9.358 40.8588 8.71166 40.8588 7.92481C40.8588 7.08176 41.0837 6.31599 41.5333 5.6275C41.997 4.92495 42.6854 4.36994 43.5988 3.96247C44.5261 3.54094 45.6853 3.33018 47.0763 3.33018C48.0037 3.33018 48.917 3.44259 49.8163 3.6674C50.7155 3.87816 51.5094 4.20133 52.1979 4.63691L51.1441 7.2293C50.4556 6.83587 49.7671 6.54783 49.0786 6.36517C48.3901 6.16846 47.7157 6.0701 47.0553 6.0701C46.3949 6.0701 45.8539 6.14738 45.4324 6.30194C45.0109 6.4565 44.7088 6.66024 44.5261 6.91315C44.3435 7.15202 44.2521 7.43303 44.2521 7.7562C44.2521 8.13558 44.4067 8.4447 44.7158 8.68356C45.0249 8.90837 45.4324 9.09103 45.9382 9.23154C46.4441 9.37205 46.9991 9.51256 47.6033 9.65307C48.2215 9.79358 48.8327 9.95516 49.4369 10.1378C50.0551 10.3205 50.6172 10.5664 51.123 10.8755C51.6288 11.1846 52.0363 11.5921 52.3454 12.0979C52.6686 12.6038 52.8302 13.2431 52.8302 14.0159C52.8302 14.8449 52.5983 15.6036 52.1347 16.2921C51.671 16.9806 50.9755 17.5356 50.0481 17.9571C49.1348 18.3787 47.9756 18.5894 46.5705 18.5894ZM58.3036 9.52661H65.4063V12.1822H58.3036V9.52661ZM58.5565 15.5966H66.5866V18.3365H55.1632V3.5831H66.3126V6.32301H58.5565V15.5966ZM69.3033 18.3365V3.5831H75.6894C77.0102 3.5831 78.1483 3.80089 79.1037 4.23646C80.0592 4.65799 80.7969 5.2692 81.3168 6.0701C81.8366 6.871 82.0966 7.82646 82.0966 8.93648C82.0966 10.0324 81.8366 10.9809 81.3168 11.7818C80.7969 12.5686 80.0592 13.1728 79.1037 13.5943C78.1483 14.0159 77.0102 14.2266 75.6894 14.2266H71.2001L72.7176 12.7302V18.3365H69.3033ZM78.6822 18.3365L74.9939 12.9831H78.6401L82.3706 18.3365H78.6822ZM72.7176 13.1096L71.2001 11.5078H75.4997C76.5535 11.5078 77.3404 11.283 77.8602 10.8333C78.3801 10.3697 78.6401 9.73737 78.6401 8.93648C78.6401 8.12153 78.3801 7.48924 77.8602 7.03961C77.3404 6.58998 76.5535 6.36517 75.4997 6.36517H71.2001L72.7176 4.74229V13.1096ZM89.2278 18.3365L82.8627 3.5831H86.5511L92.1152 16.6504H89.9444L95.5928 3.5831H98.9861L92.6 18.3365H89.2278ZM100.218 18.3365V3.5831H103.632V18.3365H100.218ZM114.194 18.5894C113.056 18.5894 111.995 18.4068 111.012 18.0414C110.042 17.6621 109.199 17.1281 108.482 16.4396C107.766 15.7511 107.204 14.9432 106.796 14.0159C106.403 13.0885 106.206 12.0698 106.206 10.9598C106.206 9.84978 106.403 8.83109 106.796 7.90374C107.204 6.97638 107.766 6.16846 108.482 5.47996C109.213 4.79147 110.063 4.26456 111.033 3.89924C112.002 3.51987 113.063 3.33018 114.215 3.33018C115.494 3.33018 116.646 3.555 117.672 4.00462C118.711 4.4402 119.583 5.08654 120.285 5.94364L118.093 7.96697C117.587 7.39088 117.025 6.96233 116.407 6.68131C115.789 6.38624 115.114 6.23871 114.384 6.23871C113.695 6.23871 113.063 6.35112 112.487 6.57593C111.911 6.80074 111.412 7.12391 110.991 7.54544C110.569 7.96697 110.239 8.46577 110 9.04186C109.775 9.61794 109.663 10.2573 109.663 10.9598C109.663 11.6623 109.775 12.3017 110 12.8777C110.239 13.4538 110.569 13.9526 110.991 14.3742C111.412 14.7957 111.911 15.1189 112.487 15.3437C113.063 15.5685 113.695 15.6809 114.384 15.6809C115.114 15.6809 115.789 15.5404 116.407 15.2594C117.025 14.9643 117.587 14.5217 118.093 13.9316L120.285 15.9549C119.583 16.812 118.711 17.4653 117.672 17.915C116.646 18.3646 115.487 18.5894 114.194 18.5894ZM125.731 9.52661H132.834V12.1822H125.731V9.52661ZM125.984 15.5966H134.014V18.3365H122.591V3.5831H133.74V6.32301H125.984V15.5966Z" fill="#0C477B"/>
<path d="M45.3902 39.3482V33.3204L46.1701 35.3859L39.6786 24.5948H43.3037L48.2777 32.8778H46.1911L51.1862 24.5948H54.5374L48.0459 35.3859L48.8046 33.3204V39.3482H45.3902ZM62.4938 39.6011C61.3276 39.6011 60.2457 39.4114 59.2481 39.0321C58.2645 38.6527 57.4074 38.1188 56.6768 37.4303C55.9602 36.7418 55.3981 35.9339 54.9907 35.0065C54.5972 34.0791 54.4005 33.0675 54.4005 31.9715C54.4005 30.8756 54.5972 29.8639 54.9907 28.9365C55.3981 28.0092 55.9672 27.2013 56.6978 26.5128C57.4285 25.8243 58.2856 25.2903 59.2691 24.911C60.2527 24.5316 61.3206 24.3419 62.4727 24.3419C63.639 24.3419 64.7068 24.5316 65.6763 24.911C66.6599 25.2903 67.51 25.8243 68.2266 26.5128C68.9572 27.2013 69.5263 28.0092 69.9337 28.9365C70.3412 29.8498 70.545 30.8615 70.545 31.9715C70.545 33.0675 70.3412 34.0862 69.9337 35.0276C69.5263 35.9549 68.9572 36.7629 68.2266 37.4514C67.51 38.1258 66.6599 38.6527 65.6763 39.0321C64.7068 39.4114 63.646 39.6011 62.4938 39.6011ZM62.4727 36.6926C63.1331 36.6926 63.7373 36.5802 64.2853 36.3554C64.8473 36.1306 65.3391 35.8074 65.7606 35.3859C66.1822 34.9644 66.5053 34.4655 66.7302 33.8895C66.969 33.3134 67.0884 32.6741 67.0884 31.9715C67.0884 31.269 66.969 30.6297 66.7302 30.0536C66.5053 29.4775 66.1822 28.9787 65.7606 28.5572C65.3532 28.1356 64.8684 27.8125 64.3064 27.5876C63.7443 27.3628 63.1331 27.2504 62.4727 27.2504C61.8123 27.2504 61.2011 27.3628 60.6391 27.5876C60.0911 27.8125 59.6064 28.1356 59.1848 28.5572C58.7633 28.9787 58.4331 29.4775 58.1943 30.0536C57.9694 30.6297 57.857 31.269 57.857 31.9715C57.857 32.66 57.9694 33.2993 58.1943 33.8895C58.4331 34.4655 58.7563 34.9644 59.1638 35.3859C59.5853 35.8074 60.0771 36.1306 60.6391 36.3554C61.2011 36.5802 61.8123 36.6926 62.4727 36.6926ZM79.6657 39.6011C77.5721 39.6011 75.9352 39.018 74.7549 37.8518C73.5747 36.6856 72.9845 35.0206 72.9845 32.8567V24.5948H76.3989V32.7303C76.3989 34.1354 76.6869 35.147 77.263 35.7653C77.8391 36.3835 78.647 36.6926 79.6868 36.6926C80.7266 36.6926 81.5345 36.3835 82.1106 35.7653C82.6867 35.147 82.9747 34.1354 82.9747 32.7303V24.5948H86.3469V32.8567C86.3469 35.0206 85.7568 36.6856 84.5765 37.8518C83.3962 39.018 81.7593 39.6011 79.6657 39.6011Z" fill="#0C477B"/>
</g>
<defs>
<clipPath id="clip0_3724_350">
<rect width="136.484" height="39.4286" fill="white" transform="translate(0 0.285721)"/>
</clipPath>
</defs>
</svg>
