<svg width="274" height="48" viewBox="0 0 274 48" fill="none" xmlns="http://www.w3.org/2000/svg">
<g clip-path="url(#clip0_3724_349)">
<path fill-rule="evenodd" clip-rule="evenodd" d="M35.986 7.45369H16.7938C7.55724 7.45369 0.00292969 15.008 0.00292969 24.2446V43.4367H35.986V7.45369Z" fill="#0C477B"/>
<path fill-rule="evenodd" clip-rule="evenodd" d="M5.58833 21.9988C7.28832 21.3011 8.55268 20.653 10.1748 19.6436C10.3943 19.5055 10.4616 19.2151 10.3235 18.9955C10.1854 18.7759 9.89496 18.7086 9.67538 18.8467C8.09581 19.8313 6.88103 20.4547 5.23063 21.1311C4.9898 21.2303 4.87646 21.503 4.97563 21.7438C5.07479 21.9846 5.35104 22.098 5.59187 21.9988H5.58833ZM5.70166 27.4954C9.23622 26.1779 10.9539 25.3067 14.1095 23.2348C16.231 21.8394 18.3772 21.7049 19.4043 22.9373C20.4738 24.2123 19.5884 26.5498 17.297 28.0585C13.6987 30.4244 11.7685 31.4054 7.73457 32.9106C7.49019 33.0027 7.36623 33.2718 7.45832 33.5162C7.5504 33.7606 7.82311 33.8845 8.06394 33.7925C12.1652 32.2625 14.1591 31.2496 17.8141 28.8448C20.5163 27.0669 21.6284 24.1309 20.1268 22.3353C18.7243 20.6565 16.0645 20.823 13.5889 22.4486C10.4935 24.4815 8.83956 25.3209 5.36875 26.6171C5.12438 26.7092 5.00042 26.9783 5.0925 27.2227C5.18459 27.4671 5.45729 27.5911 5.69812 27.499L5.70166 27.4954ZM19.8682 19.162C17.9593 18.3084 14.917 19.0947 11.772 21.1594C9.37788 22.7284 7.95415 23.504 5.86458 24.3575C5.62375 24.4567 5.3475 24.3398 5.24834 24.1025C5.14917 23.8617 5.26604 23.589 5.50333 23.4898C7.53269 22.6611 8.90331 21.9138 11.2479 20.3767C14.7753 18.0605 18.278 17.1999 20.534 18.4395C20.8988 18.2305 21.3451 18.1597 21.7842 18.2765C22.6661 18.5138 23.1867 19.417 22.953 20.2953C22.7157 21.1736 21.8126 21.6942 20.9342 21.4569C20.0524 21.2196 19.5318 20.3165 19.7655 19.4382C19.7903 19.3426 19.8257 19.2505 19.8647 19.162H19.8682ZM22.7263 25.3492C22.0676 27.6442 20.0913 29.6204 17.1553 31.3487C16.3443 31.8269 15.5085 32.2554 14.5876 32.6839C14.1414 32.8929 12.962 33.4135 12.8239 33.4808L10.0756 34.6814C9.8383 34.7841 9.72851 35.0639 9.83476 35.3012C9.93746 35.5385 10.2173 35.6483 10.4545 35.5456L13.217 34.3414C13.3551 34.2741 14.531 33.7535 14.9914 33.541C15.937 33.1018 16.7976 32.6556 17.637 32.1633C20.8634 30.265 23.038 28.0444 23.7003 25.3704C24.2351 25.2146 24.6778 24.7932 24.8336 24.2159C25.0709 23.3375 24.5467 22.4344 23.6649 22.1971C22.783 21.9598 21.8799 22.4805 21.6461 23.3588C21.4195 24.2088 21.9011 25.08 22.7299 25.3492H22.7263ZM15.3703 26.6136C15.3668 26.6136 15.3668 26.6171 15.3633 26.6171C11.517 29.3335 9.37789 30.4527 4.94375 32.0783C4.69938 32.1669 4.43022 32.0429 4.33813 31.7985C4.24959 31.5541 4.37355 31.285 4.61792 31.1964C8.97414 29.6027 11.0389 28.5225 14.8178 25.8521C14.8356 25.8379 14.8533 25.8273 14.8745 25.8167C14.8001 25.544 14.793 25.25 14.871 24.9561C15.1083 24.0777 16.0114 23.5571 16.8897 23.7944C17.7716 24.0317 18.2922 24.9348 18.0584 25.8096C17.8212 26.6879 16.918 27.2086 16.0397 26.9713C15.7812 26.904 15.5545 26.7765 15.3703 26.61V26.6136ZM28.8569 18.5068C29.9442 19.9907 30.78 22.0484 30.8933 24.223C31.0704 27.5592 29.5971 30.8742 26.0236 34.005C25.8288 34.175 25.8075 34.4725 25.9811 34.6708C26.1546 34.8656 26.4521 34.8868 26.6469 34.7133C30.4329 31.3948 32.0302 27.8036 31.8354 24.1734C31.7115 21.8501 30.8402 19.6613 29.6856 18.0463C29.8733 17.8515 30.015 17.6107 30.0894 17.3309C30.3231 16.4526 29.8025 15.5495 28.9206 15.3157C28.0388 15.0784 27.1357 15.5991 26.9019 16.4774C26.6646 17.3557 27.1888 18.2588 28.0707 18.4961C28.3363 18.567 28.6054 18.5705 28.8569 18.5138V18.5068ZM28.0529 22.1086C29.5652 25.8557 27.3092 30.1694 23.8207 32.4643C23.6046 32.606 23.5444 32.9 23.6861 33.116C23.8278 33.3321 24.1217 33.3923 24.3378 33.2506C28.1557 30.736 30.6348 25.9973 28.9242 21.7544C28.825 21.5136 28.5523 21.3967 28.3115 21.4924C28.0707 21.588 27.9538 21.8642 28.0494 22.1051L28.0529 22.1086ZM12.1297 18.4005C16.5072 15.5212 21.4655 15.8399 24.2174 19.1265C25.5455 20.7132 26.105 22.7638 25.7934 24.8994C25.4003 27.5804 23.6613 30.1198 21.0228 31.8552C17.5307 34.1537 15.3951 35.2799 11.9527 36.6258C11.7118 36.7214 11.5914 36.9941 11.687 37.2349C11.7827 37.4758 12.0554 37.5962 12.2962 37.5006C15.8024 36.1299 17.9947 34.9718 21.5399 32.6414C24.398 30.7644 26.2892 27.9948 26.7248 25.034C27.0755 22.6363 26.4415 20.3165 24.9398 18.5209C21.8551 14.8376 16.362 14.4834 11.6091 17.6107C11.3895 17.7524 11.3329 18.0463 11.4745 18.2624C11.6162 18.4784 11.9102 18.5386 12.1262 18.397L12.1297 18.4005ZM21.6355 33.9554C18.9686 35.6731 17.0632 36.6931 14.5203 37.7449C14.2795 37.8441 14.1662 38.1203 14.2653 38.3612C14.3645 38.602 14.6408 38.7153 14.8816 38.6162C17.4776 37.5395 19.4326 36.4947 22.1455 34.7452C22.3651 34.6035 22.4253 34.3131 22.2836 34.0935C22.142 33.8739 21.8515 33.8137 21.632 33.9554H21.6355ZM23.6932 35.5314C21.5965 36.8843 19.9993 37.7839 18.2178 38.6055C17.9805 38.7153 17.8778 38.9951 17.9876 39.2289C18.0974 39.4662 18.3772 39.5689 18.6145 39.4591C20.4384 38.6162 22.0747 37.6953 24.2067 36.3212C24.4263 36.1795 24.4865 35.8891 24.3449 35.6695C24.2032 35.4499 23.9128 35.3897 23.6932 35.5279V35.5314Z" fill="#FEFEFE"/>
<path d="M46.5705 22.5894C45.3902 22.5894 44.2591 22.4349 43.1772 22.1257C42.0953 21.8026 41.2242 21.3881 40.5638 20.8822L41.723 18.3109C42.3553 18.7606 43.0999 19.1329 43.9571 19.428C44.8282 19.709 45.7064 19.8495 46.5916 19.8495C47.266 19.8495 47.807 19.7863 48.2145 19.6598C48.636 19.5193 48.9451 19.3296 49.1418 19.0908C49.3385 18.8519 49.4369 18.5779 49.4369 18.2688C49.4369 17.8754 49.2823 17.5662 48.9732 17.3414C48.6641 17.1026 48.2566 16.9129 47.7508 16.7724C47.245 16.6178 46.6829 16.4773 46.0647 16.3508C45.4605 16.2103 44.8493 16.0417 44.231 15.845C43.6269 15.6483 43.0718 15.3954 42.566 15.0863C42.0602 14.7771 41.6457 14.3697 41.3225 13.8638C41.0134 13.358 40.8588 12.7117 40.8588 11.9248C40.8588 11.0818 41.0837 10.316 41.5333 9.6275C41.997 8.92495 42.6854 8.36994 43.5988 7.96247C44.5261 7.54094 45.6853 7.33018 47.0763 7.33018C48.0037 7.33018 48.917 7.44259 49.8163 7.6674C50.7155 7.87816 51.5094 8.20133 52.1979 8.63691L51.1441 11.2293C50.4556 10.8359 49.7671 10.5478 49.0786 10.3652C48.3901 10.1685 47.7157 10.0701 47.0553 10.0701C46.3949 10.0701 45.8539 10.1474 45.4324 10.3019C45.0109 10.4565 44.7088 10.6602 44.5261 10.9132C44.3435 11.152 44.2521 11.433 44.2521 11.7562C44.2521 12.1356 44.4067 12.4447 44.7158 12.6836C45.0249 12.9084 45.4324 13.091 45.9382 13.2315C46.4441 13.3721 46.9991 13.5126 47.6033 13.6531C48.2215 13.7936 48.8327 13.9552 49.4369 14.1378C50.0551 14.3205 50.6172 14.5664 51.123 14.8755C51.6288 15.1846 52.0363 15.5921 52.3454 16.0979C52.6686 16.6038 52.8302 17.2431 52.8302 18.0159C52.8302 18.8449 52.5983 19.6036 52.1347 20.2921C51.671 20.9806 50.9755 21.5356 50.0481 21.9571C49.1348 22.3787 47.9756 22.5894 46.5705 22.5894ZM58.3036 13.5266H65.4063V16.1822H58.3036V13.5266ZM58.5565 19.5966H66.5866V22.3365H55.1632V7.5831H66.3126V10.323H58.5565V19.5966ZM69.3033 22.3365V7.5831H75.6894C77.0102 7.5831 78.1483 7.80089 79.1037 8.23646C80.0592 8.65799 80.7969 9.2692 81.3168 10.0701C81.8366 10.871 82.0966 11.8265 82.0966 12.9365C82.0966 14.0324 81.8366 14.9809 81.3168 15.7818C80.7969 16.5686 80.0592 17.1728 79.1037 17.5943C78.1483 18.0159 77.0102 18.2266 75.6894 18.2266H71.2001L72.7176 16.7302V22.3365H69.3033ZM78.6822 22.3365L74.9939 16.9831H78.6401L82.3706 22.3365H78.6822ZM72.7176 17.1096L71.2001 15.5078H75.4997C76.5535 15.5078 77.3404 15.283 77.8602 14.8333C78.3801 14.3697 78.6401 13.7374 78.6401 12.9365C78.6401 12.1215 78.3801 11.4892 77.8602 11.0396C77.3404 10.59 76.5535 10.3652 75.4997 10.3652H71.2001L72.7176 8.74229V17.1096ZM89.2278 22.3365L82.8627 7.5831H86.5511L92.1152 20.6504H89.9444L95.5928 7.5831H98.9861L92.6 22.3365H89.2278ZM100.218 22.3365V7.5831H103.632V22.3365H100.218ZM114.194 22.5894C113.056 22.5894 111.995 22.4068 111.012 22.0414C110.042 21.6621 109.199 21.1281 108.482 20.4396C107.766 19.7511 107.204 18.9432 106.796 18.0159C106.403 17.0885 106.206 16.0698 106.206 14.9598C106.206 13.8498 106.403 12.8311 106.796 11.9037C107.204 10.9764 107.766 10.1685 108.482 9.47996C109.213 8.79147 110.063 8.26456 111.033 7.89924C112.002 7.51987 113.063 7.33018 114.215 7.33018C115.494 7.33018 116.646 7.555 117.672 8.00462C118.711 8.4402 119.583 9.08654 120.285 9.94364L118.093 11.967C117.587 11.3909 117.025 10.9623 116.407 10.6813C115.789 10.3862 115.114 10.2387 114.384 10.2387C113.695 10.2387 113.063 10.3511 112.487 10.5759C111.911 10.8007 111.412 11.1239 110.991 11.5454C110.569 11.967 110.239 12.4658 110 13.0419C109.775 13.6179 109.663 14.2573 109.663 14.9598C109.663 15.6623 109.775 16.3017 110 16.8777C110.239 17.4538 110.569 17.9526 110.991 18.3742C111.412 18.7957 111.911 19.1189 112.487 19.3437C113.063 19.5685 113.695 19.6809 114.384 19.6809C115.114 19.6809 115.789 19.5404 116.407 19.2594C117.025 18.9643 117.587 18.5217 118.093 17.9316L120.285 19.9549C119.583 20.812 118.711 21.4653 117.672 21.915C116.646 22.3646 115.487 22.5894 114.194 22.5894ZM125.731 13.5266H132.834V16.1822H125.731V13.5266ZM125.984 19.5966H134.014V22.3365H122.591V7.5831H133.74V10.323H125.984V19.5966Z" fill="#0C477B"/>
<path d="M45.3902 43.3482V37.3204L46.1701 39.3859L39.6786 28.5948H43.3037L48.2777 36.8778H46.1911L51.1862 28.5948H54.5374L48.0459 39.3859L48.8046 37.3204V43.3482H45.3902ZM62.4938 43.6011C61.3276 43.6011 60.2457 43.4114 59.2481 43.0321C58.2645 42.6527 57.4074 42.1188 56.6768 41.4303C55.9602 40.7418 55.3981 39.9339 54.9907 39.0065C54.5972 38.0791 54.4005 37.0675 54.4005 35.9715C54.4005 34.8756 54.5972 33.8639 54.9907 32.9365C55.3981 32.0092 55.9672 31.2013 56.6978 30.5128C57.4285 29.8243 58.2856 29.2903 59.2691 28.911C60.2527 28.5316 61.3206 28.3419 62.4727 28.3419C63.639 28.3419 64.7068 28.5316 65.6763 28.911C66.6599 29.2903 67.51 29.8243 68.2266 30.5128C68.9572 31.2013 69.5263 32.0092 69.9337 32.9365C70.3412 33.8498 70.545 34.8615 70.545 35.9715C70.545 37.0675 70.3412 38.0862 69.9337 39.0276C69.5263 39.9549 68.9572 40.7629 68.2266 41.4514C67.51 42.1258 66.6599 42.6527 65.6763 43.0321C64.7068 43.4114 63.646 43.6011 62.4938 43.6011ZM62.4727 40.6926C63.1331 40.6926 63.7373 40.5802 64.2853 40.3554C64.8473 40.1306 65.3391 39.8074 65.7606 39.3859C66.1822 38.9644 66.5053 38.4655 66.7302 37.8895C66.969 37.3134 67.0884 36.6741 67.0884 35.9715C67.0884 35.269 66.969 34.6297 66.7302 34.0536C66.5053 33.4775 66.1822 32.9787 65.7606 32.5572C65.3532 32.1356 64.8684 31.8125 64.3064 31.5876C63.7443 31.3628 63.1331 31.2504 62.4727 31.2504C61.8123 31.2504 61.2011 31.3628 60.6391 31.5876C60.0911 31.8125 59.6064 32.1356 59.1848 32.5572C58.7633 32.9787 58.4331 33.4775 58.1943 34.0536C57.9694 34.6297 57.857 35.269 57.857 35.9715C57.857 36.66 57.9694 37.2993 58.1943 37.8895C58.4331 38.4655 58.7563 38.9644 59.1638 39.3859C59.5853 39.8074 60.0771 40.1306 60.6391 40.3554C61.2011 40.5802 61.8123 40.6926 62.4727 40.6926ZM79.6657 43.6011C77.5721 43.6011 75.9352 43.018 74.7549 41.8518C73.5747 40.6856 72.9845 39.0206 72.9845 36.8567V28.5948H76.3989V36.7303C76.3989 38.1354 76.6869 39.147 77.263 39.7653C77.8391 40.3835 78.647 40.6926 79.6868 40.6926C80.7266 40.6926 81.5345 40.3835 82.1106 39.7653C82.6867 39.147 82.9747 38.1354 82.9747 36.7303V28.5948H86.3469V36.8567C86.3469 39.0206 85.7568 40.6856 84.5765 41.8518C83.3962 43.018 81.7593 43.6011 79.6657 43.6011Z" fill="#0C477B"/>
</g>
<path d="M154.008 2.09525V45.9048" stroke="#0B477B" stroke-width="1.09524"/>
<path d="M172.234 12V11.0734L172.747 11.0406V4.06171L172.234 4.02886V3.10229H174.626V4.02886L174.12 4.06171V11.0406L174.626 11.0734V12H172.234ZM175.527 4.23257L175.455 3.10229H181.277L181.199 4.23257H179.056V12H177.676V4.23257H175.527ZM184.534 5.50743H185.887L187.3 10.3374L187.386 10.8631H187.484L187.576 10.3243L188.838 5.50743H190.198L188.286 12.2826C188.172 12.69 188.039 13.0361 187.885 13.3209C187.736 13.61 187.565 13.8531 187.373 14.0503C187.184 14.2518 186.976 14.4183 186.748 14.5497C186.521 14.6855 186.277 14.8016 186.019 14.898L185.717 14.0897C185.927 13.967 186.107 13.8378 186.255 13.702C186.404 13.5662 186.534 13.415 186.643 13.2486C186.753 13.0865 186.845 12.9025 186.919 12.6966C186.994 12.495 187.062 12.2629 187.123 12H186.61L184.534 5.50743ZM193.965 6.37486C193.694 6.37486 193.457 6.41429 193.255 6.49314C193.058 6.572 192.892 6.70343 192.756 6.88743C192.625 7.06705 192.526 7.30581 192.46 7.60371C192.395 7.90162 192.362 8.27181 192.362 8.71429C192.362 9.16552 192.395 9.54667 192.46 9.85771C192.526 10.1644 192.625 10.4141 192.756 10.6069C192.887 10.7952 193.054 10.931 193.255 11.0143C193.457 11.0975 193.696 11.1391 193.972 11.1391C194.16 11.1391 194.366 11.115 194.589 11.0669C194.813 11.0187 195.056 10.9332 195.319 10.8106L195.654 11.724C195.343 11.8817 195.043 11.9978 194.754 12.0723C194.469 12.1468 194.173 12.184 193.867 12.184C193.411 12.184 193.004 12.1205 192.644 11.9934C192.289 11.8664 191.989 11.6649 191.744 11.3889C191.503 11.1129 191.319 10.758 191.192 10.3243C191.065 9.88619 191.001 9.35829 191.001 8.74057C191.001 8.14038 191.063 7.62562 191.185 7.19629C191.313 6.76257 191.494 6.40771 191.731 6.13171C191.972 5.85571 192.268 5.652 192.618 5.52057C192.973 5.38914 193.38 5.32343 193.84 5.32343C194.182 5.32343 194.508 5.36724 194.819 5.45486C195.131 5.54248 195.409 5.652 195.654 5.78343L195.319 6.70343C195.03 6.56762 194.776 6.48 194.557 6.44057C194.342 6.39676 194.145 6.37486 193.965 6.37486ZM201.141 12V6.49314H198.519V10.1009C198.519 10.4119 198.49 10.6813 198.433 10.9091C198.376 11.1326 198.276 11.3253 198.131 11.4874C197.987 11.6495 197.787 11.7853 197.533 11.8949C197.279 12 196.955 12.0854 196.561 12.1511L196.357 11.1194C196.567 11.0362 196.727 10.9508 196.837 10.8631C196.95 10.7711 197.034 10.6682 197.086 10.5543C197.139 10.4404 197.167 10.3111 197.172 10.1666C197.18 10.0176 197.185 9.84676 197.185 9.654V5.50743H202.468V12H201.141ZM203.67 5.50743H205.024L206.437 10.3374L206.522 10.8631H206.621L206.713 10.3243L207.975 5.50743H209.335L207.423 12.2826C207.309 12.69 207.175 13.0361 207.022 13.3209C206.873 13.61 206.702 13.8531 206.509 14.0503C206.321 14.2518 206.113 14.4183 205.885 14.5497C205.657 14.6855 205.414 14.8016 205.156 14.898L204.853 14.0897C205.064 13.967 205.243 13.8378 205.392 13.702C205.541 13.5662 205.67 13.415 205.78 13.2486C205.889 13.0865 205.981 12.9025 206.056 12.6966C206.13 12.495 206.198 12.2629 206.26 12H205.747L203.67 5.50743ZM214.485 6.572H211.935V12H210.608V5.50743H214.544L214.485 6.572ZM219.601 12V8.11629L219.679 7.354H219.627L219.095 8.40543L217.051 12H215.572L215.579 5.50743H216.841L216.834 9.39114L216.762 10.1403H216.814L217.34 9.102L219.39 5.50743H220.862V12H219.601ZM221.856 13.4063C221.996 13.1478 222.103 12.8981 222.178 12.6571C222.256 12.4206 222.307 12.1928 222.329 11.9737C222.351 11.7503 222.351 11.54 222.329 11.3429C222.307 11.1457 222.27 10.9573 222.217 10.7777L223.446 10.62C223.507 10.9004 223.529 11.1939 223.512 11.5006C223.494 11.8029 223.441 12.0964 223.354 12.3811C223.266 12.6703 223.146 12.9375 222.992 13.1829C222.839 13.4326 222.655 13.6385 222.44 13.8006L221.856 13.4063ZM227.728 5.54029L229.055 5.50743V8.458L229.732 8.24771L230.337 6.67714C230.407 6.50629 230.497 6.34419 230.606 6.19086C230.716 6.03752 230.849 5.9039 231.007 5.79C231.169 5.67171 231.358 5.57971 231.572 5.514C231.787 5.4439 232.032 5.40667 232.308 5.40229L232.499 6.40114C232.289 6.42305 232.087 6.49314 231.894 6.61143C231.706 6.72971 231.55 6.92467 231.428 7.19629L230.797 8.74057L232.177 11.2969L232.473 12H231.106L229.798 9.39771L229.055 9.562V12H227.728V5.54029ZM233.446 8.688C233.446 7.584 233.678 6.74724 234.143 6.17771C234.607 5.60819 235.317 5.32343 236.272 5.32343C237.227 5.32343 237.939 5.61038 238.408 6.18429C238.876 6.75381 239.111 7.59276 239.111 8.70114C239.111 9.87962 238.876 10.7558 238.408 11.3297C237.943 11.8992 237.234 12.184 236.279 12.184C235.323 12.184 234.612 11.897 234.143 11.3231C233.678 10.7449 233.446 9.86648 233.446 8.688ZM237.751 8.75371C237.751 8.33314 237.722 7.9739 237.665 7.676C237.608 7.37371 237.521 7.12619 237.402 6.93343C237.284 6.74067 237.131 6.60048 236.942 6.51286C236.758 6.42086 236.539 6.37486 236.285 6.37486C236.027 6.37486 235.803 6.42086 235.615 6.51286C235.431 6.60048 235.277 6.74067 235.155 6.93343C235.037 7.12181 234.949 7.36495 234.892 7.66286C234.835 7.96076 234.807 8.32 234.807 8.74057C234.807 9.16114 234.835 9.52257 234.892 9.82486C234.949 10.1271 235.037 10.3769 235.155 10.574C235.273 10.7668 235.424 10.9091 235.608 11.0011C235.797 11.0931 236.022 11.1391 236.285 11.1391C236.544 11.1391 236.765 11.0953 236.949 11.0077C237.133 10.9157 237.284 10.7733 237.402 10.5806C237.521 10.3834 237.608 10.1359 237.665 9.838C237.722 9.53571 237.751 9.17429 237.751 8.75371ZM239.65 6.60486L239.584 5.514H244.158L244.086 6.60486H242.535V12H241.207V6.60486H239.65ZM244.664 8.688C244.664 7.584 244.896 6.74724 245.36 6.17771C245.825 5.60819 246.535 5.32343 247.49 5.32343C248.445 5.32343 249.157 5.61038 249.625 6.18429C250.094 6.75381 250.328 7.59276 250.328 8.70114C250.328 9.87962 250.094 10.7558 249.625 11.3297C249.161 11.8992 248.451 12.184 247.496 12.184C246.541 12.184 245.829 11.897 245.36 11.3231C244.896 10.7449 244.664 9.86648 244.664 8.688ZM248.968 8.75371C248.968 8.33314 248.94 7.9739 248.883 7.676C248.826 7.37371 248.738 7.12619 248.62 6.93343C248.502 6.74067 248.348 6.60048 248.16 6.51286C247.976 6.42086 247.757 6.37486 247.503 6.37486C247.244 6.37486 247.021 6.42086 246.832 6.51286C246.648 6.60048 246.495 6.74067 246.372 6.93343C246.254 7.12181 246.167 7.36495 246.11 7.66286C246.053 7.96076 246.024 8.32 246.024 8.74057C246.024 9.16114 246.053 9.52257 246.11 9.82486C246.167 10.1271 246.254 10.3769 246.372 10.574C246.491 10.7668 246.642 10.9091 246.826 11.0011C247.014 11.0931 247.24 11.1391 247.503 11.1391C247.761 11.1391 247.982 11.0953 248.166 11.0077C248.35 10.9157 248.502 10.7733 248.62 10.5806C248.738 10.3834 248.826 10.1359 248.883 9.838C248.94 9.53571 248.968 9.17429 248.968 8.75371ZM253.117 14.576H251.79V5.50743H252.828L252.946 6.19086C253.025 6.10762 253.128 6.01562 253.255 5.91486C253.382 5.80971 253.523 5.71552 253.676 5.63229C253.829 5.54467 253.996 5.47238 254.175 5.41543C254.355 5.3541 254.537 5.32343 254.721 5.32343C255.566 5.32343 256.193 5.606 256.6 6.17114C257.008 6.73629 257.211 7.59714 257.211 8.75371C257.211 9.38019 257.148 9.91248 257.021 10.3506C256.898 10.7843 256.725 11.137 256.502 11.4086C256.283 11.6802 256.02 11.8773 255.713 12C255.406 12.1227 255.071 12.184 254.708 12.184C254.524 12.184 254.351 12.1643 254.188 12.1249C254.026 12.0898 253.877 12.0416 253.742 11.9803C253.606 11.919 253.485 11.851 253.38 11.7766C253.275 11.6977 253.187 11.6189 253.117 11.54V14.576ZM253.117 10.6529C253.201 10.723 253.286 10.7887 253.374 10.85C253.466 10.907 253.562 10.9573 253.663 11.0011C253.768 11.045 253.88 11.08 253.998 11.1063C254.121 11.1282 254.256 11.1391 254.405 11.1391C254.624 11.1391 254.824 11.1019 255.003 11.0274C255.183 10.9486 255.334 10.8171 255.457 10.6331C255.584 10.4491 255.68 10.206 255.746 9.90371C255.816 9.60143 255.851 9.22686 255.851 8.78C255.851 8.39448 255.827 8.05276 255.779 7.75486C255.735 7.45695 255.658 7.20724 255.549 7.00571C255.439 6.79981 255.292 6.64429 255.108 6.53914C254.924 6.42962 254.697 6.37486 254.425 6.37486C254.307 6.37486 254.188 6.39238 254.07 6.42743C253.956 6.46248 253.845 6.50848 253.735 6.56543C253.625 6.618 253.518 6.67933 253.413 6.74943C253.308 6.81952 253.209 6.88743 253.117 6.95314V10.6529ZM264.176 12V6.58514L263.374 6.50629V5.50743H265.503V12H264.176ZM260.568 7.538C261.401 7.538 262.029 7.72857 262.454 8.10971C262.883 8.48648 263.098 9.06257 263.098 9.838C263.098 10.2104 263.037 10.5324 262.914 10.804C262.791 11.0756 262.616 11.3012 262.388 11.4809C262.161 11.6561 261.887 11.7875 261.567 11.8751C261.252 11.9584 260.897 12 260.502 12H258.446V5.50743H259.773V7.538H260.568ZM259.773 10.9683H260.693C261.074 10.9683 261.363 10.8719 261.56 10.6791C261.758 10.4864 261.856 10.1972 261.856 9.81171C261.856 9.3999 261.755 9.09105 261.554 8.88514C261.352 8.67924 261.074 8.57629 260.719 8.57629H259.773V10.9683ZM269.964 11.1129C270.296 11.1129 270.618 11.0866 270.93 11.034C271.241 10.977 271.534 10.907 271.81 10.8237L271.974 11.6649C271.685 11.8138 271.354 11.9365 270.982 12.0329C270.61 12.1336 270.167 12.184 269.655 12.184C269.199 12.184 268.794 12.1183 268.439 11.9869C268.088 11.8554 267.791 11.6517 267.545 11.3757C267.304 11.0953 267.12 10.7383 266.993 10.3046C266.871 9.87086 266.809 9.35171 266.809 8.74714C266.809 7.56429 267.048 6.69905 267.526 6.15143C268.003 5.59943 268.713 5.32343 269.655 5.32343C270.088 5.32343 270.465 5.39352 270.785 5.53371C271.109 5.6739 271.376 5.87543 271.587 6.13829C271.801 6.40114 271.959 6.72314 272.06 7.10429C272.165 7.48543 272.218 7.91695 272.218 8.39886C272.218 8.54781 272.204 8.69019 272.178 8.826C272.152 8.95743 272.128 9.05819 272.106 9.12829H268.176C268.185 9.80733 268.334 10.309 268.623 10.6331C268.916 10.953 269.363 11.1129 269.964 11.1129ZM270.949 8.24771C270.949 7.61248 270.84 7.15029 270.621 6.86114C270.406 6.56762 270.075 6.42086 269.628 6.42086C268.691 6.42086 268.209 7.02981 268.183 8.24771H270.949ZM172.07 24.688C172.07 23.584 172.302 22.7472 172.767 22.1777C173.231 21.6082 173.941 21.3234 174.896 21.3234C175.851 21.3234 176.563 21.6104 177.032 22.1843C177.5 22.7538 177.735 23.5928 177.735 24.7011C177.735 25.8796 177.5 26.7558 177.032 27.3297C176.567 27.8992 175.857 28.184 174.902 28.184C173.947 28.184 173.235 27.897 172.767 27.3231C172.302 26.7449 172.07 25.8665 172.07 24.688ZM176.374 24.7537C176.374 24.3331 176.346 23.9739 176.289 23.676C176.232 23.3737 176.144 23.1262 176.026 22.9334C175.908 22.7407 175.754 22.6005 175.566 22.5129C175.382 22.4209 175.163 22.3749 174.909 22.3749C174.65 22.3749 174.427 22.4209 174.239 22.5129C174.055 22.6005 173.901 22.7407 173.779 22.9334C173.66 23.1218 173.573 23.365 173.516 23.6629C173.459 23.9608 173.43 24.32 173.43 24.7406C173.43 25.1611 173.459 25.5226 173.516 25.8249C173.573 26.1271 173.66 26.3769 173.779 26.574C173.897 26.7668 174.048 26.9091 174.232 27.0011C174.42 27.0931 174.646 27.1391 174.909 27.1391C175.167 27.1391 175.389 27.0953 175.573 27.0077C175.757 26.9157 175.908 26.7733 176.026 26.5806C176.144 26.3834 176.232 26.1359 176.289 25.838C176.346 25.5357 176.374 25.1743 176.374 24.7537ZM183.021 28V22.618H180.399V28H179.071V21.5074H184.348V28H183.021ZM187.403 30.576H186.076V21.5074H187.114L187.232 22.1909C187.311 22.1076 187.414 22.0156 187.541 21.9149C187.668 21.8097 187.808 21.7155 187.962 21.6323C188.115 21.5447 188.281 21.4724 188.461 21.4154C188.641 21.3541 188.822 21.3234 189.006 21.3234C189.852 21.3234 190.478 21.606 190.886 22.1711C191.293 22.7363 191.497 23.5971 191.497 24.7537C191.497 25.3802 191.433 25.9125 191.306 26.3506C191.184 26.7843 191.011 27.137 190.787 27.4086C190.568 27.6802 190.305 27.8773 189.999 28C189.692 28.1227 189.357 28.184 188.993 28.184C188.809 28.184 188.636 28.1643 188.474 28.1249C188.312 28.0898 188.163 28.0416 188.027 27.9803C187.891 27.919 187.771 27.851 187.666 27.7766C187.561 27.6977 187.473 27.6189 187.403 27.54V30.576ZM187.403 26.6529C187.486 26.723 187.572 26.7887 187.659 26.85C187.751 26.907 187.848 26.9573 187.948 27.0011C188.054 27.045 188.165 27.08 188.284 27.1063C188.406 27.1282 188.542 27.1391 188.691 27.1391C188.91 27.1391 189.109 27.1019 189.289 27.0274C189.469 26.9486 189.62 26.8171 189.742 26.6331C189.869 26.4491 189.966 26.206 190.032 25.9037C190.102 25.6014 190.137 25.2269 190.137 24.78C190.137 24.3945 190.113 24.0528 190.064 23.7549C190.021 23.457 189.944 23.2072 189.834 23.0057C189.725 22.7998 189.578 22.6443 189.394 22.5391C189.21 22.4296 188.982 22.3749 188.711 22.3749C188.592 22.3749 188.474 22.3924 188.356 22.4274C188.242 22.4625 188.13 22.5085 188.021 22.5654C187.911 22.618 187.804 22.6793 187.699 22.7494C187.594 22.8195 187.495 22.8874 187.403 22.9531V26.6529ZM197.614 26.4163C197.614 26.666 197.662 26.8719 197.758 27.034C197.855 27.1917 197.962 27.3144 198.08 27.402L197.778 28.1183C197.655 28.1139 197.531 28.0942 197.404 28.0591C197.277 28.0285 197.154 27.9825 197.036 27.9211C196.922 27.8598 196.817 27.7831 196.72 27.6911C196.624 27.5948 196.547 27.4809 196.49 27.3494C196.367 27.4546 196.238 27.5575 196.102 27.6583C195.971 27.759 195.826 27.8489 195.669 27.9277C195.515 28.0022 195.345 28.0635 195.156 28.1117C194.972 28.1599 194.764 28.184 194.532 28.184C193.853 28.184 193.327 28.0197 192.955 27.6911C192.587 27.3582 192.403 26.8434 192.403 26.1469C192.403 25.8402 192.455 25.5686 192.56 25.332C192.666 25.0954 192.828 24.8939 193.047 24.7274C193.266 24.561 193.546 24.4295 193.888 24.3331C194.234 24.2368 194.648 24.1754 195.13 24.1491L196.28 24.0637V23.5051C196.28 23.3825 196.265 23.2576 196.234 23.1306C196.208 23.0035 196.153 22.8874 196.07 22.7823C195.991 22.6771 195.879 22.5917 195.734 22.526C195.59 22.4559 195.401 22.4209 195.169 22.4209C194.858 22.4209 194.538 22.4428 194.21 22.4866C193.886 22.5304 193.542 22.6268 193.178 22.7757L192.928 21.8754C193.327 21.6695 193.715 21.5271 194.092 21.4483C194.473 21.365 194.878 21.3234 195.307 21.3234C195.675 21.3234 196.002 21.3607 196.286 21.4351C196.576 21.5096 196.819 21.6279 197.016 21.79C197.213 21.9477 197.362 22.1558 197.463 22.4143C197.563 22.6684 197.614 22.9794 197.614 23.3474V26.4163ZM194.834 27.2443C194.944 27.2443 195.066 27.229 195.202 27.1983C195.338 27.1676 195.472 27.126 195.603 27.0734C195.734 27.0209 195.859 26.9595 195.978 26.8894C196.096 26.8193 196.197 26.7449 196.28 26.666V24.8654L195.261 24.9509C194.74 24.999 194.354 25.1261 194.105 25.332C193.859 25.5335 193.737 25.7942 193.737 26.114C193.737 26.4864 193.82 26.769 193.986 26.9617C194.157 27.1501 194.44 27.2443 194.834 27.2443ZM199.356 21.5074H201.827C202.489 21.5074 203.003 21.6432 203.371 21.9149C203.739 22.1865 203.923 22.583 203.923 23.1043C203.923 23.2708 203.908 23.4307 203.877 23.584C203.847 23.733 203.796 23.871 203.726 23.998C203.661 24.125 203.571 24.239 203.457 24.3397C203.347 24.4361 203.214 24.5128 203.056 24.5697V24.6223C203.222 24.6749 203.374 24.7428 203.509 24.826C203.645 24.9049 203.759 25.0056 203.851 25.1283C203.947 25.2466 204.02 25.389 204.068 25.5554C204.121 25.7175 204.147 25.9081 204.147 26.1271C204.147 26.425 204.103 26.6901 204.015 26.9223C203.932 27.1545 203.796 27.3516 203.608 27.5137C203.424 27.6714 203.183 27.7919 202.885 27.8751C202.587 27.9584 202.226 28 201.801 28H199.356V21.5074ZM200.546 25.0034V27.0471H201.702C202.088 27.0471 202.37 26.9639 202.55 26.7974C202.73 26.631 202.819 26.3703 202.819 26.0154C202.819 25.6869 202.732 25.4371 202.557 25.2663C202.381 25.091 202.094 25.0034 201.696 25.0034H200.546ZM200.539 22.3946V24.228H201.663C202 24.228 202.245 24.1535 202.399 24.0046C202.557 23.8556 202.635 23.6212 202.635 23.3014C202.635 22.9816 202.548 22.7516 202.373 22.6114C202.202 22.4669 201.95 22.3946 201.617 22.3946H200.539ZM206.04 24.8786L206.205 21.5074H210.483V26.942H210.949V29.058L209.878 28.9857V28H206.021V28.9857L204.956 29.058V26.942H205.258C205.407 26.8938 205.528 26.815 205.62 26.7054C205.716 26.5959 205.791 26.4667 205.843 26.3177C205.9 26.1644 205.94 25.9979 205.962 25.8183C205.988 25.6343 206.005 25.4437 206.014 25.2466L206.034 24.8786H206.04ZM209.155 22.572H207.466L207.342 24.8194L207.276 25.5686C207.254 25.8314 207.208 26.0811 207.138 26.3177C207.068 26.5499 206.941 26.758 206.757 26.942H209.155V22.572ZM217.791 28V22.5851L216.989 22.5063V21.5074H219.118V28H217.791ZM214.183 23.538C215.015 23.538 215.644 23.7286 216.069 24.1097C216.498 24.4865 216.713 25.0626 216.713 25.838C216.713 26.2104 216.652 26.5324 216.529 26.804C216.406 27.0756 216.231 27.3012 216.003 27.4809C215.776 27.6561 215.502 27.7875 215.182 27.8751C214.867 27.9584 214.512 28 214.117 28H212.061V21.5074H213.388V23.538H214.183ZM213.388 26.9683H214.308C214.689 26.9683 214.978 26.8719 215.175 26.6791C215.373 26.4864 215.471 26.1972 215.471 25.8117C215.471 25.3999 215.37 25.091 215.169 24.8851C214.967 24.6792 214.689 24.5763 214.334 24.5763H213.388V26.9683ZM220.713 21.5074H223.184C223.846 21.5074 224.361 21.6432 224.729 21.9149C225.097 22.1865 225.281 22.583 225.281 23.1043C225.281 23.2708 225.265 23.4307 225.235 23.584C225.204 23.733 225.153 23.871 225.083 23.998C225.018 24.125 224.928 24.239 224.814 24.3397C224.704 24.4361 224.571 24.5128 224.413 24.5697V24.6223C224.58 24.6749 224.731 24.7428 224.867 24.826C225.002 24.9049 225.116 25.0056 225.208 25.1283C225.305 25.2466 225.377 25.389 225.425 25.5554C225.478 25.7175 225.504 25.9081 225.504 26.1271C225.504 26.425 225.46 26.6901 225.373 26.9223C225.289 27.1545 225.153 27.3516 224.965 27.5137C224.781 27.6714 224.54 27.7919 224.242 27.8751C223.944 27.9584 223.583 28 223.158 28H220.713V21.5074ZM221.903 25.0034V27.0471H223.059C223.445 27.0471 223.727 26.9639 223.907 26.7974C224.087 26.631 224.177 26.3703 224.177 26.0154C224.177 25.6869 224.089 25.4371 223.914 25.2663C223.738 25.091 223.451 25.0034 223.053 25.0034H221.903ZM221.896 22.3946V24.228H223.02C223.357 24.228 223.603 24.1535 223.756 24.0046C223.914 23.8556 223.993 23.6212 223.993 23.3014C223.993 22.9816 223.905 22.7516 223.73 22.6114C223.559 22.4669 223.307 22.3946 222.974 22.3946H221.896ZM231.485 26.4163C231.485 26.666 231.533 26.8719 231.63 27.034C231.726 27.1917 231.833 27.3144 231.952 27.402L231.649 28.1183C231.527 28.1139 231.402 28.0942 231.275 28.0591C231.148 28.0285 231.025 27.9825 230.907 27.9211C230.793 27.8598 230.688 27.7831 230.591 27.6911C230.495 27.5948 230.418 27.4809 230.361 27.3494C230.239 27.4546 230.109 27.5575 229.974 27.6583C229.842 27.759 229.698 27.8489 229.54 27.9277C229.386 28.0022 229.216 28.0635 229.027 28.1117C228.843 28.1599 228.635 28.184 228.403 28.184C227.724 28.184 227.198 28.0197 226.826 27.6911C226.458 27.3582 226.274 26.8434 226.274 26.1469C226.274 25.8402 226.326 25.5686 226.432 25.332C226.537 25.0954 226.699 24.8939 226.918 24.7274C227.137 24.561 227.417 24.4295 227.759 24.3331C228.105 24.2368 228.519 24.1754 229.001 24.1491L230.151 24.0637V23.5051C230.151 23.3825 230.136 23.2576 230.105 23.1306C230.079 23.0035 230.024 22.8874 229.941 22.7823C229.862 22.6771 229.75 22.5917 229.606 22.526C229.461 22.4559 229.273 22.4209 229.04 22.4209C228.729 22.4209 228.41 22.4428 228.081 22.4866C227.757 22.5304 227.413 22.6268 227.049 22.7757L226.8 21.8754C227.198 21.6695 227.586 21.5271 227.963 21.4483C228.344 21.365 228.749 21.3234 229.178 21.3234C229.546 21.3234 229.873 21.3607 230.158 21.4351C230.447 21.5096 230.69 21.6279 230.887 21.79C231.084 21.9477 231.233 22.1558 231.334 22.4143C231.435 22.6684 231.485 22.9794 231.485 23.3474V26.4163ZM228.705 27.2443C228.815 27.2443 228.937 27.229 229.073 27.1983C229.209 27.1676 229.343 27.126 229.474 27.0734C229.606 27.0209 229.73 26.9595 229.849 26.8894C229.967 26.8193 230.068 26.7449 230.151 26.666V24.8654L229.132 24.9509C228.611 24.999 228.226 25.1261 227.976 25.332C227.73 25.5335 227.608 25.7942 227.608 26.114C227.608 26.4864 227.691 26.769 227.858 26.9617C228.028 27.1501 228.311 27.2443 228.705 27.2443ZM233.523 28V22.5851L232.728 22.5063V21.5074H234.857V24.2214H235.928C235.989 23.2708 236.25 22.5501 236.71 22.0594C237.175 21.5688 237.851 21.3234 238.741 21.3234C239.696 21.3234 240.408 21.6104 240.876 22.1843C241.345 22.7538 241.58 23.5928 241.58 24.7011C241.58 25.8796 241.345 26.7558 240.876 27.3297C240.412 27.8992 239.702 28.184 238.747 28.184C237.862 28.184 237.188 27.9409 236.723 27.4546C236.263 26.9683 235.998 26.2235 235.928 25.2203H234.857V28H233.523ZM240.219 24.7537C240.219 24.3331 240.191 23.9739 240.134 23.676C240.077 23.3737 239.989 23.1262 239.871 22.9334C239.753 22.7407 239.599 22.6005 239.411 22.5129C239.227 22.4209 239.008 22.3749 238.754 22.3749C238.495 22.3749 238.272 22.4209 238.084 22.5129C237.9 22.6005 237.746 22.7407 237.624 22.9334C237.505 23.1218 237.418 23.365 237.361 23.6629C237.304 23.9608 237.275 24.32 237.275 24.7406C237.275 25.1611 237.304 25.5226 237.361 25.8249C237.418 26.1271 237.505 26.3769 237.624 26.574C237.742 26.7668 237.893 26.9091 238.077 27.0011C238.265 27.0931 238.491 27.1391 238.754 27.1391C239.012 27.1391 239.234 27.0953 239.418 27.0077C239.602 26.9157 239.753 26.7733 239.871 26.5806C239.989 26.3834 240.077 26.1359 240.134 25.838C240.191 25.5357 240.219 25.1743 240.219 24.7537ZM241.845 22.6049L241.779 21.514H246.353L246.28 22.6049H244.73V28H243.402V22.6049H241.845ZM173.016 40.8786L173.181 37.5074H177.459V42.942H177.925V45.058L176.854 44.9857V44H172.997V44.9857L171.932 45.058V42.942H172.234C172.383 42.8938 172.504 42.815 172.596 42.7054C172.692 42.5959 172.767 42.4667 172.819 42.3177C172.876 42.1644 172.916 41.9979 172.938 41.8183C172.964 41.6343 172.981 41.4437 172.99 41.2466L173.01 40.8786H173.016ZM176.131 38.572H174.442L174.318 40.8194L174.252 41.5686C174.23 41.8314 174.184 42.0811 174.114 42.3177C174.044 42.5499 173.917 42.758 173.733 42.942H176.131V38.572ZM178.885 40.688C178.885 39.584 179.118 38.7472 179.582 38.1777C180.046 37.6082 180.756 37.3234 181.711 37.3234C182.666 37.3234 183.378 37.6104 183.847 38.1843C184.316 38.7538 184.55 39.5928 184.55 40.7011C184.55 41.8796 184.316 42.7558 183.847 43.3297C183.382 43.8992 182.673 44.184 181.718 44.184C180.763 44.184 180.051 43.897 179.582 43.3231C179.118 42.7449 178.885 41.8665 178.885 40.688ZM183.19 40.7537C183.19 40.3331 183.161 39.9739 183.104 39.676C183.047 39.3737 182.96 39.1262 182.841 38.9334C182.723 38.7407 182.57 38.6005 182.381 38.5129C182.197 38.4209 181.978 38.3749 181.724 38.3749C181.466 38.3749 181.242 38.4209 181.054 38.5129C180.87 38.6005 180.717 38.7407 180.594 38.9334C180.476 39.1218 180.388 39.365 180.331 39.6629C180.274 39.9608 180.246 40.32 180.246 40.7406C180.246 41.1611 180.274 41.5226 180.331 41.8249C180.388 42.1271 180.476 42.3769 180.594 42.574C180.712 42.7668 180.863 42.9091 181.047 43.0011C181.236 43.0931 181.461 43.1391 181.724 43.1391C181.983 43.1391 182.204 43.0953 182.388 43.0077C182.572 42.9157 182.723 42.7733 182.841 42.5806C182.96 42.3834 183.047 42.1359 183.104 41.838C183.161 41.5357 183.19 41.1743 183.19 40.7537ZM185.867 37.5074H188.338C188.999 37.5074 189.514 37.6432 189.882 37.9149C190.25 38.1865 190.434 38.583 190.434 39.1043C190.434 39.2708 190.419 39.4307 190.388 39.584C190.357 39.733 190.307 39.871 190.237 39.998C190.171 40.125 190.081 40.239 189.967 40.3397C189.858 40.4361 189.724 40.5128 189.567 40.5697V40.6223C189.733 40.6749 189.884 40.7428 190.02 40.826C190.156 40.9049 190.27 41.0056 190.362 41.1283C190.458 41.2466 190.53 41.389 190.579 41.5554C190.631 41.7175 190.657 41.9081 190.657 42.1271C190.657 42.425 190.614 42.6901 190.526 42.9223C190.443 43.1545 190.307 43.3516 190.119 43.5137C189.935 43.6714 189.694 43.7919 189.396 43.8751C189.098 43.9584 188.736 44 188.311 44H185.867V37.5074ZM187.056 41.0034V43.0471H188.213C188.598 43.0471 188.881 42.9639 189.061 42.7974C189.24 42.631 189.33 42.3703 189.33 42.0154C189.33 41.6869 189.242 41.4371 189.067 41.2663C188.892 41.091 188.605 41.0034 188.206 41.0034H187.056ZM187.05 38.3946V40.228H188.173C188.511 40.228 188.756 40.1535 188.909 40.0046C189.067 39.8556 189.146 39.6212 189.146 39.3014C189.146 38.9816 189.058 38.7516 188.883 38.6114C188.712 38.4669 188.46 38.3946 188.127 38.3946H187.05ZM194.713 43.1129C195.046 43.1129 195.368 43.0866 195.679 43.034C195.99 42.977 196.284 42.907 196.56 42.8237L196.724 43.6649C196.435 43.8138 196.104 43.9365 195.732 44.0329C195.359 44.1336 194.917 44.184 194.404 44.184C193.949 44.184 193.543 44.1183 193.188 43.9869C192.838 43.8554 192.54 43.6517 192.295 43.3757C192.054 43.0953 191.87 42.7383 191.743 42.3046C191.62 41.8709 191.559 41.3517 191.559 40.7471C191.559 39.5643 191.797 38.699 192.275 38.1514C192.753 37.5994 193.462 37.3234 194.404 37.3234C194.838 37.3234 195.215 37.3935 195.534 37.5337C195.859 37.6739 196.126 37.8754 196.336 38.1383C196.551 38.4011 196.709 38.7231 196.809 39.1043C196.914 39.4854 196.967 39.917 196.967 40.3989C196.967 40.5478 196.954 40.6902 196.928 40.826C196.901 40.9574 196.877 41.0582 196.855 41.1283H192.926C192.934 41.8073 193.083 42.309 193.372 42.6331C193.666 42.953 194.113 43.1129 194.713 43.1129ZM195.699 40.2477C195.699 39.6125 195.589 39.1503 195.37 38.8611C195.155 38.5676 194.825 38.4209 194.378 38.4209C193.44 38.4209 192.958 39.0298 192.932 40.2477H195.699ZM199.75 46.576H198.423V37.5074H199.461L199.579 38.1909C199.658 38.1076 199.761 38.0156 199.888 37.9149C200.015 37.8097 200.155 37.7155 200.309 37.6323C200.462 37.5447 200.628 37.4724 200.808 37.4154C200.988 37.3541 201.17 37.3234 201.354 37.3234C202.199 37.3234 202.826 37.606 203.233 38.1711C203.64 38.7363 203.844 39.5971 203.844 40.7537C203.844 41.3802 203.781 41.9125 203.654 42.3506C203.531 42.7843 203.358 43.137 203.134 43.4086C202.915 43.6802 202.652 43.8773 202.346 44C202.039 44.1227 201.704 44.184 201.34 44.184C201.156 44.184 200.983 44.1643 200.821 44.1249C200.659 44.0898 200.51 44.0416 200.374 43.9803C200.239 43.919 200.118 43.851 200.013 43.7766C199.908 43.6977 199.82 43.6189 199.75 43.54V46.576ZM199.75 42.6529C199.833 42.723 199.919 42.7887 200.006 42.85C200.098 42.907 200.195 42.9573 200.296 43.0011C200.401 43.045 200.512 43.08 200.631 43.1063C200.753 43.1282 200.889 43.1391 201.038 43.1391C201.257 43.1391 201.456 43.1019 201.636 43.0274C201.816 42.9486 201.967 42.8171 202.09 42.6331C202.217 42.4491 202.313 42.206 202.379 41.9037C202.449 41.6014 202.484 41.2269 202.484 40.78C202.484 40.3945 202.46 40.0528 202.412 39.7549C202.368 39.457 202.291 39.2072 202.182 39.0057C202.072 38.7998 201.925 38.6443 201.741 38.5391C201.557 38.4296 201.329 38.3749 201.058 38.3749C200.94 38.3749 200.821 38.3924 200.703 38.4274C200.589 38.4625 200.477 38.5085 200.368 38.5654C200.258 38.618 200.151 38.6793 200.046 38.7494C199.941 38.8195 199.842 38.8874 199.75 38.9531V42.6529ZM209.166 44V40.1163L209.245 39.354H209.192L208.66 40.4054L206.616 44H205.138L205.144 37.5074H206.406L206.399 41.3911L206.327 42.1403H206.38L206.905 41.102L208.956 37.5074H210.428V44H209.166ZM214.838 43.1129C215.171 43.1129 215.493 43.0866 215.804 43.034C216.115 42.977 216.409 42.907 216.685 42.8237L216.849 43.6649C216.56 43.8138 216.229 43.9365 215.857 44.0329C215.484 44.1336 215.042 44.184 214.529 44.184C214.074 44.184 213.668 44.1183 213.313 43.9869C212.963 43.8554 212.665 43.6517 212.42 43.3757C212.179 43.0953 211.995 42.7383 211.868 42.3046C211.745 41.8709 211.684 41.3517 211.684 40.7471C211.684 39.5643 211.922 38.699 212.4 38.1514C212.878 37.5994 213.587 37.3234 214.529 37.3234C214.963 37.3234 215.34 37.3935 215.659 37.5337C215.984 37.6739 216.251 37.8754 216.461 38.1383C216.676 38.4011 216.834 38.7231 216.934 39.1043C217.039 39.4854 217.092 39.917 217.092 40.3989C217.092 40.5478 217.079 40.6902 217.053 40.826C217.026 40.9574 217.002 41.0582 216.98 41.1283H213.051C213.059 41.8073 213.208 42.309 213.497 42.6331C213.791 42.953 214.238 43.1129 214.838 43.1129ZM215.824 40.2477C215.824 39.6125 215.714 39.1503 215.495 38.8611C215.28 38.5676 214.95 38.4209 214.503 38.4209C213.565 38.4209 213.083 39.0298 213.057 40.2477H215.824ZM221.246 37.5403L222.574 37.5074V40.458L223.251 40.2477L223.855 38.6771C223.925 38.5063 224.015 38.3442 224.125 38.1909C224.234 38.0375 224.368 37.9039 224.526 37.79C224.688 37.6717 224.876 37.5797 225.091 37.514C225.305 37.4439 225.551 37.4067 225.827 37.4023L226.017 38.4011C225.807 38.423 225.606 38.4931 225.413 38.6114C225.224 38.7297 225.069 38.9247 224.946 39.1963L224.315 40.7406L225.695 43.2969L225.991 44H224.624L223.316 41.3977L222.574 41.562V44H221.246V37.5403ZM231.341 44V38.4931H228.719V42.1009C228.719 42.4119 228.691 42.6813 228.634 42.9091C228.577 43.1326 228.476 43.3253 228.331 43.4874C228.187 43.6495 227.988 43.7853 227.733 43.8949C227.479 44 227.155 44.0854 226.761 44.1511L226.557 43.1194C226.767 43.0362 226.927 42.9508 227.037 42.8631C227.151 42.7711 227.234 42.6682 227.287 42.5543C227.339 42.4404 227.368 42.3111 227.372 42.1666C227.381 42.0176 227.385 41.8468 227.385 41.654V37.5074H232.669V44H231.341ZM238.339 44V40.1163L238.418 39.354H238.366L237.833 40.4054L235.79 44H234.311L234.318 37.5074H235.579L235.573 41.3911L235.501 42.1403H235.553L236.079 41.102L238.129 37.5074H239.601V44H238.339ZM244.012 43.1129C244.344 43.1129 244.666 43.0866 244.978 43.034C245.289 42.977 245.582 42.907 245.858 42.8237L246.022 43.6649C245.733 43.8138 245.402 43.9365 245.03 44.0329C244.658 44.1336 244.215 44.184 243.703 44.184C243.247 44.184 242.842 44.1183 242.487 43.9869C242.136 43.8554 241.839 43.6517 241.593 43.3757C241.352 43.0953 241.168 42.7383 241.041 42.3046C240.919 41.8709 240.857 41.3517 240.857 40.7471C240.857 39.5643 241.096 38.699 241.574 38.1514C242.051 37.5994 242.761 37.3234 243.703 37.3234C244.136 37.3234 244.513 37.3935 244.833 37.5337C245.157 37.6739 245.424 37.8754 245.635 38.1383C245.849 38.4011 246.007 38.7231 246.108 39.1043C246.213 39.4854 246.266 39.917 246.266 40.3989C246.266 40.5478 246.252 40.6902 246.226 40.826C246.2 40.9574 246.176 41.0582 246.154 41.1283H242.224C242.233 41.8073 242.382 42.309 242.671 42.6331C242.964 42.953 243.411 43.1129 244.012 43.1129ZM244.997 40.2477C244.997 39.6125 244.888 39.1503 244.669 38.8611C244.454 38.5676 244.123 38.4209 243.676 38.4209C242.739 38.4209 242.257 39.0298 242.231 40.2477H244.997ZM251.552 44V41.3057H248.924V44H247.596V37.514H248.924V40.1689H251.552V37.514H252.88V44H251.552ZM253.845 38.6049L253.78 37.514H258.353L258.281 38.6049H256.73V44H255.403V38.6049H253.845ZM258.859 40.688C258.859 39.584 259.091 38.7472 259.556 38.1777C260.02 37.6082 260.73 37.3234 261.685 37.3234C262.64 37.3234 263.352 37.6104 263.821 38.1843C264.289 38.7538 264.524 39.5928 264.524 40.7011C264.524 41.8796 264.289 42.7558 263.821 43.3297C263.356 43.8992 262.647 44.184 261.691 44.184C260.736 44.184 260.025 43.897 259.556 43.3231C259.091 42.7449 258.859 41.8665 258.859 40.688ZM263.163 40.7537C263.163 40.3331 263.135 39.9739 263.078 39.676C263.021 39.3737 262.933 39.1262 262.815 38.9334C262.697 38.7407 262.544 38.6005 262.355 38.5129C262.171 38.4209 261.952 38.3749 261.698 38.3749C261.44 38.3749 261.216 38.4209 261.028 38.5129C260.844 38.6005 260.69 38.7407 260.568 38.9334C260.449 39.1218 260.362 39.365 260.305 39.6629C260.248 39.9608 260.219 40.32 260.219 40.7406C260.219 41.1611 260.248 41.5226 260.305 41.8249C260.362 42.1271 260.449 42.3769 260.568 42.574C260.686 42.7668 260.837 42.9091 261.021 43.0011C261.21 43.0931 261.435 43.1391 261.698 43.1391C261.957 43.1391 262.178 43.0953 262.362 43.0077C262.546 42.9157 262.697 42.7733 262.815 42.5806C262.933 42.3834 263.021 42.1359 263.078 41.838C263.135 41.5357 263.163 41.1743 263.163 40.7537ZM265.841 37.5074H268.311C268.973 37.5074 269.488 37.6432 269.856 37.9149C270.224 38.1865 270.408 38.583 270.408 39.1043C270.408 39.2708 270.392 39.4307 270.362 39.584C270.331 39.733 270.281 39.871 270.211 39.998C270.145 40.125 270.055 40.239 269.941 40.3397C269.832 40.4361 269.698 40.5128 269.54 40.5697V40.6223C269.707 40.6749 269.858 40.7428 269.994 40.826C270.13 40.9049 270.243 41.0056 270.335 41.1283C270.432 41.2466 270.504 41.389 270.552 41.5554C270.605 41.7175 270.631 41.9081 270.631 42.1271C270.631 42.425 270.587 42.6901 270.5 42.9223C270.416 43.1545 270.281 43.3516 270.092 43.5137C269.908 43.6714 269.667 43.7919 269.369 43.8751C269.072 43.9584 268.71 44 268.285 44H265.841V37.5074ZM267.03 41.0034V43.0471H268.187C268.572 43.0471 268.855 42.9639 269.034 42.7974C269.214 42.631 269.304 42.3703 269.304 42.0154C269.304 41.6869 269.216 41.4371 269.041 41.2663C268.866 41.091 268.579 41.0034 268.18 41.0034H267.03ZM267.023 38.3946V40.228H268.147C268.484 40.228 268.73 40.1535 268.883 40.0046C269.041 39.8556 269.12 39.6212 269.12 39.3014C269.12 38.9816 269.032 38.7516 268.857 38.6114C268.686 38.4669 268.434 38.3946 268.101 38.3946H267.023Z" fill="black"/>
<defs>
<clipPath id="clip0_3724_349">
<rect width="136.484" height="39.4286" fill="white" transform="translate(0 4.28572)"/>
</clipPath>
</defs>
</svg>
