<svg width="261" height="90" viewBox="0 0 261 90" fill="none" xmlns="http://www.w3.org/2000/svg">
<path fill-rule="evenodd" clip-rule="evenodd" d="M69.3164 11.7852H32.3454C14.5523 11.7852 0 26.3375 0 44.1305V81.1015H69.3164V11.7852Z" fill="white"/>
<path fill-rule="evenodd" clip-rule="evenodd" d="M10.7593 39.8009C14.034 38.4569 16.4697 37.2084 19.5944 35.264C20.0174 34.9979 20.147 34.4384 19.8809 34.0155C19.6148 33.5925 19.0554 33.4628 18.6324 33.7289C15.5896 35.6256 13.2495 36.8263 10.0702 38.1294C9.60626 38.3204 9.38794 38.8458 9.57897 39.3097C9.77 39.7736 10.3022 39.9919 10.7661 39.8009H10.7593ZM10.9776 50.3894C17.7864 47.8514 21.0953 46.1731 27.1741 42.182C31.2608 39.4939 35.3952 39.2346 37.3737 41.6089C39.4341 44.065 37.7285 48.5678 33.3144 51.4742C26.3827 56.0316 22.6645 57.9214 14.8937 60.821C14.4229 60.9984 14.1841 61.5169 14.3615 61.9876C14.5389 62.4584 15.0642 62.6971 15.5282 62.5198C23.4286 59.5725 27.2697 57.6212 34.3105 52.9888C39.516 49.5639 41.6583 43.908 38.7655 40.449C36.0638 37.2152 30.9401 37.5359 26.1712 40.6674C20.2084 44.5835 17.0223 46.2004 10.3363 48.6974C9.86551 48.8748 9.62673 49.3933 9.80411 49.8641C9.98149 50.3348 10.5068 50.5736 10.9708 50.3962L10.9776 50.3894ZM38.2675 34.3361C34.5902 32.6919 28.7297 34.2065 22.6713 38.184C18.0593 41.2063 15.3167 42.7005 11.2914 44.3447C10.8275 44.5357 10.2953 44.3106 10.1043 43.8535C9.91327 43.3895 10.1384 42.8642 10.5955 42.6732C14.5048 41.0767 17.1451 39.6372 21.6616 36.6762C28.4568 32.2143 35.2042 30.5565 39.5501 32.9443C40.2528 32.5418 41.1125 32.4053 41.9584 32.6305C43.6572 33.0876 44.6602 34.8273 44.2099 36.5193C43.7528 38.2113 42.013 39.2142 40.3211 38.7571C38.6223 38.3 37.6194 36.5602 38.0696 34.8683C38.1174 34.6841 38.1856 34.5067 38.2607 34.3361H38.2675ZM43.7732 46.255C42.5042 50.6759 38.6973 54.4829 33.0415 57.8123C31.4791 58.7333 29.869 59.5588 28.0952 60.3843C27.2355 60.7869 24.9637 61.7898 24.6976 61.9194L19.4033 64.2322C18.9462 64.4301 18.7347 64.969 18.9394 65.4261C19.1373 65.8832 19.6762 66.0947 20.1333 65.8969L25.4549 63.5772C25.721 63.4476 27.986 62.4447 28.8729 62.0354C30.6945 61.1894 32.3524 60.3298 33.9693 59.3814C40.1846 55.7246 44.3736 51.4469 45.6494 46.2959C46.6796 45.9957 47.5324 45.1838 47.8326 44.0718C48.2897 42.3798 47.28 40.6401 45.5812 40.183C43.8824 39.7259 42.1427 40.7288 41.6924 42.4207C41.2557 44.0581 42.1836 45.7365 43.78 46.255H43.7732ZM29.6029 48.6906C29.5961 48.6906 29.5961 48.6974 29.5893 48.6974C22.1801 53.9303 18.0593 56.0862 9.51757 59.2177C9.04682 59.3882 8.52831 59.1495 8.35092 58.6787C8.18036 58.208 8.41915 57.6895 8.8899 57.5189C17.2815 54.4488 21.2591 52.3679 28.5386 47.2238C28.5727 47.1965 28.6069 47.176 28.6478 47.1555C28.5045 46.6302 28.4909 46.0639 28.641 45.4977C29.0981 43.8057 30.8378 42.8028 32.5298 43.2599C34.2286 43.717 35.2315 45.4567 34.7812 47.1419C34.3241 48.8339 32.5844 49.8368 30.8924 49.3797C30.3943 49.25 29.9577 49.0044 29.6029 48.6838V48.6906ZM55.5829 33.074C57.6774 35.9326 59.2875 39.8964 59.5059 44.0854C59.847 50.5122 57.0088 56.898 50.125 62.9291C49.7497 63.2566 49.7088 63.8297 50.0431 64.2117C50.3774 64.587 50.9505 64.6279 51.3257 64.2936C58.6189 57.9009 61.6959 50.983 61.3206 43.9899C61.0819 39.5144 59.4035 35.2981 57.1794 32.187C57.541 31.8118 57.8139 31.3479 57.9572 30.8089C58.4074 29.1169 57.4045 27.3772 55.7057 26.9269C54.0069 26.4698 52.2672 27.4727 51.8169 29.1647C51.3598 30.8566 52.3695 32.5964 54.0683 33.0535C54.58 33.1899 55.0985 33.1968 55.5829 33.0876V33.074ZM54.0342 40.0124C56.9474 47.2306 52.6015 55.5404 45.8814 59.9613C45.4652 60.2342 45.3492 60.8005 45.6221 61.2167C45.895 61.6328 46.4613 61.7488 46.8775 61.4759C54.2321 56.632 59.0078 47.5035 55.7126 39.3302C55.5215 38.8662 54.9962 38.6411 54.5323 38.8253C54.0683 39.0095 53.8432 39.5417 54.0274 40.0056L54.0342 40.0124ZM23.3604 32.8693C31.793 27.3226 41.3444 27.9366 46.6455 34.2679C49.2039 37.3244 50.2819 41.2746 49.6815 45.3885C48.9242 50.5531 45.5744 55.4449 40.4916 58.7879C33.7647 63.2157 29.6507 65.3852 23.0192 67.9777C22.5553 68.162 22.3234 68.6873 22.5076 69.1512C22.6918 69.6151 23.2171 69.8471 23.681 69.6629C30.4353 67.0226 34.6584 64.7916 41.4877 60.3025C46.9934 56.6865 50.6366 51.3514 51.4758 45.6478C52.1512 41.029 50.93 36.5602 48.0373 33.1012C42.0949 26.0059 31.5132 25.3236 22.3575 31.3479C21.9345 31.6208 21.8253 32.187 22.0982 32.6032C22.3711 33.0194 22.9374 33.1354 23.3535 32.8625L23.3604 32.8693ZM41.6719 62.8336C36.5346 66.1425 32.8641 68.1074 27.9655 70.1337C27.5016 70.3247 27.2833 70.8568 27.4743 71.3208C27.6654 71.7847 28.1975 72.003 28.6614 71.812C33.6623 69.7379 37.4283 67.7253 42.6543 64.355C43.0773 64.0821 43.1933 63.5227 42.9204 63.0997C42.6475 62.6767 42.0881 62.5607 41.6651 62.8336H41.6719ZM45.6358 65.8696C41.5969 68.4758 38.5199 70.2087 35.0882 71.7915C34.6311 72.003 34.4333 72.542 34.6448 72.9923C34.8562 73.4494 35.3952 73.6472 35.8523 73.4357C39.3659 71.812 42.5179 70.0381 46.625 67.391C47.048 67.1181 47.164 66.5587 46.8911 66.1357C46.6182 65.7127 46.0588 65.5967 45.6358 65.8628V65.8696Z" fill="#0B477B"/>
<path d="M89.706 39.4872C85.1994 39.4872 80.6521 38.1474 78.1349 36.1986L80.3679 31.2453C82.7633 32.9911 86.3362 34.2091 89.7466 34.2091C93.6443 34.2091 95.2277 32.9099 95.2277 31.1641C95.2277 25.8454 78.7033 29.4995 78.7033 18.9433C78.7033 14.1119 82.6009 10.0924 90.6804 10.0924C94.2533 10.0924 97.9073 10.945 100.546 12.6096L98.5163 17.6035C95.8773 16.1013 93.1571 15.3705 90.6398 15.3705C86.7422 15.3705 85.24 16.8321 85.24 18.6185C85.24 23.856 101.764 20.2425 101.764 30.6769C101.764 35.4271 97.8261 39.4872 89.706 39.4872ZM112.795 33.7219H128.264V39H106.259V10.5796H127.736V15.8577H112.795V22.029H125.991V27.1446H112.795V33.7219ZM158.67 39H151.605L146.124 31.0829H145.8H140.075V39H133.498V10.5796H145.8C153.392 10.5796 158.142 14.5179 158.142 20.8921C158.142 25.1552 155.99 28.2815 152.296 29.8649L158.67 39ZM151.484 20.8921C151.484 17.7659 149.454 15.9389 145.434 15.9389H140.075V25.8454H145.434C149.454 25.8454 151.484 23.9778 151.484 20.8921ZM184.141 10.5796H190.677L178.375 39H171.879L159.618 10.5796H166.723L175.371 30.8799L184.141 10.5796ZM193.05 39V10.5796H199.628V39H193.05ZM219.974 39.4872C211.163 39.4872 204.586 33.3565 204.586 24.7898C204.586 16.2231 211.163 10.0924 220.014 10.0924C224.927 10.0924 229.028 11.8788 231.707 15.1269L227.485 19.0245C225.576 16.8321 223.181 15.6953 220.339 15.6953C215.02 15.6953 211.244 19.4305 211.244 24.7898C211.244 30.1491 215.02 33.8843 220.339 33.8843C223.181 33.8843 225.576 32.7475 227.485 30.5145L231.707 34.4121C229.028 37.7008 224.927 39.4872 219.974 39.4872ZM242.685 33.7219H258.154V39H236.149V10.5796H257.626V15.8577H242.685V22.029H255.881V27.1446H242.685V33.7219Z" fill="white"/>
<path d="M105.053 51.0523L94.0097 69.4037V79.4727H87.4324V69.3225L76.4296 51.0523H83.4129L91.0052 63.679L98.5975 51.0523H105.053ZM120.339 79.9599C111.367 79.9599 104.789 73.7074 104.789 65.2625C104.789 56.8175 111.367 50.5651 120.339 50.5651C129.272 50.5651 135.889 56.7769 135.889 65.2625C135.889 73.748 129.272 79.9599 120.339 79.9599ZM120.339 74.357C125.415 74.357 129.231 70.6623 129.231 65.2625C129.231 59.8626 125.415 56.1679 120.339 56.1679C115.264 56.1679 111.448 59.8626 111.448 65.2625C111.448 70.6623 115.264 74.357 120.339 74.357ZM153.459 79.9599C145.38 79.9599 140.589 75.3314 140.589 66.9677V51.0523H147.166V66.7241C147.166 72.124 149.521 74.357 153.5 74.357C157.519 74.357 159.834 72.124 159.834 66.7241V51.0523H166.33V66.9677C166.33 75.3314 161.539 79.9599 153.459 79.9599Z" fill="white"/>
</svg>
