<svg width="107" height="57" viewBox="0 0 107 57" fill="none" xmlns="http://www.w3.org/2000/svg">
<path d="M75.355 38.2601C74.7799 38.2601 74.3965 37.8767 74.3965 37.4933C74.3965 37.11 74.7799 36.7266 75.1633 36.7266C75.5467 36.7266 75.9301 37.11 75.9301 37.4933C75.9301 37.8767 75.93 38.2601 75.355 38.2601Z" fill="black"/>
<path d="M66.6528 44.4317H17.1763C16.7929 44.4317 16.4095 44.0483 16.4095 43.6649C16.4095 40.5786 13.8983 37.8565 10.6203 37.8565C10.2369 37.8565 9.85352 37.4732 9.85352 37.0898V18.5337C9.85352 18.1503 10.2369 17.7669 10.6203 17.7669C13.7066 17.7669 16.4095 15.2557 16.4095 11.9777C16.4095 11.5943 16.7929 11.2109 17.1763 11.2109H70.9084C71.2918 11.2109 71.6752 11.5943 71.6752 11.9777C71.6752 15.064 74.1864 17.7669 77.4644 17.7669C77.8477 17.7669 78.2311 18.1503 78.2311 18.5337V28.1951C78.2311 28.5785 77.8477 28.9619 77.4644 28.9619C70.6975 29.1536 66.4419 31.2814 66.4419 32.6424C66.4419 33.2175 67.017 33.7926 67.5921 34.1952C67.7838 34.3869 67.9754 34.5786 67.9754 34.962C67.9754 35.3453 67.7838 35.537 67.5921 35.7287C67.017 36.1121 66.4419 36.6872 66.4419 37.2815C66.4419 37.8757 67.2087 38.4316 67.5921 38.8342C67.7838 39.0259 67.9754 39.2176 67.9754 39.601C67.9754 39.9844 67.7838 40.1761 67.5921 40.3678C66.8253 40.9428 66.4419 41.5179 66.4419 41.9205C66.4419 42.323 66.6336 42.6873 67.017 43.0898C67.2087 43.2815 67.4004 43.6649 67.2087 44.0483C67.2087 44.24 67.017 44.4317 66.6336 44.4317H66.6528ZM18.1539 42.7064H65.1192C65.1192 42.5147 64.9275 42.1313 64.9275 41.9396C64.9275 41.3646 65.1192 40.5786 66.0777 39.6201C65.1192 38.8534 64.9275 37.8757 64.9275 37.3006C64.9275 36.7255 65.1192 35.9396 65.886 34.9811C65.1192 34.2143 64.9275 33.2367 64.9275 32.6616C64.9275 29.3836 70.7167 27.4475 76.7167 27.2558V19.1471C73.2471 18.7637 70.525 16.0608 70.1416 12.572H18.1539C17.7705 16.0417 15.0676 18.7637 11.5788 19.1471V35.9588C14.8568 36.5339 17.7705 39.2367 18.1539 42.7256V42.7064Z" fill="black"/>
<path d="M44.0511 38.8382C37.8593 38.8382 32.8369 33.8158 32.8369 27.6241C32.8369 21.4323 37.8593 16.4099 44.0511 16.4099C50.2428 16.4099 55.2652 21.4323 55.2652 27.6241C55.2652 33.8158 50.2428 38.8382 44.0511 38.8382ZM44.0511 18.346C38.837 18.346 34.5813 22.6017 34.5813 27.8158C34.5813 33.0299 38.837 37.2855 44.0511 37.2855C49.2652 37.2855 53.5208 33.0299 53.5208 27.8158C53.5208 22.6017 49.2652 18.346 44.0511 18.346Z" fill="black"/>
<path d="M44.6265 30.9228C45.0099 30.9228 45.2016 30.7311 45.3933 30.5394C45.585 30.3477 45.7767 29.9643 45.7767 29.5809C45.7767 29.1976 45.7767 29.0059 45.585 28.8142C45.3933 28.6225 45.2016 28.4308 44.6265 28.2391V30.942V30.9228ZM43.668 23.7726C43.4763 23.7726 43.2846 23.9643 43.0929 24.156C42.9013 24.3477 42.9012 24.5394 42.9012 24.9228C42.9012 25.1145 42.9013 25.3061 43.0929 25.4978C43.2846 25.6895 43.4763 25.8812 43.668 26.0729V23.7534V23.7726ZM43.668 30.9228V28.0282C42.7096 27.8365 42.1153 27.4531 41.7319 26.878C41.3485 26.303 41.1568 25.7087 41.1568 24.9419C41.1568 24.1752 41.3485 23.5809 41.9236 23.0058C42.307 22.4307 43.0738 22.239 43.8597 22.239V21.6639H44.8182V22.239C45.585 22.239 46.1792 22.6224 46.5626 23.0058C46.946 23.3892 47.3294 23.9643 47.3294 24.5585L45.585 24.7502C45.3933 24.1751 45.2016 23.7918 44.8182 23.5809V26.2838C45.9875 26.4755 46.5626 26.8589 46.946 27.434C47.3294 27.8174 47.5211 28.6033 47.5211 29.1784C47.5211 29.9452 47.3294 30.7311 46.7543 31.3062C46.1792 31.8813 45.585 32.2647 44.6265 32.2647V33.6257H43.668V32.4755C42.9012 32.4755 42.307 32.0922 41.7319 31.7088C41.3485 31.1337 40.9651 30.5394 40.7734 29.5809L42.5179 29.3893C42.5179 29.7726 42.7096 29.9643 42.9012 30.3477C43.2846 30.5394 43.4763 30.7311 43.668 30.9228Z" fill="black"/>
<path d="M82.1222 42.522C81.7388 42.522 81.3555 42.3304 81.3555 41.947V41.7553C81.3555 41.3719 81.5472 40.9885 81.9305 40.9885C82.3139 40.7968 82.889 41.1802 83.0999 41.5636V41.7553C83.0999 42.1387 82.9082 42.522 82.5248 42.522H82.1414H82.1222Z" fill="black"/>
<path d="M66.6527 49.073H5.96209C5.5787 49.073 5.19531 48.6896 5.19531 48.3062V7.341C5.19531 6.95761 5.5787 6.57422 5.96209 6.57422H82.2951C82.6785 6.57422 83.0618 6.95761 83.0618 7.341V28.6C83.0618 28.7917 82.8701 29.1751 82.6784 29.1751C82.4868 29.3668 82.2951 29.3668 81.9117 29.3668C80.5506 29.1751 79.2088 29.1751 77.8477 29.1751C70.6975 29.1751 66.4419 31.3029 66.4419 32.8364C66.4419 33.4115 67.017 34.0058 67.592 34.3892C67.7837 34.5809 67.9754 34.7726 67.9754 35.1559C67.9754 35.5393 67.7837 35.731 67.592 35.9227C67.017 36.3061 66.4419 36.8812 66.4419 37.4755C66.4419 38.0697 67.2087 38.6256 67.592 39.0282C67.7837 39.2199 67.9754 39.4116 67.9754 39.795C67.9754 40.1784 67.7837 40.37 67.592 40.5617C66.8253 41.1368 66.4419 41.7119 66.4419 42.1145C66.4419 42.6896 67.2087 43.4755 67.592 43.6672C67.7837 43.8589 67.9754 44.0506 67.9754 44.434C67.9754 44.8174 67.7837 45.0091 67.592 45.2008C66.8253 45.7759 66.4419 46.3509 66.4419 46.7535C66.4419 47.1561 66.6336 47.3286 67.017 47.712C67.2087 47.9037 67.4004 48.0954 67.4004 48.2871C67.4004 48.6704 67.017 49.0538 66.6336 49.0538L66.6527 49.073ZM6.93974 47.3478H65.1192C65.1192 47.1561 64.9275 46.7727 64.9275 46.581C64.9275 46.0059 65.1192 45.2391 66.0777 44.2615C65.1192 43.4947 64.9275 42.517 64.9275 41.942C64.9275 41.3669 65.1192 40.5809 66.0777 39.6224C65.1192 38.8557 64.9275 37.878 64.9275 37.3029C64.9275 36.7278 65.1192 35.9419 65.886 34.9834C65.1192 34.2166 64.9275 33.239 64.9275 32.6639C64.9275 29.1942 71.6943 27.2581 78.0778 27.2581C79.2471 27.2581 80.2056 27.2581 81.3558 27.4498V8.12695H6.93974V47.3669V47.3478Z" fill="black"/>
<path d="M5.98088 46.371H0.766779C0.383389 46.371 0 45.9876 0 45.6043V0.766783C0 0.383393 0.383389 0 0.766779 0H79.6301C80.0135 0 80.3969 0.383393 80.3969 0.766783V7.34192C80.3969 7.72531 80.0135 8.1087 79.6301 8.1087H6.93936V45.4126C6.93936 45.9876 6.55597 46.371 5.98088 46.371ZM1.53356 44.6266H5.00324V7.32275C5.00324 6.93936 5.38663 6.55597 5.77002 6.55597H78.6333V1.72526H1.53356V44.6266Z" fill="black"/>
<path d="M78.0585 56.4366C71.675 56.4366 64.9082 54.5005 64.9082 51.0308C64.9082 50.2641 65.2916 49.0947 66.8443 47.9446C67.2277 47.7529 67.4194 47.7529 67.8028 47.9446C69.9306 49.3056 73.8028 50.0724 78.0393 50.0724C82.2758 50.0724 86.148 49.3056 88.2758 47.9446C88.6592 47.7529 88.8509 47.7529 89.2343 47.9446C90.9787 49.0947 91.1704 50.2641 91.1704 51.0308C91.3621 54.5005 84.4036 56.4366 78.0201 56.4366H78.0585ZM67.4386 49.8615C66.8635 50.2449 66.6718 50.6283 66.6718 51.0308C66.6718 52.5836 71.1191 54.6922 78.0777 54.6922C85.0362 54.6922 89.4835 52.5644 89.4835 51.0308C89.4835 50.6474 89.2918 50.2641 88.7167 49.8615C86.2055 51.2225 82.3333 51.9893 78.0777 51.9893C73.822 51.9893 69.7581 51.2225 67.4386 49.8615Z" fill="black"/>
<path d="M78.0585 51.9874C71.675 51.9874 64.9082 50.0513 64.9082 46.5816C64.9082 45.8148 65.2916 44.6455 66.8443 43.4953C67.2277 43.3036 67.4194 43.3036 67.8028 43.4953C69.9306 44.8564 73.8028 45.6231 78.0393 45.6231C82.2758 45.6231 86.148 44.8564 88.2758 43.4953C88.6592 43.3036 88.8509 43.3036 89.2343 43.4953C90.787 44.6647 91.1704 45.8148 91.1704 46.5816C91.3621 50.0705 84.4036 51.9874 78.0201 51.9874H78.0585ZM67.4386 45.2206C66.8635 45.604 66.6718 45.9874 66.6718 46.3708C66.6718 47.9235 71.1191 50.0513 78.0777 50.0513C85.0362 50.0513 89.4835 47.9235 89.4835 46.3708C89.4835 45.9874 89.2918 45.604 88.7167 45.2206C86.2055 46.5624 82.3333 47.3484 78.0777 47.3484C73.822 47.3484 69.969 46.5816 67.4386 45.2206Z" fill="black"/>
<path d="M78.0585 47.3468C71.675 47.3468 64.9082 45.4107 64.9082 41.941C64.9082 41.1742 65.2916 40.0049 66.8443 38.8547C67.2277 38.663 67.4194 38.663 67.8028 38.8547C69.9306 40.2157 73.8028 40.9825 78.0393 40.9825C82.2758 40.9825 86.148 40.2157 88.2758 38.8547C88.6592 38.663 88.8509 38.663 89.2343 38.8547C90.9787 40.0049 91.1704 41.1742 91.1704 41.941C91.3621 45.4298 84.4036 47.3468 78.0201 47.3468H78.0585ZM67.4386 40.58C66.8635 40.9634 66.6718 41.3467 66.6718 41.7301C66.6718 43.2829 71.1191 45.4107 78.0777 45.4107C85.0362 45.4107 89.4835 43.2829 89.4835 41.7301C89.4835 41.3467 89.2918 40.9634 88.7167 40.58C86.2055 41.941 82.3333 42.7078 78.0777 42.7078C73.822 42.8995 69.7581 41.941 67.4386 40.58Z" fill="black"/>
<path d="M78.0585 42.9012C71.675 42.9012 64.9082 40.9651 64.9082 37.4954C64.9082 36.7286 65.2916 35.5593 66.8443 34.6008C67.2277 34.4091 67.4194 34.4091 67.8028 34.6008C69.9306 35.9618 73.8028 36.9203 78.0393 36.9203C82.2758 36.9203 86.3589 36.1535 88.2758 34.6008C88.6592 34.4091 88.8509 34.4091 89.2343 34.6008C90.787 35.7701 91.1704 36.7286 91.1704 37.4954C91.3621 40.9651 84.4036 42.9012 78.0201 42.9012H78.0585ZM67.4386 36.1344C67.0552 36.5178 66.6718 36.9011 66.6718 37.3037C66.6718 38.8564 71.1191 40.9651 78.0777 40.9651C85.0362 40.9651 89.4835 38.8373 89.4835 37.3037C89.4835 36.9203 89.1001 36.3452 88.7167 36.1344C86.2055 37.4954 82.3333 38.2622 78.0777 38.2622C73.822 38.2622 69.7581 37.4954 67.4386 36.1344Z" fill="black"/>
<path d="M78.0585 38.2608C71.675 38.2608 64.9082 36.3247 64.9082 32.855C64.9082 29.3853 71.675 27.4492 78.0585 27.4492C84.4419 27.4492 91.2088 29.3853 91.2088 32.855C91.4005 36.3247 84.4419 38.2608 78.0585 38.2608ZM78.0585 28.9828C70.9083 28.9828 66.6526 31.1106 66.6526 32.6633C66.6526 34.2161 71.0999 36.3439 78.0585 36.3439C85.017 36.3439 89.4643 34.2161 89.4643 32.6633C89.656 31.3023 85.2087 28.9828 78.0585 28.9828Z" fill="black"/>
<path d="M95.8477 47.1571C93.7199 47.1571 91.7838 46.9654 90.0586 46.3903C89.8669 46.3903 89.6752 46.1986 89.4835 46.0069C89.2918 45.6235 88.9084 45.2401 88.525 45.0484C88.3333 44.8567 88.1416 44.665 88.1416 44.2816C88.1416 43.8982 88.3333 43.7065 88.525 43.5149C89.2918 43.1315 89.6752 42.5564 89.6752 42.1538C89.6752 41.9621 89.8669 41.7704 90.0586 41.5787C90.2502 41.387 90.4419 41.387 90.8253 41.387C92.3781 41.7704 94.1033 41.9621 96.0394 41.9621C99.1257 41.9621 102.039 41.387 103.573 40.4094C103.956 40.2177 104.148 40.2177 104.532 40.4094C105.49 41.1762 106.084 41.9621 106.084 42.9206C105.893 45.6235 100.87 47.1762 95.8477 47.1762V47.1571ZM90.6336 44.6267C92.1864 45.0101 93.9116 45.2018 95.6561 45.2018C100.678 45.2018 103.976 43.649 103.976 42.6906C103.976 42.4989 103.784 42.3072 103.592 42.1155C101.656 43.074 98.7615 43.6682 95.6752 43.6682C93.9308 43.6682 92.3972 43.4765 90.8445 43.2848C90.6528 43.6682 90.4611 44.0516 90.0777 44.2433C90.4611 44.2433 90.6528 44.435 90.6528 44.6267H90.6336Z" fill="black"/>
<path d="M88.1223 40.9691C87.7389 40.9691 87.5472 40.7774 87.3555 40.394V40.0106C87.3555 39.6272 87.5472 39.4355 87.9306 39.2438C87.9306 39.2438 88.1222 39.2438 88.3139 39.0521C88.6973 38.8605 89.2724 38.8605 89.4641 39.4355C89.4641 39.6272 89.6558 39.6272 89.6558 39.8189C89.6558 40.2023 89.4641 40.394 89.2724 40.5857C89.0807 40.5857 88.889 40.7774 88.6973 40.7774C88.3139 40.9691 88.1223 40.9691 88.1223 40.9691Z" fill="black"/>
<path d="M87.1447 41.3479C86.7613 41.3479 86.5696 41.1562 86.3779 40.7728V40.3894C86.3779 40.006 86.5696 39.8144 86.953 39.6227C87.1447 39.6227 87.3364 39.431 87.3364 39.431C87.3364 39.431 87.5281 39.431 87.5281 39.2393C87.9115 39.0476 88.4866 39.2393 88.6783 39.6227V40.006C88.6783 40.3894 88.4866 40.5811 88.1032 40.7728C88.1032 40.7728 87.9115 40.7728 87.9115 40.9645C87.7198 40.9645 87.5281 41.1562 87.3364 41.1562C87.3364 41.284 87.2725 41.3479 87.1447 41.3479Z" fill="black"/>
<path d="M87.1447 41.3505C86.953 41.3505 86.7613 41.3505 86.7613 41.1588C86.5696 40.9671 86.3779 40.7754 86.3779 40.392C86.3779 40.0086 86.5696 39.6252 86.953 39.6252C87.3364 39.4335 87.9115 39.8169 87.9115 40.2003C88.1032 40.5837 87.9115 41.1588 87.5281 41.3696H87.1447V41.3505Z" fill="black"/>
<path d="M95.8477 43.6688C93.9116 43.6688 91.9755 43.4771 90.2503 43.0937C89.8669 42.902 89.6752 42.5186 89.6752 42.1352V41.9435C89.6752 41.5601 89.2918 40.985 88.525 40.3908C88.3333 40.1991 88.1416 40.0074 88.1416 39.624C88.1416 39.2406 88.3333 39.0489 88.525 38.8572C88.9084 38.6655 89.2918 38.2821 89.4835 38.0904C89.6752 37.8988 90.0586 37.7071 90.442 37.7071C91.9947 38.0905 93.9116 38.4738 96.0394 38.4738C99.1257 38.4738 102.039 37.8988 103.573 36.9211C103.956 36.7294 104.148 36.7294 104.532 36.9211C105.49 37.6879 106.084 38.4738 106.084 39.4323C105.893 42.1352 100.87 43.6879 95.8477 43.6879V43.6688ZM91.2087 41.3493C92.5698 41.7327 94.1033 41.7327 95.6561 41.7327C100.678 41.7327 103.976 40.1799 103.976 39.2214C103.976 39.0298 103.784 38.8381 103.592 38.6464C101.656 39.6048 98.7615 40.1991 95.6752 40.1991C93.7391 40.1991 91.803 40.0074 90.0777 39.624C90.8445 40.1991 91.2279 40.985 91.2279 41.3684L91.2087 41.3493Z" fill="black"/>
<path d="M95.8478 40.2003C93.5282 40.2003 91.5921 40.0086 89.8669 39.4335C89.6752 39.4335 89.2918 39.0501 89.2918 38.8585C89.2918 38.6668 89.2918 38.2834 89.4835 38.0917C89.6752 37.9 89.6752 37.5166 89.6752 37.3249C89.6752 36.7498 89.1001 36.1555 88.525 35.7722C88.3333 35.5805 88.1416 35.3888 88.1416 35.0054C88.1416 34.8137 88.3333 34.4303 88.525 34.2386L88.7167 34.0469C88.9084 33.8552 89.2918 33.8552 89.4835 33.8552C91.2279 34.4303 93.3557 34.8137 95.8669 34.8137C98.9532 34.8137 101.867 34.2386 103.401 33.261C103.592 33.0693 103.976 33.0693 104.359 33.261C105.72 34.0277 105.912 35.0054 105.912 35.7722C105.912 38.6668 100.889 40.2195 95.8669 40.2195L95.8478 40.2003ZM91.2087 38.0725C92.5698 38.4559 94.1033 38.4559 95.8478 38.4559C100.87 38.4559 104.167 36.9032 104.167 35.9447C104.167 35.753 103.976 35.5613 103.784 35.3696C101.848 36.3281 98.9532 36.9223 95.8669 36.9223C94.1225 36.9223 92.5889 36.7306 91.2279 36.5389C91.4196 36.9223 91.4196 37.3057 91.4196 37.4974C91.4196 37.4974 91.2279 37.8808 91.2279 38.0725H91.2087Z" fill="black"/>
<path d="M95.8471 36.7081C93.1442 36.7081 90.8247 36.3247 88.8886 35.558C88.5052 35.3663 88.3135 35.1746 88.3135 34.7912C88.3135 34.4078 88.3135 34.2161 88.6969 34.0244C89.2719 33.641 89.6553 33.0659 89.6553 32.6634C89.6553 32.4717 89.6553 32.28 89.4636 32.0883C89.2719 31.7049 89.2719 31.3215 89.4636 31.1298C89.6553 30.9381 90.0387 30.7464 90.4221 30.7464C91.9748 31.1298 93.8918 31.3215 95.8279 31.3215C98.9142 31.3215 101.828 30.7464 103.362 29.7688C103.745 29.5771 103.937 29.5771 104.32 29.7688C105.681 30.5356 105.873 31.5132 105.873 32.0883C105.873 35.3663 100.85 36.7273 95.8279 36.7273L95.8471 36.7081ZM90.8247 34.3886C92.3774 34.772 94.1027 34.9637 95.8471 34.9637C100.87 34.9637 104.167 33.411 104.167 32.4525C104.167 32.2608 103.975 32.0691 103.783 31.8774C101.847 32.8359 98.9526 33.4302 95.8663 33.4302C94.3135 33.4302 92.78 33.2385 91.4189 33.0468C91.2272 33.4302 91.2272 34.0052 90.8439 34.4078L90.8247 34.3886Z" fill="black"/>
<path d="M95.8479 33.4296C93.7201 33.4296 91.5923 33.2379 90.0587 32.6628C89.867 32.6628 89.6753 32.4711 89.4836 32.2794C89.1003 31.5126 87.9309 30.9184 86.3974 30.3433C86.2057 30.1516 85.8223 29.9599 85.8223 29.7682V29.1931C85.8223 26.2985 90.8447 24.9375 95.8671 24.9375C100.89 24.9375 105.912 26.4902 105.912 29.1931C105.912 31.896 100.89 33.4488 95.8671 33.4488L95.8479 33.4296ZM90.6338 31.1101C92.1865 31.4935 93.9118 31.6852 95.6562 31.6852C100.679 31.6852 103.976 30.1324 103.976 29.174C103.976 28.2155 100.698 26.6628 95.6562 26.6628C90.6147 26.6628 87.7392 28.0238 87.3367 28.9823C89.0811 29.3656 90.0396 30.1516 90.6146 31.1101H90.6338Z" fill="black"/>
<path d="M77.4826 14.4945C76.1216 14.4945 75.1631 13.3443 75.1631 12.175C75.1631 10.8139 76.3324 9.85547 77.4826 9.85547C78.8436 9.85547 79.8021 11.0248 79.8021 12.175C79.8021 13.536 78.8436 14.4945 77.4826 14.4945ZM77.4826 11.389C77.0992 11.389 76.9075 11.7724 76.9075 11.9641C76.9075 12.3475 77.2909 12.5392 77.4826 12.5392C77.866 12.5392 78.0577 12.3475 78.0577 11.9641C78.0577 11.7724 77.866 11.389 77.4826 11.389Z" fill="black"/>
<path d="M11.3859 14.4945C10.0249 14.4945 9.06641 13.3443 9.06641 12.175C9.06641 10.8139 10.2166 9.85547 11.3859 9.85547C12.7469 9.85547 13.7054 11.0248 13.7054 12.175C13.7054 13.536 12.5553 14.4945 11.3859 14.4945ZM11.3859 11.389C11.0025 11.389 10.8108 11.7724 10.8108 11.9641C10.8108 12.3475 11.1942 12.5392 11.3859 12.5392C11.7693 12.5392 11.961 12.1558 11.961 11.9641C11.961 11.7724 11.5776 11.389 11.3859 11.389Z" fill="black"/>
<path d="M11.3859 45.0296C10.0249 45.0296 9.06641 43.8795 9.06641 42.7101C9.06641 41.3683 10.2166 40.3906 11.3859 40.3906C12.7469 40.3906 13.7054 41.5408 13.7054 42.7101C13.7054 44.0712 12.5553 45.0296 11.3859 45.0296ZM11.3859 41.9242C11.0025 41.9242 10.8108 42.3076 10.8108 42.4993C10.8108 42.8827 11.0025 43.0744 11.3859 43.0744C11.7693 43.0744 11.961 42.691 11.961 42.4993C11.961 42.3076 11.5776 41.9242 11.3859 41.9242Z" fill="black"/>
<path d="M29.7512 21.4515H18.7287C18.3453 21.4515 17.9619 21.0681 17.9619 20.6848C17.9619 20.3014 18.3453 19.918 18.7287 19.918H29.7512C30.1346 19.918 30.5179 20.3014 30.5179 20.6848C30.5179 21.0681 30.1346 21.4515 29.7512 21.4515Z" fill="black"/>
<path d="M29.7512 35.7523H18.7287C18.3453 35.7523 17.9619 35.3689 17.9619 34.9855C17.9619 34.6021 18.3453 34.2188 18.7287 34.2188H29.7512C30.1346 34.2188 30.5179 34.6021 30.5179 34.9855C30.5179 35.3689 30.1346 35.7523 29.7512 35.7523Z" fill="black"/>
<path d="M68.9728 21.4515H57.9504C57.567 21.4515 57.1836 21.0681 57.1836 20.6848C57.1836 20.3014 57.567 19.918 57.9504 19.918H68.9728C69.3562 19.918 69.7396 20.3014 69.7396 20.6848C69.7396 21.0681 69.5479 21.4515 68.9728 21.4515Z" fill="black"/>
<path d="M67.0553 35.7523H57.9689C57.5855 35.7523 57.2021 35.3689 57.2021 34.9855C57.2021 34.6021 57.5855 34.2188 57.9689 34.2188H67.0553C67.4387 34.2188 67.822 34.6021 67.822 34.9855C67.822 35.3689 67.4387 35.7523 67.0553 35.7523Z" fill="black"/>
</svg>
