<svg width="82" height="82" viewBox="0 0 82 82" fill="none" xmlns="http://www.w3.org/2000/svg">
<path d="M40.5205 81.1196C29.7267 81.1196 19.5196 76.98 11.835 69.2732C4.15031 61.581 0 51.364 0 40.5598C0 29.7556 4.13564 19.5386 11.835 11.8465C19.5196 4.15433 29.7267 0 40.5205 0C51.3142 0 61.5213 4.13965 69.206 11.8465C76.8906 19.5533 81.0409 29.7556 81.0409 40.5598C81.0409 51.364 76.7587 61.581 69.206 69.2732C61.5213 76.9653 51.3142 81.1196 40.5205 81.1196ZM40.5205 1.35053C18.933 1.35053 1.33455 18.9661 1.33455 40.5745C1.33455 62.1829 18.933 79.7984 40.5205 79.7984C62.1079 79.7984 79.7064 62.1829 79.7064 40.5745C79.7064 18.9661 62.1079 1.35053 40.5205 1.35053Z" fill="black"/>
<path d="M71.42 41.3065C71.1267 41.3065 70.8334 41.0129 70.8334 40.7193C70.8334 26.3627 60.6263 13.929 46.5915 10.9637C46.2982 10.9637 46.0049 10.5234 46.0049 10.2298C46.0049 9.93617 46.4448 9.64258 46.7382 9.64258C53.8362 11.1252 60.3476 14.9713 64.9232 20.5936C69.4988 26.2159 72.0213 33.3208 72.0213 40.5726C72.1679 40.8661 71.8746 41.3065 71.4347 41.3065H71.42Z" fill="black"/>
<path d="M78.372 41.3066H71.4206C71.1273 41.3066 70.834 41.013 70.834 40.7194C70.834 40.4258 71.1273 40.1322 71.4206 40.1322H78.372C78.6653 40.1322 78.9586 40.4258 78.9586 40.7194C78.9586 41.013 78.812 41.3066 78.372 41.3066Z" fill="black"/>
<path d="M78.3724 41.3078C78.2257 41.3078 77.9324 41.161 77.9324 41.0142L76.1579 38.7976C75.8646 38.504 76.0113 38.0636 76.3046 37.9021C76.5979 37.6085 77.0378 37.7553 77.1992 38.0489L78.9737 40.2655C79.267 40.5591 79.1203 40.9995 78.827 41.1463C78.6804 41.1463 78.5337 41.2931 78.3871 41.2931L78.3724 41.3078Z" fill="black"/>
<path d="M76.597 43.3798C76.4504 43.3798 76.3037 43.3798 76.157 43.233C75.8637 42.9394 75.8637 42.6458 76.0104 42.3375L77.7849 40.1209C78.0782 39.8273 78.3715 39.8273 78.6648 39.9741C78.9581 40.2677 78.9581 40.5613 78.8115 40.8549L77.037 43.0715C77.037 43.2183 76.8903 43.3651 76.597 43.3651V43.3798Z" fill="black"/>
<path d="M40.5202 72.2382C40.2269 72.2382 39.9336 71.9446 39.9336 71.651C39.9336 71.3574 40.2269 71.0638 40.5202 71.0638C54.863 71.0638 67.2845 60.8468 70.2323 46.7984C70.2323 46.5048 70.6722 46.2112 70.9656 46.2112C71.2589 46.2112 71.5522 46.6516 71.5522 46.9452C70.071 54.0501 66.2286 60.5679 60.6118 65.1479C54.8483 69.5812 47.7503 72.2528 40.5055 72.2528L40.5202 72.2382Z" fill="black"/>
<path d="M40.5202 79.1944C40.2269 79.1944 39.9336 78.9008 39.9336 78.6072V71.6491C39.9336 71.3555 40.2269 71.0619 40.5202 71.0619C40.8135 71.0619 41.1068 71.3555 41.1068 71.6491V78.6072C41.1068 78.9008 40.8135 79.1944 40.5202 79.1944Z" fill="black"/>
<path d="M40.5207 79.1945C40.3741 79.1945 40.0808 79.0477 40.0808 78.9009C39.7875 78.6073 39.9341 78.1669 40.2274 78.0201L42.4419 76.2439C42.7352 75.9503 43.1752 76.0971 43.3218 76.3907C43.6151 76.6843 43.4685 77.1247 43.1752 77.2715L40.9607 79.0477C40.814 79.1945 40.6674 79.1945 40.5207 79.1945Z" fill="black"/>
<path d="M40.5205 79.1956C40.3738 79.1956 40.2272 79.1956 40.0805 79.0488L37.866 77.2726C37.5727 76.979 37.5727 76.6854 37.7194 76.3918C38.0127 76.0982 38.306 76.0982 38.614 76.245L40.8284 78.0212C41.1217 78.3148 41.1218 78.6084 40.9751 78.902C40.9751 79.0488 40.6818 79.1956 40.5351 79.1956H40.5205Z" fill="black"/>
<path d="M34.3019 71.5028C27.0572 70.0201 20.5457 66.1741 15.9701 60.5518C11.3798 54.9295 8.87207 47.8245 8.87207 40.5728C8.87207 40.2792 9.16538 39.9856 9.45869 39.9856C9.75199 39.9856 10.0453 40.2792 10.0453 40.5728C10.0453 54.9295 20.2524 67.3631 34.3019 70.3284C34.5952 70.3284 34.8885 70.7688 34.8885 71.0624C34.8885 71.356 34.7418 71.5028 34.3019 71.5028Z" fill="black"/>
<path d="M9.62004 41.3066H2.66865C2.37534 41.3066 2.08203 41.013 2.08203 40.7194C2.08203 40.4258 2.37534 40.1322 2.66865 40.1322H9.62004C9.91335 40.1322 10.2067 40.4258 10.2067 40.7194C10.2067 41.013 9.91335 41.3066 9.62004 41.3066Z" fill="black"/>
<path d="M4.29622 43.377C4.14957 43.377 3.85626 43.2302 3.85626 43.0834L2.08175 40.8667C1.78845 40.5731 1.9351 40.1328 2.22841 39.986C2.52171 39.6924 2.96168 39.8392 3.12299 40.1328L4.89751 42.3494C5.19082 42.643 5.04416 43.0834 4.75085 43.2448C4.6042 43.3916 4.45754 43.3916 4.31089 43.3916L4.29622 43.377Z" fill="black"/>
<path d="M2.66927 41.3071C2.52262 41.3071 2.37596 41.3071 2.22931 41.1603C1.936 40.8667 1.93601 40.5731 2.08266 40.2795L3.85717 38.0629C4.15048 37.7693 4.44379 37.7693 4.73709 37.9161C5.0304 38.0629 5.0304 38.5033 4.88375 38.8116L3.10923 41.0282C2.96258 41.175 2.81593 41.3218 2.66927 41.3218V41.3071Z" fill="black"/>
<path d="M10.2078 35.0976C9.76781 34.9508 9.4745 34.6572 9.62116 34.3636C11.1024 27.2586 14.9447 20.7409 20.5615 16.1608C26.1784 11.5661 33.2764 9.05591 40.5211 9.05591C40.8144 9.05591 41.1077 9.3495 41.1077 9.64309C41.1077 9.93669 40.8144 10.2303 40.5211 10.2303C26.1784 10.2303 13.7568 20.4473 10.9557 34.5104C10.8091 34.9508 10.5157 35.0976 10.2224 35.0976H10.2078Z" fill="black"/>
<path d="M40.5202 10.2336C40.2269 10.2336 39.9336 9.93999 39.9336 9.6464V2.68826C39.9336 2.39467 40.2269 2.10107 40.5202 2.10107C40.8135 2.10107 41.1068 2.39467 41.1068 2.68826V9.6464C41.1068 9.93999 40.8135 10.2336 40.5202 10.2336Z" fill="black"/>
<path d="M38.2912 5.04777C38.1446 5.04777 37.8513 4.90098 37.8513 4.75418C37.558 4.46059 37.7046 4.0202 37.9979 3.8734L40.2124 2.09717C40.5057 1.80357 40.9457 1.95037 41.107 2.24396C41.4003 2.53755 41.2537 2.97794 40.9603 3.12474L38.7459 4.90098C38.5992 5.04777 38.4526 5.04777 38.3059 5.04777H38.2912Z" fill="black"/>
<path d="M42.7343 5.04886C42.5877 5.04886 42.441 5.04886 42.2944 4.90206L40.0799 3.12583C39.7866 2.83224 39.7866 2.53864 39.9332 2.24505C40.2266 1.95146 40.5199 1.95146 40.8132 2.09826L43.0276 3.87449C43.3209 4.16808 43.321 4.46167 43.1743 4.75527C43.0276 4.90206 42.881 5.04886 42.7343 5.04886Z" fill="black"/>
<path d="M40.5207 65.279C26.9113 65.279 15.8242 54.1812 15.8242 40.5585C15.8242 26.9358 26.9113 15.838 40.5207 15.838C54.1302 15.838 65.2173 26.9358 65.2173 40.5585C65.2173 54.1812 54.1302 65.279 40.5207 65.279ZM40.5207 17.1885C27.6592 17.1885 17.1588 27.6991 17.1588 40.5732C17.1588 53.4472 27.6592 63.9578 40.5207 63.9578C53.3823 63.9578 63.8827 53.4472 63.8827 40.5732C63.8827 27.6991 53.3823 17.1885 40.5207 17.1885Z" fill="black"/>
<path d="M64.4691 41.3066H16.5573C16.264 41.3066 15.9707 41.013 15.9707 40.7194C15.9707 40.4258 16.264 40.1322 16.5573 40.1322H64.6158C64.9091 40.1322 65.2024 40.4258 65.2024 40.7194C65.2024 41.013 64.9091 41.3066 64.4691 41.3066Z" fill="black"/>
<path d="M40.5202 65.2815C40.2269 65.2815 39.9336 64.9879 39.9336 64.6943V16.5891C39.9336 16.2955 40.2269 16.002 40.5202 16.002C40.8135 16.002 41.1068 16.2955 41.1068 16.5891V64.6943C41.1068 64.9879 40.8135 65.2815 40.5202 65.2815Z" fill="black"/>
<path d="M40.5201 30.0639C34.0087 30.0639 27.5119 29.0217 21.0005 26.805C20.7071 26.6582 20.4138 26.3647 20.5605 25.9243C20.7071 25.6307 21.0005 25.3371 21.4551 25.4839C34.17 29.7703 46.8849 29.7703 59.4531 25.4839C59.7464 25.3371 60.1864 25.4839 60.333 25.9243C60.4797 26.2179 60.333 26.6582 59.8931 26.805C53.5283 29.0217 47.0315 30.0639 40.5201 30.0639Z" fill="black"/>
<path d="M59.7319 55.5168H59.5853C47.017 51.2304 34.3022 51.2304 21.5873 55.5168C21.294 55.6636 20.854 55.5168 20.7073 55.0764C20.5607 54.7829 20.7073 54.3425 21.1473 54.1957C34.1555 49.7624 47.1784 49.7624 60.0399 54.1957C60.3332 54.3425 60.6265 54.6361 60.4799 55.0764C60.3332 55.37 60.0399 55.5168 59.7466 55.5168H59.7319Z" fill="black"/>
<path d="M40.5209 65.279C36.9719 65.279 33.7162 62.622 31.2084 57.8805C28.8472 53.2857 27.5127 47.0763 27.5127 40.5585C27.5127 34.0408 28.8472 27.8313 31.2084 23.2365C33.7162 18.495 36.9719 15.838 40.5209 15.838C44.0699 15.838 47.3256 18.5097 49.8334 23.2365C52.1945 27.8313 53.5291 34.0408 53.5291 40.5585C53.5291 47.0763 52.1945 53.2857 49.8334 57.8805C47.3256 62.622 44.0699 65.279 40.5209 65.279ZM40.5209 17.1885C37.4118 17.1885 34.6107 19.552 32.3963 23.8531C30.1818 28.2863 28.8472 34.2169 28.8472 40.5732C28.8472 46.9295 30.1818 52.86 32.3963 57.2933C34.6107 61.5797 37.5732 63.9578 40.5209 63.9578C43.63 63.9578 46.431 61.5944 48.6455 57.2933C50.86 52.86 52.1945 46.9295 52.1945 40.5732C52.1945 34.2169 50.86 28.2863 48.6455 23.8531C46.431 19.5666 43.6153 17.1885 40.5209 17.1885Z" fill="black"/>
</svg>
