<svg width="74" height="60" viewBox="0 0 74 60" fill="none" xmlns="http://www.w3.org/2000/svg">
<g clip-path="url(#clip0_3724_98)">
<path d="M52.6532 60.0005H21.348C21.015 60.0005 20.7402 59.7272 20.7402 59.3959V20.5967C20.7402 20.2655 21.015 19.9922 21.348 19.9922H52.6532C52.9862 19.9922 53.2609 20.2655 53.2609 20.5967V59.3959C53.2609 59.7272 52.9862 60.0005 52.6532 60.0005ZM21.9558 58.7914H52.0454V21.2013H21.9558V58.7914Z" fill="black"/>
<path d="M47.4991 21.2013H26.5013C26.1683 21.2013 25.8936 20.928 25.8936 20.5968V12.1827C25.8936 11.8514 26.1683 11.5781 26.5013 11.5781H47.4991C47.8321 11.5781 48.1069 11.8514 48.1069 12.1827V20.5968C48.1069 20.928 47.8321 21.2013 47.4991 21.2013ZM27.1091 19.9922H46.8996V12.7872H27.1091V19.9922Z" fill="black"/>
<path d="M37.0004 12.7867C36.6673 12.7867 36.3926 12.5135 36.3926 12.1822V0.604555C36.3926 0.273292 36.6673 0 37.0004 0C37.3334 0 37.6081 0.273292 37.6081 0.604555V12.1822C37.6081 12.5135 37.3334 12.7867 37.0004 12.7867Z" fill="black"/>
<path d="M44.3262 60.0004H29.6644C29.3314 60.0004 29.0566 59.7271 29.0566 59.3958V43.0811C29.0566 42.7499 29.3314 42.4766 29.6644 42.4766H44.3262C44.6593 42.4766 44.934 42.7499 44.934 43.0811V59.3958C44.934 59.7271 44.6593 60.0004 44.3262 60.0004ZM30.2722 58.7913H43.7184V43.6857H30.2722V58.7913Z" fill="black"/>
<path d="M44.926 27.1154H29.0736C28.7406 27.1154 28.4658 26.8421 28.4658 26.5108C28.4658 26.1795 28.7406 25.9062 29.0736 25.9062H44.926C45.259 25.9062 45.5338 26.1795 45.5338 26.5108C45.5338 26.8421 45.259 27.1154 44.926 27.1154Z" fill="black"/>
<path d="M44.926 32.5138H29.0736C28.7406 32.5138 28.4658 32.2405 28.4658 31.9092C28.4658 31.578 28.7406 31.3047 29.0736 31.3047H44.926C45.259 31.3047 45.5338 31.578 45.5338 31.9092C45.5338 32.2405 45.259 32.5138 44.926 32.5138Z" fill="black"/>
<path d="M44.926 37.8964H29.0736C28.7406 37.8964 28.4658 37.6231 28.4658 37.2918C28.4658 36.9605 28.7406 36.6873 29.0736 36.6873H44.926C45.259 36.6873 45.5338 36.9605 45.5338 37.2918C45.5338 37.6231 45.259 37.8964 44.926 37.8964Z" fill="black"/>
<path d="M73.3924 60.0016H52.6527C52.3197 60.0016 52.0449 59.7283 52.0449 59.3971V35.1983C52.0449 34.867 52.3197 34.5938 52.6527 34.5938H73.3924C73.7254 34.5938 74.0001 34.867 74.0001 35.1983V59.3971C74.0001 59.7283 73.7254 60.0016 73.3924 60.0016ZM53.2605 58.7925H72.7846V35.8029H53.2605V58.7925Z" fill="black"/>
<path d="M60.6204 44.8274H56.599C56.266 44.8274 55.9912 44.5541 55.9912 44.2229V39.6514C55.9912 39.3202 56.266 39.0469 56.599 39.0469H60.6204C60.9534 39.0469 61.2282 39.3202 61.2282 39.6514V44.2229C61.2282 44.5541 60.9534 44.8274 60.6204 44.8274ZM57.1985 43.6183H60.0126V40.256H57.1985V43.6183Z" fill="black"/>
<path d="M69.4544 44.8274H65.433C65.0999 44.8274 64.8252 44.5541 64.8252 44.2229V39.6514C64.8252 39.3202 65.0999 39.0469 65.433 39.0469H69.4544C69.7874 39.0469 70.0621 39.3202 70.0621 39.6514V44.2229C70.0621 44.5541 69.7874 44.8274 69.4544 44.8274ZM66.0324 43.6183H68.8466V40.256H66.0324V43.6183Z" fill="black"/>
<path d="M60.6204 54.3669H56.599C56.266 54.3669 55.9912 54.0937 55.9912 53.7624V49.1827C55.9912 48.8514 56.266 48.5781 56.599 48.5781H60.6204C60.9534 48.5781 61.2282 48.8514 61.2282 49.1827V53.7624C61.2282 54.0937 60.9534 54.3669 60.6204 54.3669ZM57.1985 53.1578H60.0126V49.7872H57.1985V53.1578Z" fill="black"/>
<path d="M69.4544 54.3669H65.433C65.0999 54.3669 64.8252 54.0937 64.8252 53.7624V49.1827C64.8252 48.8514 65.0999 48.5781 65.433 48.5781H69.4544C69.7874 48.5781 70.0621 48.8514 70.0621 49.1827V53.7624C70.0621 54.0937 69.7874 54.3669 69.4544 54.3669ZM66.0324 53.1578H68.8466V49.7872H66.0324V53.1578Z" fill="black"/>
<path d="M21.3474 60.0016H0.607786C0.274752 60.0016 0 59.7283 0 59.3971V35.1983C0 34.867 0.274752 34.5938 0.607786 34.5938H21.3474C21.6805 34.5938 21.9552 34.867 21.9552 35.1983V59.3971C21.9552 59.7283 21.6805 60.0016 21.3474 60.0016ZM1.21557 58.7925H20.7396V35.8029H1.21557V58.7925Z" fill="black"/>
<path d="M8.56764 44.8274H4.54626C4.21323 44.8274 3.93848 44.5541 3.93848 44.2229V39.6514C3.93848 39.3202 4.21323 39.0469 4.54626 39.0469H8.56764C8.90067 39.0469 9.17543 39.3202 9.17543 39.6514V44.2229C9.17543 44.5541 8.90067 44.8274 8.56764 44.8274ZM5.15405 43.6183H7.96818V40.256H5.15405V43.6183Z" fill="black"/>
<path d="M17.4094 44.8274H13.3881C13.055 44.8274 12.7803 44.5541 12.7803 44.2229V39.6514C12.7803 39.3202 13.055 39.0469 13.3881 39.0469H17.4094C17.7425 39.0469 18.0172 39.3202 18.0172 39.6514V44.2229C18.0172 44.5541 17.7425 44.8274 17.4094 44.8274ZM13.9875 43.6183H16.8017V40.256H13.9875V43.6183Z" fill="black"/>
<path d="M8.56764 54.3669H4.54626C4.21323 54.3669 3.93848 54.0937 3.93848 53.7624V49.1827C3.93848 48.8514 4.21323 48.5781 4.54626 48.5781H8.56764C8.90067 48.5781 9.17543 48.8514 9.17543 49.1827V53.7624C9.17543 54.0937 8.90067 54.3669 8.56764 54.3669ZM5.15405 53.1578H7.96818V49.7872H5.15405V53.1578Z" fill="black"/>
<path d="M17.4094 54.3669H13.3881C13.055 54.3669 12.7803 54.0937 12.7803 53.7624V49.1827C12.7803 48.8514 13.055 48.5781 13.3881 48.5781H17.4094C17.7425 48.5781 18.0172 48.8514 18.0172 49.1827V53.7624C18.0172 54.0937 17.7425 54.3669 17.4094 54.3669ZM13.9875 53.1578H16.8017V49.7872H13.9875V53.1578Z" fill="black"/>
</g>
<defs>
<clipPath id="clip0_3724_98">
<rect width="74" height="60" fill="white"/>
</clipPath>
</defs>
</svg>
