<svg width="78" height="50" viewBox="0 0 78 50" fill="none" xmlns="http://www.w3.org/2000/svg">
<path d="M59.8339 33.9613H3.2383C1.4568 33.9613 0 32.516 0 30.7485V3.85341C0 2.07724 1.44802 0.640625 3.2383 0.640625H59.8252C61.6067 0.640625 63.0635 2.08594 63.0635 3.85341V30.7485C63.0635 32.5247 61.6154 33.9613 59.8252 33.9613H59.8339ZM3.2383 1.91181C2.15887 1.91181 1.28128 2.78248 1.28128 3.85341V30.7485C1.28128 31.8194 2.15887 32.6901 3.2383 32.6901H59.8252C60.9046 32.6901 61.7822 31.8194 61.7822 30.7485V3.85341C61.7822 2.78248 60.9046 1.91181 59.8252 1.91181H3.2383Z" fill="black"/>
<path d="M49.996 29.5458H13.0759C12.7249 29.5458 12.4353 29.2585 12.4353 28.9102C12.4353 24.8877 9.14433 21.6227 5.09865 21.6227C4.74761 21.6227 4.45801 21.3354 4.45801 20.9871V13.6212C4.45801 13.2729 4.74761 12.9856 5.09865 12.9856C9.14433 12.9856 12.4353 9.7206 12.4353 5.69809C12.4353 5.34982 12.7249 5.0625 13.0759 5.0625H49.996C50.3471 5.0625 50.6367 5.34982 50.6367 5.69809C50.6367 9.7206 53.9276 12.9856 57.9733 12.9856C58.3243 12.9856 58.6139 13.2729 58.6139 13.6212V20.9871C58.6139 21.3354 58.3243 21.6227 57.9733 21.6227C53.9276 21.6227 50.6367 24.8877 50.6367 28.9102C50.6367 29.2585 50.3471 29.5458 49.996 29.5458ZM13.6902 28.2746H49.3817C49.6889 24.0606 53.0939 20.6824 57.3327 20.3776V14.2307C53.0939 13.9172 49.6889 10.5477 49.3817 6.33368H13.6902C13.3743 10.5477 9.97804 13.9259 5.73929 14.2307V20.3776C9.98681 20.6911 13.3831 24.0606 13.6902 28.2746Z" fill="black"/>
<path d="M31.5318 24.6606C28.8289 24.6606 26.7139 21.4304 26.7139 17.3034C26.7139 13.1764 28.8289 9.9375 31.5318 9.9375C34.2348 9.9375 36.3498 13.1677 36.3498 17.3034C36.3498 21.4391 34.2348 24.6606 31.5318 24.6606ZM31.5318 11.2087C29.6187 11.2087 27.9951 14.0035 27.9951 17.3034C27.9951 20.6032 29.6099 23.3981 31.5318 23.3981C33.4537 23.3981 35.0685 20.6032 35.0685 17.3034C35.0685 14.0035 33.4537 11.2087 31.5318 11.2087Z" fill="black"/>
<path d="M66.6006 41.3363H10.0137C8.23219 41.3363 6.77539 39.891 6.77539 38.1235V33.3348C6.77539 32.9865 7.065 32.6992 7.41603 32.6992H59.8343C60.9138 32.6992 61.7914 31.8285 61.7914 30.7576V8.65122C61.7914 8.30295 62.081 8.01562 62.432 8.01562H66.6006C68.3908 8.01562 69.8388 9.46094 69.8388 11.2284V38.1322C69.8388 39.9084 68.3908 41.345 66.6006 41.345V41.3363ZM8.05667 33.9617V38.1235C8.05667 39.1944 8.93426 40.0651 10.0137 40.0651H66.6006C67.68 40.0651 68.5576 39.1944 68.5576 38.1235V11.2197C68.5576 10.1488 67.68 9.2781 66.6006 9.2781H63.0639V30.7576C63.0639 32.5338 61.6159 33.9704 59.8256 33.9704H8.05667V33.9617Z" fill="black"/>
<path d="M74.7617 50.0012H18.1748C16.3845 50.0012 14.9365 48.5559 14.9365 46.7885V40.7024C14.9365 40.3542 15.2261 40.0669 15.5772 40.0669H66.6001C67.6795 40.0669 68.5571 39.1962 68.5571 38.1253V17.3075C68.5571 16.9592 68.8467 16.6719 69.1978 16.6719H74.7617C76.5432 16.6719 78 18.1172 78 19.8847V46.7885C78 48.5646 76.5432 50.0012 74.7617 50.0012ZM16.2178 41.338V46.7885C16.2178 47.8594 17.0954 48.73 18.1748 48.73H74.7617C75.8411 48.73 76.7187 47.8594 76.7187 46.7885V19.8847C76.7187 18.8137 75.8411 17.9431 74.7617 17.9431H69.8384V38.1253C69.8384 39.9014 68.3904 41.338 66.6001 41.338H16.2178Z" fill="black"/>
</svg>
