<svg width="67" height="62" viewBox="0 0 67 62" fill="none" xmlns="http://www.w3.org/2000/svg">
<path d="M13.7126 61.995H5.07373C4.7722 61.995 4.52344 61.7402 4.52344 61.4314V45.7745C4.52344 45.4657 4.7722 45.2109 5.07373 45.2109H13.7126C14.0141 45.2109 14.2629 45.4657 14.2629 45.7745V61.4314C14.2629 61.7402 14.0141 61.995 13.7126 61.995ZM5.62402 60.8678H13.1623V46.3381H5.62402V60.8678Z" fill="black"/>
<path d="M29.7829 61.9991H21.144C20.8425 61.9991 20.5938 61.7443 20.5938 61.4355V23.5362C20.5938 23.2274 20.8425 22.9727 21.144 22.9727H29.7829C30.0844 22.9727 30.3332 23.2274 30.3332 23.5362V61.4355C30.3332 61.7443 30.0844 61.9991 29.7829 61.9991ZM21.6943 60.8719H29.2326V24.0998H21.6943V60.8719Z" fill="black"/>
<path d="M45.863 61.9946H37.2241C36.9226 61.9946 36.6738 61.7398 36.6738 61.431V28.0636C36.6738 27.7548 36.9226 27.5 37.2241 27.5H45.863C46.1645 27.5 46.4133 27.7548 46.4133 28.0636V61.431C46.4133 61.7398 46.1645 61.9946 45.863 61.9946ZM37.7669 60.8674H45.3051V28.6272H37.7669V60.8674Z" fill="black"/>
<path d="M61.9342 61.9942H53.2954C52.9939 61.9942 52.7451 61.7394 52.7451 61.4306V17.5558C52.7451 17.247 52.9939 16.9922 53.2954 16.9922H61.9342C62.2358 16.9922 62.4845 17.247 62.4845 17.5558V61.4306C62.4845 61.7394 62.2358 61.9942 61.9342 61.9942ZM53.8382 60.867H61.3764V18.1194H53.8382V60.867Z" fill="black"/>
<path d="M44.5356 17.5877C44.3622 17.5877 44.1888 17.5028 44.0833 17.3484C43.9099 17.0936 43.9702 16.7462 44.219 16.5609L59.8458 5.28144C60.0945 5.10388 60.4338 5.16564 60.6147 5.41269C60.7881 5.66746 60.7278 6.01488 60.479 6.20017L44.8522 17.4796C44.7542 17.5491 44.6487 17.58 44.5356 17.58V17.5877Z" fill="black"/>
<path d="M39.9673 17.9751C39.8844 17.9751 39.809 17.9596 39.7261 17.921L26.5643 11.4359C26.2929 11.3047 26.1723 10.965 26.308 10.687C26.4361 10.4091 26.7678 10.2856 27.0392 10.4246L40.1934 16.9097C40.4648 17.0486 40.5854 17.3806 40.4497 17.6585C40.3517 17.8593 40.1557 17.9751 39.9522 17.9751H39.9673Z" fill="black"/>
<path d="M6.75423 24.67C6.59593 24.67 6.43009 24.6005 6.32455 24.4539C6.1361 24.2068 6.17379 23.8594 6.41501 23.6587L21.9966 10.9895C22.2378 10.7965 22.577 10.8351 22.7655 11.0822C22.9539 11.3292 22.9163 11.6767 22.675 11.8774L7.09345 24.5465C6.99546 24.6314 6.86731 24.67 6.75423 24.67Z" fill="black"/>
<path d="M4.67419 29.0973C2.9027 29.0973 1.46289 27.6227 1.46289 25.8084C1.46289 23.9941 2.9027 22.5195 4.67419 22.5195C6.44568 22.5195 7.87794 23.9941 7.87794 25.8084C7.87794 27.6227 6.43814 29.0973 4.67419 29.0973ZM4.67419 23.6467C3.5133 23.6467 2.56348 24.6195 2.56348 25.8084C2.56348 26.9973 3.5133 27.9701 4.67419 27.9701C5.83508 27.9701 6.7849 27.0051 6.7849 25.8084C6.7849 24.6117 5.84262 23.6467 4.67419 23.6467Z" fill="black"/>
<path d="M24.4166 13.027C22.6452 13.027 21.2129 11.5524 21.2129 9.73809C21.2129 7.92381 22.6527 6.44922 24.4166 6.44922C26.1806 6.44922 27.6204 7.92381 27.6204 9.73809C27.6204 11.5524 26.1806 13.027 24.4166 13.027ZM24.4166 7.57639C23.2558 7.57639 22.3059 8.54144 22.3059 9.73809C22.3059 10.9347 23.2482 11.8998 24.4166 11.8998C25.5851 11.8998 26.5274 10.927 26.5274 9.73809C26.5274 8.54916 25.5851 7.57639 24.4166 7.57639Z" fill="black"/>
<path d="M42.3649 21.8825C40.5934 21.8825 39.1611 20.4079 39.1611 18.5937C39.1611 16.7794 40.6009 15.3125 42.3649 15.3125C44.1288 15.3125 45.5686 16.7871 45.5686 18.5937C45.5686 20.4002 44.1288 21.8825 42.3649 21.8825ZM42.3649 16.432C41.204 16.432 40.2542 17.397 40.2542 18.5859C40.2542 19.7749 41.1965 20.7476 42.3649 20.7476C43.5333 20.7476 44.4756 19.7749 44.4756 18.5859C44.4756 17.397 43.5333 16.432 42.3649 16.432Z" fill="black"/>
<path d="M62.3343 7.46837C60.5629 7.46837 59.123 5.99378 59.123 4.1795C59.123 2.36521 60.5629 0.890625 62.3343 0.890625C64.1058 0.890625 65.5381 2.36521 65.5381 4.1795C65.5381 5.99378 64.0983 7.46837 62.3343 7.46837ZM62.3343 2.01008C61.1735 2.01008 60.2236 2.98284 60.2236 4.17178C60.2236 5.36071 61.1735 6.33348 62.3343 6.33348C63.4952 6.33348 64.4451 5.36071 64.4451 4.17178C64.4451 2.98284 63.5028 2.01008 62.3343 2.01008Z" fill="black"/>
<path d="M66.4497 62.0015H0.550293C0.248763 62.0015 0 61.7469 0 61.4382C0 61.1296 0.248763 60.875 0.550293 60.875H66.4497C66.7512 60.875 67 61.1296 67 61.4382C67 61.7469 66.7512 62.0015 66.4497 62.0015Z" fill="black"/>
</svg>
