<svg width="45" height="75" viewBox="0 0 45 75" fill="none" xmlns="http://www.w3.org/2000/svg">
<path d="M28.4827 74.9998H15.8706C15.538 74.9998 15.2637 74.725 15.2637 74.3917V55.073C15.2637 54.7398 15.538 54.4648 15.8706 54.4648H28.4827C28.8152 54.4648 29.0896 54.7398 29.0896 55.073V74.3917C29.0896 74.725 28.8152 74.9998 28.4827 74.9998ZM16.4775 73.7919H27.8758V55.6894H16.4775V73.7919Z" fill="black"/>
<path d="M32.5982 55.6886H11.7553C11.4228 55.6886 11.1484 55.4137 11.1484 55.0805V50.9402C11.1484 50.607 11.4228 50.332 11.7553 50.332H32.5982C32.9307 50.332 33.2051 50.607 33.2051 50.9402V55.0805C33.2051 55.4137 32.9307 55.6886 32.5982 55.6886ZM12.3623 54.4724H31.9913V51.5483H12.3623V54.4724Z" fill="black"/>
<path d="M25.4149 51.5429H18.9468C18.6142 51.5429 18.3398 51.268 18.3398 50.9348V44.5202C18.3398 44.3452 18.4147 44.1786 18.5477 44.062C18.6807 43.9454 18.8553 43.8954 19.0382 43.9203C21.1 44.2369 23.2533 44.2369 25.3235 43.9203C25.4981 43.8954 25.6727 43.9454 25.8057 44.062C25.9387 44.1786 26.0135 44.3452 26.0135 44.5202V50.9348C26.0135 51.268 25.7392 51.5429 25.4066 51.5429H25.4149ZM19.5454 50.3266H24.7997V45.2199C23.0621 45.4282 21.2746 45.4282 19.5454 45.2199V50.3266Z" fill="black"/>
<path d="M22.173 45.3762C9.94336 45.3762 0 35.3961 0 23.1334C0 10.8707 9.94336 0.890625 22.173 0.890625C34.4027 0.890625 44.3461 10.8707 44.3461 23.1334C44.3461 35.3961 34.3944 45.3762 22.173 45.3762ZM22.173 2.1069C10.6168 2.1069 1.20551 11.5372 1.20551 23.1334C1.20551 34.7297 10.6085 44.1599 22.173 44.1599C33.7376 44.1599 43.1406 34.7297 43.1406 23.1334C43.1406 11.5372 33.7376 2.1069 22.173 2.1069Z" fill="black"/>
<path d="M22.1727 40.1481C12.8196 40.1481 5.2041 32.5172 5.2041 23.1286C5.2041 13.74 12.8113 6.10913 22.1727 6.10913C31.5341 6.10913 39.1412 13.74 39.1412 23.1286C39.1412 32.5172 31.5341 40.1481 22.1727 40.1481ZM22.1727 7.33373C13.4847 7.33373 6.41792 14.4231 6.41792 23.1369C6.41792 31.8508 13.4847 38.9401 22.1727 38.9401C30.8606 38.9401 37.9274 31.8508 37.9274 23.1369C37.9274 14.4231 30.8606 7.33373 22.1727 7.33373Z" fill="black"/>
<path d="M22.1723 22.3446C19.6282 22.3446 17.5664 20.2703 17.5664 17.7212C17.5664 15.172 19.6366 13.0977 22.1723 13.0977C24.708 13.0977 26.7782 15.172 26.7782 17.7212C26.7782 20.2703 24.708 22.3446 22.1723 22.3446ZM22.1723 14.3139C20.3017 14.3139 18.7719 15.8468 18.7719 17.7212C18.7719 19.5956 20.2933 21.1284 22.1723 21.1284C24.0512 21.1284 25.5643 19.6039 25.5643 17.7212C25.5643 15.8384 24.0429 14.3139 22.1723 14.3139Z" fill="black"/>
<path d="M30.5203 33.1753H13.8344C13.5019 33.1753 13.2275 32.9004 13.2275 32.5672C13.2275 29.818 14.2003 27.5021 16.0376 25.8693C17.6588 24.4281 19.837 23.6367 22.1732 23.6367C24.5094 23.6367 26.6877 24.4281 28.3089 25.8693C30.1296 27.4855 31.1023 29.7847 31.1189 32.5005C31.1189 32.5172 31.1189 32.5422 31.1189 32.5588C31.1189 32.8921 30.8446 33.167 30.512 33.167L30.5203 33.1753ZM14.458 31.959H29.8885C29.5975 27.0773 25.7482 24.853 22.1732 24.853C18.5983 24.853 14.749 27.0856 14.458 31.959Z" fill="black"/>
<path d="M38.6259 75.0007H5.728C5.39545 75.0007 5.12109 74.726 5.12109 74.3929C5.12109 74.0599 5.39545 73.7852 5.728 73.7852H38.6259C38.9585 73.7852 39.2328 74.0599 39.2328 74.3929C39.2328 74.726 38.9585 75.0007 38.6259 75.0007Z" fill="black"/>
</svg>
