<svg width="30" height="30" viewBox="0 0 30 30" fill="none" xmlns="http://www.w3.org/2000/svg">
<path d="M23.6131 9.58035C24.01 9.84544 24.4869 10 25 10C26.3807 10 27.5 8.88071 27.5 7.5C27.5 6.11929 26.3807 5 25 5C23.6193 5 22.5 6.11929 22.5 7.5C22.5 8.36764 22.942 9.13205 23.6131 9.58035ZM23.6131 9.58035L16.3869 20.4197M16.3869 20.4197C15.99 20.1546 15.5131 20 15 20C14.1821 20 13.456 20.3927 12.9999 20.9999M16.3869 20.4197C17.058 20.868 17.5 21.6324 17.5 22.5C17.5 23.8807 16.3807 25 15 25C13.6193 25 12.5 23.8807 12.5 22.5C12.5 21.9372 12.686 21.4178 12.9999 20.9999M12.9999 20.9999L7.00012 16.5001M7.00012 16.5001C7.314 16.0822 7.5 15.5628 7.5 15C7.5 13.6193 6.38071 12.5 5 12.5C3.61929 12.5 2.5 13.6193 2.5 15C2.5 16.3807 3.61929 17.5 5 17.5C5.81787 17.5 6.54401 17.1073 7.00012 16.5001Z" stroke="#191919" stroke-width="1.5" stroke-linecap="round" stroke-linejoin="round"/>
</svg>
