<svg width="50" height="50" viewBox="0 0 50 50" fill="none" xmlns="http://www.w3.org/2000/svg">
<path d="M24.9993 4.91669C25.4136 4.91669 25.7493 4.5809 25.7493 4.16669C25.7493 3.75247 25.4136 3.41669 24.9993 3.41669V4.91669ZM46.5827 20.8334C46.5827 20.4191 46.2469 20.0834 45.8327 20.0834C45.4185 20.0834 45.0827 20.4191 45.0827 20.8334H46.5827ZM38.541 6.0187L37.9905 6.52799C38.1324 6.68145 38.332 6.7687 38.541 6.7687C38.7501 6.7687 38.9496 6.68145 39.0916 6.52799L38.541 6.0187ZM39.0989 5.41565L39.6494 5.92494V5.92494L39.0989 5.41565ZM37.9832 5.41565L37.4326 5.92494V5.92494L37.9832 5.41565ZM32.4047 11.4462L31.8541 11.9555L32.4047 11.4462ZM36.3096 15.6675L36.8602 15.1582L36.3096 15.6675ZM40.7724 15.6675L41.323 16.1768L40.7724 15.6675ZM44.6773 11.4462L44.1268 10.9369L44.6773 11.4462ZM45.3945 29.7753C45.7306 30.0174 46.1993 29.9411 46.4413 29.6049C46.6834 29.2688 46.6071 28.8001 46.2709 28.558L45.3945 29.7753ZM39.7097 24.7582L39.2715 25.3668L39.7097 24.7582ZM29.2658 25.3268L29.7676 25.8843L29.2658 25.3268ZM20.7329 33.0065L21.2346 33.564L20.7329 33.0065ZM10.2889 33.5752L10.7272 32.9665L10.2889 33.5752ZM4.60424 28.558C4.2681 28.316 3.79939 28.3923 3.55736 28.7285C3.31534 29.0646 3.39164 29.5333 3.72779 29.7753L4.60424 28.558ZM37.4993 45.8334V45.0834H12.4993V45.8334V46.5834H37.4993V45.8334ZM4.16602 37.5H4.91602V12.5H4.16602H3.41602V37.5H4.16602ZM12.4993 4.16669V4.91669H24.9993V4.16669V3.41669H12.4993V4.16669ZM45.8327 20.8334H45.0827V37.5H45.8327H46.5827V20.8334H45.8327ZM12.4993 45.8334V45.0834C8.31119 45.0834 4.91602 41.6882 4.91602 37.5H4.16602H3.41602C3.41602 42.5166 7.48276 46.5834 12.4993 46.5834V45.8334ZM37.4993 45.8334V46.5834C42.5159 46.5834 46.5827 42.5166 46.5827 37.5H45.8327H45.0827C45.0827 41.6882 41.6875 45.0834 37.4993 45.0834V45.8334ZM4.16602 12.5H4.91602C4.91602 8.31186 8.31119 4.91669 12.4993 4.91669V4.16669V3.41669C7.48276 3.41669 3.41602 7.48343 3.41602 12.5H4.16602ZM38.541 6.0187L39.0916 6.52799L39.6494 5.92494L39.0989 5.41565L38.5483 4.90635L37.9905 5.5094L38.541 6.0187ZM37.9832 5.41565L37.4326 5.92494L37.9905 6.52799L38.541 6.0187L39.0916 5.5094L38.5337 4.90635L37.9832 5.41565ZM32.4047 11.4462L31.8541 11.9555L35.7591 16.1768L36.3096 15.6675L36.8602 15.1582L32.9553 10.9369L32.4047 11.4462ZM40.7724 15.6675L41.323 16.1768L45.2279 11.9555L44.6773 11.4462L44.1268 10.9369L40.2218 15.1582L40.7724 15.6675ZM44.6773 5.41565L44.1268 5.92494C45.4013 7.30276 45.4013 9.55905 44.1268 10.9369L44.6773 11.4462L45.2279 11.9555C47.0343 10.0027 47.0343 6.8591 45.2279 4.90635L44.6773 5.41565ZM44.6773 5.41565L45.2279 4.90635C43.3906 2.92013 40.3856 2.92013 38.5483 4.90635L39.0989 5.41565L39.6494 5.92494C40.893 4.5806 42.8832 4.5806 44.1268 5.92494L44.6773 5.41565ZM32.4047 5.41565L32.9553 5.92494C34.1988 4.5806 36.189 4.5806 37.4326 5.92494L37.9832 5.41565L38.5337 4.90635C36.6964 2.92013 33.6915 2.92013 31.8541 4.90635L32.4047 5.41565ZM36.3096 15.6675L35.7591 16.1768C37.2883 17.83 39.7937 17.83 41.323 16.1768L40.7724 15.6675L40.2218 15.1582C39.2864 16.1695 37.7957 16.1695 36.8602 15.1582L36.3096 15.6675ZM32.4047 5.41565L31.8541 4.90635C30.0478 6.8591 30.0478 10.0027 31.8541 11.9555L32.4047 11.4462L32.9553 10.9369C31.6807 9.55905 31.6807 7.30276 32.9553 5.92494L32.4047 5.41565ZM45.8327 29.1667L46.2709 28.558L40.148 24.1495L39.7097 24.7582L39.2715 25.3668L45.3945 29.7753L45.8327 29.1667ZM29.2658 25.3268L28.7641 24.7694L20.2311 32.4491L20.7329 33.0065L21.2346 33.564L29.7676 25.8843L29.2658 25.3268ZM10.2889 33.5752L10.7272 32.9665L4.60424 28.558L4.16602 29.1667L3.72779 29.7753L9.85072 34.1838L10.2889 33.5752ZM20.7329 33.0065L20.2311 32.4491C17.5793 34.8357 13.6225 35.0512 10.7272 32.9665L10.2889 33.5752L9.85072 34.1838C13.3187 36.6808 18.0582 36.4227 21.2346 33.564L20.7329 33.0065ZM39.7097 24.7582L40.148 24.1495C36.68 21.6526 31.9405 21.9106 28.7641 24.7694L29.2658 25.3268L29.7676 25.8843C32.4194 23.4977 36.3762 23.2822 39.2715 25.3668L39.7097 24.7582ZM22.916 17.7084H22.166C22.166 20.1706 20.17 22.1667 17.7077 22.1667V22.9167V23.6667C20.9984 23.6667 23.666 20.9991 23.666 17.7084H22.916ZM17.7077 22.9167V22.1667C15.2454 22.1667 13.2493 20.1706 13.2493 17.7084H12.4993H11.7493C11.7493 20.9991 14.417 23.6667 17.7077 23.6667V22.9167ZM12.4993 17.7084H13.2493C13.2493 15.2461 15.2454 13.25 17.7077 13.25V12.5V11.75C14.417 11.75 11.7493 14.4177 11.7493 17.7084H12.4993ZM17.7077 12.5V13.25C20.17 13.25 22.166 15.2461 22.166 17.7084H22.916H23.666C23.666 14.4177 20.9984 11.75 17.7077 11.75V12.5Z" fill="#1F2937"/>
</svg>
