<svg width="50" height="50" viewBox="0 0 50 50" fill="none" xmlns="http://www.w3.org/2000/svg">
<path d="M4.91602 4.16669C4.91602 3.75247 4.58023 3.41669 4.16602 3.41669C3.7518 3.41669 3.41602 3.75247 3.41602 4.16669H4.91602ZM45.8327 46.5834C46.2469 46.5834 46.5827 46.2476 46.5827 45.8334C46.5827 45.4191 46.2469 45.0834 45.8327 45.0834V46.5834ZM32.291 18C31.8768 18 31.541 18.3358 31.541 18.75C31.541 19.1642 31.8768 19.5 32.291 19.5V18ZM38.0752 19.9017L37.4043 20.2371L38.0752 19.9017ZM38.9119 23.2521C39.0971 23.6226 39.5476 23.7727 39.9181 23.5875C40.2886 23.4023 40.4387 22.9518 40.2535 22.5813L38.9119 23.2521ZM37.0849 20.2029L37.4961 19.5756L36.2416 18.7533L35.8304 19.3805L37.0849 20.2029ZM30.7586 28.4851L30.1313 28.0739L30.7586 28.4851ZM27.234 28.4218L26.5924 28.8101L27.234 28.4218ZM23.2586 21.8543L22.617 22.2427V22.2427L23.2586 21.8543ZM19.6461 21.9379L18.9872 21.5797L19.6461 21.9379ZM13.9238 30.8917C13.7259 31.2556 13.8605 31.711 14.2244 31.9089C14.5883 32.1068 15.0437 31.9722 15.2416 31.6083L13.9238 30.8917ZM4.16602 4.16669H3.41602V37.5H4.16602H4.91602V4.16669H4.16602ZM12.4993 45.8334V46.5834H45.8327V45.8334V45.0834H12.4993V45.8334ZM4.16602 37.5H3.41602C3.41602 42.5166 7.48276 46.5834 12.4993 46.5834V45.8334V45.0834C8.31119 45.0834 4.91602 41.6882 4.91602 37.5H4.16602ZM32.291 18.75V19.5H36.2118V18.75V18H32.291V18.75ZM38.0752 19.9017L37.4043 20.2371L38.9119 23.2521L39.5827 22.9167L40.2535 22.5813L38.746 19.5662L38.0752 19.9017ZM36.2118 18.75V19.5C36.7168 19.5 37.1785 19.7854 37.4043 20.2371L38.0752 19.9017L38.746 19.5662C38.266 18.6064 37.285 18 36.2118 18V18.75ZM36.4577 19.7917L35.8304 19.3805L30.1313 28.0739L30.7586 28.4851L31.3858 28.8963L37.0849 20.2029L36.4577 19.7917ZM27.234 28.4218L27.8756 28.0334L23.9002 21.4659L23.2586 21.8543L22.617 22.2427L26.5924 28.8101L27.234 28.4218ZM19.6461 21.9379L18.9872 21.5797L13.9238 30.8917L14.5827 31.25L15.2416 31.6083L20.305 22.2962L19.6461 21.9379ZM23.2586 21.8543L23.9002 21.4659C22.7676 19.5948 20.032 19.6582 18.9872 21.5797L19.6461 21.9379L20.305 22.2962C20.7967 21.392 22.084 21.3622 22.617 22.2427L23.2586 21.8543ZM30.7586 28.4851L30.1313 28.0739C29.5935 28.8944 28.3836 28.8726 27.8756 28.0334L27.234 28.4218L26.5924 28.8101C27.6719 30.5935 30.2428 30.6398 31.3858 28.8963L30.7586 28.4851Z" fill="#28303F"/>
</svg>
