<svg width="42" height="42" viewBox="0 0 42 42" fill="none" xmlns="http://www.w3.org/2000/svg">
<path d="M16.95 7.15L20.2 2.81667C20.6 2.28333 21.4 2.28333 21.8 2.81667L25.05 7.15C25.5444 7.80924 25.074 8.75 24.25 8.75H17.75C16.926 8.75 16.4556 7.80924 16.95 7.15Z" fill="#28303F"/>
<path d="M21 8.75V31.5" stroke="#28303F" stroke-width="1.5" stroke-linecap="round" stroke-linejoin="round"/>
<path d="M34.125 10.5C34.125 11.9497 32.9497 13.125 31.5 13.125C30.0503 13.125 28.875 11.9497 28.875 10.5C28.875 9.05025 30.0503 7.875 31.5 7.875C32.9497 7.875 34.125 9.05025 34.125 10.5Z" fill="#28303F"/>
<circle cx="21" cy="35" r="3.5" stroke="#28303F" stroke-width="1.5"/>
<path d="M7.875 12.375C7.875 11.8227 8.32272 11.375 8.875 11.375H12.125C12.6773 11.375 13.125 11.8227 13.125 12.375V15.625C13.125 16.1773 12.6773 16.625 12.125 16.625H8.875C8.32272 16.625 7.875 16.1773 7.875 15.625V12.375Z" fill="#28303F"/>
<path d="M31.5 12.25V16.7792C31.5 17.2097 31.2246 17.5918 30.8162 17.7279L21 21" stroke="#28303F" stroke-width="1.5" stroke-linecap="round" stroke-linejoin="round"/>
<path d="M10.5 15.75V20.2792C10.5 20.7097 10.7754 21.0918 11.1838 21.2279L21 24.5" stroke="#28303F" stroke-width="1.5" stroke-linecap="round" stroke-linejoin="round"/>
</svg>
