<svg width="50" height="50" viewBox="0 0 50 50" fill="none" xmlns="http://www.w3.org/2000/svg">
<path d="M23.3327 29.7206C24.2344 28.8524 25.3361 28.1839 26.5636 27.7879M26.5636 27.7879C27.3824 27.5238 28.2572 27.381 29.166 27.381C31.1303 27.381 32.9359 28.0485 34.3604 29.1651M26.5636 27.7879C24.7821 23.6986 20.6481 20.8333 15.8327 20.8333C14.6767 20.8333 13.5601 20.9984 12.5058 21.306M26.666 15.1372C25.7643 14.2691 24.6626 13.6006 23.4351 13.2046M23.4351 13.2046C22.6163 12.9405 21.7415 12.7976 20.8327 12.7976C16.2303 12.7976 12.4993 16.462 12.4993 20.9821C12.4993 21.0906 12.5015 21.1985 12.5058 21.306M23.4351 13.2046C25.2166 9.11527 29.3506 6.25 34.166 6.25C40.6093 6.25 45.8327 11.3801 45.8327 17.7083C45.8327 23.9728 40.7141 29.0632 34.3604 29.1651M34.3604 29.1651C36.2735 30.6648 37.4993 32.9745 37.4993 35.5655C37.4993 40.0857 33.7684 43.75 29.166 43.75H15.8327C9.38936 43.75 4.16602 38.6199 4.16602 32.2917C4.16602 27.0987 7.68331 22.7126 12.5058 21.306" stroke="#28303F" stroke-width="1.5" stroke-linecap="round" stroke-linejoin="round"/>
</svg>
