<svg width="48" height="45" viewBox="0 0 48 45" fill="none" xmlns="http://www.w3.org/2000/svg">
<path d="M14.059 20.9778C14.5831 21.5878 14.8408 22.361 14.8408 23.2288C14.8408 24.2684 14.4971 25.1361 13.8871 25.832C13.2771 26.528 12.3235 26.9575 11.198 27.1294V28.779H9.90065V27.2153C8.94698 27.1294 8.16515 26.6912 7.46923 26.0898C6.85923 25.4798 6.42964 24.612 6.25781 23.4865L8.50881 23.2288C8.59472 23.6584 8.76656 24.0965 9.0329 24.4402C9.29064 24.7839 9.55698 25.0502 9.90065 25.1361V21.4933C8.77515 21.1496 7.9074 20.7115 7.38331 20.0155C6.85922 19.3196 6.60148 18.5378 6.60148 17.67C6.60148 16.7164 6.85923 15.9345 7.46923 15.3331C8.07923 14.7231 8.85247 14.2935 9.81473 14.2076V12.9962H11.1121V14.2076C12.0657 14.2935 12.8476 14.6372 13.3631 15.1613C13.8871 15.6854 14.2308 16.3727 14.4026 17.2405L12.2376 17.4982C12.0657 16.8023 11.7135 16.3727 11.198 16.1064V19.4915C12.5812 19.921 13.5435 20.3592 14.059 20.9692V20.9778ZM12.6671 23.5725C12.6671 23.2288 12.5812 22.8765 12.3235 22.6188C12.0657 22.361 11.7135 22.0947 11.198 22.0088V25.3939C11.6276 25.308 11.9798 25.1361 12.2376 24.7839C12.5812 24.3543 12.6671 24.002 12.6671 23.5725ZM9.97797 19.0619V16.029C9.63431 16.115 9.36797 16.3727 9.19614 16.639C9.0243 16.8968 8.93839 17.249 8.93839 17.5927C8.93839 17.9364 9.0243 18.2027 9.19614 18.4605C9.28205 18.7182 9.62571 18.9846 9.97797 19.0705V19.0619Z" fill="black"/>
<path d="M47.2617 44.9935H8.32468C8.06693 44.9935 7.80059 44.7358 7.80059 44.4694V41.1703C7.71467 37.2697 7.71467 35.096 8.41059 33.455C9.36426 31.1181 11.5293 29.984 16.3922 27.3808C17.4318 26.8567 18.5573 26.2553 19.8632 25.5594C20.035 25.4734 20.2928 25.4734 20.4732 25.6453L27.9307 32.1491L35.3882 25.6453C35.56 25.4734 35.8178 25.4734 35.9982 25.5594C37.2096 26.2553 38.3437 26.7708 39.2973 27.2949C43.6361 29.5459 45.8012 30.7659 46.9267 32.5873C48.0522 34.4087 48.0522 36.7456 47.9663 41.2562V44.4694C47.7944 44.8131 47.5367 44.9935 47.2703 44.9935H47.2617ZM8.84876 43.954H46.7463V41.2648C46.8322 36.926 46.8322 34.675 45.8785 33.1114C44.9248 31.5477 42.8457 30.4222 38.5928 28.2571C37.7251 27.8275 36.6855 27.3035 35.6459 26.6935L28.1884 33.2832C28.0166 33.455 27.6643 33.455 27.4925 33.2832L19.9491 26.6935C18.8236 27.3035 17.784 27.819 16.8303 28.343C12.062 30.8604 10.1547 31.9 9.37285 33.8073C8.76284 35.371 8.76285 37.536 8.84876 41.1789V43.954Z" fill="black"/>
<path d="M28.0185 23.0598C25.673 23.0598 23.422 21.9343 21.6006 19.7692C20.1228 18.0337 18.9973 15.6109 18.3014 13.0936C17.9578 11.8822 17.7773 10.5762 17.7773 9.53666C17.7773 4.33016 22.3738 0 27.924 0C33.4742 0 38.0707 4.25284 38.0707 9.53666C38.1566 14.305 34.6856 23.0684 28.0099 23.0684L28.0185 23.0598ZM28.0185 1.11691C22.9924 1.11691 18.9114 4.93157 18.9114 9.52807C18.9114 10.4817 19.0833 11.6072 19.341 12.8272C20.4665 17.4237 23.5938 22.0202 27.924 22.0202C31.1287 22.0202 33.3023 19.5888 34.5997 17.5097C36.0774 15.0782 37.0311 11.9595 37.0311 9.52807C37.0311 4.93157 32.9587 1.11691 28.0099 1.11691H28.0185Z" fill="black"/>
<path d="M8.93525 34.2454H8.6775C6.24608 33.4636 3.99509 31.9944 2.43142 29.9067C0.781834 27.8275 0 25.2242 0 22.621C0 15.9453 5.46425 10.4811 12.2258 10.4811C14.7432 10.4811 17.0801 11.177 19.1592 12.6462C19.417 12.818 19.5029 13.1702 19.3311 13.428C19.1592 13.6857 18.807 13.7717 18.5492 13.5998C16.7278 12.3025 14.5627 11.6925 12.2172 11.6925C6.05707 11.6925 1.11691 16.6327 1.11691 22.7928C1.11691 27.6471 4.32157 31.9858 9.00398 33.3691C9.26173 33.455 9.43356 33.7986 9.34765 34.065C9.34765 34.065 9.17581 34.2368 8.91807 34.2368L8.93525 34.2454Z" fill="black"/>
</svg>
