<svg width="50" height="61" viewBox="0 0 50 61" fill="none" xmlns="http://www.w3.org/2000/svg">
<path d="M44.4766 17.4368H5.73476C5.51581 17.4368 5.29688 17.2179 5.29688 16.9989V5.07753C5.29688 4.85859 5.51581 4.63965 5.73476 4.63965H44.3671C44.586 4.63965 44.805 4.85859 44.805 5.07753V16.8895C44.9144 17.2179 44.6955 17.4368 44.4766 17.4368ZM6.29306 16.4406H43.9292V5.62489H6.29306V16.4406Z" fill="black"/>
<path d="M12.9163 35.8732H6.40273C6.18378 35.8732 5.96484 35.6542 5.96484 35.4353V28.9218C5.96484 28.7028 6.18378 28.4839 6.40273 28.4839H12.9163C13.1352 28.4839 13.3541 28.7028 13.3541 28.9218V35.4353C13.3541 35.6542 13.1352 35.8732 12.9163 35.8732ZM6.84061 34.877H12.358V29.3597H6.84061V34.877Z" fill="black"/>
<path d="M23.1741 35.8732H16.6605C16.4416 35.8732 16.2227 35.6542 16.2227 35.4353V28.9218C16.2227 28.7028 16.4416 28.4839 16.6605 28.4839H23.1741C23.393 28.4839 23.612 28.7028 23.612 28.9218V35.4353C23.7214 35.6542 23.5025 35.8732 23.1741 35.8732ZM17.1094 34.877H22.6267V29.3597H17.1094V34.877Z" fill="black"/>
<path d="M33.553 35.8732H27.0394C26.8205 35.8732 26.6016 35.6542 26.6016 35.4353V28.9218C26.6016 28.7028 26.8205 28.4839 27.0394 28.4839H33.553C33.7719 28.4839 33.9909 28.7028 33.9909 28.9218V35.4353C33.9909 35.6542 33.7719 35.8732 33.553 35.8732ZM27.4773 34.877H32.9947V29.3597H27.4773V34.877Z" fill="black"/>
<path d="M43.9319 35.8732H37.4184C37.1994 35.8732 36.9805 35.6542 36.9805 35.4353V28.9218C36.9805 28.7028 37.1994 28.4839 37.4184 28.4839H43.9319C44.1508 28.4839 44.3698 28.7028 44.3698 28.9218V35.4353C44.3698 35.6542 44.1508 35.8732 43.9319 35.8732ZM37.8562 34.877H43.3736V29.3597H37.8562V34.877Z" fill="black"/>
<path d="M12.9163 45.1439H6.40273C6.18378 45.1439 5.96484 44.925 5.96484 44.706V38.1925C5.96484 37.9736 6.18378 37.7546 6.40273 37.7546H12.9163C13.1352 37.7546 13.3541 37.9736 13.3541 38.1925V44.706C13.3541 44.925 13.1352 45.1439 12.9163 45.1439ZM6.84061 44.1477H12.358V38.6304H6.84061V44.1477Z" fill="black"/>
<path d="M23.1741 45.1439H16.6605C16.4416 45.1439 16.2227 44.925 16.2227 44.706V38.1925C16.2227 37.9736 16.4416 37.7546 16.6605 37.7546H23.1741C23.393 37.7546 23.612 37.9736 23.612 38.1925V44.706C23.7214 44.925 23.5025 45.1439 23.1741 45.1439ZM17.1094 44.1477H22.6267V38.6304H17.1094V44.1477Z" fill="black"/>
<path d="M33.553 45.1439H27.0394C26.8205 45.1439 26.6016 44.925 26.6016 44.706V38.1925C26.6016 37.9736 26.8205 37.7546 27.0394 37.7546H33.553C33.7719 37.7546 33.9909 37.9736 33.9909 38.1925V44.706C33.9909 44.925 33.7719 45.1439 33.553 45.1439ZM27.4773 44.1477H32.9947V38.6304H27.4773V44.1477Z" fill="black"/>
<path d="M43.9319 54.5256H37.4184C37.1994 54.5256 36.9805 54.3067 36.9805 54.0877V38.1925C36.9805 37.9736 37.1994 37.7546 37.4184 37.7546H43.9319C44.1508 37.7546 44.3698 37.9736 44.3698 38.1925V53.9782C44.3698 54.3067 44.1508 54.5256 43.9319 54.5256ZM37.8562 53.5294H43.3736V38.6304H37.8562V53.5294Z" fill="black"/>
<path d="M12.9163 54.526H6.40273C6.18378 54.526 5.96484 54.3071 5.96484 54.0881V47.5746C5.96484 47.3557 6.18378 47.1367 6.40273 47.1367H12.9163C13.1352 47.1367 13.3541 47.3557 13.3541 47.5746V53.9787C13.3541 54.3071 13.1352 54.526 12.9163 54.526ZM6.84061 53.5298H12.358V48.0125H6.84061V53.5298Z" fill="black"/>
<path d="M23.1741 54.526H16.6605C16.4416 54.526 16.2227 54.3071 16.2227 54.0881V47.5746C16.2227 47.3557 16.4416 47.1367 16.6605 47.1367H23.1741C23.393 47.1367 23.612 47.3557 23.612 47.5746V53.9787C23.7214 54.3071 23.5025 54.526 23.1741 54.526ZM17.1094 53.5298H22.6267V48.0125H17.1094V53.5298Z" fill="black"/>
<path d="M33.553 54.526H27.0394C26.8205 54.526 26.6016 54.3071 26.6016 54.0881V47.5746C26.6016 47.3557 26.8205 47.1367 27.0394 47.1367H33.553C33.7719 47.1367 33.9909 47.3557 33.9909 47.5746V53.9787C33.9909 54.3071 33.7719 54.526 33.553 54.526ZM27.4773 53.5298H32.9947V48.0125H27.4773V53.5298Z" fill="black"/>
<path d="M12.9163 25.7135H6.40273C6.18378 25.7135 5.96484 25.4945 5.96484 25.2756V22.298C5.96484 22.0791 6.18378 21.8601 6.40273 21.8601H12.9163C13.1352 21.8601 13.3541 22.0791 13.3541 22.298V25.2756C13.3541 25.4945 13.1352 25.7135 12.9163 25.7135ZM6.84061 24.7282H12.358V22.7468H6.84061V24.7282Z" fill="black"/>
<path d="M23.1741 25.7135H16.6605C16.4416 25.7135 16.2227 25.4945 16.2227 25.2756V22.298C16.2227 22.0791 16.4416 21.8601 16.6605 21.8601H23.1741C23.393 21.8601 23.612 22.0791 23.612 22.298V25.2756C23.7214 25.4945 23.5025 25.7135 23.1741 25.7135ZM17.1094 24.7282H22.6267V22.7468H17.1094V24.7282Z" fill="black"/>
<path d="M33.553 25.7135H27.0394C26.8205 25.7135 26.6016 25.4945 26.6016 25.2756V22.298C26.6016 22.0791 26.8205 21.8601 27.0394 21.8601H33.553C33.7719 21.8601 33.9909 22.0791 33.9909 22.298V25.2756C33.9909 25.4945 33.7719 25.7135 33.553 25.7135ZM27.4773 24.7282H32.9947V22.7468H27.4773V24.7282Z" fill="black"/>
<path d="M43.9319 25.7135H37.4184C37.1994 25.7135 36.9805 25.4945 36.9805 25.2756V22.298C36.9805 22.0791 37.1994 21.8601 37.4184 21.8601H43.9319C44.1508 21.8601 44.3698 22.0791 44.3698 22.298V25.2756C44.3698 25.4945 44.1508 25.7135 43.9319 25.7135ZM37.8562 24.7282H43.3736V22.7468H37.8562V24.7282Z" fill="black"/>
<path d="M39.5082 13.1351C39.2893 13.1351 39.0703 12.9161 39.0703 12.6972V9.16127C39.0703 8.94233 39.2893 8.72339 39.5082 8.72339C39.7271 8.72339 39.9461 8.94233 39.9461 9.16127V12.6972C39.9461 12.9161 39.7271 13.1351 39.5082 13.1351Z" fill="black"/>
<path d="M34.8793 13.1351C34.6604 13.1351 34.4414 12.9161 34.4414 12.6972V9.16127C34.4414 8.94233 34.6604 8.72339 34.8793 8.72339C35.0982 8.72339 35.3172 8.94233 35.3172 9.16127V12.6972C35.4266 12.9161 35.2077 13.1351 34.8793 13.1351Z" fill="black"/>
<path d="M30.3559 13.1351C30.1369 13.1351 29.918 12.9161 29.918 12.6972V9.16127C29.918 8.94233 30.1369 8.72339 30.3559 8.72339C30.5748 8.72339 30.7937 8.94233 30.7937 9.16127V12.6972C30.7937 12.9161 30.5748 13.1351 30.3559 13.1351Z" fill="black"/>
<path d="M25.7152 13.1351C25.4963 13.1351 25.2773 12.9161 25.2773 12.6972V9.16127C25.2773 8.94233 25.4963 8.72339 25.7152 8.72339C25.9342 8.72339 26.1531 8.94233 26.1531 9.16127V12.6972C26.2626 12.9161 26.0436 13.1351 25.7152 13.1351Z" fill="black"/>
<path d="M21.1957 13.1351C20.9768 13.1351 20.7578 12.9161 20.7578 12.6972V9.16127C20.7578 8.94233 20.9768 8.72339 21.1957 8.72339C21.4146 8.72339 21.6336 8.94233 21.6336 9.16127V12.6972C21.7431 12.9161 21.5241 13.1351 21.1957 13.1351Z" fill="black"/>
<path d="M46.0216 60.4827H4.08327C1.87195 60.4827 0 58.6108 0 56.3995V4.08327C0 1.87195 1.87195 0 4.08327 0H45.9122C48.1235 0 49.9954 1.87195 49.9954 4.08327V56.3995C50.1049 58.6108 48.2329 60.4827 46.0216 60.4827ZM4.08327 0.996186C2.43026 0.996186 0.996186 2.43026 0.996186 4.08327V56.3995C0.996186 58.0525 2.43026 59.4866 4.08327 59.4866H45.9122C47.5652 59.4866 48.9992 58.0525 48.9992 56.3995V4.08327C48.9992 2.43026 47.5652 0.996186 45.9122 0.996186H4.08327Z" fill="black"/>
<path d="M49.337 57.3946H7.61757C7.39863 57.3946 7.17969 57.1756 7.17969 56.9567C7.17969 56.7377 7.39863 56.5188 7.61757 56.5188H49.337C49.5559 56.5188 49.7749 56.7377 49.7749 56.9567C49.7749 57.1756 49.6654 57.3946 49.337 57.3946Z" fill="black"/>
</svg>
