<svg width="62" height="62" viewBox="0 0 62 62" fill="none" xmlns="http://www.w3.org/2000/svg">
<path d="M31.0024 41.7578C25.1232 41.7578 20.2539 36.8997 20.2539 31.0093C20.2539 30.7849 20.4783 30.5605 20.7027 30.5605C20.9271 30.5605 21.1515 30.7849 21.1515 31.0093C21.1515 36.3275 25.5608 40.7368 30.8789 40.7368C31.1033 40.7368 31.3277 40.9612 31.3277 41.1856C31.3277 41.41 31.2155 41.7466 30.9911 41.7466L31.0024 41.7578Z" fill="black"/>
<path d="M41.1758 31.5716C40.9514 31.5716 40.727 31.3472 40.727 31.1228C40.727 25.8047 36.3177 21.3954 30.9996 21.3954C30.7752 21.3954 30.5508 21.171 30.5508 20.9466C30.5508 20.7222 30.7752 20.4978 30.9996 20.4978C36.8787 20.4978 41.748 25.3559 41.748 31.2463C41.748 31.2463 41.5236 31.5829 41.187 31.5829L41.1758 31.5716Z" fill="black"/>
<path d="M31 62C22.7423 62 14.9334 58.7239 9.05429 52.9457C3.17517 47.0666 0 39.2577 0 31C0 22.7423 3.27615 14.9334 9.05429 9.05429C14.9334 3.17517 22.7423 0 31 0C39.2577 0 47.0666 3.27615 52.9457 9.05429C58.8248 14.9334 62 22.7423 62 31C62 39.2577 58.7239 47.0666 52.9457 52.9457C47.0666 58.8248 39.2577 62 31 62ZM31 1.03221C22.9667 1.03221 15.5056 4.19616 9.85089 9.85089C4.19616 15.5056 1.03221 23.0901 1.03221 31C1.03221 38.9099 4.19616 46.4944 9.85089 52.1491C15.5056 57.8038 23.0901 60.9678 31 60.9678C38.9099 60.9678 46.4944 57.8038 52.1491 52.1491C57.8038 46.4944 60.9678 38.9099 60.9678 31C60.9678 23.0901 57.8038 15.5056 52.1491 9.85089C46.4944 4.19616 39.0221 1.03221 31 1.03221Z" fill="black"/>
<path d="M31.0024 47.3029C26.5931 47.3029 22.5203 45.6088 19.4686 42.557C16.4168 39.5053 14.7227 35.3203 14.7227 31.0232C14.7227 26.726 16.4168 22.5411 19.4686 19.4893C22.5203 16.4376 26.7053 14.7434 31.0024 14.7434C35.2996 14.7434 39.4845 16.4376 42.5363 19.4893C48.8754 25.8285 48.8754 36.2291 42.5363 42.5682C39.4845 45.62 35.4118 47.3142 31.0024 47.3142V47.3029ZM31.0024 15.742C26.9297 15.742 23.0813 17.3239 20.1418 20.2635C17.2022 23.2031 15.6202 27.0514 15.6202 31.1242C15.6202 35.1969 17.2022 39.0453 20.1418 41.9848C23.0813 44.9244 26.9297 46.5063 31.0024 46.5063C35.0752 46.5063 38.9235 44.9244 41.8631 41.9848C47.8544 35.9935 47.8544 26.266 41.8631 20.2635C38.9235 17.3239 35.0752 15.742 31.0024 15.742Z" fill="black"/>
<path d="M30.9984 53.6303C25.0071 53.6303 19.3523 51.2517 15.044 47.0668C10.7468 42.7697 8.48047 37.1149 8.48047 31.1124C8.48047 25.1099 10.859 19.4664 15.044 15.158C19.3411 10.8609 24.9958 8.59448 30.9984 8.59448C37.0009 8.59448 42.6444 10.9731 46.9528 15.158C51.2499 19.4551 53.5163 25.1099 53.5163 31.1124C53.5163 37.1149 51.1377 42.7584 46.9528 47.0668C42.6556 51.2517 37.0009 53.6303 30.9984 53.6303ZM30.9984 9.4023C25.2315 9.4023 19.8011 11.6687 15.7284 15.7414C11.6556 19.8142 9.38926 25.2445 9.38926 31.0114C9.38926 36.7783 11.6556 42.2087 15.7284 46.2814C19.8011 50.3542 25.2315 52.6205 30.9984 52.6205C36.7653 52.6205 42.1956 50.3542 46.2684 46.2814C50.3411 42.2087 52.6075 36.7783 52.6075 31.0114C52.6075 25.2445 50.3411 19.8142 46.2684 15.7414C42.1956 11.6687 36.7653 9.4023 30.9984 9.4023Z" fill="black"/>
<path d="M44.9142 23.9975C44.6898 23.9975 44.5776 23.8853 44.4654 23.7731V23.6609C44.0167 22.7521 43.3323 21.8546 42.6591 21.058C42.5469 20.9458 42.5469 20.7214 42.5469 20.497C42.6591 20.2726 42.7713 20.1604 42.9957 20.1604C43.1079 20.1604 43.3323 20.2726 43.3323 20.3848C44.0167 21.1814 44.6898 22.1912 45.2508 23.1V23.2122C45.363 23.4365 45.2508 23.7731 45.0264 23.8966C45.1386 24.0088 45.0264 24.0087 44.9142 24.0087V23.9975Z" fill="black"/>
<path d="M46.3849 35.3079H46.2727C46.0483 35.1957 45.8239 34.9713 45.9361 34.7469C46.3849 32.7161 46.4971 30.562 46.1605 28.5312C46.1605 28.3068 46.2727 27.9702 46.6093 27.9702C46.8337 27.9702 47.1703 28.0824 47.1703 28.419C47.5068 30.562 47.5069 32.8283 46.9459 35.0947C46.8337 35.2069 46.6093 35.3191 46.3849 35.3191V35.3079Z" fill="black"/>
<path d="M32.3589 47.3007C32.1345 47.3007 31.9102 47.0763 31.9102 46.8519C31.9102 46.6275 32.1345 46.2909 32.3589 46.2909C33.2677 46.1787 34.0531 46.0665 34.9619 45.8421C35.1863 45.7299 35.5229 45.9543 35.6351 46.1787C35.7473 46.4031 35.5229 46.7397 35.2985 46.8631C34.2775 47.0875 33.3799 47.1997 32.3589 47.3119C32.4337 47.3119 32.4337 47.3119 32.3589 47.3119V47.3007Z" fill="black"/>
<path d="M38.9086 52.1594C38.7964 52.1594 38.6842 52.1594 38.5721 52.0472C38.4599 51.935 38.3477 51.8228 38.3477 51.5984L38.7964 44.4739C38.7964 44.3617 38.9086 44.1373 39.0208 44.0251C40.0418 43.3407 40.9394 42.6675 41.736 41.8709C42.6448 40.9621 43.5424 39.8401 44.2268 38.5947C44.339 38.4826 44.4512 38.3704 44.5634 38.3704L51.8001 37.3494C52.0245 37.3494 52.1367 37.3494 52.2488 37.5738C52.361 37.686 52.361 37.9103 52.361 38.0225C51.2279 41.4109 49.4215 44.4739 46.8185 46.9534C44.5521 49.2198 41.9492 50.914 39.0096 52.0472C39.0096 52.122 38.9722 52.1594 38.8974 52.1594H38.9086ZM39.8174 44.6983L39.4808 50.8018C41.9716 49.6686 44.2268 48.1988 46.2688 46.168C48.5351 43.9017 50.1171 41.3099 51.2503 38.3591L45.1468 39.1445C44.4736 40.2777 43.5648 41.4109 42.656 42.4207C41.7472 43.3295 40.8496 44.1148 39.8287 44.687L39.8174 44.6983Z" fill="black"/>
<path d="M15.156 32.0212C15.0438 32.0212 14.9316 32.0212 14.9316 31.909L3.95877 24.6723C3.73437 24.5601 3.73438 24.3357 3.73438 24.1113C4.97976 19.2532 7.47053 14.7204 11.0833 11.1077C14.3594 7.83155 18.2078 5.56517 22.6171 4.20759C22.8415 4.09539 23.0659 4.20759 23.1781 4.43198L31.3236 14.956C31.4358 15.0682 31.4358 15.2926 31.3236 15.517C31.2114 15.7414 31.0992 15.7414 30.8748 15.7414C26.8021 15.7414 22.9537 17.3234 20.1263 20.263C17.0746 23.3147 15.4926 27.2753 15.6048 31.5724V31.6846C15.717 31.7968 15.4926 32.0212 15.156 32.0212ZM4.86756 24.1113L14.7072 30.6748C14.8194 26.4899 16.5136 22.5293 19.4532 19.5898C22.2805 16.7624 26.0167 15.0682 29.9772 14.8439L22.6283 5.45297C18.5556 6.81056 14.9316 8.96474 11.8799 12.0165C8.49152 15.2926 6.00075 19.4776 4.86756 24.1225V24.1113Z" fill="black"/>
<path d="M51.9248 38.3612C51.8127 38.3612 51.5883 38.249 51.5883 38.1368C51.4761 38.0246 51.4761 37.8002 51.4761 37.688C53.9668 29.8791 52.037 21.5092 46.2701 15.7423C45.7091 15.1813 45.1369 14.6091 44.576 14.2725C44.4638 14.1603 44.3516 14.0481 44.3516 13.8237C44.3516 13.5993 44.4638 13.4871 44.576 13.3749L49.8941 10.7719C50.1185 10.6597 50.3429 10.6597 50.4551 10.8841C54.079 14.3959 56.6708 18.9174 58.0284 23.7756C59.2737 28.1849 59.3859 32.7064 58.365 37.2392C58.365 37.4636 58.1406 37.5758 57.9162 37.5758L51.9248 38.3724C51.9996 38.3724 51.9996 38.3724 51.9248 38.3724V38.3612ZM45.8213 13.9247C46.1579 14.2613 46.6179 14.5979 46.9545 15.0579C52.8336 20.937 54.9878 29.3069 52.7214 37.228L57.4786 36.5548C58.3874 32.3698 58.264 28.0727 57.142 24C55.8966 19.3662 53.518 15.1813 50.1297 11.7817L45.8326 13.9359L45.8213 13.9247Z" fill="black"/>
<path d="M30.9969 59.0584C28.5061 59.0584 26.1387 58.7218 23.7602 58.0374C19.3508 56.9042 15.2781 54.6491 11.9907 51.5861C11.8785 51.4739 11.7663 51.2495 11.8785 51.0251L14.1449 45.4826C14.2571 45.3704 14.3693 45.2582 14.4815 45.146C14.7059 45.146 14.8181 45.146 14.9303 45.2582C15.0051 45.333 15.0799 45.4078 15.1547 45.4826C15.379 45.707 15.6034 45.9314 15.8391 46.1558C19.9118 50.2285 25.3421 52.4949 31.109 52.4949C33.712 52.4949 36.315 52.0461 38.8058 51.0251C38.918 50.9129 39.1423 51.0251 39.2545 51.1373C39.3667 51.2495 39.4789 51.3617 39.4789 51.5861L39.0302 57.5774C39.0302 57.8018 38.918 58.0262 38.6936 58.0262C36.2028 58.6994 33.5998 59.0472 30.9969 59.0472V59.0584ZM12.8995 51.1373C16.0634 53.9647 19.9118 55.9954 23.9845 57.1286C28.6183 58.374 33.4876 58.374 38.0092 57.1286L38.3457 52.3827C35.9672 53.1793 33.4764 53.6281 30.9969 53.6281C25.0055 53.6281 19.3508 51.2495 15.0425 47.0646C14.9303 46.9524 14.8181 46.8402 14.7059 46.728L12.8995 51.1373Z" fill="black"/>
<path d="M31.0014 38.6961C26.7043 38.6961 23.3047 35.1956 23.3047 30.9994C23.3047 26.8033 26.8052 23.3027 31.0014 23.3027C35.1976 23.3027 38.6981 26.8033 38.6981 30.9994C38.6981 35.1956 35.3098 38.6961 31.0014 38.6961ZM31.0014 24.3349C27.2652 24.3349 24.3257 27.3867 24.3257 31.0107C24.3257 34.6346 27.3774 37.6864 31.0014 37.6864C34.6254 37.6864 37.6771 34.6346 37.6771 31.0107C37.6771 27.3867 34.7376 24.3349 31.0014 24.3349Z" fill="black"/>
<path d="M31.0012 31.5721H30.7768L18.6708 25.9174C18.4464 25.8052 18.3342 25.4686 18.4464 25.2442C19.1308 23.7745 20.0283 22.4169 21.2737 21.2837C23.8767 18.6807 27.3772 17.2109 31.0012 17.2109C34.6251 17.2109 38.1257 18.6807 40.7287 21.2837C40.9531 21.5081 40.9531 21.8447 40.7287 21.9681L31.3378 31.359C31.2256 31.4712 31.1134 31.5834 31.0012 31.5834V31.5721ZM19.5683 25.2442L30.8778 30.4502L39.6964 21.6315C37.3179 19.4773 34.2661 18.2431 30.99 18.2431C27.7138 18.2431 24.3143 19.6007 21.9357 21.9793C21.0269 23.0003 20.2415 24.0101 19.5571 25.2555L19.5683 25.2442Z" fill="black"/>
<path d="M30.9998 44.8121C27.2637 44.8121 23.8753 43.3423 21.2724 40.7393C21.1602 40.6271 21.1602 40.5149 21.1602 40.4027C21.1602 40.2905 21.1602 40.1783 21.2724 40.0662L30.6632 30.6753C30.7754 30.5631 30.9998 30.4509 31.2242 30.5631L43.3303 36.1056C43.5547 36.2178 43.6669 36.5544 43.5547 36.7788C42.8703 38.2486 41.9727 39.6061 40.7273 40.7393C38.1243 43.3423 34.736 44.8121 30.9998 44.8121ZM22.2821 40.4027C24.6607 42.5569 27.7125 43.7911 30.9886 43.7911C34.2648 43.7911 37.6643 42.4335 40.0429 40.0549C40.9517 39.1461 41.7371 38.0242 42.4215 36.7788L31.112 31.5728L22.2933 40.3915L22.2821 40.4027Z" fill="black"/>
</svg>
