<svg width="62" height="60" viewBox="0 0 62 60" fill="none" xmlns="http://www.w3.org/2000/svg">
<path d="M5.19065 59.6792C4.96642 59.6792 4.74219 59.455 4.74219 59.2307V0.448462C4.74219 0.224231 4.96642 0 5.19065 0C5.41488 0 5.63911 0.224231 5.63911 0.448462V59.2307C5.75123 59.455 5.527 59.6792 5.19065 59.6792Z" fill="black"/>
<path d="M59.6792 55.3869H0.448463C0.224231 55.3869 0 55.1627 0 54.9385C0 54.7142 0.224231 54.49 0.448463 54.49H59.5671C59.7913 54.49 60.0156 54.7142 60.0156 54.9385C60.0156 55.1627 59.9034 55.3869 59.6792 55.3869Z" fill="black"/>
<path d="M61.4832 45.3285H50.182C49.9577 45.3285 49.8456 45.2164 49.7335 45.1043L44.3071 35.7202V43.4113C44.3071 43.6355 44.0829 43.8598 43.8586 43.8598C43.6344 43.8598 43.4102 43.6355 43.4102 43.4113V33.803C43.4102 33.5788 43.5223 33.3545 43.7465 33.3545C43.9707 33.2424 44.195 33.3545 44.3071 33.5788L50.5295 44.3194H61.4944C61.7187 44.3194 61.9429 44.5437 61.9429 44.7679C61.9429 44.9921 61.7187 45.3285 61.4944 45.3285H61.4832Z" fill="black"/>
<path d="M42.1567 45.5505H29.8352C29.611 45.5505 29.3867 45.3263 29.3867 45.102C29.3867 44.8778 29.611 44.6536 29.8352 44.6536H42.1567C42.3809 44.6536 42.6052 44.8778 42.6052 45.102C42.6052 45.3263 42.3809 45.5505 42.1567 45.5505Z" fill="black"/>
<path d="M27.0124 44.3098C26.9003 44.3098 26.7882 44.3098 26.6761 44.1976L17.1799 34.7014C16.9557 34.4772 16.9557 34.1409 17.1799 34.0175C17.4041 33.7933 17.7405 33.7933 17.8526 34.0175L27.3488 43.5137C27.573 43.738 27.573 44.0743 27.3488 44.1864C27.2367 44.2986 27.1246 44.2985 27.0124 44.2985V44.3098Z" fill="black"/>
<path d="M14.7995 33.8046H10.7297C10.5055 33.8046 10.2812 33.5804 10.2812 33.3562C10.2812 33.1319 10.5055 32.9077 10.7297 32.9077H14.7995C15.0237 32.9077 15.248 33.1319 15.248 33.3562C15.248 33.5804 15.0237 33.8046 14.7995 33.8046Z" fill="black"/>
<path d="M61.0356 34.1378H54.9365C54.7122 34.1378 54.6001 34.0257 54.488 33.9135L50.7546 27.2427C50.6424 27.0184 50.6424 26.6821 50.9788 26.5588C51.203 26.4466 51.5394 26.4466 51.6627 26.783L55.3961 33.1175H61.1589C61.3831 33.1175 61.6074 33.3418 61.6074 33.566C61.6074 33.7902 61.3831 34.1266 61.0468 34.1266L61.0356 34.1378Z" fill="black"/>
<path d="M48.7155 26.0004H29.8352C29.611 26.0004 29.3867 25.7762 29.3867 25.552C29.3867 25.3277 29.611 25.1035 29.8352 25.1035H48.7155C48.9397 25.1035 49.1639 25.3277 49.1639 25.552C49.1639 25.7762 49.0518 26.0004 48.7155 26.0004Z" fill="black"/>
<path d="M16.4936 46.4627H10.843C10.6188 46.4627 10.3945 46.2384 10.3945 46.0142C10.3945 45.79 10.6188 45.5657 10.843 45.5657H16.2694L27.0101 26.6855C27.1222 26.4612 27.4585 26.3491 27.6828 26.4612C27.907 26.5733 28.0191 26.9097 27.907 27.1451L16.9421 46.1375C16.83 46.3618 16.6057 46.4739 16.4936 46.4739V46.4627Z" fill="black"/>
<path d="M61.0361 34.1379C60.9239 34.1379 60.8118 34.1379 60.6997 34.0258L58.5471 31.649C58.3228 31.4247 58.3228 31.0884 58.5471 30.965C58.7713 30.7408 59.1077 30.7408 59.231 30.965L61.3836 33.3419C61.6078 33.5661 61.6078 33.9025 61.3836 34.0146C61.3836 34.0146 61.1594 34.1267 61.0473 34.1267L61.0361 34.1379Z" fill="black"/>
<path d="M58.8834 36.3909C58.7713 36.3909 58.6592 36.3909 58.5471 36.2788C58.3228 36.0545 58.3228 35.7182 58.5471 35.6061L60.6997 33.2292C60.9239 33.005 61.2603 33.005 61.3836 33.2292C61.6078 33.4534 61.6078 33.7898 61.3836 33.9019L59.231 36.2788C59.1189 36.3909 59.0068 36.3909 58.8946 36.3909H58.8834Z" fill="black"/>
<path d="M61.4814 45.3293C61.3692 45.3293 61.2571 45.3293 61.145 45.2172L58.9924 42.9524C58.7682 42.7282 58.7682 42.3918 58.9924 42.2685C59.2166 42.0443 59.553 42.0443 59.6763 42.2685L61.8289 44.5332C62.0532 44.7575 62.0532 45.0938 61.8289 45.2059C61.7168 45.3181 61.6047 45.3181 61.4926 45.3181L61.4814 45.3293Z" fill="black"/>
<path d="M59.2194 47.7055C59.1073 47.7055 58.9951 47.7056 58.883 47.5934C58.6588 47.3692 58.6588 47.0329 58.883 46.9095L61.0356 44.5327C61.2599 44.3084 61.5962 44.3084 61.7083 44.5327C61.9326 44.7569 61.9326 45.0933 61.7083 45.2054L59.5557 47.5822C59.5557 47.5822 59.3315 47.6943 59.2194 47.6943V47.7055Z" fill="black"/>
<path d="M52.4373 17.7492H42.6047C42.3805 17.7492 42.1562 17.525 42.1562 17.3008C42.1562 17.0765 42.3805 16.8523 42.6047 16.8523H52.4373C52.6615 16.8523 52.8857 17.0765 52.8857 17.3008C52.8857 17.525 52.7736 17.7492 52.4373 17.7492Z" fill="black"/>
<path d="M40.1127 16.3892C39.8885 16.3892 39.7764 16.2771 39.6643 16.165L36.3905 10.5144H30.9641C30.7399 10.5144 30.5156 10.2901 30.5156 10.0659C30.5156 9.84166 30.7399 9.61743 30.9641 9.61743H36.7268C36.9511 9.61743 37.0632 9.72955 37.1753 9.84166L40.5612 15.7165C40.6733 15.9408 40.6733 16.2771 40.337 16.3892C40.337 16.2771 40.2248 16.3892 40.1127 16.3892Z" fill="black"/>
<path d="M24.5188 15.2604H10.6164C10.3922 15.2604 10.168 15.0361 10.168 14.8119C10.168 14.5877 10.3922 14.3634 10.6164 14.3634H24.2945L27.7926 10.8542C28.0168 10.63 28.3531 10.63 28.4765 10.8542C28.7007 11.0784 28.7007 11.4148 28.4765 11.5381L24.8551 15.1595C24.743 15.2716 24.6309 15.2716 24.5188 15.2716V15.2604Z" fill="black"/>
<path d="M52.4345 17.7473C52.3224 17.7473 52.2103 17.7473 52.0981 17.6352L49.9455 15.2584C49.7213 15.0341 49.7213 14.6978 49.9455 14.5857C50.1697 14.3614 50.5061 14.3614 50.6182 14.5857L52.7708 16.9625C52.9951 17.1867 52.9951 17.5231 52.7708 17.6352C52.6587 17.7473 52.5466 17.7473 52.4345 17.7473Z" fill="black"/>
<path d="M50.2936 20.1252C50.1815 20.1252 50.0694 20.1252 49.9572 20.0131C49.733 19.7888 49.733 19.4525 49.9572 19.3292L52.1099 17.0644C52.3341 16.8402 52.6704 16.8402 52.7826 17.0644C53.0068 17.2886 53.0068 17.625 52.7826 17.7483L50.6299 20.0131C50.5178 20.0131 50.4057 20.1252 50.2936 20.1252Z" fill="black"/>
<path d="M5.18781 5.98604H0.893775C0.669544 5.98604 0.445312 5.76181 0.445312 5.53757C0.445312 5.31334 0.669544 5.08911 0.893775 5.08911H5.18781C5.41204 5.08911 5.63627 5.31334 5.63627 5.53757C5.63627 5.76181 5.52415 5.98604 5.18781 5.98604Z" fill="black"/>
<path d="M5.18781 10.0588H0.893775C0.669544 10.0588 0.445312 9.83456 0.445312 9.61033C0.445312 9.3861 0.669544 9.16187 0.893775 9.16187H5.18781C5.41204 9.16187 5.63627 9.3861 5.63627 9.61033C5.63627 9.83456 5.52415 10.0588 5.18781 10.0588Z" fill="black"/>
<path d="M5.18781 14.237H0.893775C0.669544 14.237 0.445312 14.0128 0.445312 13.7886C0.445312 13.5643 0.669544 13.3401 0.893775 13.3401H5.18781C5.41204 13.3401 5.63627 13.5643 5.63627 13.7886C5.63627 14.0128 5.52415 14.237 5.18781 14.237Z" fill="black"/>
<path d="M5.18781 18.31H0.893775C0.669544 18.31 0.445312 18.0858 0.445312 17.8616C0.445312 17.6373 0.669544 17.4131 0.893775 17.4131H5.18781C5.41204 17.4131 5.63627 17.6373 5.63627 17.8616C5.63627 18.0858 5.52415 18.31 5.18781 18.31Z" fill="black"/>
<path d="M5.18781 22.3784H0.893775C0.669544 22.3784 0.445312 22.1541 0.445312 21.9299C0.445312 21.7057 0.669544 21.4814 0.893775 21.4814H5.18781C5.41204 21.4814 5.63627 21.7057 5.63627 21.9299C5.63627 22.1541 5.52415 22.3784 5.18781 22.3784Z" fill="black"/>
<path d="M5.18781 26.561H0.893775C0.669544 26.561 0.445312 26.3368 0.445312 26.1125C0.445312 25.8883 0.669544 25.6641 0.893775 25.6641H5.18781C5.41204 25.6641 5.63627 25.8883 5.63627 26.1125C5.63627 26.3368 5.52415 26.561 5.18781 26.561Z" fill="black"/>
<path d="M5.18781 30.6296H0.893775C0.669544 30.6296 0.445312 30.4054 0.445312 30.1811C0.445312 29.9569 0.669544 29.7327 0.893775 29.7327H5.18781C5.41204 29.7327 5.63627 29.9569 5.63627 30.1811C5.63627 30.4054 5.52415 30.6296 5.18781 30.6296Z" fill="black"/>
<path d="M5.18781 34.698H0.893775C0.669544 34.698 0.445312 34.4737 0.445312 34.2495C0.445312 34.0253 0.669544 33.801 0.893775 33.801H5.18781C5.41204 33.801 5.63627 34.0253 5.63627 34.2495C5.63627 34.4737 5.52415 34.698 5.18781 34.698Z" fill="black"/>
<path d="M5.18781 38.8806H0.893775C0.669544 38.8806 0.445312 38.6563 0.445312 38.4321C0.445312 38.2079 0.669544 37.9836 0.893775 37.9836H5.18781C5.41204 37.9836 5.63627 38.2079 5.63627 38.4321C5.63627 38.6563 5.52415 38.8806 5.18781 38.8806Z" fill="black"/>
<path d="M5.18781 42.9536H0.893775C0.669544 42.9536 0.445312 42.7293 0.445312 42.5051C0.445312 42.2809 0.669544 42.0566 0.893775 42.0566H5.18781C5.41204 42.0566 5.63627 42.2809 5.63627 42.5051C5.63627 42.7293 5.52415 42.9536 5.18781 42.9536Z" fill="black"/>
<path d="M5.18781 47.0219H0.893775C0.669544 47.0219 0.445312 46.7977 0.445312 46.5735C0.445312 46.3492 0.669544 46.125 0.893775 46.125H5.18781C5.41204 46.125 5.63627 46.3492 5.63627 46.5735C5.63627 46.7977 5.52415 47.0219 5.18781 47.0219Z" fill="black"/>
<path d="M5.18781 51.2045H0.893775C0.669544 51.2045 0.445312 50.9803 0.445312 50.7561C0.445312 50.5318 0.669544 50.3076 0.893775 50.3076H5.18781C5.41204 50.3076 5.63627 50.5318 5.63627 50.7561C5.63627 50.9803 5.52415 51.2045 5.18781 51.2045Z" fill="black"/>
<path d="M57.8625 59.6809C57.6383 59.6809 57.4141 59.4567 57.4141 59.2325V54.9385C57.4141 54.7142 57.6383 54.49 57.8625 54.49C58.0868 54.49 58.311 54.7142 58.311 54.9385V59.2325C58.311 59.4567 58.0868 59.6809 57.8625 59.6809Z" fill="black"/>
<path d="M53.6828 59.6809C53.4586 59.6809 53.2344 59.4567 53.2344 59.2325V54.9385C53.2344 54.7142 53.4586 54.49 53.6828 54.49C53.9071 54.49 54.1313 54.7142 54.1313 54.9385V59.2325C54.2434 59.4567 54.0192 59.6809 53.6828 59.6809Z" fill="black"/>
<path d="M49.6125 59.6809C49.3883 59.6809 49.1641 59.4567 49.1641 59.2325V54.9385C49.1641 54.7142 49.3883 54.49 49.6125 54.49C49.8368 54.49 50.061 54.7142 50.061 54.9385V59.2325C50.1731 59.4567 49.9489 59.6809 49.6125 59.6809Z" fill="black"/>
<path d="M45.5383 59.6809C45.3141 59.6809 45.0898 59.4567 45.0898 59.2325V54.9385C45.0898 54.7142 45.3141 54.49 45.5383 54.49C45.7625 54.49 45.9868 54.7142 45.9868 54.9385V59.2325C45.9868 59.4567 45.7625 59.6809 45.5383 59.6809Z" fill="black"/>
<path d="M41.4719 59.6809C41.2477 59.6809 41.0234 59.4567 41.0234 59.2325V54.9385C41.0234 54.7142 41.2477 54.49 41.4719 54.49C41.6961 54.49 41.9204 54.7142 41.9204 54.9385V59.2325C41.9204 59.4567 41.6961 59.6809 41.4719 59.6809Z" fill="black"/>
<path d="M37.2883 59.6809C37.0641 59.6809 36.8398 59.4567 36.8398 59.2325V54.9385C36.8398 54.7142 37.0641 54.49 37.2883 54.49C37.5125 54.49 37.7368 54.7142 37.7368 54.9385V59.2325C37.8489 59.4567 37.6247 59.6809 37.2883 59.6809Z" fill="black"/>
<path d="M33.2219 59.6809C32.9977 59.6809 32.7734 59.4567 32.7734 59.2325V54.9385C32.7734 54.7142 32.9977 54.49 33.2219 54.49C33.4461 54.49 33.6704 54.7142 33.6704 54.9385V59.2325C33.6704 59.4567 33.4461 59.6809 33.2219 59.6809Z" fill="black"/>
<path d="M29.1516 59.6809C28.9274 59.6809 28.7031 59.4567 28.7031 59.2325V54.9385C28.7031 54.7142 28.9274 54.49 29.1516 54.49C29.3758 54.49 29.6001 54.7142 29.6001 54.9385V59.2325C29.6001 59.4567 29.3758 59.6809 29.1516 59.6809Z" fill="black"/>
<path d="M24.968 59.6809C24.7438 59.6809 24.5195 59.4567 24.5195 59.2325V54.9385C24.5195 54.7142 24.7438 54.49 24.968 54.49C25.1922 54.49 25.4165 54.7142 25.4165 54.9385V59.2325C25.5286 59.4567 25.3043 59.6809 24.968 59.6809Z" fill="black"/>
<path d="M20.8977 59.6809C20.6735 59.6809 20.4492 59.4567 20.4492 59.2325V54.9385C20.4492 54.7142 20.6735 54.49 20.8977 54.49C21.1219 54.49 21.3461 54.7142 21.3461 54.9385V59.2325C21.4583 59.4567 21.234 59.6809 20.8977 59.6809Z" fill="black"/>
<path d="M16.8274 59.6809C16.6031 59.6809 16.3789 59.4567 16.3789 59.2325V54.9385C16.3789 54.7142 16.6031 54.49 16.8274 54.49C17.0516 54.49 17.2758 54.7142 17.2758 54.9385V59.2325C17.2758 59.4567 17.0516 59.6809 16.8274 59.6809Z" fill="black"/>
<path d="M12.6438 59.6809C12.4195 59.6809 12.1953 59.4567 12.1953 59.2325V54.9385C12.1953 54.7142 12.4195 54.49 12.6438 54.49C12.868 54.49 13.0922 54.7142 13.0922 54.9385V59.2325C13.2044 59.4567 12.9801 59.6809 12.6438 59.6809Z" fill="black"/>
<path d="M29.3831 12.0965C28.2507 12.0965 27.2305 11.0763 27.2305 9.94388C27.2305 8.6994 28.2507 7.79126 29.3831 7.79126C30.5155 7.79126 31.5357 8.81151 31.5357 9.94388C31.5357 11.1884 30.5155 12.0965 29.3831 12.0965ZM29.3831 8.81151C28.7104 8.81151 28.2507 9.37209 28.2507 9.94388C28.2507 10.5157 28.8113 11.0762 29.3831 11.0762C29.9549 11.0762 30.5155 10.6278 30.5155 9.94388C30.5155 9.3833 29.9549 8.81151 29.3831 8.81151Z" fill="black"/>
<path d="M40.9104 19.441C39.7781 19.441 38.7578 18.4207 38.7578 17.2884C38.7578 16.0439 39.7781 15.1357 40.9104 15.1357C42.0428 15.1357 43.0631 16.156 43.0631 17.2884C43.0631 18.4207 42.1549 19.441 40.9104 19.441ZM40.9104 16.1672C40.2377 16.1672 39.7781 16.7278 39.7781 17.2996C39.7781 17.8714 40.3386 18.4319 40.9104 18.4319C41.5831 18.4319 42.0428 17.9835 42.0428 17.2996C42.0428 16.6157 41.5943 16.1672 40.9104 16.1672Z" fill="black"/>
<path d="M43.7347 47.1326C42.6023 47.1326 41.582 46.1124 41.582 44.98C41.582 43.8476 42.6023 42.8274 43.7347 42.8274C44.867 42.8274 45.8873 43.8476 45.8873 44.98C45.8873 46.2245 44.9791 47.1326 43.7347 47.1326ZM43.7347 43.8589C43.0507 43.8589 42.6023 44.3073 42.6023 44.9912C42.6023 45.6751 43.1629 46.1236 43.7347 46.1236C44.3064 46.1236 44.867 45.563 44.867 44.9912C44.867 44.4194 44.4186 43.8589 43.7347 43.8589Z" fill="black"/>
<path d="M28.2542 27.692C27.1218 27.692 26.1016 26.6717 26.1016 25.5393C26.1016 24.407 27.1218 23.3867 28.2542 23.3867C29.3866 23.3867 30.4068 24.407 30.4068 25.5393C30.4068 26.6717 29.3866 27.692 28.2542 27.692ZM28.2542 24.4182C27.5815 24.4182 27.1218 24.8666 27.1218 25.5506C27.1218 26.2345 27.6824 26.6829 28.2542 26.6829C28.9269 26.6829 29.3866 26.1223 29.3866 25.5506C29.3866 24.8779 28.826 24.4182 28.2542 24.4182Z" fill="black"/>
<path d="M28.1409 47.1326C27.0085 47.1326 25.9883 46.1124 25.9883 44.98C25.9883 43.8476 27.0085 42.8274 28.1409 42.8274C29.2733 42.8274 30.2935 43.8476 30.2935 44.98C30.2935 46.2245 29.3854 47.1326 28.1409 47.1326ZM28.1409 43.8589C27.457 43.8589 27.0085 44.3073 27.0085 44.9912C27.0085 45.6751 27.5691 46.1236 28.1409 46.1236C28.8136 46.1236 29.2733 45.563 29.2733 44.9912C29.2733 44.4194 28.8248 43.8589 28.1409 43.8589Z" fill="black"/>
<path d="M16.3831 35.3824C15.2507 35.3824 14.2305 34.3621 14.2305 33.2298C14.2305 31.9853 15.2507 31.0771 16.3831 31.0771C17.5155 31.0771 18.5357 32.0974 18.5357 33.2298C18.5357 34.4743 17.6276 35.3824 16.3831 35.3824ZM16.3831 32.0974C15.7104 32.0974 15.2507 32.658 15.2507 33.2298C15.2507 33.9025 15.8113 34.3621 16.3831 34.3621C17.067 34.3621 17.5155 33.8016 17.5155 33.2298C17.5155 32.5459 17.067 32.0974 16.3831 32.0974Z" fill="black"/>
<path d="M50.4065 27.692C49.2742 27.692 48.2539 26.6717 48.2539 25.5393C48.2539 24.407 49.2742 23.3867 50.4065 23.3867C51.5389 23.3867 52.5591 24.407 52.5591 25.5393C52.5591 26.6717 51.5389 27.692 50.4065 27.692ZM50.4065 24.4182C49.7226 24.4182 49.2742 24.8666 49.2742 25.5506C49.2742 26.2345 49.8347 26.6829 50.4065 26.6829C51.0792 26.6829 51.5389 26.1223 51.5389 25.5506C51.5389 24.8779 50.9783 24.4182 50.4065 24.4182Z" fill="black"/>
</svg>
