<svg width="63" height="69" viewBox="0 0 63 69" fill="none" xmlns="http://www.w3.org/2000/svg">
<path d="M11.2946 36.516H7.90817C7.65916 36.516 7.41016 36.267 7.41016 36.018V32.507C7.41016 32.258 7.65916 32.009 7.90817 32.009H11.2946C11.5437 32.009 11.7927 32.258 11.7927 32.507V35.8935C11.7927 36.267 11.5437 36.516 11.2946 36.516ZM8.40618 35.3831H10.6597V33.1296H8.40618V35.3831Z" fill="black"/>
<path d="M18.0622 34.0026H14.1777C13.9287 34.0026 13.6797 33.7536 13.6797 33.5046C13.6797 33.2556 13.9287 33.0066 14.1777 33.0066H18.0622C18.3112 33.0066 18.5602 33.2556 18.5602 33.5046C18.5602 33.7536 18.4357 34.0026 18.0622 34.0026Z" fill="black"/>
<path d="M24.2173 35.5053H14.1699C13.9209 35.5053 13.6719 35.2563 13.6719 35.0073C13.6719 34.7583 13.9209 34.5093 14.1699 34.5093H24.2173C24.4663 34.5093 24.7153 34.7583 24.7153 35.0073C24.7153 35.2563 24.5908 35.5053 24.2173 35.5053Z" fill="black"/>
<path d="M38.1516 68.7727H3.62692C3.37791 68.7727 3.12891 68.5237 3.12891 68.2747V20.8266C3.12891 20.7021 3.12891 20.5776 3.25341 20.4531C3.37791 20.3286 3.50242 20.3286 3.62692 20.3286H27.4817C27.6062 20.3286 27.7307 20.3286 27.8552 20.4531L38.5251 31.123C38.6496 31.2475 38.6496 31.372 38.6496 31.4965V68.1502C38.7741 68.5237 38.5251 68.7727 38.1516 68.7727ZM4.26188 67.6397H37.6535V31.7455L27.2327 21.3246H4.26188V67.6397Z" fill="black"/>
<path d="M38.1484 32.1208H27.4785C27.2295 32.1208 26.9805 31.8718 26.9805 31.6228V20.9529C26.9805 20.7039 27.105 20.5794 27.354 20.4549C27.603 20.3304 27.852 20.4549 27.9765 20.5794L38.6464 31.2493C38.7709 31.3738 38.8954 31.4983 38.8954 31.6228C38.7709 31.8718 38.5219 32.1208 38.1484 32.1208ZM27.9765 30.9878H36.7664L27.9765 22.1979V30.9878Z" fill="black"/>
<path d="M3.63548 66.0085H0.498013C0.249008 66.0085 0 65.7595 0 65.5105V18.0625C0 17.8135 0.249008 17.5645 0.498013 17.5645H24.3528C24.6018 17.5645 24.8508 17.8135 24.8508 18.0625V20.8264C24.8508 20.9509 24.8508 21.0754 24.7263 21.1999C24.6018 21.3244 24.4773 21.3244 24.3528 21.3244H4.27045V65.386C4.27045 65.7595 4.02144 66.0085 3.64793 66.0085H3.63548ZM1.12053 64.888H3.12502V20.8264C3.12502 20.7019 3.12502 20.5774 3.24953 20.4529C3.37403 20.3284 3.49853 20.3284 3.62304 20.3284H23.7053V18.6974H1.10808V64.888H1.12053Z" fill="black"/>
<path d="M29.3591 35.5053H26.4707C26.2217 35.5053 25.9727 35.2563 25.9727 35.0073C25.9727 34.7583 26.2217 34.5093 26.4707 34.5093H29.3591C29.6081 34.5093 29.8571 34.7583 29.8571 35.0073C29.8571 35.2563 29.6081 35.5053 29.3591 35.5053Z" fill="black"/>
<path d="M11.2946 44.8068H7.90817C7.65916 44.8068 7.41016 44.5578 7.41016 44.3088V40.9223C7.41016 40.6733 7.65916 40.4243 7.90817 40.4243H11.2946C11.5437 40.4243 11.7927 40.6733 11.7927 40.9223V44.3088C11.7927 44.5578 11.5437 44.8068 11.2946 44.8068ZM8.40618 43.6738H10.6597V41.4203H8.40618V43.6738Z" fill="black"/>
<path d="M18.0622 42.5453H14.1777C13.9287 42.5453 13.6797 42.2963 13.6797 42.0473C13.6797 41.7983 13.9287 41.5493 14.1777 41.5493H18.0622C18.3112 41.5493 18.5602 41.7983 18.5602 42.0473C18.5602 42.2963 18.4357 42.5453 18.0622 42.5453Z" fill="black"/>
<path d="M24.2173 44.1713H14.1699C13.9209 44.1713 13.6719 43.9223 13.6719 43.6733C13.6719 43.4243 13.9209 43.1753 14.1699 43.1753H24.2173C24.4663 43.1753 24.7153 43.4243 24.7153 43.6733C24.7153 43.9223 24.5908 44.1713 24.2173 44.1713Z" fill="black"/>
<path d="M29.3591 44.1713H26.4707C26.2217 44.1713 25.9727 43.9223 25.9727 43.6733C25.9727 43.4243 26.2217 43.1753 26.4707 43.1753H29.3591C29.6081 43.1753 29.8571 43.4243 29.8571 43.6733C29.8571 43.9223 29.6081 44.1713 29.3591 44.1713Z" fill="black"/>
<path d="M11.2946 53.0903H7.90817C7.65916 53.0903 7.41016 52.8413 7.41016 52.5923V49.2058C7.41016 48.9568 7.65916 48.7078 7.90817 48.7078H11.2946C11.5437 48.7078 11.7927 48.9568 11.7927 49.2058V52.5923C11.7927 52.8413 11.5437 53.0903 11.2946 53.0903ZM8.40618 51.9573H10.6597V49.7038H8.40618V51.9573Z" fill="black"/>
<path d="M18.0622 50.9562H14.1777C13.9287 50.9562 13.6797 50.7072 13.6797 50.4582C13.6797 50.2092 13.9287 49.9602 14.1777 49.9602H18.0622C18.3112 49.9602 18.5602 50.2092 18.5602 50.4582C18.5602 50.7072 18.4357 50.9562 18.0622 50.9562Z" fill="black"/>
<path d="M24.2173 52.4636H14.1699C13.9209 52.4636 13.6719 52.2145 13.6719 51.9655C13.6719 51.7165 13.9209 51.4675 14.1699 51.4675H24.2173C24.4663 51.4675 24.7153 51.7165 24.7153 51.9655C24.7153 52.2145 24.5908 52.4636 24.2173 52.4636Z" fill="black"/>
<path d="M29.3591 52.4636H26.4707C26.2217 52.4636 25.9727 52.2145 25.9727 51.9655C25.9727 51.7165 26.2217 51.4675 26.4707 51.4675H29.3591C29.6081 51.4675 29.8571 51.7165 29.8571 51.9655C29.8571 52.2145 29.6081 52.4636 29.3591 52.4636Z" fill="black"/>
<path d="M11.2946 61.4924H7.90817C7.65916 61.4924 7.41016 61.2434 7.41016 60.9943V57.6079C7.41016 57.3589 7.65916 57.1099 7.90817 57.1099H11.2946C11.5437 57.1099 11.7927 57.3589 11.7927 57.6079V60.9943C11.7927 61.2434 11.5437 61.4924 11.2946 61.4924ZM8.40618 60.3718H10.6597V58.1183H8.40618V60.3718Z" fill="black"/>
<path d="M18.0622 59.2397H14.1777C13.9287 59.2397 13.6797 58.9907 13.6797 58.7417C13.6797 58.4927 13.9287 58.2437 14.1777 58.2437H18.0622C18.3112 58.2437 18.5602 58.4927 18.5602 58.7417C18.5602 58.9907 18.4357 59.2397 18.0622 59.2397Z" fill="black"/>
<path d="M24.2173 60.8701H14.1699C13.9209 60.8701 13.6719 60.621 13.6719 60.372C13.6719 60.123 13.9209 59.874 14.1699 59.874H24.2173C24.4663 59.874 24.7153 60.123 24.7153 60.372C24.7153 60.621 24.5908 60.8701 24.2173 60.8701Z" fill="black"/>
<path d="M29.3591 60.8701H26.4707C26.2217 60.8701 25.9727 60.621 25.9727 60.372C25.9727 60.123 26.2217 59.874 26.4707 59.874H29.3591C29.6081 59.874 29.8571 60.123 29.8571 60.372C29.8571 60.621 29.6081 60.8701 29.3591 60.8701Z" fill="black"/>
<path d="M6.89645 29.109C6.64744 29.109 6.39844 28.86 6.39844 28.611V20.9541C6.39844 20.7051 6.64744 20.4561 6.89645 20.4561C7.14545 20.4561 7.39446 20.7051 7.39446 20.9541V28.611C7.39446 28.86 7.14545 29.109 6.89645 29.109Z" fill="black"/>
<path d="M35.2556 18.9501H31.8691C31.6201 18.9501 31.3711 18.7011 31.3711 18.4521V15.0656C31.3711 14.8166 31.6201 14.5676 31.8691 14.5676H35.2556C35.5046 14.5676 35.7536 14.8166 35.7536 15.0656V18.4521C35.7536 18.7011 35.5046 18.9501 35.2556 18.9501ZM32.3671 17.8171H34.6206V15.5636H32.3671V17.8171Z" fill="black"/>
<path d="M42.0427 16.684H38.1582C37.9092 16.684 37.6602 16.435 37.6602 16.186C37.6602 15.937 37.9092 15.688 38.1582 15.688H42.0427C42.2917 15.688 42.5407 15.937 42.5407 16.186C42.5407 16.435 42.4162 16.684 42.0427 16.684Z" fill="black"/>
<path d="M48.1938 18.3144H38.1464C37.8974 18.3144 37.6484 18.0654 37.6484 17.8164C37.6484 17.5674 37.8974 17.3184 38.1464 17.3184H48.1938C48.4428 17.3184 48.6918 17.5674 48.6918 17.8164C48.6918 18.0654 48.5673 18.3144 48.1938 18.3144Z" fill="black"/>
<path d="M62.2531 51.2068H38.1494C37.9004 51.2068 37.6514 50.9578 37.6514 50.7088V31.7594L27.355 21.463C27.2305 21.3385 27.2305 21.214 27.2305 21.0895V3.38522C27.2305 3.13621 27.4795 2.88721 27.7285 2.88721H51.5832C51.7077 2.88721 51.8322 2.88721 51.9567 3.01171L62.6266 13.6816C62.7511 13.8061 62.7511 13.9306 62.7511 14.0551V50.7088C62.7511 50.9578 62.5021 51.2068 62.2531 51.2068ZM38.7843 50.0738H61.6306V14.3041L51.2097 3.88323H28.2389V20.8281L38.5353 31.1245C38.6598 31.249 38.6598 31.3735 38.6598 31.498V50.0738H38.7843Z" fill="black"/>
<path d="M62.2538 14.552H51.584C51.3349 14.552 51.0859 14.303 51.0859 14.054V3.38405C51.0859 3.13505 51.2104 3.01055 51.4594 2.88604C51.7085 2.76154 51.9575 2.88604 52.082 3.01054L62.7519 13.6804C62.8764 13.8049 63.0009 13.9294 63.0009 14.054C62.7519 14.303 62.5028 14.552 62.2414 14.552H62.2538ZM52.082 13.5435H60.8719L52.082 4.75359V13.5435Z" fill="black"/>
<path d="M27.7258 21.5763C27.6013 21.5763 27.4768 21.5763 27.3523 21.4518H24.7129C24.4639 21.4518 24.2148 21.2028 24.2148 20.9538V0.498011C24.2148 0.249005 24.4639 0 24.7129 0H48.5676C48.8166 0 49.0656 0.249005 49.0656 0.498011V3.26197C49.0656 3.38648 49.0656 3.51098 48.9411 3.63548C48.8166 3.75998 48.6921 3.75998 48.5676 3.75998H28.2363V20.9538C28.2363 21.2028 28.1118 21.3273 27.8628 21.4518C27.8628 21.5763 27.7383 21.5763 27.7383 21.5763H27.7258ZM25.0988 20.3313H27.1033V3.38648C27.1033 3.13747 27.3523 2.88847 27.6013 2.88847H47.6836V1.25748H25.0864V20.3438L25.0988 20.3313Z" fill="black"/>
<path d="M53.3396 18.3144H50.4511C50.2021 18.3144 49.9531 18.0654 49.9531 17.8164C49.9531 17.5674 50.2021 17.3184 50.4511 17.3184H53.3396C53.5886 17.3184 53.8376 17.5674 53.8376 17.8164C53.8376 18.0654 53.5886 18.3144 53.3396 18.3144Z" fill="black"/>
<path d="M35.2556 27.2292H33.3756C33.2511 27.2292 33.1266 27.2292 33.0021 27.1047L31.4956 25.5982C31.3711 25.4737 31.3711 25.3492 31.3711 25.2247V23.3447C31.3711 23.0957 31.6201 22.8467 31.8691 22.8467H35.2556C35.5046 22.8467 35.7536 23.0957 35.7536 23.3447V26.7312C35.7536 26.9802 35.5046 27.2292 35.2556 27.2292ZM33.6246 26.0962H34.7576V23.8427H32.5041V24.9757L33.637 26.1087L33.6246 26.0962Z" fill="black"/>
<path d="M42.0427 25.0995H38.1582C37.9092 25.0995 37.6602 24.8505 37.6602 24.6015C37.6602 24.3525 37.9092 24.1035 38.1582 24.1035H42.0427C42.2917 24.1035 42.5407 24.3525 42.5407 24.6015C42.5407 24.8505 42.4162 25.0995 42.0427 25.0995Z" fill="black"/>
<path d="M48.1938 26.6066H38.1464C37.8974 26.6066 37.6484 26.3576 37.6484 26.1086C37.6484 25.8596 37.8974 25.6106 38.1464 25.6106H48.1938C48.4428 25.6106 48.6918 25.8596 48.6918 26.1086C48.6918 26.3576 48.5673 26.6066 48.1938 26.6066Z" fill="black"/>
<path d="M53.3396 26.6066H50.4511C50.2021 26.6066 49.9531 26.3576 49.9531 26.1086C49.9531 25.8596 50.2021 25.6106 50.4511 25.6106H53.3396C53.5886 25.6106 53.8376 25.8596 53.8376 26.1086C53.8376 26.3576 53.5886 26.6066 53.3396 26.6066Z" fill="black"/>
<path d="M42.0427 33.383H38.1582C37.9092 33.383 37.6602 33.134 37.6602 32.885C37.6602 32.636 37.9092 32.387 38.1582 32.387H42.0427C42.2917 32.387 42.5407 32.636 42.5407 32.885C42.5407 33.134 42.4162 33.383 42.0427 33.383Z" fill="black"/>
<path d="M48.1938 35.009H38.1464C37.8974 35.009 37.6484 34.76 37.6484 34.5109C37.6484 34.2619 37.8974 34.0129 38.1464 34.0129H48.1938C48.4428 34.0129 48.6918 34.2619 48.6918 34.5109C48.6918 34.76 48.5673 35.009 48.1938 35.009Z" fill="black"/>
<path d="M53.3396 35.009H50.4511C50.2021 35.009 49.9531 34.76 49.9531 34.5109C49.9531 34.2619 50.2021 34.0129 50.4511 34.0129H53.3396C53.5886 34.0129 53.8376 34.2619 53.8376 34.5109C53.8376 34.76 53.5886 35.009 53.3396 35.009Z" fill="black"/>
<path d="M42.0427 41.6576H38.1582C37.9092 41.6576 37.6602 41.4086 37.6602 41.1596C37.6602 40.9106 37.9092 40.6616 38.1582 40.6616H42.0427C42.2917 40.6616 42.5407 40.9106 42.5407 41.1596C42.5407 41.4086 42.4162 41.6576 42.0427 41.6576Z" fill="black"/>
<path d="M48.1938 43.3012H38.1464C37.8974 43.3012 37.6484 43.0522 37.6484 42.8032C37.6484 42.5542 37.8974 42.3052 38.1464 42.3052H48.1938C48.4428 42.3052 48.6918 42.5542 48.6918 42.8032C48.6918 43.0522 48.5673 43.3012 48.1938 43.3012Z" fill="black"/>
<path d="M53.3396 43.3012H50.4511C50.2021 43.3012 49.9531 43.0522 49.9531 42.8032C49.9531 42.5542 50.2021 42.3052 50.4511 42.3052H53.3396C53.5886 42.3052 53.8376 42.5542 53.8376 42.8032C53.8376 43.0522 53.5886 43.3012 53.3396 43.3012Z" fill="black"/>
<path d="M30.4902 11.5402C30.2412 11.5402 29.9922 11.2911 29.9922 11.0421V3.38522C29.9922 3.13621 30.2412 2.88721 30.4902 2.88721C30.7392 2.88721 30.9882 3.13621 30.9882 3.38522V11.0421C30.9882 11.2911 30.7392 11.5402 30.4902 11.5402Z" fill="black"/>
<path d="M58.4785 51.2057C58.2295 51.2057 57.9805 50.9567 57.9805 50.7077V29.1189C57.9805 28.8699 58.2295 28.6208 58.4785 28.6208C58.7275 28.6208 58.9765 28.8699 58.9765 29.1189V50.7077C58.9765 50.9567 58.7275 51.2057 58.4785 51.2057Z" fill="black"/>
</svg>
