<svg width="73" height="78" viewBox="0 0 73 78" fill="none" xmlns="http://www.w3.org/2000/svg">
<path d="M43.2726 22.6056C43.1315 22.6056 42.9903 22.6056 42.9903 22.4645L36.3018 18.3441H9.26539C6.85243 18.3441 5.00391 16.3545 5.00391 14.0826V4.26148C5.00391 1.84852 6.99354 0 9.26539 0H44.2603C46.6733 0 48.5218 1.98963 48.5218 4.26148V14.0826C48.5218 16.4956 46.5322 18.3441 44.2603 18.3441H43.9781V21.9001C43.9781 22.1823 43.837 22.3234 43.6959 22.4645C43.5548 22.6056 43.4137 22.6056 43.2726 22.6056ZM9.26539 1.26998C7.55797 1.26998 6.27389 2.69517 6.27389 4.26148V14.0826C6.27389 15.7901 7.69908 17.0741 9.26539 17.0741H36.4429C36.584 17.0741 36.7251 17.0741 36.7251 17.2153L42.5529 20.9123V17.7797C42.5529 17.4975 42.8351 17.2153 43.1173 17.2153H44.2603C45.9677 17.2153 47.2518 15.7901 47.2518 14.2237V4.40259C47.2518 2.69517 45.8266 1.41109 44.2603 1.41109H9.26539V1.26998Z" fill="black"/>
<path d="M41.1252 6.11325H12.2402C11.958 6.11325 11.6758 5.83103 11.6758 5.54881C11.6758 5.26659 11.958 4.98438 12.2402 4.98438H41.1252C41.4074 4.98438 41.6896 5.26659 41.6896 5.54881C41.6896 5.83103 41.5485 6.11325 41.1252 6.11325Z" fill="black"/>
<path d="M41.1252 11.0891H12.2402C11.958 11.0891 11.6758 10.8069 11.6758 10.5246C11.6758 10.2424 11.958 9.96021 12.2402 9.96021H41.1252C41.4074 9.96021 41.6896 10.2424 41.6896 10.5246C41.6896 10.8069 41.5485 11.0891 41.1252 11.0891Z" fill="black"/>
<path d="M34.5886 49.9213C34.4475 49.9213 34.3064 49.9213 34.3064 49.7802C34.1653 49.6391 34.0242 49.4979 34.0242 49.2157V45.6598H33.7419C31.329 45.6598 29.4805 43.6702 29.4805 41.3983V31.5771C29.4805 29.1642 31.4701 27.3157 33.7419 27.3157H68.7369C71.1498 27.3157 72.9984 29.3053 72.9984 31.5771V41.3983C72.9984 43.8113 71.0087 45.6598 68.7369 45.6598H41.7005L35.0119 49.7802C34.7297 49.7802 34.7297 49.9213 34.5886 49.9213ZM33.5867 28.4445C31.8793 28.4445 30.5952 29.8697 30.5952 31.436V41.2572C30.5952 42.9646 32.0204 44.2487 33.5867 44.2487H34.5886C34.8708 44.2487 35.153 44.5309 35.153 44.8131V47.9458L40.9808 44.3898C41.1219 44.3898 41.263 44.2487 41.263 44.2487H68.4406C70.148 44.2487 71.4321 42.8235 71.4321 41.2572V31.436C71.4321 29.7286 70.0069 28.4445 68.4406 28.4445H33.5867Z" fill="black"/>
<path d="M65.6095 33.2746H36.7246C36.4424 33.2746 36.1602 32.9924 36.1602 32.7102C36.1602 32.428 36.4424 32.1458 36.7246 32.1458H65.6095C65.8917 32.1458 66.174 32.428 66.174 32.7102C66.174 32.9924 65.8917 33.2746 65.6095 33.2746Z" fill="black"/>
<path d="M51.0895 38.3967H36.7246C36.4424 38.3967 36.1602 38.1145 36.1602 37.8323C36.1602 37.55 36.4424 37.2678 36.7246 37.2678H51.0895C51.3717 37.2678 51.6539 37.55 51.6539 37.8323C51.6539 38.1145 51.5128 38.3967 51.0895 38.3967Z" fill="black"/>
<path d="M43.2726 77.9492C43.1315 77.9492 42.9903 77.9493 42.9903 77.8081L36.3018 73.6878H9.26539C6.85243 73.6878 5.00391 71.6981 5.00391 69.4122V59.591C5.00391 57.1781 6.99354 55.3154 9.26539 55.3154H44.2603C46.6733 55.3154 48.5218 57.3051 48.5218 59.591V69.4122C48.5218 71.8251 46.5322 73.6878 44.2603 73.6878H43.9781V77.2437C43.9781 77.5259 43.837 77.667 43.6959 77.8081C43.5548 77.9493 43.4137 77.9492 43.2726 77.9492ZM9.26539 56.6136C7.55797 56.6136 6.27389 58.0388 6.27389 59.6051V69.4263C6.27389 71.1337 7.69908 72.4178 9.26539 72.4178H36.4429C36.584 72.4178 36.7251 72.4178 36.7251 72.5589L42.5529 76.1148V72.9822C42.5529 72.7 42.8351 72.4178 43.1173 72.4178H44.2603C45.9677 72.4178 47.2518 70.9926 47.2518 69.4263V59.6051C47.2518 57.8977 45.8266 56.6136 44.2603 56.6136H9.26539Z" fill="black"/>
<path d="M41.1252 61.4497H12.2402C11.958 61.4497 11.6758 61.1675 11.6758 60.8852C11.6758 60.603 11.958 60.3208 12.2402 60.3208H41.1252C41.4074 60.3208 41.6896 60.603 41.6896 60.8852C41.6896 61.1675 41.5485 61.4497 41.1252 61.4497Z" fill="black"/>
<path d="M41.1252 66.434H12.2402C11.958 66.434 11.6758 66.1518 11.6758 65.8696C11.6758 65.5874 11.958 65.3052 12.2402 65.3052H41.1252C41.4074 65.3052 41.6896 65.5874 41.6896 65.8696C41.6896 66.1518 41.5485 66.434 41.1252 66.434Z" fill="black"/>
<path d="M3.43628 44.3772C3.29518 44.3772 3.15406 44.3772 3.01296 44.2361C-0.401873 40.5391 -0.966308 34.9935 1.58776 30.5768C4.14182 26.1601 9.12296 23.8882 14.1041 25.0312C14.3863 25.1723 14.6685 25.4545 14.5274 25.7368C14.3863 26.019 14.1041 26.3012 13.8219 26.1601C9.40518 25.1582 4.86148 27.162 2.58963 31.1412C0.317782 35.1205 0.882217 39.9605 3.87372 43.2342C4.15594 43.5164 4.15594 43.9398 3.87372 44.0809C3.73261 44.3631 3.5915 44.3631 3.45039 44.3631L3.43628 44.3772Z" fill="black"/>
<path d="M11.6751 48.0731C10.8284 48.0731 9.96767 47.932 9.12101 47.7909C8.8388 47.6498 8.55658 47.3675 8.69769 47.0853C8.8388 46.8031 9.12102 46.5209 9.40323 46.662C13.8199 47.6639 18.3636 45.6601 20.6496 41.6809C22.9214 37.7016 22.357 32.8616 19.3655 29.5879C19.0833 29.3056 19.0833 28.8823 19.3655 28.7412C19.6477 28.459 20.071 28.459 20.2122 28.7412C23.627 32.4382 24.1914 37.9838 21.6373 42.4005C19.5066 45.9565 15.6685 48.0872 11.6751 48.0872V48.0731Z" fill="black"/>
<path d="M18.6488 32.0034H18.5077C18.2255 31.8623 17.9433 31.5801 18.0844 31.1568L18.9311 28.3064C19.0722 28.0242 19.2133 27.8831 19.6366 27.8831L22.7692 28.0242C23.0514 28.0242 23.3336 28.3064 23.3336 28.7297C23.3336 29.0119 23.0514 29.2941 22.6281 29.2941L20.074 29.153L19.3685 31.566C19.0863 31.8482 18.9452 31.9893 18.663 31.9893L18.6488 32.0034Z" fill="black"/>
<path d="M3.72048 44.9443L0.587871 44.8032C0.305654 44.8032 0.0234375 44.521 0.0234375 44.0977C0.0234375 43.8155 0.305655 43.5332 0.728981 43.5332L3.28305 43.6744L3.98859 41.2614C4.1297 40.9792 4.41192 40.697 4.83524 40.8381C5.11746 40.9792 5.39967 41.2614 5.25857 41.6847L4.39781 44.5351C4.2567 44.8173 3.97448 44.9584 3.69226 44.9584L3.72048 44.9443Z" fill="black"/>
</svg>
