<svg width="62" height="66" viewBox="0 0 62 66" fill="none" xmlns="http://www.w3.org/2000/svg">
<path d="M57.4861 62.0071H4.63903C2.13655 62.0071 0 59.9886 0 57.3681V4.63902C0 2.13655 2.01851 0 4.63903 0H57.3563C59.8588 0 61.9953 2.01851 61.9953 4.63902V57.3563C62.1134 59.9768 59.9768 61.9953 57.4743 61.9953L57.4861 62.0071ZM4.63903 1.07418C2.73856 1.07418 1.07418 2.62052 1.07418 4.63902V57.3563C1.07418 59.2568 2.62052 60.9212 4.63903 60.9212H57.3563C59.2568 60.9212 60.9212 59.3748 60.9212 57.3563V4.63902C60.9212 2.62052 59.3748 1.07418 57.3563 1.07418H4.63903Z" fill="black"/>
<path d="M20.4655 65.2171H9.51123C9.27514 65.2171 9.03906 64.981 9.03906 64.7449V61.5342C9.03906 61.2981 9.27514 61.062 9.51123 61.062H20.4655C20.7016 61.062 20.9376 61.2981 20.9376 61.5342V64.7449C20.9376 64.981 20.7016 65.2171 20.4655 65.2171ZM9.9952 64.1547H19.8753V62.0063H9.9952V64.1547Z" fill="black"/>
<path d="M52.7272 65.2171H41.7729C41.5369 65.2171 41.3008 64.981 41.3008 64.7449V61.5342C41.3008 61.2981 41.5369 61.062 41.7729 61.062H52.7272C52.9633 61.062 53.1994 61.2981 53.1994 61.5342V64.7449C53.1994 64.981 52.9633 65.2171 52.7272 65.2171ZM42.2451 64.1547H52.1252V62.0063H42.2451V64.1547Z" fill="black"/>
<path d="M29.1566 51.6541H6.90576C6.66968 51.6541 6.43359 51.418 6.43359 51.1819C6.43359 50.9458 6.66968 50.7097 6.90576 50.7097H29.1566C29.3926 50.7097 29.6287 50.9458 29.6287 51.1819C29.6287 51.418 29.5107 51.6541 29.1566 51.6541Z" fill="black"/>
<path d="M53.6737 54.864H6.90576C6.66968 54.864 6.43359 54.6279 6.43359 54.3918C6.43359 54.1558 6.66968 53.9197 6.90576 53.9197H53.6737C53.9098 53.9197 54.1459 54.1558 54.1459 54.3918C54.1459 54.6279 54.0279 54.864 53.6737 54.864Z" fill="black"/>
<path d="M53.6737 57.9597H6.90576C6.66968 57.9597 6.43359 57.7236 6.43359 57.4875C6.43359 57.2515 6.66968 57.0154 6.90576 57.0154H53.6737C53.9098 57.0154 54.1459 57.2515 54.1459 57.4875C54.1459 57.7236 54.0279 57.9597 53.6737 57.9597Z" fill="black"/>
<path d="M56.1753 47.7251H5.94873C5.71264 47.7251 5.47656 47.489 5.47656 47.2529V7.02441C5.47656 6.78833 5.71264 6.55225 5.94873 6.55225H56.2934C56.5295 6.55225 56.7655 6.78833 56.7655 7.02441V12.5015C56.7655 12.7376 56.5295 12.9737 56.2934 12.9737H54.629V17.9668H56.2934C56.5295 17.9668 56.7655 18.2029 56.7655 18.439V35.5786C56.7655 35.8147 56.5295 36.0508 56.2934 36.0508H54.629V41.0439H56.2934C56.5295 41.0439 56.7655 41.28 56.7655 41.5161V46.8752C56.7655 47.4654 56.5295 47.7133 56.1753 47.7133V47.7251ZM6.4327 46.6509H55.7032V42.366H54.0388C53.8027 42.366 53.5666 42.1299 53.5666 41.8938V35.8265C53.5666 35.5904 53.8027 35.3543 54.0388 35.3543H55.7032V19.1709H54.0388C53.8027 19.1709 53.5666 18.9348 53.5666 18.6987V12.6314C53.5666 12.3953 53.8027 12.1592 54.0388 12.1592H55.7032V7.75627H6.4327V46.6745V46.6509Z" fill="black"/>
<path d="M30.4682 29.1565C25.7112 29.1565 21.8984 25.3437 21.8984 20.5867C21.8984 15.8296 25.7112 12.0168 30.4682 12.0168C35.2253 12.0168 39.038 15.9476 39.038 20.5867C39.038 25.2257 35.2253 29.1565 30.4682 29.1565ZM30.4682 12.973C26.3014 12.973 22.9726 16.3017 22.9726 20.4686C22.9726 24.6355 26.3014 27.9642 30.4682 27.9642C34.6351 27.9642 37.9639 24.6355 37.9639 20.4686C37.9639 16.3017 34.6351 12.973 30.4682 12.973Z" fill="black"/>
<path d="M30.4683 15.0025C30.2322 15.0025 29.9961 14.7664 29.9961 14.5303V12.6299C29.9961 12.3938 30.2322 12.1577 30.4683 12.1577C30.7043 12.1577 30.9404 12.3938 30.9404 12.6299V14.5303C30.9404 14.7664 30.7043 15.0025 30.4683 15.0025Z" fill="black"/>
<path d="M33.5614 15.7103C33.4434 15.7103 33.3254 15.7103 33.3254 15.5923C33.0893 15.4742 32.9712 15.1201 33.0893 14.884L34.0454 13.2196C34.1635 12.9836 34.5176 12.8655 34.7537 12.9836C34.9897 13.1016 35.1078 13.4557 34.9897 13.6918L34.0336 15.4742C33.9156 15.7103 33.6795 15.7103 33.5614 15.7103Z" fill="black"/>
<path d="M35.8232 17.9781C35.5871 17.9781 35.469 17.8601 35.351 17.742C35.233 17.5059 35.351 17.1518 35.5871 17.022L37.2515 16.0658C37.4875 15.9478 37.8417 16.0658 37.9715 16.3019C38.0896 16.538 37.9715 16.8921 37.7354 17.0102L36.071 17.9663H35.835L35.8232 17.9781Z" fill="black"/>
<path d="M38.564 21.0723H36.6636C36.4275 21.0723 36.1914 20.8362 36.1914 20.6001C36.1914 20.364 36.4275 20.1279 36.6636 20.1279H38.564C38.8001 20.1279 39.0362 20.364 39.0362 20.6001C39.0362 20.8362 38.8001 21.0723 38.564 21.0723Z" fill="black"/>
<path d="M37.4923 25.1174C37.3743 25.1174 37.2562 25.1174 37.2562 24.9994L35.5918 24.0433C35.2377 23.9252 35.2377 23.6891 35.3558 23.453C35.4738 23.217 35.8279 23.0989 36.0758 23.217L37.7402 24.1731C37.9763 24.2911 38.0943 24.6453 37.9763 24.8813C37.8582 24.9994 37.6221 25.1174 37.5041 25.1174H37.4923Z" fill="black"/>
<path d="M34.5145 28.0958C34.2784 28.0958 34.1604 27.9778 34.0424 27.8597L33.0862 26.1954C32.9682 25.9593 32.9682 25.6051 33.3223 25.4871C33.5584 25.3691 33.9125 25.3691 34.0424 25.7232L34.9985 27.3876C35.1165 27.6237 35.1165 27.9778 34.7624 28.0958H34.5263H34.5145Z" fill="black"/>
<path d="M30.4683 29.1551C30.2322 29.1551 29.9961 28.919 29.9961 28.6829V26.7825C29.9961 26.5464 30.2322 26.3103 30.4683 26.3103C30.7043 26.3103 30.9404 26.5464 30.9404 26.7825V28.6829C30.9404 28.919 30.7043 29.1551 30.4683 29.1551Z" fill="black"/>
<path d="M26.4208 28.0957C26.3028 28.0957 26.1847 28.0957 26.1847 27.9776C25.9487 27.8596 25.8306 27.5055 25.9487 27.2576L26.9048 25.5932C27.0228 25.3571 27.377 25.2391 27.613 25.3571C27.8491 25.4751 27.9672 25.8293 27.8491 26.0772L26.893 27.8596C26.7749 27.9776 26.6569 28.0957 26.4208 28.0957Z" fill="black"/>
<path d="M23.4443 25.1174C23.2082 25.1174 23.0901 24.9994 22.9721 24.8813C22.854 24.6453 22.9721 24.2911 23.2082 24.1731L24.8726 23.217C25.1086 23.0989 25.4628 23.217 25.5808 23.453C25.6988 23.6891 25.5808 24.0432 25.3447 24.1731L23.6803 25.1292H23.4443V25.1174Z" fill="black"/>
<path d="M24.2789 21.0723H22.3784C22.1423 21.0723 21.9062 20.8362 21.9062 20.6001C21.9062 20.364 22.1423 20.1279 22.3784 20.1279H24.2789C24.515 20.1279 24.751 20.364 24.751 20.6001C24.751 20.8362 24.633 21.0723 24.2789 21.0723Z" fill="black"/>
<path d="M25.1164 17.9786C24.9984 17.9786 24.8804 17.9786 24.8804 17.8606L23.216 16.9045C22.9799 16.7864 22.8619 16.4323 22.9799 16.1962C23.0979 15.9601 23.4521 15.8421 23.7 15.9601L25.3643 16.9163C25.6004 17.0343 25.7185 17.3884 25.6004 17.6363C25.4824 17.9904 25.3643 17.9904 25.1283 17.9904L25.1164 17.9786Z" fill="black"/>
<path d="M27.3778 15.7121C27.1417 15.7121 27.0237 15.5941 26.9056 15.476L25.9495 13.8116C25.8315 13.5756 25.8315 13.2214 26.1856 13.0916C26.4217 12.9736 26.7758 12.9736 26.8938 13.3277L27.85 14.9921C27.968 15.2281 27.968 15.5823 27.6139 15.7121H27.3778Z" fill="black"/>
<path d="M58.4424 19.1562H53.9214C53.6853 19.1562 53.4492 18.9201 53.4492 18.684V12.6167C53.4492 12.3806 53.6853 12.1445 53.9214 12.1445H58.4424C58.6784 12.1445 58.9145 12.3806 58.9145 12.6167V18.684C59.0326 18.9201 58.7965 19.1562 58.4424 19.1562ZM54.5116 18.0938H57.9584V12.9708H54.5116V18.0938Z" fill="black"/>
<path d="M58.4424 42.3622H53.9214C53.6853 42.3622 53.4492 42.1262 53.4492 41.8901V35.8228C53.4492 35.5867 53.6853 35.3506 53.9214 35.3506H58.4424C58.6784 35.3506 58.9145 35.5867 58.9145 35.8228V41.8901C59.0326 42.1262 58.7965 42.3622 58.4424 42.3622ZM54.5116 41.2999H57.9584V36.3067H54.5116V41.2999Z" fill="black"/>
<path d="M30.4663 25.1189C27.9638 25.1189 25.9453 23.1004 25.9453 20.5979C25.9453 18.0954 27.9638 16.0769 30.4663 16.0769C32.9688 16.0769 34.9873 18.0954 34.9873 20.5979C34.9873 23.1004 32.9688 25.1189 30.4663 25.1189ZM30.4663 17.0212C28.5658 17.0212 27.0195 18.5676 27.0195 20.468C27.0195 22.3685 28.5658 23.9149 30.4663 23.9149C32.3668 23.9149 33.9131 22.3685 33.9131 20.468C33.9131 18.6856 32.3668 17.0212 30.4663 17.0212Z" fill="black"/>
<path d="M30.4689 31.4244C24.5196 31.4244 19.6445 26.5493 19.6445 20.6C19.6445 14.6507 24.5196 9.77563 30.4689 9.77563C36.4182 9.77563 41.2933 14.6507 41.2933 20.6C41.2933 26.5493 36.4182 31.4244 30.4689 31.4244ZM30.4689 10.72C25.1098 10.72 20.7069 15.1229 20.7069 20.482C20.7069 25.8411 25.1098 30.244 30.4689 30.244C35.828 30.244 40.2309 25.8411 40.2309 20.482C40.2309 15.1229 35.828 10.72 30.4689 10.72Z" fill="black"/>
<path d="M50.5788 42.6142H11.5425C11.3064 42.6142 11.0703 42.3782 11.0703 42.1421V37.8572C11.0703 37.6211 11.3064 37.385 11.5425 37.385H50.5788C50.8148 37.385 51.0509 37.6211 51.0509 37.8572V42.1421C51.169 42.3782 50.9329 42.6142 50.5788 42.6142ZM12.0264 41.5401H49.9886V38.3293H12.0264V41.5401Z" fill="black"/>
</svg>
