<svg width="60" height="48" viewBox="0 0 60 48" fill="none" xmlns="http://www.w3.org/2000/svg">
<path d="M10.4339 26.3049H8.04297V28.6959H10.4339V26.3049Z" fill="black"/>
<path d="M17.0669 24.3562C16.8515 24.3562 16.6361 24.2485 16.5284 24.0331L16.4207 23.9254C16.2053 23.6023 16.313 23.1607 16.6361 22.9453C16.9592 22.7299 17.4007 22.8376 17.6161 23.1607C17.6161 23.2684 17.7238 23.2684 17.7238 23.3761C17.9392 23.6992 17.8315 24.1408 17.5084 24.3562H17.0776H17.0669Z" fill="black"/>
<path d="M17.283 24.7875C17.0676 24.7875 16.8522 24.6798 16.626 24.4644C16.626 24.4644 16.626 24.3567 16.5183 24.3567C16.3029 24.0336 16.4106 23.5921 16.7337 23.4844C17.0568 23.269 17.4984 23.3767 17.6061 23.6998C17.6061 23.8075 17.7138 23.8075 17.7138 23.9152C17.9292 24.2383 17.7138 24.6798 17.3907 24.7875C17.4984 24.7875 17.3907 24.7875 17.283 24.7875Z" fill="black"/>
<path d="M17.396 25.0024C17.1806 25.0024 16.8575 24.8947 16.739 24.5716C16.5236 24.2485 16.739 23.807 17.0621 23.6993C17.3852 23.4839 17.8268 23.6993 17.9345 24.0224V24.1301C18.0422 24.4532 17.9345 24.8947 17.6114 25.0024H17.396Z" fill="black"/>
<path d="M17.4981 25.3363C17.175 25.3363 16.9596 25.1209 16.8412 24.9055V24.7978C16.7335 24.4747 16.8412 24.0331 17.1643 23.9254C17.4874 23.8177 17.9289 23.9254 18.0366 24.2485C18.0366 24.3203 18.0725 24.3921 18.1443 24.4639C18.252 24.787 18.0366 25.2286 17.7135 25.3363H17.4981Z" fill="black"/>
<path d="M17.6186 25.7678C17.2955 25.7678 17.0801 25.5524 16.9616 25.2293V25.0139C16.8539 24.6908 17.0693 24.2492 17.3924 24.1415C17.7155 24.0338 18.1571 24.2492 18.2648 24.5723V24.7877C18.3725 25.1108 18.1571 25.5524 17.7263 25.6601C17.7263 25.7319 17.6904 25.7678 17.6186 25.7678Z" fill="black"/>
<path d="M17.7274 26.195C17.4043 26.195 17.0704 25.9796 17.0704 25.6565V25.5488V25.4411C16.9627 25.118 17.1781 24.6764 17.6089 24.5687C17.932 24.461 18.3736 24.6764 18.4813 25.1072V25.538C18.4813 25.7534 18.2659 26.0765 17.7166 26.195H17.7274Z" fill="black"/>
<path d="M17.7273 26.4215C17.4042 26.4215 17.0703 26.2061 17.0703 25.7645V25.6568V25.5491C17.0703 25.226 17.2857 24.7844 17.6088 24.7844C17.9319 24.7844 18.3735 24.9998 18.3735 25.3229V25.646C18.4812 26.0768 18.1581 26.4107 17.7165 26.4107C17.7883 26.4107 17.7883 26.4107 17.7165 26.4107L17.7273 26.4215Z" fill="black"/>
<path d="M17.8328 26.639C17.5097 26.639 17.1758 26.3159 17.1758 25.982V25.8743C17.1758 25.5512 17.3912 25.1096 17.7143 25.1096C18.0374 25.1096 18.479 25.325 18.479 25.6481V25.8635C18.479 26.2943 18.1559 26.6282 17.822 26.6282L17.8328 26.639Z" fill="black"/>
<path d="M17.8328 26.8551C17.5097 26.8551 17.1758 26.532 17.1758 26.1981V25.9827C17.1758 25.6596 17.3912 25.3257 17.8328 25.218C18.1559 25.218 18.4897 25.4334 18.5974 25.875V26.0904C18.4897 26.6289 18.1666 26.8551 17.8328 26.8551Z" fill="black"/>
<path d="M59.3533 31.7435H17.8242C17.5011 31.7435 17.1672 31.4204 17.1672 31.0865C17.1672 30.7526 17.4903 30.4295 17.8242 30.4295H58.6963V1.4044H17.2749V23.0413C17.2749 23.3644 16.9518 23.6983 16.6179 23.6983C16.284 23.6983 15.9609 23.3752 15.9609 23.0413V0.650499C15.9609 0.327399 16.284 -0.00646973 16.6179 -0.00646973H59.3425C59.6656 -0.00646973 59.9995 0.316629 59.9995 0.650499V30.9788C59.9995 31.4096 59.6764 31.7435 59.3425 31.7435H59.3533Z" fill="black"/>
<path d="M17.8351 36.634H0.656969C0.333869 36.634 0 36.3109 0 35.977V26.3056C0 23.2577 2.49864 20.759 5.54655 20.759H12.8271C14.4533 20.759 15.9827 21.416 16.9627 22.6115C17.1781 22.8269 17.2858 23.0423 17.3935 23.15C17.3935 23.2577 17.5012 23.2577 17.5012 23.3654C17.5012 23.4731 17.6089 23.4731 17.6089 23.5808C17.6089 23.6885 17.7166 23.6885 17.7166 23.7962C17.7166 23.9039 17.8244 23.9039 17.8244 24.0116C17.8244 24.1193 17.932 24.1193 17.932 24.227C17.932 24.3347 17.932 24.3347 18.0397 24.4424C18.0397 24.5501 18.1474 24.6578 18.1474 24.6578V24.8732V25.304V25.6271V35.8478C18.4705 36.2786 18.1474 36.6125 17.8244 36.6125L17.8351 36.634ZM1.42164 35.2231H17.1889V25.9825V25.8748V25.7671V25.5517V25.2286C17.1889 25.1568 17.153 25.085 17.0812 25.0132V24.9055C17.0812 24.8337 17.0453 24.7619 16.9735 24.6901V24.5824C16.9735 24.5824 16.9735 24.4747 16.8658 24.4747C16.8658 24.4747 16.8658 24.367 16.7581 24.367C16.7581 24.2593 16.6504 24.2593 16.6504 24.1516L16.5427 24.0439C16.435 23.9362 16.3273 23.7208 16.2196 23.6131C15.4549 22.7407 14.2595 22.2022 13.064 22.2022H5.56809C3.28485 22.2022 1.32471 24.0547 1.32471 26.3379C1.43241 26.2302 1.43241 35.2555 1.43241 35.2555L1.42164 35.2231Z" fill="black"/>
<path d="M9.24186 19.571C6.19395 19.571 3.69531 17.0724 3.69531 14.0245C3.69531 10.9765 6.19395 8.47791 9.24186 8.47791C12.2898 8.47791 14.7884 10.9765 14.7884 14.0245C14.7884 17.0724 12.2898 19.571 9.24186 19.571ZM9.24186 9.88878C6.95862 9.88878 4.99848 11.7412 4.99848 14.0245C4.99848 16.3077 6.85092 18.1601 9.24186 18.1601C11.6328 18.1601 13.4852 16.3077 13.4852 14.0245C13.4852 11.7412 11.5251 9.88878 9.24186 9.88878Z" fill="black"/>
<path d="M14.1432 47.6162H4.364C4.0409 47.6162 3.70703 47.2931 3.70703 46.9593V28.6933C3.70703 28.3702 4.03013 28.0364 4.364 28.0364C4.69787 28.0364 5.02097 28.3595 5.02097 28.6933V46.1946H13.3893V28.6933C13.3893 28.3702 13.7124 28.0364 14.0462 28.0364C14.3801 28.0364 14.7032 28.3595 14.7032 28.6933V46.9593C14.8109 47.2824 14.4878 47.6162 14.1647 47.6162H14.1432Z" fill="black"/>
<path d="M9.239 47.6193C8.9159 47.6193 8.58203 47.2962 8.58203 46.9623V39.5741C8.58203 39.251 8.90513 38.9171 9.239 38.9171C9.57287 38.9171 9.89597 39.2402 9.89597 39.5741V46.8546C9.89597 47.2854 9.68057 47.6193 9.239 47.6193Z" fill="black"/>
<path d="M52.5116 26.9626C52.1885 26.9626 51.8546 26.6395 51.8546 26.3057V6.30576H48.5913V9.24597C48.5913 9.56907 48.2682 9.90294 47.9343 9.90294C47.6004 9.90294 47.2773 9.57984 47.2773 9.24597V5.55186C47.2773 5.22876 47.6004 4.8949 47.9343 4.8949H52.6085C52.9316 4.8949 53.2655 5.21799 53.2655 5.55186V26.2087C53.1578 26.6395 52.8347 26.9734 52.5008 26.9734L52.5116 26.9626Z" fill="black"/>
<path d="M47.8419 26.9628C47.5188 26.9628 47.185 26.6397 47.185 26.3059V10.0001H43.9216V12.9403C43.9216 13.2634 43.5985 13.5973 43.2647 13.5973C42.9308 13.5973 42.5 13.2742 42.5 12.9403V9.2462C42.5 8.9231 42.8231 8.58923 43.157 8.58923H47.8312C48.1543 8.58923 48.4881 8.91233 48.4881 9.2462V26.2089C48.4881 26.6397 48.165 26.9736 47.8312 26.9736L47.8419 26.9628Z" fill="black"/>
<path d="M43.1639 26.9591C42.8408 26.9591 42.5069 26.636 42.5069 26.3021V13.5827H39.2436V15.3167C39.2436 15.6398 38.9205 15.9737 38.5867 15.9737C38.2528 15.9737 37.9297 15.6506 37.9297 15.3167V12.9258C37.9297 12.6027 38.2528 12.2688 38.5867 12.2688H43.2608C43.5839 12.2688 43.9178 12.5919 43.9178 12.9258V26.2913C43.9178 26.6144 43.5947 26.9483 43.1531 26.9483L43.1639 26.9591Z" fill="black"/>
<path d="M38.6014 26.9595C38.2783 26.9595 37.9444 26.6364 37.9444 26.3025V16.0818H34.6811V17.8157C34.6811 18.1388 34.358 18.4727 34.0242 18.4727C33.6903 18.4727 33.3672 18.1496 33.3672 17.8157V15.4248C33.3672 15.1017 33.6903 14.7678 34.0242 14.7678H38.6983C39.0214 14.7678 39.3553 15.0909 39.3553 15.4248V26.3994C39.2476 26.6148 38.9245 26.9379 38.5906 26.9379L38.6014 26.9595Z" fill="black"/>
<path d="M33.9256 26.9621C33.6025 26.9621 33.2687 26.639 33.2687 26.3051V18.4753H30.0053V20.2093C30.0053 20.5324 29.6822 20.8663 29.3484 20.8663C29.0145 20.8663 28.6914 20.5432 28.6914 20.2093V17.8183C28.6914 17.4952 29.0145 17.1614 29.3484 17.1614H34.0226C34.3457 17.1614 34.6795 17.4845 34.6795 17.8183V26.2943C34.5718 26.6174 34.2487 26.9513 33.9149 26.9513L33.9256 26.9621Z" fill="black"/>
<path d="M29.2498 26.9627C28.9267 26.9627 28.5929 26.6396 28.5929 26.3057V20.8669H25.3296V26.3057C25.3296 26.6288 25.0065 26.9627 24.6726 26.9627C24.3387 26.9627 24.0156 26.6396 24.0156 26.3057V20.2207C24.0156 19.8976 24.3387 19.5637 24.6726 19.5637H29.3468C29.6699 19.5637 30.0037 19.8868 30.0037 20.2207V26.3057C30.0037 26.6288 29.6806 26.9627 29.2391 26.9627H29.2498Z" fill="black"/>
<path d="M54.4626 26.9626H22.7234C22.4003 26.9626 22.0664 26.6395 22.0664 26.3057C22.0664 25.9718 22.3895 25.6487 22.7234 25.6487H54.4626C54.7857 25.6487 55.1195 25.9718 55.1195 26.3057C55.1195 26.6395 54.7964 26.9626 54.4626 26.9626Z" fill="black"/>
</svg>
