<svg width="53" height="54" viewBox="0 0 53 54" fill="none" xmlns="http://www.w3.org/2000/svg">
<path d="M9.14809 21.6975H7.03125V23.8143H9.14809V21.6975Z" fill="black"/>
<path d="M52.5481 28.634H15.78C15.4939 28.634 15.1983 28.3479 15.1983 28.0523C15.1983 27.7568 15.4844 27.4707 15.78 27.4707H51.9665V1.77304H15.2937V20.7292C15.2937 20.8246 15.3891 20.8246 15.3891 20.9199C15.3891 21.0153 15.4844 21.0153 15.4844 21.1106C15.6751 21.3967 15.5798 21.7876 15.2937 21.9784C15.0076 22.1691 14.6167 22.0737 14.426 21.7876L14.3306 21.6923L14.2353 21.5969L14.1399 21.5016C14.0446 21.4062 13.9492 21.2155 13.9492 21.1202V1.20092C13.9492 0.914858 14.2353 0.619263 14.5309 0.619263H52.3574C52.6435 0.619263 52.9391 0.905323 52.9391 1.20092V28.0523C53.1298 28.4338 52.8437 28.634 52.5577 28.634H52.5481Z" fill="black"/>
<path d="M15.1127 22.1926C14.922 22.1926 14.7313 22.0972 14.636 21.9065L14.5406 21.8112C14.3499 21.5251 14.4453 21.1342 14.7313 20.9435C15.0174 20.7527 15.4083 20.8481 15.599 21.1342C15.599 21.2295 15.6944 21.2295 15.6944 21.3249C15.8851 21.6109 15.7898 22.0019 15.5037 22.1926C15.313 22.0972 15.2176 22.1926 15.1223 22.1926H15.1127Z" fill="black"/>
<path d="M15.2065 22.2797C15.0158 22.2797 14.8251 22.1844 14.7297 21.9937L14.6344 21.8983C14.4437 21.6123 14.539 21.2213 14.8251 21.0306C15.1111 20.8399 15.5021 20.9353 15.6928 21.2213C15.6928 21.3167 15.7881 21.3167 15.7881 21.412C15.9789 21.6981 15.8835 22.089 15.5974 22.2797H15.216H15.2065Z" fill="black"/>
<path d="M15.3989 22.664C15.2082 22.664 14.9222 22.5687 14.8173 22.2826C14.8173 22.2826 14.8173 22.1873 14.7219 22.1873C14.7219 22.1873 14.7219 22.0919 14.6266 22.0919C14.4359 21.8059 14.5312 21.4149 14.8173 21.3196C15.1033 21.1288 15.4943 21.2242 15.5896 21.5103C15.5896 21.6056 15.685 21.6056 15.685 21.701C15.685 21.7963 15.7803 21.7963 15.7803 21.8917C15.8757 22.1777 15.7803 22.5687 15.4943 22.664C15.5896 22.5687 15.4943 22.664 15.3989 22.664Z" fill="black"/>
<path d="M15.4989 22.9488C15.2128 22.9488 15.0221 22.7581 14.9172 22.5674V22.472C14.8219 22.186 14.9172 21.795 15.2986 21.6997C15.5847 21.6043 15.9756 21.6997 16.071 22.0811C16.071 22.1447 16.1028 22.2082 16.1663 22.2718C16.2617 22.5579 16.071 22.9488 15.7849 23.0442C15.6896 22.9488 15.5942 22.9488 15.4989 22.9488Z" fill="black"/>
<path d="M15.7002 23.4383C15.4141 23.4383 15.1186 23.2475 15.1186 22.9615V22.8661C15.0232 22.5801 15.2139 22.1891 15.5 22.0938C15.786 21.9984 16.177 22.1891 16.2723 22.4752V22.6659V22.7612C16.3677 23.0473 16.0816 23.4383 15.7956 23.4383H15.7002Z" fill="black"/>
<path d="M15.6997 23.7258C15.4136 23.7258 15.118 23.5351 15.118 23.2491V23.1537V23.0584C15.0227 22.7723 15.2134 22.3814 15.5948 22.286C15.8809 22.1907 16.2718 22.3814 16.3672 22.7628V23.1442C16.3672 23.3349 16.1765 23.621 15.6902 23.7258H15.6997Z" fill="black"/>
<path d="M15.698 23.9142C15.412 23.9142 15.1164 23.7235 15.1164 23.3326V23.2372C15.021 22.9512 15.3071 22.5602 15.5931 22.5602C15.8792 22.4649 16.2701 22.7509 16.2701 23.037V23.323C16.3655 23.6091 16.1748 23.9047 15.6885 23.9047C15.752 23.9047 15.752 23.9047 15.6885 23.9047L15.698 23.9142Z" fill="black"/>
<path d="M15.7887 24.1065C15.5026 24.1065 15.207 23.8204 15.207 23.5248V23.4295C15.207 23.1434 15.3977 22.8478 15.7887 22.7524C16.0747 22.7524 16.3703 22.9431 16.4657 23.3341V23.5248C16.3703 23.8109 16.0843 24.1065 15.7887 24.1065Z" fill="black"/>
<path d="M15.7887 24.4037C15.5026 24.4037 15.207 24.1177 15.207 23.8221V23.6314C15.207 23.3453 15.3977 23.0497 15.7887 22.9543C16.0747 22.9543 16.3703 23.1451 16.4657 23.536V23.7267C16.3703 24.1081 16.0843 24.4037 15.7887 24.4037Z" fill="black"/>
<path d="M15.7905 28.6335H0.581653C0.295593 28.6335 0 28.3474 0 28.0518V23.7228C0 21.0243 2.21219 18.8121 4.91068 18.8121H11.3566C12.7964 18.8121 14.1504 19.3938 15.0181 20.4522C15.0181 20.5476 15.1135 20.5476 15.1135 20.6429C15.1135 20.7383 15.2088 20.7383 15.2088 20.8336C15.2088 20.929 15.3042 20.929 15.3042 21.0243C15.3042 21.1197 15.3995 21.1197 15.3995 21.215C15.3995 21.3104 15.4949 21.3104 15.4949 21.4057C15.4949 21.5011 15.5902 21.5011 15.5902 21.5964C15.5902 21.6918 15.6856 21.6918 15.6856 21.7871C15.6856 21.8825 15.7809 21.9779 15.7809 22.0732C15.7809 22.1686 15.7809 22.1686 15.8763 22.2639C15.8763 22.3593 15.9716 22.4546 15.9716 22.4546V22.7407V22.9314V23.1221V28.3188C16.3531 28.4142 16.067 28.6049 15.7809 28.6049L15.7905 28.6335ZM1.25866 27.4797H15.2184V23.7228V23.6275V23.5321V23.246V23.1507C15.2184 23.0871 15.1866 23.0236 15.123 22.96C15.0594 22.8964 15.0276 22.8646 15.0276 22.8646C15.0276 22.8646 14.9959 22.8011 14.9323 22.6739C14.9323 22.6739 14.9323 22.5786 14.8369 22.5786C14.8369 22.5786 14.8369 22.4832 14.7416 22.4832L14.6462 22.3879C14.6462 22.3879 14.6462 22.2925 14.5509 22.2925L14.4555 22.1972L14.3602 22.1018L14.2648 22.0065C13.5878 21.2341 12.5294 20.7573 11.471 20.7573H4.92976C2.90827 20.7573 1.17284 22.3974 1.17284 24.5142C1.2682 23.7419 1.2682 27.4988 1.2682 27.4988L1.25866 27.4797Z" fill="black"/>
<path d="M8.18021 17.9453C5.48172 17.9453 3.26953 15.7331 3.26953 13.0346C3.26953 10.3361 5.48172 8.1239 8.18021 8.1239C10.8787 8.1239 13.0909 10.3361 13.0909 13.0346C13.0909 15.7331 10.8787 17.9453 8.18021 17.9453ZM8.18021 9.28721C6.15873 9.28721 4.4233 10.9273 4.4233 12.9488C4.4233 14.9703 6.06338 16.6008 8.18021 16.6008C10.2971 16.6008 11.9371 14.9607 11.9371 12.9488C11.9371 10.9368 10.2017 9.28721 8.18021 9.28721Z" fill="black"/>
<path d="M48.2166 24.397C47.9306 24.397 47.635 24.1109 47.635 23.8153V6.10825H18.9527C18.6667 6.10825 18.3711 5.8222 18.3711 5.5266C18.3711 5.23101 18.6572 4.94495 18.9527 4.94495H48.2071C48.4931 4.94495 48.7887 5.23101 48.7887 5.5266V23.8153C48.7887 24.1014 48.5027 24.397 48.2071 24.397H48.2166Z" fill="black"/>
<path d="M41.6761 21.7965H20.1168C19.8308 21.7965 19.5352 21.5104 19.5352 21.2148C19.5352 20.9192 19.8212 20.6332 20.1168 20.6332H41.7715C42.0576 20.6332 42.3531 20.9192 42.3531 21.2148C42.2578 21.5009 42.0671 21.7965 41.6761 21.7965Z" fill="black"/>
<path d="M41.6761 17.9432H20.1168C19.8308 17.9432 19.5352 17.6572 19.5352 17.3616C19.5352 17.066 19.8212 16.7799 20.1168 16.7799H41.7715C42.0576 16.7799 42.3531 17.066 42.3531 17.3616C42.2578 17.6476 42.0671 17.9432 41.6761 17.9432Z" fill="black"/>
<path d="M28.6811 14.0074H20.0231C19.737 14.0074 19.4414 13.7214 19.4414 13.4258C19.4414 13.1302 19.7275 12.8441 20.0231 12.8441H28.6811C28.9672 12.8441 29.2628 13.1302 29.2628 13.4258C29.3581 13.7118 29.0721 14.0074 28.6811 14.0074Z" fill="black"/>
<path d="M15.7931 53.4664H2.7965C2.51044 53.4664 2.21484 53.1803 2.21484 52.8847V49.6141C2.21484 47.4973 3.95027 45.7618 6.06711 45.7618H12.513C14.6298 45.7618 16.3652 47.4973 16.3652 49.6141V52.8847C16.3652 53.1708 16.0792 53.4664 15.7836 53.4664H15.7931ZM3.37815 52.2172H15.1161V49.6141C15.1161 48.1743 13.9623 47.011 12.513 47.011H6.06711C4.62728 47.011 3.46397 48.1647 3.46397 49.6141C3.36862 49.6141 3.36862 52.2172 3.36862 52.2172H3.37815Z" fill="black"/>
<path d="M33.0181 53.4664H20.1168C19.8308 53.4664 19.5352 53.1803 19.5352 52.8847V49.6141C19.5352 47.4973 21.2706 45.7618 23.3874 45.7618H29.8333C31.9501 45.7618 33.6856 47.4973 33.6856 49.6141V52.8847C33.6856 53.1708 33.3995 53.4664 33.0085 53.4664H33.0181ZM20.6985 52.2172H32.4364V49.6141C32.4364 48.1743 31.2827 47.011 29.8428 47.011H23.397C21.9571 47.011 20.7938 48.1647 20.7938 49.6141L20.6985 52.2172Z" fill="black"/>
<path d="M50.3361 53.4664H37.3395C37.0534 53.4664 36.7578 53.1803 36.7578 52.8847V49.6141C36.7578 47.4973 38.4932 45.7618 40.6101 45.7618H47.0559C49.1728 45.7618 50.9082 47.4973 50.9082 49.6141V52.8847C50.9082 53.1708 50.7175 53.4664 50.3266 53.4664H50.3361ZM38.0165 52.2172H49.7544V49.6141C49.7544 48.1743 48.6007 47.011 47.1513 47.011H40.7054C39.2656 47.011 38.1118 48.1647 38.1118 49.6141L38.0165 52.2172Z" fill="black"/>
<path d="M9.23898 43.7462C7.12215 43.7462 5.38672 42.0107 5.38672 39.8939C5.38672 37.7771 7.12215 36.0416 9.23898 36.0416C11.3558 36.0416 13.0912 37.7771 13.0912 39.8939C13.0912 42.0107 11.3558 43.7462 9.23898 43.7462ZM9.23898 37.2907C7.79915 37.2907 6.63584 38.4445 6.63584 39.8939C6.63584 41.3433 7.78962 42.497 9.23898 42.497C10.6884 42.497 11.8421 41.3433 11.8421 39.8939C11.9375 38.4541 10.6884 37.2907 9.23898 37.2907Z" fill="black"/>
<path d="M26.5671 43.7462C24.4503 43.7462 22.7148 42.0107 22.7148 39.8939C22.7148 37.7771 24.4503 36.0416 26.5671 36.0416C28.6839 36.0416 30.4194 37.7771 30.4194 39.8939C30.4194 42.0107 28.6839 43.7462 26.5671 43.7462ZM26.5671 37.2907C25.1273 37.2907 23.964 38.4445 23.964 39.8939C23.964 41.3433 25.1177 42.497 26.5671 42.497C28.0165 42.497 29.1702 41.3433 29.1702 39.8939C29.1702 38.4445 28.0165 37.2907 26.5671 37.2907Z" fill="black"/>
<path d="M43.8874 43.7462C41.7706 43.7462 40.0352 42.0107 40.0352 39.8939C40.0352 37.7771 41.7706 36.0416 43.8874 36.0416C46.0043 36.0416 47.7397 37.7771 47.7397 39.8939C47.6443 42.0107 46.0043 43.7462 43.8874 43.7462ZM43.8874 37.2907C42.4476 37.2907 41.2843 38.4445 41.2843 39.8939C41.2843 41.3433 42.4381 42.497 43.8874 42.497C45.3368 42.497 46.4906 41.3433 46.4906 39.8939C46.4906 38.4445 45.3368 37.2907 43.8874 37.2907Z" fill="black"/>
</svg>
