<svg width="68" height="50" viewBox="0 0 68 50" fill="none" xmlns="http://www.w3.org/2000/svg">
<path d="M47.6699 8.65393H45.1953V11.1286H47.6699V8.65393Z" fill="#0B0B0B"/>
<path d="M42.7324 8.65393H40.2578V11.1286H42.7324V8.65393Z" fill="#0B0B0B"/>
<path d="M37.6622 8.65393H35.1875V11.1286H37.6622V8.65393Z" fill="#0B0B0B"/>
<path d="M32.7129 8.65393H30.2383V11.1286H32.7129V8.65393Z" fill="#0B0B0B"/>
<path d="M27.6426 8.65393H25.168V11.1286H27.6426V8.65393Z" fill="#0B0B0B"/>
<path d="M22.6934 8.65393H20.2188V11.1286H22.6934V8.65393Z" fill="#0B0B0B"/>
<path d="M60.2926 49.1967H7.61464C7.36963 49.1967 7.24713 49.0742 7.12462 48.9517L0.202957 41.5278C-0.0420565 41.2827 -0.0420266 41.0377 0.0804803 40.7805C0.202987 40.5355 0.448001 40.413 0.693014 40.413H6.62234C6.98986 40.413 7.36961 40.7805 7.36961 41.1603C7.36961 41.54 7.00211 41.9075 6.62234 41.9075H2.42033L7.98215 47.9716H60.1578L65.7196 41.9075H61.3951C61.0276 41.9075 60.6478 41.54 60.6478 41.1603C60.6478 40.7805 61.0154 40.413 61.3951 40.413H67.3367C67.5817 40.413 67.8268 40.5355 67.9493 40.7805C68.0718 41.0255 67.9492 41.393 67.8267 41.5278L60.9051 48.9517C60.6601 49.0742 60.5376 49.1967 60.2926 49.1967Z" fill="#0B0B0B"/>
<path d="M11.4466 41.6677H6.49731C6.12979 41.6677 5.75 41.3002 5.75 40.9204V13.7117C5.75 12.5969 6.61982 11.7271 7.72238 11.7271H15.2688C15.6363 11.7271 16.0161 12.0946 16.0161 12.4743C16.0161 12.8541 15.6486 13.0869 15.2688 13.0869H7.72238C7.47737 13.0869 7.23236 13.3319 7.23236 13.5769V40.2834H11.5568C11.9244 40.2834 12.3041 40.6509 12.3041 41.0307C12.3041 41.4105 11.9366 41.6432 11.4343 41.6432L11.4466 41.6677Z" fill="#0B0B0B"/>
<path d="M61.4046 41.6677H56.4554C56.0878 41.6677 55.708 41.3002 55.708 40.9204C55.708 40.5407 56.0756 40.1731 56.4554 40.1731H60.7798V13.7117C60.7798 13.4667 60.5348 13.2216 60.2898 13.2216H52.7434C52.3759 13.2216 51.9961 12.8541 51.9961 12.4743C51.9961 12.0946 52.3636 11.7271 52.7434 11.7271H60.2898C61.4046 11.7271 62.2622 12.5969 62.2622 13.7117V41.0429C62.1397 41.4105 61.7722 41.6555 61.3924 41.6555L61.4046 41.6677Z" fill="#0B0B0B"/>
<path d="M56.4555 41.6672H11.4465C11.079 41.6672 10.6992 41.2996 10.6992 40.9199V17.4231C10.6992 17.0555 11.0668 16.6758 11.4465 16.6758H15.1585C15.526 16.6758 15.9058 17.0433 15.9058 17.4231C15.9058 17.8028 15.6607 18.0356 15.2932 18.0356H12.2061V40.2951H55.7327V18.0356H52.6455C52.278 18.0356 51.8983 17.6681 51.8983 17.2883C51.8983 16.9085 52.2658 16.541 52.6455 16.541H56.3575C56.725 16.541 57.1048 16.9085 57.1048 17.2883V40.9076C57.1048 41.3977 56.8598 41.6549 56.4923 41.6549L56.4555 41.6672Z" fill="#0B0B0B"/>
<path d="M20.2248 26.8176C20.1023 26.8176 19.8573 26.8176 19.7348 26.6951C19.4897 26.4501 19.3673 26.2051 19.4898 25.8253L21.5969 20.631H15.1653C14.7978 20.631 14.418 20.2635 14.418 19.8838V1.21372C14.418 0.846203 14.7855 0.466431 15.1653 0.466431H52.6279C52.9954 0.466431 53.3752 0.833952 53.3752 1.21372V19.8838C53.3752 20.2513 53.0076 20.631 52.6279 20.631H30.3684L20.6046 26.6951C20.4821 26.6951 20.3595 26.8176 20.237 26.8176H20.2248ZM15.9003 19.161H22.6994C22.9445 19.161 23.1895 19.2835 23.312 19.5285C23.4345 19.7735 23.4345 20.0185 23.4345 20.141L21.7071 24.343L29.8661 19.2712C29.9886 19.1487 30.1111 19.1487 30.2336 19.1487H51.9908V1.96102H15.8881V19.1487L15.9003 19.161Z" fill="#0B0B0B"/>
<path d="M51.0169 24.8446H34.8215C34.454 24.8446 34.0742 24.477 34.0742 24.0973C34.0742 23.7175 34.4417 23.35 34.8215 23.35H51.0169C51.3844 23.35 51.7642 23.7175 51.7642 24.0973C51.7642 24.477 51.3967 24.8446 51.0169 24.8446Z" fill="#0B0B0B"/>
<path d="M51.0169 29.2924H34.8215C34.454 29.2924 34.0742 28.9249 34.0742 28.5451C34.0742 28.1654 34.4417 27.7979 34.8215 27.7979H51.0169C51.3844 27.7979 51.7642 28.1654 51.7642 28.5451C51.7642 28.9249 51.3967 29.2924 51.0169 29.2924Z" fill="#0B0B0B"/>
<path d="M51.0169 33.6306H34.8215C34.454 33.6306 34.0742 33.263 34.0742 32.8833C34.0742 32.5035 34.4417 32.136 34.8215 32.136H51.0169C51.3844 32.136 51.7642 32.5035 51.7642 32.8833C51.7642 33.263 51.3967 33.6306 51.0169 33.6306Z" fill="#0B0B0B"/>
<path d="M51.3881 37.9523H30.2434C29.8759 37.9523 29.4961 37.5848 29.4961 37.205V24.8441C29.4961 24.4766 29.8636 24.0968 30.2434 24.0968C30.6232 24.0968 30.9907 24.4643 30.9907 24.8441V36.5925H51.5106C51.8781 36.5925 52.2579 36.96 52.2579 37.3398C52.2579 37.7196 51.7678 37.9523 51.3881 37.9523Z" fill="#0B0B0B"/>
</svg>
