<svg width="54" height="54" viewBox="0 0 54 54" fill="none" xmlns="http://www.w3.org/2000/svg">
<path d="M28.1221 34.1123H26.0625V36.1719H28.1221V34.1123Z" fill="#0A0A0A"/>
<path d="M28.1221 31.0652H26.0625V33.1248H28.1221V31.0652Z" fill="#0A0A0A"/>
<path d="M27.048 53.9023C21.162 53.9023 15.4811 52.0379 10.7762 48.5141C6.26662 45.088 2.84048 40.2758 1.17133 34.7901C0.390444 32.2424 0 29.6948 0 27.0495C0 20.0899 2.64525 13.423 7.54532 8.42537C12.3478 3.42769 18.917 0.48961 25.8766 0.196777H26.9504C33.6172 0.196777 39.9912 2.64681 44.8912 7.05882C47.5365 9.41124 49.6937 12.2517 51.2652 15.4924C52.8367 18.8209 53.7153 22.3544 53.9105 25.9856V27.0593C53.9105 34.2142 51.07 40.9786 45.9747 46.0739C41.0746 51.0715 34.3102 53.912 27.0577 53.912L27.048 53.9023ZM27.048 1.2705H25.9742C12.0549 1.85616 1.17133 13.1302 1.17133 26.9519C1.17133 29.4996 1.56177 31.9496 2.24505 34.3996C5.47597 45.1856 15.6763 52.7309 27.048 52.7309C41.2601 52.8285 52.9246 41.2617 52.9246 27.0495V25.9758C52.6318 18.9185 49.5961 12.5445 44.2958 7.83971C39.4933 3.62292 33.4122 1.2705 27.048 1.2705Z" fill="#0A0A0A"/>
<path d="M27.0491 47.3354C22.5395 47.3354 18.2251 45.8615 14.7013 43.2162C11.2752 40.571 8.7178 36.8423 7.44885 32.7328C6.9608 30.8685 6.66797 29.0041 6.66797 27.1495C6.66797 16.3635 15.1015 7.45163 25.8778 6.8562H27.0589C32.0565 6.8562 36.859 8.72057 40.6853 12.0491C44.7069 15.6802 47.1569 20.6779 47.4498 26.066V27.2471C47.4498 38.2283 38.3329 47.3452 27.0589 47.3452L27.0491 47.3354ZM27.0491 7.93968H25.9754C15.7848 8.42773 7.8393 16.8613 7.8393 27.0519C7.8393 28.8186 8.13213 30.683 8.62019 32.3424C10.875 40.4734 18.5179 46.1641 27.0491 46.1641C37.6399 46.1641 46.2589 37.5353 46.2589 27.0519V25.9782C45.9661 20.8829 43.7113 16.178 39.8849 12.7421C36.3514 9.60883 31.754 7.93968 27.0394 7.93968H27.0491Z" fill="#0A0A0A"/>
<path d="M25.9646 7.93732C25.6717 7.93732 25.3789 7.64448 25.3789 7.35165V0.782441C25.3789 0.489608 25.6717 0.196777 25.9646 0.196777C26.2574 0.196777 26.5502 0.489608 26.5502 0.782441V7.35165C26.5502 7.64448 26.2574 7.93732 25.9646 7.93732Z" fill="#0A0A0A"/>
<path d="M40.2745 12.9357C40.1769 12.9357 39.9816 12.9357 39.884 12.8381C39.6888 12.6429 39.5912 12.2524 39.884 12.0572L44.296 7.15716C44.4913 6.96194 44.8817 6.96194 45.0769 7.15716C45.2722 7.35238 45.2722 7.74282 45.0769 7.93804L40.6649 12.8381C40.5673 12.8381 40.3721 12.9357 40.2745 12.9357Z" fill="#0A0A0A"/>
<path d="M53.4127 26.5559H46.8435C46.5506 26.5559 46.2578 26.263 46.2578 25.9702C46.2578 25.6774 46.5506 25.3845 46.8435 25.3845H53.4127C53.7055 25.3845 53.9984 25.6774 53.9984 25.9702C53.9984 26.263 53.7055 26.5559 53.4127 26.5559Z" fill="#0A0A0A"/>
<path d="M1.75754 35.1836C1.46471 35.1836 1.17188 34.8907 1.17188 34.5979C1.17188 34.3051 1.3671 34.1098 1.56232 34.1098L7.8387 31.9526C8.13153 31.855 8.42436 32.0502 8.52197 32.3431C8.61958 32.6359 8.42436 32.9287 8.13153 33.0264L1.85515 35.1836H1.75754Z" fill="#0A0A0A"/>
<path d="M36.2646 38.8104H17.8357C17.5428 38.8104 17.25 38.5176 17.25 38.2247V33.1294C17.25 30.5818 19.3096 28.5222 21.8572 28.5222H32.1454C34.6931 28.5222 36.7526 30.5818 36.7526 33.1294V38.2247C36.7526 38.5176 36.5574 38.8104 36.2646 38.8104ZM18.4213 37.6293H35.6692V33.0221C35.6692 31.1577 34.0976 29.5959 32.243 29.5959H21.9548C19.9929 29.5959 18.4213 31.1675 18.4213 33.1197V37.6293Z" fill="#0A0A0A"/>
<path d="M27.0481 26.5507C23.9148 26.5507 21.3672 24.0031 21.3672 20.9674C21.3672 17.9317 23.9148 15.384 27.0481 15.384C30.1814 15.384 32.7291 17.9317 32.7291 20.9674C32.7291 24.0031 30.1814 26.5507 27.0481 26.5507ZM27.0481 16.4578C24.5981 16.4578 22.5385 18.5173 22.5385 20.9674C22.5385 23.4174 24.5981 25.477 27.0481 25.477C29.4982 25.477 31.5578 23.4174 31.5578 20.9674C31.5578 18.5173 29.5958 16.4578 27.0481 16.4578Z" fill="#0A0A0A"/>
<path d="M41.3575 26.5488C41.0647 26.5488 40.7718 26.2559 40.7718 25.9631C40.7718 18.4178 34.5931 12.3366 27.0478 12.3366C19.5024 12.3366 13.3237 18.5154 13.3237 25.9631C13.3237 26.2559 13.0308 26.5488 12.738 26.5488C12.4452 26.5488 12.1523 26.2559 12.1523 25.9631C12.1523 17.8321 18.8192 11.1653 26.9501 11.1653C35.0811 11.1653 41.7479 17.8321 41.7479 25.9631C41.8456 26.2559 41.6503 26.5488 41.3575 26.5488Z" fill="#0A0A0A"/>
</svg>
