<svg width="52" height="52" viewBox="0 0 52 52" fill="none" xmlns="http://www.w3.org/2000/svg">
<path d="M43.2072 45.0493H41.168V47.0886H43.2072V45.0493Z" fill="#111111"/>
<path d="M26.6096 45.0493H24.5703V47.0886H26.6096V45.0493Z" fill="#111111"/>
<path d="M9.91817 45.0493H7.87891V47.0886H9.91817V45.0493Z" fill="#111111"/>
<path d="M50.6314 51.9122H33.9406C33.665 51.9122 33.3803 51.6366 33.3803 51.3518C33.3803 51.0671 33.6559 50.7915 33.9406 50.7915H49.9792V47.2641C49.9792 45.3167 48.3992 43.7367 46.3599 43.7367H38.111C36.0717 43.7367 34.4918 45.3167 34.4918 47.356C34.4918 47.6315 34.2162 47.9163 33.9314 47.9163C33.6467 47.9163 33.3711 47.6407 33.3711 47.356C33.3711 44.7564 35.5022 42.6252 38.1937 42.6252H46.4426C49.0422 42.6252 51.1733 44.7564 51.1733 47.356V51.5264C51.1733 51.6182 50.8977 51.8938 50.613 51.8938L50.6314 51.9122Z" fill="#111111"/>
<path d="M42.2815 41.7174C39.6819 41.7174 37.5508 39.5863 37.5508 36.8949C37.5508 34.2034 39.6819 32.0723 42.2815 32.0723C44.8811 32.0723 47.0122 34.2034 47.0122 36.8949C47.0122 39.5863 44.8811 41.7174 42.2815 41.7174ZM42.2815 33.1838C40.3341 33.1838 38.6623 34.8556 38.6623 36.803C38.6623 38.7504 40.2422 40.4222 42.2815 40.4222C44.3208 40.4222 45.9007 38.7504 45.9007 36.803C45.9007 34.8556 44.2289 33.1838 42.2815 33.1838Z" fill="#111111"/>
<path d="M50.6326 51.8197H0.560337C0.284761 51.8197 0 51.5441 0 51.2593C0 50.9746 0.275575 50.699 0.560337 50.699H50.5315C50.8071 50.699 51.0919 50.9746 51.0919 51.2593C51.1837 51.5349 50.9081 51.8197 50.6326 51.8197Z" fill="#111111"/>
<path d="M33.9439 51.913H17.2531C16.9775 51.913 16.6928 51.6374 16.6928 51.3527C16.6928 51.0679 16.9684 50.7923 17.2531 50.7923H33.2917V47.265C33.2917 45.3176 31.6198 43.6457 29.6724 43.6457H21.4235C19.4761 43.6457 17.8043 45.2257 17.8043 47.1731C17.8043 47.4487 17.5287 47.7334 17.2439 47.7334C16.9592 47.7334 16.6836 47.4579 16.6836 47.1731C16.6836 44.5735 18.8147 42.4424 21.4143 42.4424H29.7551C32.3547 42.4424 34.5777 44.5735 34.5777 47.1731V51.2516C34.4858 51.6191 34.2103 51.9038 33.9255 51.9038L33.9439 51.913Z" fill="#111111"/>
<path d="M25.594 41.7174C22.9944 41.7174 20.8633 39.5863 20.8633 36.8949C20.8633 34.2034 22.9944 32.0723 25.594 32.0723C28.1936 32.0723 30.3247 34.2034 30.3247 36.8949C30.3247 39.5863 28.1936 41.7174 25.594 41.7174ZM25.594 33.1838C23.6466 33.1838 21.9748 34.8556 21.9748 36.803C21.9748 38.7504 23.5547 40.4222 25.594 40.4222C27.6333 40.4222 29.2132 38.7504 29.2132 36.803C29.2132 34.8556 27.5414 33.1838 25.594 33.1838Z" fill="#111111"/>
<path d="M17.2511 51.9123H0.560337C0.284761 51.9123 0 51.6367 0 51.352V47.2735C0 44.6738 2.13112 42.5427 4.82259 42.5427H13.0715C15.6711 42.5427 17.8022 44.6738 17.8022 47.2735V51.4438C17.8022 51.6276 17.6185 51.9031 17.2419 51.9031L17.2511 51.9123ZM1.21254 50.709H16.6999V47.1816C16.6999 45.2342 15.12 43.6542 13.0807 43.6542H4.83177C2.79251 43.6542 1.21254 45.2342 1.21254 47.2735C1.21254 47.1816 1.21254 50.6998 1.21254 50.6998V50.709Z" fill="#111111"/>
<path d="M8.8987 41.7174C6.29909 41.7174 4.16797 39.5863 4.16797 36.8949C4.16797 34.2034 6.29909 32.0723 8.8987 32.0723C11.4983 32.0723 13.6294 34.2034 13.6294 36.8949C13.6294 39.5863 11.5902 41.7174 8.8987 41.7174ZM8.8987 33.1838C6.95129 33.1838 5.27946 34.8556 5.27946 36.803C5.27946 38.7504 6.85943 40.4222 8.8987 40.4222C10.938 40.4222 12.5179 38.7504 12.5179 36.803C12.5179 34.8556 10.938 33.1838 8.8987 33.1838Z" fill="#111111"/>
<path d="M50.6314 37.3513C50.3558 37.3513 50.071 37.0757 50.071 36.7909V32.6206C50.071 30.6732 48.491 29.0932 46.4518 29.0932H38.111C36.0717 29.0932 34.4918 30.6732 34.4918 32.7124C34.4918 32.988 34.2162 33.2728 33.9314 33.2728C33.6467 33.2728 33.3711 32.9972 33.3711 32.7124C33.3711 30.1128 35.5022 27.9817 38.1937 27.9817H46.4426C49.0422 27.9817 51.1733 30.1128 51.1733 32.7124V36.8828C51.1733 37.0665 50.8977 37.3421 50.613 37.3421L50.6314 37.3513Z" fill="#111111"/>
<path d="M42.2815 27.1564C39.6819 27.1564 37.5508 25.0253 37.5508 22.3338C37.5508 19.6424 39.6819 17.5112 42.2815 17.5112C44.8811 17.5112 47.0122 19.6424 47.0122 22.3338C47.0122 25.0253 44.8811 27.1564 42.2815 27.1564ZM42.2815 18.7238C40.3341 18.7238 38.6623 20.3956 38.6623 22.343C38.6623 24.2904 40.2422 25.9622 42.2815 25.9622C44.3208 25.9622 45.9007 24.2904 45.9007 22.343C45.8089 20.3956 44.2289 18.7238 42.2815 18.7238Z" fill="#111111"/>
<path d="M33.9439 37.3535C33.6683 37.3535 33.3835 37.078 33.3835 36.7932V32.7147C33.3835 30.7673 31.7117 29.0954 29.7643 29.0954H21.4235C19.4761 29.0954 17.8043 30.6754 17.8043 32.6228C17.8043 32.8984 17.5287 33.1832 17.2439 33.1832C16.9592 33.1832 16.6836 32.9076 16.6836 32.6228C16.6836 30.0232 18.8147 27.8921 21.4143 27.8921H29.7551C32.3547 27.8921 34.5777 30.0232 34.5777 32.6228V36.7013C34.4858 37.0688 34.2103 37.3535 33.9255 37.3535H33.9439Z" fill="#111111"/>
<path d="M25.594 27.1564C22.9944 27.1564 20.8633 25.0253 20.8633 22.3338C20.8633 19.6424 22.9944 17.5112 25.594 17.5112C28.1936 17.5112 30.3247 19.6424 30.3247 22.3338C30.3247 25.0253 28.1936 27.1564 25.594 27.1564ZM25.594 18.7238C23.6466 18.7238 21.9748 20.3956 21.9748 22.343C21.9748 24.2904 23.5547 25.9622 25.594 25.9622C27.6333 25.9622 29.2132 24.2904 29.2132 22.343C29.2132 20.3956 27.5414 18.7238 25.594 18.7238Z" fill="#111111"/>
<path d="M17.2504 37.3513C16.9749 37.3513 16.6901 37.0757 16.6901 36.7909V32.6206C16.6901 30.6732 15.1101 29.0932 13.0709 29.0932H4.82194C2.78268 29.0932 1.20271 30.6732 1.20271 32.7124V36.7909C1.20271 37.0665 0.927131 37.3513 0.642369 37.3513C0.357606 37.3513 0.0820312 37.0757 0.0820312 36.7909V32.7124C0.0820312 30.1128 2.21316 27.9817 4.90462 27.9817H13.0617C15.6613 27.9817 17.7924 30.1128 17.7924 32.7124V36.8828C17.7924 37.0665 17.6087 37.3421 17.2321 37.3421L17.2504 37.3513Z" fill="#111111"/>
<path d="M8.8987 27.1564C6.29909 27.1564 4.16797 25.0253 4.16797 22.3338C4.16797 19.6424 6.29909 17.5112 8.8987 17.5112C11.4983 17.5112 13.6294 19.6424 13.6294 22.3338C13.6294 25.0253 11.5902 27.1564 8.8987 27.1564ZM8.8987 18.7238C6.95129 18.7238 5.27946 20.3956 5.27946 22.343C5.27946 24.2904 6.85943 25.9622 8.8987 25.9622C10.938 25.9622 12.5179 24.2904 12.5179 22.343C12.5179 20.3956 10.938 18.7238 8.8987 18.7238Z" fill="#111111"/>
<path d="M33.9439 20.7615C33.6683 20.7615 33.3835 20.4859 33.3835 20.2012V16.1226C33.3835 14.1752 31.7117 12.5034 29.7643 12.5034H21.4235C19.4761 12.5034 17.8043 14.0834 17.8043 16.0308V20.2012C17.8043 20.4767 17.5287 20.7615 17.2439 20.7615C16.9592 20.7615 16.6836 20.4859 16.6836 20.2012V16.0308C16.6836 13.4312 18.8147 11.3 21.4143 11.3H29.7551C32.3547 11.3 34.5777 13.4312 34.5777 16.0308V20.1093C34.4858 20.4767 34.2103 20.7615 33.9255 20.7615H33.9439Z" fill="#111111"/>
<path d="M25.594 10.5573C22.9944 10.5573 20.8633 8.42616 20.8633 5.7347C20.8633 3.04323 22.9944 0.912109 25.594 0.912109C28.1936 0.912109 30.3247 3.04323 30.3247 5.7347C30.3247 8.42616 28.1936 10.5573 25.594 10.5573ZM25.594 2.12465C23.6466 2.12465 21.9748 3.79647 21.9748 5.74388C21.9748 7.69129 23.5547 9.36312 25.594 9.36312C27.6333 9.36312 29.2132 7.69129 29.2132 5.74388C29.2132 3.79647 27.5414 2.12465 25.594 2.12465Z" fill="#111111"/>
<path d="M5.84159 14.5442C5.56601 14.5442 5.28125 14.2686 5.28125 13.9838V3.60379C5.28125 3.32822 5.55683 3.04346 5.84159 3.04346C6.12635 3.04346 6.40193 3.31903 6.40193 3.60379V13.9838C6.40193 14.2594 6.12635 14.5442 5.84159 14.5442Z" fill="#111111"/>
<path d="M2.69159 6.29346C2.50788 6.29346 2.32416 6.2016 2.2323 6.01788C2.04858 5.7423 2.14044 5.36568 2.41602 5.18197L5.56677 3.1427C5.84235 2.95898 6.21897 3.05084 6.40269 3.32642C6.58641 3.60199 6.49455 3.97862 6.21897 4.16233L3.06821 6.2016C2.8845 6.2016 2.79264 6.29346 2.70078 6.29346H2.69159Z" fill="#111111"/>
<path d="M8.90094 6.29346C8.80909 6.29346 8.71723 6.29346 8.62537 6.2016L5.47461 4.16233C5.19903 3.97862 5.10718 3.60199 5.29089 3.32642C5.47461 3.05084 5.85123 2.95898 6.12681 3.1427L9.27757 5.18197C9.55314 5.36568 9.645 5.7423 9.46128 6.01788C9.27757 6.2016 9.09385 6.29346 8.90094 6.29346Z" fill="#111111"/>
<path d="M45.3416 14.5442C45.066 14.5442 44.7812 14.2686 44.7812 13.9838V3.60379C44.7812 3.32822 45.0568 3.04346 45.3416 3.04346C45.6264 3.04346 45.9019 3.31903 45.9019 3.60379V13.9838C45.9938 14.2594 45.7182 14.5442 45.3416 14.5442Z" fill="#111111"/>
<path d="M42.2814 6.29346C42.0977 6.29346 41.914 6.2016 41.8221 6.01788C41.6384 5.7423 41.7303 5.36568 42.0059 5.18197L45.1566 3.1427C45.4322 2.95898 45.8088 3.05084 45.9925 3.32642C46.1762 3.60199 46.0844 3.97862 45.8088 4.16233L42.6581 6.2016C42.4743 6.2016 42.3825 6.29346 42.2906 6.29346H42.2814Z" fill="#111111"/>
<path d="M48.4947 6.29346C48.4028 6.29346 48.311 6.29346 48.2191 6.2016L45.0684 4.16233C44.7928 3.97862 44.7009 3.60199 44.8846 3.32642C45.0684 3.05084 45.445 2.95898 45.7206 3.1427L48.8713 5.18197C49.1469 5.36568 49.2387 5.7423 49.055 6.01788C48.8713 6.2016 48.6876 6.29346 48.4947 6.29346Z" fill="#111111"/>
</svg>
