<svg width="54" height="57" viewBox="0 0 54 57" fill="none" xmlns="http://www.w3.org/2000/svg">
<path d="M47.6225 40.2876C48.2388 40.2876 48.7439 40.7927 48.7439 41.409C48.7439 42.0253 48.2388 42.5304 47.6225 42.5304C47.0063 42.5304 46.5011 42.0253 46.5011 41.409C46.4001 40.7927 46.9053 40.2876 47.6225 40.2876Z" fill="#111111"/>
<path d="M18.8678 23.1531H16.625V25.3959H18.8678V23.1531Z" fill="#111111"/>
<path d="M47.6254 46.7069C47.4234 46.7069 47.3223 46.6058 47.1203 46.5048C46.9182 46.2017 46.9182 45.8886 47.1203 45.5855L48.2417 44.5651C48.5448 44.3631 48.8579 44.3631 49.161 44.5651C49.3631 44.8682 49.3631 45.1814 49.161 45.4845L48.0396 46.5048C47.9386 46.7069 47.7366 46.7069 47.6355 46.7069H47.6254Z" fill="#111111"/>
<path d="M48.6452 52.3151H5.21392C4.91084 52.3151 4.59766 52.0121 4.59766 51.6989V1.5291C4.59766 1.22602 4.90074 0.912842 5.21392 0.912842H48.6553C48.9584 0.912842 49.2716 1.21592 49.2716 1.5291V37.2218C49.2716 37.5249 48.9685 37.838 48.6553 37.838C48.3421 37.838 48.0391 37.535 48.0391 37.2218V2.14537H5.82008V50.9917H48.0391V45.0816C48.0391 44.7786 48.3421 44.4654 48.6553 44.4654C48.9685 44.4654 49.2716 44.7685 49.2716 45.0816V51.608C49.2716 52.0121 49.0695 52.3252 48.6553 52.3252L48.6452 52.3151Z" fill="#111111"/>
<path d="M24.9931 21.4124C24.892 21.4124 24.791 21.4124 24.69 21.3114C24.3869 21.1093 24.2859 20.6951 24.4879 20.392C24.4879 20.291 24.589 20.291 24.589 20.19C24.791 19.8869 25.2052 19.7859 25.5083 19.9879C25.8114 20.19 25.9124 20.6042 25.7104 20.9073C25.7104 21.0083 25.6093 21.0083 25.6093 21.1093C25.4073 21.3114 25.2052 21.4124 24.9931 21.4124Z" fill="#111111"/>
<path d="M24.8915 21.6204C24.7905 21.6204 24.6895 21.6204 24.5884 21.5194C24.2853 21.3173 24.1843 21.0143 24.3864 20.6C24.3864 20.499 24.4874 20.499 24.4874 20.398C24.6894 20.0949 25.1037 19.9939 25.4067 20.1959C25.7098 20.398 25.8108 20.8122 25.6088 21.1153C25.6088 21.2163 25.5078 21.2163 25.5078 21.3173C25.3057 21.5194 25.1037 21.6204 24.8915 21.6204Z" fill="#111111"/>
<path d="M24.7925 21.8221C24.6915 21.8221 24.5904 21.8221 24.4894 21.7211C24.1863 21.519 24.0853 21.216 24.1863 20.9028C24.1863 20.8018 24.2874 20.8018 24.2874 20.7007C24.4894 20.3976 24.7925 20.2966 25.2067 20.4987C25.5098 20.7007 25.6108 21.0038 25.4087 21.418C25.4087 21.519 25.3077 21.519 25.3077 21.6201C25.2067 21.7211 25.0046 21.8221 24.8026 21.8221H24.7925Z" fill="#111111"/>
<path d="M24.3794 22.7434H24.1774C23.8743 22.6424 23.6722 22.2383 23.8743 21.9251C23.8743 21.8241 23.9753 21.723 23.9753 21.723C24.0764 21.42 24.4805 21.2179 24.7936 21.42C25.0967 21.521 25.2988 21.9251 25.0967 22.2383C25.0967 22.3393 24.9957 22.3393 24.9957 22.4403C24.8947 22.5414 24.5916 22.7434 24.3794 22.7434Z" fill="#111111"/>
<path d="M24.2731 22.9441H24.071C23.7679 22.8431 23.5659 22.439 23.6669 22.1258C23.6669 22.0584 23.7006 21.9911 23.7679 21.9237C23.869 21.6206 24.2731 21.4186 24.5862 21.6206C24.8893 21.7217 25.0914 22.1258 24.8893 22.439C24.8893 22.5063 24.8557 22.5737 24.7883 22.641C24.7883 22.742 24.5862 22.9441 24.2832 22.9441H24.2731Z" fill="#111111"/>
<path d="M23.9762 23.7541H23.7741C23.4711 23.6531 23.269 23.35 23.37 22.9358C23.37 22.8685 23.4037 22.8011 23.4711 22.7338C23.5384 22.6664 23.5721 22.5991 23.5721 22.5317C23.6731 22.2286 23.9762 22.0266 24.3904 22.1276C24.6935 22.2286 24.8955 22.5317 24.7945 22.9459V23.148C24.7945 23.2153 24.7608 23.2827 24.6935 23.35C24.5924 23.6531 24.2894 23.7541 23.9762 23.7541Z" fill="#111111"/>
<path d="M23.7721 24.9912C23.368 24.8902 23.0548 24.5871 23.1558 24.274V23.8698C23.2569 23.5668 23.5599 23.2536 23.8731 23.3647C24.1762 23.4657 24.4894 23.7688 24.3783 24.082V24.4861C24.3783 24.6882 24.0752 24.9912 23.762 24.9912H23.7721Z" fill="#111111"/>
<path d="M23.7721 25.1911C23.368 25.1911 23.0548 24.888 23.1558 24.4738V24.2718C23.1558 23.9687 23.5599 23.6555 23.8731 23.6555C24.1863 23.6555 24.4894 23.9586 24.3783 24.3728V24.5749C24.3783 24.8779 24.0752 25.1911 23.762 25.1911H23.7721Z" fill="#111111"/>
<path d="M23.7725 25.5962C23.3684 25.5962 23.1562 25.2931 23.1562 24.8789V24.6768C23.1562 24.3737 23.4593 24.0605 23.8735 24.0605C24.1766 24.0605 24.4898 24.3636 24.4898 24.7778V24.9799C24.3888 25.384 24.0857 25.5962 23.7725 25.5962Z" fill="#111111"/>
<path d="M23.7725 25.9075C23.4694 25.9075 23.1562 25.6044 23.1562 25.2912V25.0892C23.1562 24.7861 23.4593 24.4729 23.8735 24.4729C24.1766 24.4729 24.4898 24.776 24.4898 25.1902V25.2912C24.3888 25.5943 24.0857 25.9075 23.7725 25.9075Z" fill="#111111"/>
<path d="M23.7725 26.9186C23.4694 26.9186 23.1562 26.7165 23.1562 26.3023V25.7972C23.1562 25.4941 23.4593 25.1809 23.7725 25.1809C24.0857 25.1809 24.3888 25.484 24.3888 25.7972V26.1002V26.2013C24.4898 26.6054 24.1867 26.9186 23.7725 26.9186Z" fill="#111111"/>
<path d="M23.8741 27.5358C23.571 27.5358 23.2578 27.3337 23.2578 27.0307V26.8286C23.2578 26.5255 23.4599 26.1113 23.7629 26.1113C24.066 26.1113 24.4802 26.3134 24.4802 26.6165V26.7175C24.5813 27.0206 24.2782 27.4348 23.9751 27.4348L23.8741 27.5358Z" fill="#111111"/>
<path d="M23.972 28.035C23.6689 28.035 23.4669 27.833 23.3558 27.5299V27.1258C23.2547 26.8227 23.5578 26.4085 23.8609 26.4085C24.164 26.3075 24.5782 26.6105 24.5782 26.9136V27.1157V27.3177C24.6792 27.6208 24.4771 28.035 24.073 28.035H23.972Z" fill="#111111"/>
<path d="M24.0751 28.4517C23.772 28.4517 23.5699 28.2496 23.4588 27.9466C23.4588 27.8792 23.4251 27.8118 23.3578 27.7445C23.2567 27.4414 23.4588 27.0272 23.8629 27.0272C24.166 26.9262 24.5802 27.1282 24.5802 27.5323V27.7344C24.6812 28.0375 24.4792 28.4517 24.1761 28.5527C24.1761 28.4517 24.0751 28.4517 24.0751 28.4517Z" fill="#111111"/>
<path d="M24.1772 28.9595C23.8741 28.9595 23.672 28.7575 23.5609 28.5554C23.5609 28.4881 23.5272 28.4207 23.4599 28.3534C23.3588 28.0503 23.5609 27.6361 23.864 27.5351C24.1671 27.434 24.5813 27.6361 24.6823 27.9392V28.0402C24.7833 28.3433 24.5813 28.7575 24.2782 28.8585C24.2782 28.9259 24.2445 28.9595 24.1772 28.9595Z" fill="#111111"/>
<path d="M24.2748 29.2696C24.0728 29.2696 23.7697 29.1686 23.6586 28.8655C23.6586 28.7981 23.6249 28.7308 23.5575 28.6634C23.4565 28.3604 23.6586 27.9462 23.9616 27.8451C24.2647 27.7441 24.6789 27.9462 24.7799 28.2492V28.3503C24.881 28.6533 24.78 29.0676 24.3758 29.1686C24.4769 29.2696 24.3758 29.2696 24.2748 29.2696Z" fill="#111111"/>
<path d="M32.8467 35.1816C30.1998 35.1816 27.5428 34.1612 25.7042 32.1205C24.8858 31.2011 24.2797 30.1808 23.7644 29.1604C23.6634 28.8573 23.7644 28.4431 24.0675 28.3421C24.3706 28.2411 24.7848 28.3421 24.8858 28.6452C25.2899 29.5645 25.8052 30.4838 26.5225 31.2921C29.1694 34.1511 33.4529 34.8583 36.8171 32.9287C37.1202 32.7266 37.5344 32.8277 37.6354 33.1307C37.8374 33.4338 37.7364 33.848 37.4333 33.9491C36.1099 34.7674 34.4733 35.1715 32.8467 35.1715V35.1816Z" fill="#111111"/>
<path d="M37.5321 33.9618C37.3301 33.9618 37.128 33.8607 37.027 33.6587C36.8249 33.3556 36.926 32.9414 37.229 32.7393C37.3301 32.7393 37.3301 32.6383 37.4311 32.6383C37.7342 32.4363 38.1484 32.5373 38.3504 32.8404C38.5525 33.1435 38.4515 33.5577 38.1484 33.7597C38.0474 33.7597 37.9463 33.8607 37.9463 33.8607C37.7443 33.8607 37.6433 33.9618 37.5422 33.9618H37.5321Z" fill="#111111"/>
<path d="M37.7313 33.7575C37.5293 33.7575 37.3272 33.6565 37.2262 33.4544C37.0242 33.1513 37.1252 32.7371 37.4283 32.5351C37.5293 32.5351 37.5293 32.4341 37.6303 32.4341C37.7313 32.4341 37.7313 32.333 37.8324 32.333C38.1355 32.131 38.5497 32.232 38.7517 32.4341C38.9538 32.6361 38.8527 33.1514 38.6507 33.3534C38.5497 33.4544 38.4486 33.4544 38.3476 33.5555C38.2466 33.5555 38.1456 33.6565 38.1456 33.7575H37.7415H37.7313Z" fill="#111111"/>
<path d="M38.4512 33.3431C38.2492 33.3431 38.0471 33.2421 37.9461 33.04C37.744 32.737 37.845 32.3228 38.0471 32.1207L38.1481 32.0197C38.1481 32.0197 38.2492 32.0197 38.2492 31.9187C38.5522 31.7166 38.9664 31.7166 39.1685 32.0197C39.3706 32.3228 39.3705 32.737 39.0675 32.939L38.9664 33.04L38.8654 33.1411C38.7644 33.2421 38.5623 33.3431 38.4613 33.3431H38.4512Z" fill="#111111"/>
<path d="M38.7553 33.0388C38.5533 33.0388 38.3512 32.9378 38.2502 32.8367C38.0481 32.5336 38.0481 32.1194 38.3512 31.9174L38.4522 31.8164C38.7553 31.6143 39.1695 31.6143 39.3716 31.9174C39.5736 32.2205 39.5736 32.6347 39.2706 32.8367C39.2032 32.9041 39.1359 32.9714 39.0685 33.0388H38.7654H38.7553Z" fill="#111111"/>
<path d="M38.9663 32.9368C38.7642 32.9368 38.5622 32.8358 38.4611 32.7348C38.2591 32.4317 38.2591 32.0175 38.5622 31.8154C38.6295 31.7481 38.6969 31.6807 38.7642 31.6134C38.8316 31.546 38.8989 31.4787 38.9663 31.4113C39.1683 31.2093 39.5825 31.2093 39.8856 31.4113C40.0877 31.6134 40.0877 32.0276 39.8856 32.3306C39.8183 32.398 39.7509 32.4653 39.6836 32.5327C39.6162 32.6 39.5488 32.6674 39.4815 32.7348C39.2794 32.8358 39.0774 32.9368 38.9764 32.9368H38.9663Z" fill="#111111"/>
<path d="M39.4731 32.3214C39.271 32.3214 39.17 32.2204 38.9679 32.1193C38.7659 31.9173 38.7659 31.5031 38.9679 31.2L39.069 31.099L39.17 30.9979C39.3721 30.6949 39.7863 30.6949 40.0893 30.8969C40.3924 31.099 40.3924 31.5132 40.1904 31.8163L40.0893 31.9173L39.9883 32.0183C39.8873 32.3214 39.6852 32.3214 39.4832 32.3214H39.4731Z" fill="#111111"/>
<path d="M39.7759 32.1184C39.6749 32.1184 39.4729 32.0174 39.3718 31.9164C39.0688 31.7143 39.0688 31.3001 39.3718 30.997C39.4392 30.9297 39.4729 30.8623 39.4729 30.795C39.4729 30.7276 39.5402 30.6603 39.6749 30.5929C39.877 30.2898 40.2912 30.2898 40.5943 30.4919C40.8973 30.6939 40.8973 31.1082 40.6953 31.4112C40.5943 31.5123 40.5943 31.6133 40.4932 31.6133C40.4259 31.6806 40.3585 31.748 40.2912 31.8153C40.0891 32.0174 39.9881 32.1184 39.786 32.1184H39.7759Z" fill="#111111"/>
<path d="M40.0864 31.6128C39.9854 31.6128 39.7834 31.6128 39.6823 31.5118C39.3792 31.3097 39.3792 30.8955 39.5813 30.5924C39.6487 30.5251 39.716 30.4577 39.7834 30.3904C39.8507 30.323 39.8844 30.2557 39.8844 30.1883C39.8844 30.0873 39.9854 30.0873 39.9854 29.9863C42.0261 26.7231 41.6119 22.4396 38.965 19.6917C35.8029 16.2264 30.398 16.1254 26.9328 19.2875C26.4276 19.7927 26.0134 20.3079 25.6093 20.813C25.4073 21.1161 24.9931 21.2172 24.69 21.0151C24.3869 20.813 24.2859 20.3988 24.4879 20.0958C24.892 19.4795 25.4073 18.8733 26.0134 18.2571C29.9939 14.5898 36.207 14.7919 39.8844 18.7622C42.9455 22.0254 43.3496 26.9252 41.0058 30.5924C40.9047 30.6934 40.9047 30.7945 40.8037 30.8955C40.7027 30.9965 40.7027 31.0975 40.6017 31.1986C40.5006 31.2996 40.5006 31.4006 40.3996 31.4006C40.5006 31.6027 40.2986 31.6027 40.0965 31.6027L40.0864 31.6128Z" fill="#111111"/>
<path d="M40.5909 37.6227C40.3889 37.6227 40.2878 37.5217 40.0858 37.4206L36.7216 33.8544C36.6206 33.7534 36.5195 33.5513 36.5195 33.3493C36.5195 33.1472 36.6206 32.9451 36.8226 32.9451C36.9236 32.9451 37.0247 32.8441 37.0247 32.8441C37.1257 32.8441 37.1257 32.7431 37.2267 32.7431C37.3277 32.7431 37.3277 32.6421 37.4288 32.6421C37.5298 32.6421 37.5298 32.541 37.6308 32.541C37.7319 32.541 37.7319 32.44 37.8329 32.339L37.9339 32.238C37.9339 32.238 38.0349 32.238 38.0349 32.1369H38.136C38.237 32.1369 38.237 32.0359 38.338 32.0359C38.4054 31.9686 38.4727 31.9012 38.5401 31.8339C38.6074 31.7665 38.6748 31.6992 38.7421 31.6318L38.8431 31.5308L38.9442 31.4298L39.0452 31.3287C39.1125 31.2614 39.1799 31.194 39.2472 31.1267C39.3146 31.0593 39.382 30.992 39.4493 30.9246C39.5167 30.8573 39.584 30.7899 39.6514 30.7226C39.7187 30.6552 39.7861 30.5879 39.8534 30.5205C39.9208 30.4532 39.9544 30.3858 39.9544 30.3185C40.0555 30.1164 40.2575 30.0154 40.4596 30.0154C40.6616 30.0154 40.8637 30.1164 40.9647 30.2174L44.4299 33.4806C44.632 33.7837 44.632 34.0969 44.4299 34.3999C44.1268 34.602 43.8137 34.602 43.5106 34.3999L40.7525 31.4399C40.7525 31.4399 40.7525 31.5409 40.6515 31.5409C40.5505 31.6419 40.5505 31.7429 40.4495 31.7429C40.3821 31.8103 40.3148 31.8776 40.2474 31.945L40.1464 32.046L40.0454 32.147L39.9443 32.2481C39.877 32.3154 39.8096 32.3828 39.7423 32.4501C39.6749 32.5175 39.6076 32.5848 39.5402 32.6522C39.4729 32.7195 39.4055 32.7869 39.3382 32.8542C39.2371 32.8542 39.2371 32.9553 39.1361 32.9553L39.0351 33.0563L38.9341 33.1573L38.833 33.2583C38.732 33.3594 38.631 33.3594 38.631 33.4604C38.53 33.4604 38.4289 33.4604 38.3279 33.5614H38.2269L40.9849 36.5215C41.187 36.8246 41.187 37.1378 40.9849 37.4408C40.8839 37.5419 40.7829 37.6429 40.5808 37.6429L40.5909 37.6227Z" fill="#111111"/>
<path d="M47.6273 46.7074C47.4252 46.7074 47.3242 46.6063 47.1221 46.5053L39.2724 38.1403C39.1713 38.0393 39.0703 37.8372 39.0703 37.7362C39.0703 37.5341 39.1713 37.4331 39.2724 37.3321L44.2732 32.6445C44.5763 32.4424 44.8894 32.4424 45.1925 32.6445L53.0423 41.0095C53.1433 41.1105 53.2443 41.3125 53.2443 41.4136C53.2443 41.6156 53.1433 41.7166 53.0423 41.8177L49.0618 45.4849L47.9404 46.5053C47.9404 46.7074 47.7384 46.7074 47.6374 46.7074H47.6273ZM40.6968 37.7261L47.6273 45.1718L48.2435 44.6666L51.7087 41.4035L44.7783 33.9578L40.6968 37.7261Z" fill="#111111"/>
<path d="M23.5578 38.6441H10.9092C10.6062 38.6441 10.293 38.3411 10.293 38.0279C10.293 37.7147 10.596 37.4116 10.9092 37.4116H23.5578C23.8608 37.4116 24.174 37.7147 24.174 38.0279C24.174 38.3411 23.8709 38.6441 23.5578 38.6441Z" fill="#111111"/>
<path d="M33.8641 42.0118H10.9209C10.6179 42.0118 10.3047 41.7087 10.3047 41.3956C10.3047 41.0824 10.6078 40.7793 10.9209 40.7793H33.8641C34.1672 40.7793 34.4803 41.0824 34.4803 41.3956C34.4803 41.7087 34.1773 42.0118 33.8641 42.0118Z" fill="#111111"/>
<path d="M33.8641 45.4781H10.9209C10.6179 45.4781 10.3047 45.1751 10.3047 44.8619C10.3047 44.5487 10.6078 44.2456 10.9209 44.2456H33.8641C34.1672 44.2456 34.4803 44.5487 34.4803 44.8619C34.4803 45.1751 34.1773 45.4781 33.8641 45.4781Z" fill="#111111"/>
<path d="M24.378 29.4712H9.79986C9.49678 29.4712 9.18359 29.1681 9.18359 28.8549V23.7531C9.18359 21.2072 11.3254 19.0654 13.8712 19.0654H22.9434C23.8628 19.0654 24.7821 19.3685 25.5903 19.8837C25.8934 20.0858 25.9944 20.5 25.7924 20.8031C25.7924 20.9041 25.6913 20.9041 25.6913 21.0051C25.6913 21.1062 25.5903 21.1062 25.5903 21.2072C25.5903 21.3082 25.4893 21.3082 25.4893 21.4092C25.4893 21.5103 25.3883 21.5103 25.3883 21.6113C25.2872 21.8134 25.1862 22.0154 25.0852 22.2276C25.0852 22.3286 24.9841 22.3286 24.9841 22.4296C24.9841 22.497 24.9505 22.5643 24.8831 22.6317C24.8831 22.7327 24.7821 22.9347 24.7821 23.0358V23.2378V23.4399C24.6811 23.6419 24.6811 23.844 24.6811 24.0561V24.4602V24.8644V25.1674V25.2685V26.1878V26.2888V27.1071V27.3092C24.6811 27.4102 24.6811 27.5112 24.7821 27.5112V27.7133C24.7821 27.8143 24.8831 27.9154 24.8831 28.0164V28.1174V28.2184V28.3195C24.8831 28.3195 24.8831 28.4205 24.9841 28.4205C24.9841 28.5215 25.0852 28.6225 25.0852 28.7236C24.9841 29.1277 24.7821 29.4409 24.3679 29.4409L24.378 29.4712ZM10.406 28.2487H23.4586C23.4586 28.1477 23.4586 28.0467 23.3576 28.0467C23.3576 27.9793 23.3239 27.912 23.2566 27.8446C23.2566 27.7436 23.2566 27.6426 23.1556 27.5416V27.3395V24.9957V24.5916V24.1875C23.1556 23.9854 23.2566 23.6823 23.3576 23.4702C23.3576 23.4028 23.3913 23.3355 23.4586 23.2681C23.4586 23.2008 23.4923 23.1334 23.5597 23.0661C23.6607 22.864 23.6607 22.763 23.7617 22.5609C23.7617 22.4599 23.8628 22.4599 23.8628 22.3589C23.8628 22.2579 23.9638 22.1568 23.9638 22.1568C24.0648 21.9548 24.1658 21.7527 24.2669 21.4396C24.2669 21.3385 24.3679 21.3385 24.3679 21.2375C23.9638 21.0354 23.4485 20.9344 22.9434 20.9344H13.8712C11.9315 20.9344 10.406 22.4599 10.406 24.2986V28.279V28.2487Z" fill="#111111"/>
<path d="M18.3669 16.9267C15.5079 16.9267 13.1641 14.5829 13.1641 11.7239C13.1641 8.86481 15.5079 6.521 18.3669 6.521C21.226 6.521 23.5698 8.86481 23.5698 11.7239C23.5698 14.5829 21.226 16.9267 18.3669 16.9267ZM18.3669 7.85455C16.2252 7.85455 14.3865 9.5922 14.3865 11.7239C14.3865 13.8555 16.1241 15.6033 18.3669 15.6033C20.6097 15.6033 22.3474 13.8656 22.3474 11.7239C22.3474 9.5821 20.6097 7.85455 18.3669 7.85455Z" fill="#111111"/>
<path d="M37.2283 56.9021H0.616261C0.313181 56.9021 0 56.599 0 56.2858V18.9666C0 18.6635 0.303078 18.3503 0.616261 18.3503C0.929443 18.3503 1.23252 18.6534 1.23252 18.9666V55.5786H37.2283C37.5314 55.5786 37.8445 55.8817 37.8445 56.1949C37.9456 56.599 37.6425 56.9122 37.2283 56.9122V56.9021Z" fill="#111111"/>
</svg>
