<svg width="62" height="59" viewBox="0 0 62 59" fill="none" xmlns="http://www.w3.org/2000/svg">
<path d="M18.1546 27.0991C18.8316 27.887 19.1645 28.8858 19.1645 30.0066C19.1645 31.3494 18.7206 32.4703 17.9327 33.3692C17.1448 34.2681 15.9129 34.8229 14.4592 35.0449V37.1756H12.7835V35.1559C11.5516 35.0449 10.5418 34.4789 9.64287 33.7021C8.85495 32.9142 8.30007 31.7933 8.07812 30.3396L10.9857 30.0066C11.0966 30.5615 11.3186 31.1275 11.6626 31.5714C11.9955 32.0153 12.3396 32.3593 12.7835 32.4703V27.7649C11.3297 27.321 10.2088 26.7551 9.53189 25.8562C8.85495 24.9573 8.52203 23.9474 8.52203 22.8266C8.52203 21.5948 8.85495 20.5849 9.64287 19.8081C10.4308 19.0201 11.4296 18.4653 12.6725 18.3543V16.7896H14.3482V18.3543C15.58 18.4653 16.5899 18.9092 17.2557 19.5861C17.9327 20.2631 18.3766 21.1509 18.5985 22.2717L15.802 22.6046C15.58 21.7057 15.125 21.1509 14.4592 20.8068V25.1792C16.2459 25.7341 17.4888 26.3001 18.1546 27.088V27.0991ZM16.3568 30.4505C16.3568 30.0066 16.2459 29.5516 15.9129 29.2187C15.58 28.8858 15.125 28.5418 14.4592 28.4308V32.8032C15.014 32.6922 15.469 32.4703 15.802 32.0153C16.2459 31.4604 16.3568 31.0054 16.3568 30.4505ZM12.8833 24.6244V20.707C12.4394 20.8179 12.0954 21.1509 11.8735 21.4949C11.6515 21.8278 11.5405 22.2828 11.5405 22.7267C11.5405 23.1706 11.6515 23.5146 11.8735 23.8475C11.9844 24.1805 12.4283 24.5245 12.8833 24.6355V24.6244Z" fill="black"/>
<path d="M61.0482 58.1165H10.7545C10.4216 58.1165 10.0776 57.7836 10.0776 57.4396V53.1782C9.96658 48.1399 9.96657 45.3322 10.8655 43.2126C12.0973 40.1941 14.8939 38.7292 21.175 35.3667C22.5178 34.6898 23.9716 33.913 25.6584 33.0141C25.8803 32.9031 26.2133 32.9031 26.4463 33.125L36.0789 41.5258L45.7115 33.125C45.9335 32.9031 46.2664 32.9031 46.4994 33.0141C48.0642 33.913 49.529 34.5788 50.7609 35.2557C56.3651 38.1633 59.1616 39.7391 60.6154 42.0918C62.0692 44.4444 62.0692 47.463 61.9582 53.2891V57.4396C61.7363 57.8835 61.4033 58.1165 61.0593 58.1165H61.0482ZM11.4314 56.7737H60.3824V53.3002C60.4933 47.696 60.4933 44.7885 59.2615 42.7687C58.0297 40.749 55.3441 39.2952 49.8509 36.4987C48.73 35.9438 47.3872 35.2668 46.0444 34.4789L36.4118 42.9907C36.1899 43.2126 35.7349 43.2126 35.5129 42.9907L25.7694 34.4789C24.3156 35.2668 22.9728 35.9327 21.741 36.6096C15.5819 39.8612 13.1183 41.204 12.1084 43.6676C11.3205 45.6874 11.3205 48.4839 11.4314 53.1893V56.7737Z" fill="black"/>
<path d="M36.1891 29.7856C33.1595 29.7856 30.252 28.3318 27.8993 25.5353C25.9905 23.2936 24.5368 20.1641 23.6379 16.9125C23.194 15.3478 22.9609 13.661 22.9609 12.3182C22.9609 5.59313 28.8981 0 36.067 0C43.236 0 49.1732 5.49325 49.1732 12.3182C49.2841 18.4773 44.8008 29.7967 36.178 29.7967L36.1891 29.7856ZM36.1891 1.44267C29.6971 1.44267 24.4258 6.36995 24.4258 12.3071C24.4258 13.5389 24.6478 14.9927 24.9807 16.5685C26.4344 22.5057 30.4739 28.4428 36.067 28.4428C40.2064 28.4428 43.0141 25.3022 44.6898 22.6166C46.5985 19.4761 47.8304 15.4477 47.8304 12.3071C47.8304 6.36995 42.5702 1.44267 36.178 1.44267H36.1891Z" fill="black"/>
<path d="M11.5414 44.2337H11.2084C8.06786 43.2238 5.16032 41.3261 3.14058 38.6295C1.00987 35.9439 0 32.5813 0 29.2188C0 20.5961 7.05799 13.5381 15.7917 13.5381C19.0433 13.5381 22.0618 14.437 24.7474 16.3346C25.0803 16.5566 25.1912 17.0116 24.9693 17.3445C24.7473 17.6774 24.2924 17.7884 23.9594 17.5665C21.6068 15.8907 18.8102 15.1028 15.7806 15.1028C7.82371 15.1028 1.44267 21.4839 1.44267 29.4408C1.44267 35.7108 5.58203 41.315 11.6301 43.1017C11.9631 43.2127 12.185 43.6566 12.074 44.0006C12.074 44.0006 11.8521 44.2226 11.5192 44.2226L11.5414 44.2337Z" fill="black"/>
</svg>
