<svg width="65" height="65" viewBox="0 0 65 65" fill="none" xmlns="http://www.w3.org/2000/svg">
<path d="M32.5 65C23.8427 65 15.656 61.683 9.4924 55.5076C3.32881 49.344 0 41.1573 0 32.5C0 23.8427 3.31705 15.656 9.4924 9.4924C15.656 3.32881 23.8427 0 32.5 0C41.1573 0 49.344 3.31705 55.5076 9.4924C61.6712 15.6678 65 23.8427 65 32.5C65 41.1573 61.5653 49.344 55.5076 55.5076C49.344 61.6712 41.1573 65 32.5 65ZM32.5 1.08216C15.1855 1.08216 1.07039 15.1972 1.07039 32.5118C1.07039 49.8263 15.1855 63.9414 32.5 63.9414C49.8145 63.9414 63.9296 49.8263 63.9296 32.5118C63.9296 15.1972 49.8145 1.08216 32.5 1.08216Z" fill="black"/>
<path d="M57.2869 33.0997C57.0516 33.0997 56.8164 32.8644 56.8164 32.6292C56.8164 21.1254 48.6296 11.1625 37.3728 8.78641C37.1376 8.78641 36.9023 8.43354 36.9023 8.19829C36.9023 7.96303 37.2552 7.72778 37.4905 7.72778C43.1836 8.9158 48.4061 11.9976 52.0761 16.5027C55.746 21.0077 57.7692 26.7008 57.7692 32.5115C57.8868 32.7468 57.6515 33.0997 57.2986 33.0997H57.2869Z" fill="black"/>
<path d="M62.8585 33.1012H57.283C57.0478 33.1012 56.8125 32.8659 56.8125 32.6307C56.8125 32.3954 57.0478 32.1602 57.283 32.1602H62.8585C63.0937 32.1602 63.329 32.3954 63.329 32.6307C63.329 32.8659 63.2113 33.1012 62.8585 33.1012Z" fill="black"/>
<path d="M62.8575 33.1006C62.7399 33.1006 62.5046 32.9829 62.5046 32.8653L61.0814 31.0892C60.8461 30.8539 60.9637 30.501 61.199 30.3716C61.4342 30.1364 61.7871 30.254 61.9165 30.4893L63.3398 32.2654C63.575 32.5007 63.4574 32.8535 63.2221 32.9712C63.1045 32.9712 62.9869 33.0888 62.8693 33.0888L62.8575 33.1006Z" fill="black"/>
<path d="M61.4345 34.7574C61.3169 34.7574 61.1992 34.7574 61.0816 34.6397C60.8464 34.4045 60.8464 34.1692 60.964 33.9222L62.3873 32.1461C62.6225 31.9108 62.8578 31.9108 63.093 32.0284C63.3283 32.2637 63.3283 32.4989 63.2106 32.7342L61.7874 34.5103C61.7874 34.628 61.6697 34.7456 61.4345 34.7456V34.7574Z" fill="black"/>
<path d="M32.4978 57.8843C32.2626 57.8843 32.0273 57.6491 32.0273 57.4138C32.0273 57.1786 32.2626 56.9433 32.4978 56.9433C44.0016 56.9433 53.9646 48.7566 56.3288 37.4998C56.3288 37.2646 56.6817 37.0293 56.917 37.0293C57.1522 37.0293 57.3875 37.3822 57.3875 37.6174C56.1994 43.3105 53.1176 48.5331 48.6126 52.203C43.9899 55.7553 38.2968 57.8961 32.4861 57.8961L32.4978 57.8843Z" fill="black"/>
<path d="M32.4978 63.461C32.2626 63.461 32.0273 63.2258 32.0273 62.9905V57.4151C32.0273 57.1798 32.2626 56.9446 32.4978 56.9446C32.7331 56.9446 32.9684 57.1798 32.9684 57.4151V62.9905C32.9684 63.2258 32.7331 63.461 32.4978 63.461Z" fill="black"/>
<path d="M32.5006 63.4586C32.383 63.4586 32.1478 63.3409 32.1478 63.2233C31.9125 62.9881 32.0301 62.6352 32.2654 62.5176L34.0415 61.0943C34.2768 60.859 34.6297 60.9767 34.7473 61.2119C34.9825 61.4472 34.8649 61.8001 34.6297 61.9177L32.8535 63.341C32.7359 63.4586 32.6183 63.4586 32.5006 63.4586Z" fill="black"/>
<path d="M32.5036 63.4608C32.386 63.4608 32.2684 63.4608 32.1507 63.3432L30.3746 61.9199C30.1393 61.6847 30.1393 61.4494 30.257 61.2142C30.4922 60.9789 30.7275 60.9789 30.9745 61.0966L32.7506 62.5198C32.9859 62.7551 32.9859 62.9903 32.8682 63.2256C32.8682 63.3432 32.633 63.4608 32.5154 63.4608H32.5036Z" fill="black"/>
<path d="M27.5135 57.2916C21.7028 56.1036 16.4802 53.0218 12.8103 48.5167C9.12859 44.0117 7.11719 38.3186 7.11719 32.5079C7.11719 32.2726 7.35244 32.0374 7.58769 32.0374C7.82294 32.0374 8.05819 32.2726 8.05819 32.5079C8.05819 44.0117 16.2449 53.9746 27.5135 56.3506C27.7487 56.3506 27.984 56.7035 27.984 56.9387C27.984 57.174 27.8664 57.2916 27.5135 57.2916Z" fill="black"/>
<path d="M7.71784 33.1012H2.14238C1.90713 33.1012 1.67188 32.8659 1.67188 32.6307C1.67188 32.3954 1.90713 32.1602 2.14238 32.1602H7.71784C7.95309 32.1602 8.18834 32.3954 8.18834 32.6307C8.18834 32.8659 7.95309 33.1012 7.71784 33.1012Z" fill="black"/>
<path d="M3.44735 34.7597C3.32972 34.7597 3.09447 34.6421 3.09447 34.5244L1.6712 32.7483C1.43595 32.513 1.55357 32.1602 1.78883 32.0425C2.02408 31.8073 2.37695 31.9249 2.50634 32.1602L3.92962 33.9363C4.16487 34.1716 4.04724 34.5244 3.81199 34.6538C3.69436 34.7715 3.57674 34.7715 3.45911 34.7715L3.44735 34.7597Z" fill="black"/>
<path d="M2.14152 33.1035C2.02389 33.1035 1.90626 33.1035 1.78864 32.9859C1.55339 32.7506 1.55339 32.5154 1.67101 32.2801L3.09428 30.504C3.32954 30.2687 3.56479 30.2687 3.80004 30.3863C4.03529 30.504 4.03529 30.8568 3.91767 31.1039L2.49439 32.88C2.37677 32.9976 2.25914 33.1153 2.14152 33.1153V33.1035Z" fill="black"/>
<path d="M8.1886 28.1278C7.83572 28.0102 7.60047 27.7749 7.7181 27.5397C8.90612 21.8466 11.9879 16.624 16.493 12.9541C20.998 9.27238 26.6911 7.26099 32.5018 7.26099C32.7371 7.26099 32.9724 7.49624 32.9724 7.73149C32.9724 7.96674 32.7371 8.20199 32.5018 8.20199C20.998 8.20199 11.0351 16.3887 8.78849 27.6573C8.67087 28.0102 8.43562 28.1278 8.20036 28.1278H8.1886Z" fill="black"/>
<path d="M32.4978 8.19957C32.2626 8.19957 32.0273 7.96432 32.0273 7.72907V2.15361C32.0273 1.91836 32.2626 1.68311 32.4978 1.68311C32.7331 1.68311 32.9684 1.91836 32.9684 2.15361V7.72907C32.9684 7.96432 32.7331 8.19957 32.4978 8.19957Z" fill="black"/>
<path d="M30.7077 4.04451C30.59 4.04451 30.3548 3.92689 30.3548 3.80926C30.1195 3.57401 30.2372 3.22113 30.4724 3.10351L32.2486 1.68023C32.4838 1.44498 32.8367 1.56261 32.9661 1.79786C33.2013 2.03311 33.0837 2.38599 32.8485 2.50361L31.0723 3.92689C30.9547 4.04451 30.8371 4.04451 30.7194 4.04451H30.7077Z" fill="black"/>
<path d="M34.277 4.04676C34.1594 4.04676 34.0418 4.04677 33.9242 3.92914L32.148 2.50587C31.9128 2.27062 31.9128 2.03536 32.0304 1.80011C32.2656 1.56486 32.5009 1.56486 32.7361 1.68249L34.5123 3.10576C34.7475 3.34101 34.7475 3.57626 34.6299 3.81151C34.5123 3.92914 34.3947 4.04676 34.277 4.04676Z" fill="black"/>
<path d="M32.4996 52.3075C21.5839 52.3075 12.6914 43.415 12.6914 32.4993C12.6914 21.5837 21.5839 12.6912 32.4996 12.6912C43.4153 12.6912 52.3078 21.5837 52.3078 32.4993C52.3078 43.415 43.4153 52.3075 32.4996 52.3075ZM32.4996 13.7733C22.1838 13.7733 13.7618 22.1953 13.7618 32.5111C13.7618 42.8269 22.1838 51.2489 32.4996 51.2489C42.8154 51.2489 51.2374 42.8269 51.2374 32.5111C51.2374 22.1953 42.8154 13.7733 32.4996 13.7733Z" fill="black"/>
<path d="M51.7074 33.1012H13.2791C13.0438 33.1012 12.8086 32.8659 12.8086 32.6307C12.8086 32.3954 13.0438 32.1602 13.2791 32.1602H51.8251C52.0603 32.1602 52.2956 32.3954 52.2956 32.6307C52.2956 32.8659 52.0603 33.1012 51.7074 33.1012Z" fill="black"/>
<path d="M32.4978 52.3051C32.2626 52.3051 32.0273 52.0698 32.0273 51.8346V13.2886C32.0273 13.0534 32.2626 12.8181 32.4978 12.8181C32.7331 12.8181 32.9684 13.0534 32.9684 13.2886V51.8346C32.9684 52.0698 32.7331 52.3051 32.4978 52.3051Z" fill="black"/>
<path d="M32.4972 24.092C27.2746 24.092 22.0638 23.2568 16.8412 21.4807C16.6059 21.363 16.3707 21.1278 16.4883 20.7749C16.6059 20.5397 16.8412 20.3044 17.2058 20.422C27.404 23.8567 37.6021 23.8567 47.6827 20.422C47.9179 20.3044 48.2708 20.422 48.3884 20.7749C48.5061 21.0102 48.3884 21.363 48.0355 21.4807C42.9306 23.2568 37.7198 24.092 32.4972 24.092Z" fill="black"/>
<path d="M47.9107 44.487H47.7931C37.7126 41.0523 27.5144 41.0523 17.3163 44.487C17.081 44.6046 16.7281 44.487 16.6105 44.1341C16.4929 43.8989 16.6105 43.546 16.9634 43.4284C27.3968 39.8761 37.842 39.8761 48.1577 43.4284C48.393 43.546 48.6283 43.7813 48.5106 44.1341C48.393 44.3694 48.1577 44.487 47.9225 44.487H47.9107Z" fill="black"/>
<path d="M32.5037 52.3075C29.6572 52.3075 27.0459 50.1785 25.0345 46.3792C23.1407 42.6975 22.0703 37.7219 22.0703 32.4993C22.0703 27.2768 23.1407 22.3012 25.0345 18.6195C27.0459 14.8202 29.6572 12.6912 32.5037 12.6912C35.3503 12.6912 37.9616 14.8319 39.973 18.6195C41.8667 22.3012 42.9371 27.2768 42.9371 32.4993C42.9371 37.7219 41.8667 42.6975 39.973 46.3792C37.9616 50.1785 35.3503 52.3075 32.5037 52.3075ZM32.5037 13.7733C30.0101 13.7733 27.7634 15.6671 25.9872 19.1135C24.2111 22.6658 23.1407 27.4179 23.1407 32.5111C23.1407 37.6043 24.2111 42.3564 25.9872 45.9087C27.7634 49.3433 30.1394 51.2489 32.5037 51.2489C34.9974 51.2489 37.244 49.3551 39.0202 45.9087C40.7963 42.3564 41.8667 37.6043 41.8667 32.5111C41.8667 27.4179 40.7963 22.6658 39.0202 19.1135C37.244 15.6789 34.9856 13.7733 32.5037 13.7733Z" fill="black"/>
</svg>
